<?xml version="1.0" standalone="no"?>
<!DOCTYPE svg PUBLIC "-//W3C//DTD SVG 20010904//EN"
 "http://www.w3.org/TR/2001/REC-SVG-20010904/DTD/svg10.dtd">
<svg version="1.0" xmlns="http://www.w3.org/2000/svg"
 width="1220.000000pt" height="1280.000000pt" viewBox="0 0 1220.000000 1280.000000"
 preserveAspectRatio="xMidYMid meet">
<g transform="translate(0.000000,1280.000000) scale(0.100000,-0.100000)"
fill="#fff" stroke="none">
<path d="M6011 12781 c-47 -18 -85 -41 -144 -91 -10 -8 -32 -41 -48 -72 l-29
-57 0 -924 c0 -913 0 -924 21 -966 53 -110 174 -191 284 -191 158 0 283 105
323 273 17 67 17 1697 1 1764 -29 119 -90 201 -183 246 -76 37 -155 43 -225
18z"/>
<path d="M2455 11624 c-65 -17 -171 -99 -200 -154 -27 -53 -45 -115 -45 -160
0 -46 28 -137 52 -170 7 -9 38 -52 68 -95 76 -107 94 -132 518 -713 199 -273
290 -398 359 -497 51 -72 88 -113 125 -138 55 -38 133 -67 181 -67 79 0 202
63 255 130 72 92 88 230 39 328 -15 30 -48 81 -74 115 -72 95 -93 123 -181
247 -46 63 -91 126 -102 140 -39 52 -366 502 -493 680 -174 243 -213 289 -276
323 -42 23 -68 30 -129 32 -42 2 -86 2 -97 -1z"/>
<path d="M9575 11623 c-62 -17 -130 -80 -224 -207 -91 -124 -222 -303 -266
-366 -11 -16 -67 -93 -125 -172 -58 -78 -113 -154 -122 -168 -10 -14 -34 -48
-55 -76 -21 -29 -90 -123 -152 -210 -63 -88 -137 -188 -165 -224 -71 -94 -96
-155 -96 -240 0 -39 4 -78 9 -88 5 -9 15 -30 22 -46 8 -16 35 -53 61 -81 104
-115 265 -134 400 -50 44 28 74 60 144 158 134 185 431 595 615 847 90 124
172 236 181 250 10 14 43 59 73 100 83 113 115 186 115 264 0 115 -64 221
-170 284 -38 22 -57 27 -135 29 -49 1 -99 -1 -110 -4z"/>
<path d="M5785 9740 c-143 -13 -269 -30 -315 -44 -25 -8 -67 -17 -95 -21 -91
-12 -380 -100 -510 -156 -11 -4 -49 -20 -85 -35 -550 -224 -1118 -694 -1461
-1209 -60 -90 -149 -234 -149 -241 0 -3 -17 -35 -38 -72 -39 -68 -118 -241
-165 -362 -45 -115 -117 -341 -117 -367 0 -9 -4 -30 -9 -47 -24 -77 -33 -116
-42 -181 -5 -38 -14 -99 -20 -135 -43 -286 -43 -654 0 -940 6 -36 15 -96 20
-135 9 -65 18 -104 42 -181 5 -17 9 -38 9 -47 0 -26 72 -251 117 -367 51 -129
76 -187 144 -321 67 -136 91 -176 198 -339 183 -279 473 -590 740 -794 149
-113 188 -140 336 -229 225 -134 447 -235 680 -310 173 -56 218 -67 302 -81
43 -7 87 -17 98 -23 11 -6 52 -14 90 -18 39 -3 95 -10 125 -15 30 -5 143 -14
250 -20 159 -9 231 -8 395 4 257 20 359 32 415 50 25 8 68 17 95 21 102 14
392 104 532 166 24 11 45 19 47 19 16 0 310 149 396 200 517 310 978 790 1245
1295 21 39 43 81 51 95 18 33 71 152 96 215 11 28 26 64 33 80 20 43 54 142
70 200 8 28 20 70 28 95 30 91 56 216 88 415 26 166 32 261 32 495 0 234 -6
329 -32 495 -6 33 -16 98 -23 145 -8 47 -16 90 -20 95 -3 6 -13 46 -22 90 -9
44 -22 96 -30 115 -7 19 -28 80 -45 135 -18 55 -38 114 -46 130 -7 17 -28 66
-45 110 -18 44 -64 141 -102 215 -375 730 -1020 1310 -1783 1603 -130 50 -279
97 -305 97 -9 0 -20 4 -25 9 -6 6 -50 17 -100 26 -49 9 -112 23 -140 31 -51
14 -166 30 -330 44 -108 10 -508 9 -620 0z"/>
<path d="M11825 8596 c-5 -2 -30 -9 -55 -16 -51 -14 -95 -28 -125 -40 -21 -8
-142 -47 -235 -74 -30 -9 -64 -21 -75 -26 -11 -4 -60 -21 -110 -35 -49 -15
-99 -31 -110 -36 -11 -5 -58 -20 -105 -35 -47 -14 -193 -62 -324 -105 -132
-44 -247 -79 -256 -79 -9 0 -20 -4 -25 -8 -6 -5 -64 -26 -130 -47 -179 -58
-246 -112 -285 -232 -30 -92 -27 -136 18 -246 20 -48 99 -122 159 -148 87 -38
162 -31 358 34 94 30 224 72 290 93 66 20 125 41 130 44 6 4 26 11 45 14 19 4
58 16 85 26 44 16 369 122 465 151 19 6 44 14 55 19 37 17 116 40 133 40 10 0
22 4 27 8 6 5 69 28 141 51 159 52 212 88 266 181 36 61 38 70 38 151 0 80 -2
89 -35 145 -64 107 -150 162 -264 170 -36 2 -70 2 -76 0z"/>
<path d="M218 8571 c-120 -47 -209 -170 -212 -291 -2 -99 56 -213 136 -267 43
-29 175 -83 204 -83 8 0 34 -9 56 -20 23 -11 49 -20 57 -20 9 -1 54 -14 101
-31 47 -17 117 -39 155 -50 67 -19 107 -32 150 -49 11 -4 94 -31 185 -60 91
-29 174 -56 185 -60 34 -14 135 -47 260 -85 66 -20 149 -47 185 -60 130 -47
180 -58 259 -53 95 5 157 34 215 99 117 131 113 313 -9 434 -58 58 -87 73
-210 111 -49 15 -94 31 -100 36 -5 4 -17 8 -27 8 -10 0 -26 4 -36 10 -9 5 -44
16 -77 25 -33 9 -82 24 -110 34 -27 11 -88 31 -135 45 -47 15 -94 31 -105 35
-11 5 -60 21 -110 37 -49 15 -175 55 -280 89 -104 34 -264 85 -355 114 -91 29
-175 57 -188 62 -38 15 -144 9 -194 -10z"/>
<path d="M10205 5351 c-69 -18 -161 -94 -193 -159 -25 -50 -46 -145 -39 -173
22 -92 31 -116 56 -153 30 -43 88 -93 131 -113 14 -6 63 -23 110 -37 47 -15
108 -35 135 -46 28 -10 77 -26 110 -35 33 -9 69 -21 80 -26 11 -4 45 -16 75
-25 30 -9 154 -49 275 -89 121 -40 308 -100 415 -135 107 -34 255 -82 329
-106 169 -55 236 -59 326 -15 65 31 121 82 151 136 10 19 22 35 26 35 5 0 8
48 8 108 l0 107 -40 62 c-50 80 -113 125 -220 159 -47 15 -107 35 -135 44 -27
10 -124 41 -215 70 -217 69 -238 75 -285 93 -22 9 -67 23 -100 32 -33 9 -69
21 -80 26 -11 4 -45 16 -75 25 -30 9 -113 36 -185 60 -71 23 -182 59 -245 79
-63 19 -124 39 -135 44 -62 25 -98 33 -170 36 -44 2 -93 1 -110 -4z"/>
<path d="M1680 5294 c-85 -29 -173 -57 -195 -63 -22 -5 -85 -25 -140 -44 -55
-19 -125 -42 -155 -51 -30 -9 -64 -21 -75 -26 -11 -4 -108 -36 -215 -70 -213
-68 -245 -78 -275 -90 -11 -4 -47 -16 -80 -25 -33 -9 -82 -25 -110 -35 -27
-10 -88 -31 -135 -46 -120 -38 -146 -53 -196 -107 -126 -134 -125 -315 1 -443
65 -64 125 -89 220 -89 78 0 116 8 220 45 28 10 158 53 290 95 132 42 262 85
289 96 27 10 54 19 60 19 13 0 161 46 191 60 11 5 108 37 215 71 478 152 479
152 538 204 72 64 115 154 116 241 0 115 -77 234 -187 289 -43 21 -64 25 -136
24 -76 -1 -104 -7 -241 -55z"/>
<path d="M8621 3154 c-62 -17 -92 -34 -144 -83 -41 -38 -87 -117 -87 -150 0
-11 -4 -23 -10 -26 -5 -3 -10 -22 -10 -42 0 -78 40 -163 139 -296 38 -51 148
-202 245 -337 249 -343 314 -433 371 -511 28 -38 106 -146 175 -241 193 -267
225 -292 376 -292 76 -1 97 3 137 23 63 32 134 103 156 154 37 87 45 135 31
180 -25 84 -34 103 -89 180 -31 44 -74 104 -96 135 -22 32 -72 100 -111 152
-68 92 -196 268 -241 333 -33 48 -336 464 -383 527 -23 30 -65 89 -95 130 -62
88 -123 135 -208 161 -72 22 -84 22 -156 3z"/>
<path d="M3423 3139 c-34 -12 -80 -37 -102 -55 -33 -29 -140 -168 -265 -347
-16 -23 -59 -82 -96 -132 -36 -49 -95 -130 -131 -180 -246 -338 -308 -423
-341 -470 -21 -30 -79 -109 -129 -177 -117 -158 -132 -190 -132 -294 -1 -68 3
-89 26 -135 33 -66 73 -110 134 -146 40 -23 61 -28 140 -31 85 -4 98 -2 145
22 29 14 64 36 78 49 30 27 196 248 375 502 17 23 50 70 75 104 25 34 87 119
138 189 51 70 125 172 165 227 363 497 332 443 332 566 0 82 -3 102 -25 144
-74 145 -239 215 -387 164z"/>
<path d="M6015 2303 c-63 -22 -129 -72 -163 -122 -65 -96 -62 -48 -62 -1014 0
-795 2 -883 17 -930 30 -95 84 -156 183 -208 64 -33 176 -34 242 -1 75 38 134
96 168 167 l30 63 0 901 0 900 -25 58 c-46 104 -90 145 -198 184 -60 22 -134
23 -192 2z"/>
</g>
</svg>
