<svg id="animal-kingdom" xmlns="http://www.w3.org/2000/svg" width="31" height="31" viewBox="0 0 31 31">
  <path id="Контур_43861" data-name="Контур 43861" d="M30.828,28.046a5.11,5.11,0,0,0-4.7-3.1H23.613V23.439a9.947,9.947,0,0,0-6.342-9.271,8.1,8.1,0,0,1-5.139-6.726L12.022,6.4l.7-1.946A3.33,3.33,0,0,0,9.581,0H6.6a3.342,3.342,0,0,0-2.08.73L2.406,2.422H.908A.908.908,0,0,0,0,3.33V6.963A2.127,2.127,0,0,0,2.123,9.082a1.517,1.517,0,0,1,1.5,1.37l-.218.591a9.537,9.537,0,0,0,.831,8.3v6.974a2.729,2.729,0,0,0-1.816,2.569v1.211A.908.908,0,0,0,3.33,31H28.88a2.119,2.119,0,0,0,1.948-2.954Zm-26.59.835a.909.909,0,0,1,.908-.908.908.908,0,0,0,.908-.908V19.072a.908.908,0,0,0-.15-.5,7.712,7.712,0,0,1-.793-6.9l.282-.762a.907.907,0,0,0,.056-.315,3.335,3.335,0,0,0-3.322-3.33.308.308,0,0,1-.311-.3V4.238h.908a.908.908,0,0,0,.567-.2L5.656,2.148A1.519,1.519,0,0,1,6.6,1.816H9.581a1.514,1.514,0,0,1,1.426,2.023L10.2,6.09a.3.3,0,0,1-.566.012L8.864,4.2a.908.908,0,0,0-1.683.684l.773,1.9A2.1,2.1,0,0,0,9.963,8.107a2.161,2.161,0,0,0,.418-.051,9.943,9.943,0,0,0,6.232,7.805A8.08,8.08,0,0,1,21.8,23.439V27.67a1.515,1.515,0,0,1-1.514,1.514H12.715v-.908a.909.909,0,0,1,.908-.908h1.816a.908.908,0,0,0,.908-.908,2.728,2.728,0,0,1,2.725-2.725.908.908,0,1,0,0-1.816,4.549,4.549,0,0,0-4.45,3.633h-1A2.728,2.728,0,0,0,10.9,28.275v.908H9.688V16.65a.908.908,0,0,0-1.816,0V29.184H4.238Zm24.895.167a.3.3,0,0,1-.253.136H23.248a3.308,3.308,0,0,0,.365-1.514v-.908h2.512a3.3,3.3,0,0,1,3.033,2A.3.3,0,0,1,29.133,29.047Z" transform="translate(0 0)" fill="#00b870"/>
</svg>
