<svg id="construction" xmlns="http://www.w3.org/2000/svg" width="33.77" height="31" viewBox="0 0 33.77 31">
  <path id="Контур_43851" data-name="Контур 43851" d="M28.823,21a4.955,4.955,0,0,0-4.847,3.957H.989A.989.989,0,0,0,0,25.947V51.011A.989.989,0,0,0,.989,52H28.823a4.952,4.952,0,0,0,4.947-4.947V25.947A4.952,4.952,0,0,0,28.823,21Zm-2.968,4.947a2.968,2.968,0,1,1,5.936,0V43.1a4.937,4.937,0,0,0-5.936,0Zm2.968,24.074H1.979V26.936h21.9V47.053a.989.989,0,1,0,1.979,0,2.968,2.968,0,1,1,2.968,2.968Z" transform="translate(0 -21)" fill="#00b870"/>
  <path id="Контур_43852" data-name="Контур 43852" d="M77.819,141H61.989a.989.989,0,0,0-.989.989v17.149a.989.989,0,0,0,.989.989h15.83a.989.989,0,0,0,.989-.989V141.989A.989.989,0,0,0,77.819,141Zm-4.287,17.149V156.5a.989.989,0,1,0-1.979,0v1.649H62.979v-7.255h3.3V153.2a.989.989,0,0,0,.989.989h1.979a.989.989,0,1,0,0-1.979h-.989v-5.606a.989.989,0,1,0-1.979,0v2.309h-3.3v-5.936H76.83v5.936H74.851v-2.968a.989.989,0,0,0-.989-.989H71.883a.989.989,0,0,0,0,1.979h.989v1.979H71.223a.989.989,0,1,0,0,1.979H76.83v7.255Z" transform="translate(-56.977 -133.085)" fill="#00b870"/>
</svg>
