<svg xmlns="http://www.w3.org/2000/svg" width="5" height="9" viewBox="0 0 5 9">
  <g id="multimedia-option" transform="translate(5) rotate(90)">
    <g id="Сгруппировать_4891" data-name="Сгруппировать 4891">
      <path id="Контур_43865" data-name="Контур 43865" d="M8.856,101.116l-.295-.279a.516.516,0,0,0-.7,0L4.5,104l-3.367-3.167a.5.5,0,0,0-.348-.135.505.505,0,0,0-.348.135l-.295.278a.444.444,0,0,0,0,.655l4.009,3.784a.518.518,0,0,0,.349.149h0a.518.518,0,0,0,.348-.149l4-3.774a.45.45,0,0,0,0-.66Z" transform="translate(0 -100.698)" fill="#0b3158"/>
    </g>
  </g>
</svg>
