<svg id="multimedia-option" xmlns="http://www.w3.org/2000/svg" width="12.713" height="7.509" viewBox="0 0 12.713 7.509">
  <g id="Сгруппировать_4891" data-name="Сгруппировать 4891">
    <path id="Контур_43865" data-name="Контур 43865" d="M12.51,101.326l-.416-.419a.7.7,0,0,0-.984,0l-4.75,4.751L1.6,100.9a.7.7,0,0,0-.984,0l-.417.417a.7.7,0,0,0,0,.983l5.662,5.683a.711.711,0,0,0,.493.223h0a.711.711,0,0,0,.492-.223l5.657-5.667a.7.7,0,0,0,.2-.5A.7.7,0,0,0,12.51,101.326Z" transform="translate(0 -100.698)" fill="#00b870"/>
  </g>
</svg>
