<svg id="multimedia-option" xmlns="http://www.w3.org/2000/svg" width="9.327" height="5.509" viewBox="0 0 9.327 5.509">
  <g id="Сгруппировать_4891" data-name="Сгруппировать 4891">
    <path id="Контур_43865" data-name="Контур 43865" d="M9.178,101.158l-.306-.308a.511.511,0,0,0-.722,0l-3.485,3.485-3.489-3.489a.512.512,0,0,0-.722,0l-.306.306a.511.511,0,0,0,0,.722L4.3,106.043a.521.521,0,0,0,.362.164h0a.521.521,0,0,0,.361-.164l4.15-4.158a.515.515,0,0,0,.149-.364A.51.51,0,0,0,9.178,101.158Z" transform="translate(0 -100.698)" fill="#fff"/>
  </g>
</svg>
