<svg xmlns="http://www.w3.org/2000/svg" width="21.57" height="19.823" viewBox="0 0 21.57 19.823">
  <g id="exchange" transform="translate(0 -14.733)">
    <g id="Сгруппировать_6660" data-name="Сгруппировать 6660" transform="translate(0 14.733)">
      <g id="Сгруппировать_6659" data-name="Сгруппировать 6659" transform="translate(0 0)">
        <path id="Контур_44157" data-name="Контур 44157" d="M20.221,247.234c0,1.887-1.132,2.022-1.348,2.022H2.3l3.566-3.566-.95-.957L.2,249.451a.674.674,0,0,0,0,.95l4.718,4.718.95-.95L2.3,250.6H18.873c.93,0,2.7-.674,2.7-3.37v-2.022H20.221Z" transform="translate(0 -235.297)" fill="#fff"/>
        <path id="Контур_44158" data-name="Контур 44158" d="M1.361,28.626c0-1.887,1.132-2.022,1.348-2.022H19.283l-3.566,3.566.95.95L21.386,26.4a.674.674,0,0,0,0-.95l-4.718-4.718-.957.957,3.572,3.566H2.709c-.93,0-2.7.674-2.7,3.37v2.022H1.361Z" transform="translate(-0.012 -20.733)" fill="#fff"/>
      </g>
    </g>
  </g>
</svg>
