<svg xmlns="http://www.w3.org/2000/svg" width="7.088" height="12" viewBox="0 0 7.088 12">
  <g id="multimedia-option" transform="translate(0 12) rotate(-90)">
    <g id="Сгруппировать_4891" data-name="Сгруппировать 4891">
      <path id="Контур_43865" data-name="Контур 43865" d="M11.808,101.29l-.393-.4a.658.658,0,0,0-.928,0L6,105.379,1.514,100.89a.658.658,0,0,0-.928,0l-.393.393a.657.657,0,0,0,0,.928l5.345,5.364a.671.671,0,0,0,.465.211H6a.67.67,0,0,0,.464-.211l5.34-5.349a.666.666,0,0,0,0-.936Z" transform="translate(0 -100.698)" fill="#fff"/>
    </g>
  </g>
</svg>
