<svg xmlns="http://www.w3.org/2000/svg" width="201" height="213.858" viewBox="0 0 201 213.858">
  <g id="_9999" data-name="9999" transform="translate(-53.33 -36.36)">
    <g id="Background_Complete" transform="translate(53.33 40.495)">
      <g id="Сгруппировать_9061" data-name="Сгруппировать 9061" transform="translate(0 84.365)">
        <path id="Контур_45608" data-name="Контур 45608" d="M53.33,216.263v24.531a8.039,8.039,0,0,0,8.038,8.038h87.954a8.039,8.039,0,0,0,8.038-8.038V220.068l10.947-11.5L61.394,208.23A8.037,8.037,0,0,0,53.33,216.263Z" transform="translate(-53.33 -208.23)" fill="#f5f5f5"/>
        <g id="Сгруппировать_9058" data-name="Сгруппировать 9058" transform="translate(11.251 12.039)">
          <path id="Контур_45609" data-name="Контур 45609" d="M154.988,234.432l-79.808-.371.005-2.451,79.813.371Z" transform="translate(-75.18 -231.61)" fill="#e0e0e0"/>
        </g>
        <g id="Сгруппировать_9059" data-name="Сгруппировать 9059" transform="translate(11.251 20.108)">
          <path id="Контур_45610" data-name="Контур 45610" d="M154.988,250.1l-79.808-.366.005-2.456,79.813.371Z" transform="translate(-75.18 -247.28)" fill="#e0e0e0"/>
        </g>
        <g id="Сгруппировать_9060" data-name="Сгруппировать 9060" transform="translate(59.481 28.188)">
          <rect id="Прямоугольник_6875" data-name="Прямоугольник 6875" width="2.451" height="31.58" transform="translate(0 2.451) rotate(-89.718)" fill="#e0e0e0"/>
        </g>
      </g>
      <g id="Сгруппировать_9065" data-name="Сгруппировать 9065" transform="translate(81.497 169.121)">
        <path id="Контур_45611" data-name="Контур 45611" d="M211.6,380.863v24.531a8.039,8.039,0,0,0,8.038,8.038h87.954a8.039,8.039,0,0,0,8.038-8.038V384.668l10.947-11.5-106.913-.335A8.037,8.037,0,0,0,211.6,380.863Z" transform="translate(-211.6 -372.83)" fill="#f5f5f5"/>
        <g id="Сгруппировать_9062" data-name="Сгруппировать 9062" transform="translate(11.632 11.4)">
          <path id="Контур_45612" data-name="Контур 45612" d="M314,397.792l-79.813-.366.005-2.456,79.813.371Z" transform="translate(-234.19 -394.97)" fill="#e0e0e0"/>
        </g>
        <g id="Сгруппировать_9063" data-name="Сгруппировать 9063" transform="translate(11.632 19.469)">
          <path id="Контур_45613" data-name="Контур 45613" d="M314,413.462,234.19,413.1l.005-2.456,79.813.371Z" transform="translate(-234.19 -410.64)" fill="#e0e0e0"/>
        </g>
        <g id="Сгруппировать_9064" data-name="Сгруппировать 9064" transform="translate(59.863 27.55)">
          <rect id="Прямоугольник_6876" data-name="Прямоугольник 6876" width="2.451" height="31.58" transform="translate(0 2.451) rotate(-89.718)" fill="#e0e0e0"/>
        </g>
      </g>
      <path id="Контур_45614" data-name="Контур 45614" d="M144.63,44.39H196.5a4.648,4.648,0,0,1,4.65,4.65V74.415a4.648,4.648,0,0,1-4.65,4.65H152.483a4.648,4.648,0,0,1-4.65-4.65V47.6Z" transform="translate(-97.618 -44.39)" fill="#f5f5f5"/>
      <g id="Сгруппировать_9069" data-name="Сгруппировать 9069" transform="translate(0.829 19.33)">
        <path id="Контур_45615" data-name="Контур 45615" d="M131.195,87.265v16.266a5.327,5.327,0,0,1-5.329,5.329H67.53a5.327,5.327,0,0,1-5.329-5.329V89.783l-7.26-7.631,70.91-.221A5.338,5.338,0,0,1,131.195,87.265Z" transform="translate(-54.94 -81.93)" fill="#e0e0e0"/>
        <g id="Сгруппировать_9066" data-name="Сгруппировать 9066" transform="translate(15.854 7.992)">
          <path id="Контур_45616" data-name="Контур 45616" d="M85.735,99.319l52.939-.242-.01-1.627L85.73,97.7Z" transform="translate(-85.73 -97.45)" fill="#f5f5f5"/>
        </g>
        <g id="Сгруппировать_9067" data-name="Сгруппировать 9067" transform="translate(15.854 13.347)">
          <path id="Контур_45617" data-name="Контур 45617" d="M85.735,109.719l52.939-.242-.01-1.627-52.934.242Z" transform="translate(-85.73 -107.85)" fill="#f5f5f5"/>
        </g>
        <g id="Сгруппировать_9068" data-name="Сгруппировать 9068" transform="translate(15.856 18.703)">
          <rect id="Прямоугольник_6877" data-name="Прямоугольник 6877" width="20.947" height="1.627" transform="translate(0 0.103) rotate(-0.282)" fill="#f5f5f5"/>
        </g>
      </g>
      <g id="Сгруппировать_9073" data-name="Сгруппировать 9073" transform="translate(111.342 94.772)">
        <path id="Контур_45618" data-name="Контур 45618" d="M345.81,233.775v16.266a5.327,5.327,0,0,1-5.329,5.329H282.15a5.327,5.327,0,0,1-5.329-5.329V236.293l-7.26-7.631,70.91-.221A5.34,5.34,0,0,1,345.81,233.775Z" transform="translate(-269.56 -228.44)" fill="#e0e0e0"/>
        <g id="Сгруппировать_9070" data-name="Сгруппировать 9070" transform="translate(15.849 7.992)">
          <path id="Контур_45619" data-name="Контур 45619" d="M300.345,245.834l52.939-.247-.01-1.627-52.934.247Z" transform="translate(-300.34 -243.96)" fill="#f5f5f5"/>
        </g>
        <g id="Сгруппировать_9071" data-name="Сгруппировать 9071" transform="translate(15.849 13.347)">
          <path id="Контур_45620" data-name="Контур 45620" d="M300.345,256.229l52.939-.242-.01-1.627-52.934.242Z" transform="translate(-300.34 -254.36)" fill="#f5f5f5"/>
        </g>
        <g id="Сгруппировать_9072" data-name="Сгруппировать 9072" transform="translate(15.852 18.704)">
          <rect id="Прямоугольник_6878" data-name="Прямоугольник 6878" width="20.947" height="1.627" transform="translate(0 0.103) rotate(-0.282)" fill="#f5f5f5"/>
        </g>
      </g>
    </g>
    <g id="Device" transform="translate(106.3 36.36)">
      <g id="Сгруппировать_9104" data-name="Сгруппировать 9104" transform="translate(0 29.335)">
        <g id="Сгруппировать_9103" data-name="Сгруппировать 9103">
          <g id="Сгруппировать_9099" data-name="Сгруппировать 9099">
            <g id="Сгруппировать_9098" data-name="Сгруппировать 9098">
              <g id="Сгруппировать_9096" data-name="Сгруппировать 9096">
                <path id="Контур_45633" data-name="Контур 45633" d="M228.567,268.615l-59.474-.273A12.952,12.952,0,0,1,156.2,255.33l.628-149.1a12.954,12.954,0,0,1,13.017-12.9l59.474.273a12.952,12.952,0,0,1,12.894,13.012l-.628,149.1A12.96,12.96,0,0,1,228.567,268.615Z" transform="translate(-156.2 -93.33)" fill="#0b3158"/>
              </g>
              <g id="Сгруппировать_9097" data-name="Сгруппировать 9097" transform="translate(3.96 5.144)">
                <path id="Контур_45634" data-name="Контур 45634" d="M232.967,103.593l-11.529-.051a2.865,2.865,0,0,0-2.811,2.914l-.01,2.091a2.865,2.865,0,0,1-2.811,2.914l-22.476-.1a2.863,2.863,0,0,1-2.786-2.94l.01-2.091a2.866,2.866,0,0,0-2.786-2.94l-4.058-.021-10.092-.046a9.075,9.075,0,0,0-9.114,9.037l-.613,145.533A9.077,9.077,0,0,0,172.922,267l59.355.273a9.072,9.072,0,0,0,9.114-9.037L242,112.707A9.082,9.082,0,0,0,232.967,103.593Z" transform="translate(-163.89 -103.32)" fill="#fafafa"/>
              </g>
            </g>
          </g>
          <g id="Сгруппировать_9100" data-name="Сгруппировать 9100" transform="translate(36.992 154.106)">
            <path id="Контур_45635" data-name="Контур 45635" d="M230.491,393.666a1.24,1.24,0,1,1-1.22-1.056A1.146,1.146,0,0,1,230.491,393.666Z" transform="translate(-228.04 -392.61)" fill="#455a64"/>
          </g>
          <g id="Сгруппировать_9101" data-name="Сгруппировать 9101" transform="translate(40.787 154.127)">
            <path id="Контур_45636" data-name="Контур 45636" d="M237.861,393.706a1.143,1.143,0,0,1-1.231,1.045,1.154,1.154,0,0,1-1.22-1.056,1.24,1.24,0,0,1,2.451.01Z" transform="translate(-235.41 -392.65)" fill="#455a64"/>
          </g>
          <g id="Сгруппировать_9102" data-name="Сгруппировать 9102" transform="translate(44.582 154.142)">
            <path id="Контур_45637" data-name="Контур 45637" d="M245.231,393.736A1.143,1.143,0,0,1,244,394.781a1.154,1.154,0,0,1-1.22-1.056,1.24,1.24,0,0,1,2.451.01Z" transform="translate(-242.78 -392.68)" fill="#455a64"/>
          </g>
        </g>
      </g>
      <path id="Контур_45638" data-name="Контур 45638" d="M199.52,240.1c.968.139,59.309,11.581,59.309,11.581V240.1Z" transform="translate(-177.213 -135.189)" fill="#ebebeb"/>
      <path id="Контур_45639" data-name="Контур 45639" d="M163.87,374.7s63.469-8.98,62.913-8.7-62.913,0-62.913,0Z" transform="translate(-159.92 -196.255)" fill="#ebebeb"/>
      <g id="Сгруппировать_9105" data-name="Сгруппировать 9105" transform="translate(77.522 8.522)">
        <path id="Контур_45640" data-name="Контур 45640" d="M306.884,52.91c.072,0,.134,3.208.134,7.168s-.062,7.168-.134,7.168-.134-3.208-.134-7.168S306.807,52.91,306.884,52.91Z" transform="translate(-306.75 -52.91)" fill="#263238"/>
      </g>
      <g id="Сгруппировать_9106" data-name="Сгруппировать 9106" transform="translate(89.936 25.012)">
        <path id="Контур_45641" data-name="Контур 45641" d="M343.975,84.937c.031.067-2.884,1.416-6.5,3.017s-6.581,2.837-6.612,2.77,2.878-1.416,6.5-3.017S343.944,84.865,343.975,84.937Z" transform="translate(-330.859 -84.934)" fill="#263238"/>
      </g>
      <g id="Сгруппировать_9107" data-name="Сгруппировать 9107" transform="translate(85.929)">
        <path id="Контур_45642" data-name="Контур 45642" d="M339.556,36.36a1.239,1.239,0,0,1-.139.273c-.113.2-.263.448-.443.757-.386.659-.958,1.6-1.679,2.755-1.442,2.312-3.517,5.458-5.865,8.888s-4.449,6.555-5.932,8.836l-1.751,2.709c-.2.3-.355.541-.484.731a1.257,1.257,0,0,1-.185.247,1.242,1.242,0,0,1,.139-.273c.113-.2.263-.448.438-.757.386-.659.958-1.6,1.679-2.755,1.442-2.312,3.517-5.458,5.87-8.888s4.449-6.55,5.927-8.836l1.751-2.708c.2-.3.355-.541.484-.731A2.477,2.477,0,0,1,339.556,36.36Z" transform="translate(-323.078 -36.36)" fill="#263238"/>
      </g>
    </g>
    <g id="Speech_Bubbles" transform="translate(71.646 96.982)">
      <g id="Сгруппировать_9113" data-name="Сгруппировать 9113" transform="translate(52.038 0)">
        <path id="Контур_45643" data-name="Контур 45643" d="M310.591,154.09H194.5a4.542,4.542,0,0,0-4.542,4.542V194.64a4.542,4.542,0,0,0,4.542,4.542h8.651c.7,3.759,1.514,8.507,1.514,8.507l7.827-8.507h98.1a4.542,4.542,0,0,0,4.542-4.542V158.632A4.546,4.546,0,0,0,310.591,154.09Z" transform="translate(-189.96 -154.09)" fill="#8598ab"/>
        <g id="Сгруппировать_9112" data-name="Сгруппировать 9112" transform="translate(11.019 13.867)">
          <g id="Сгруппировать_9108" data-name="Сгруппировать 9108" transform="translate(0 5.53)">
            <path id="Контур_45644" data-name="Контур 45644" d="M273.073,191.894c0,.072-13.815.134-30.854.134s-30.859-.062-30.859-.134,13.815-.134,30.859-.134S273.073,191.822,273.073,191.894Z" transform="translate(-211.36 -191.76)" fill="#f5f5f5"/>
          </g>
          <g id="Сгруппировать_9109" data-name="Сгруппировать 9109">
            <path id="Контур_45645" data-name="Контур 45645" d="M273.073,181.154c0,.072-13.815.134-30.854.134s-30.859-.062-30.859-.134,13.815-.134,30.859-.134S273.073,181.077,273.073,181.154Z" transform="translate(-211.36 -181.02)" fill="#f5f5f5"/>
          </g>
          <g id="Сгруппировать_9110" data-name="Сгруппировать 9110" transform="translate(0 11.009)">
            <path id="Контур_45646" data-name="Контур 45646" d="M273.073,202.534c0,.072-13.815.134-30.854.134s-30.859-.062-30.859-.134,13.815-.134,30.859-.134S273.073,202.457,273.073,202.534Z" transform="translate(-211.36 -202.4)" fill="#f5f5f5"/>
          </g>
          <g id="Сгруппировать_9111" data-name="Сгруппировать 9111" transform="translate(0 16.678)">
            <path id="Контур_45647" data-name="Контур 45647" d="M251.781,213.544c0,.072-9.052.134-20.211.134s-20.211-.062-20.211-.134,9.047-.134,20.211-.134S251.781,213.467,251.781,213.544Z" transform="translate(-211.36 -213.41)" fill="#f5f5f5"/>
          </g>
        </g>
      </g>
      <g id="Сгруппировать_9119" data-name="Сгруппировать 9119" transform="translate(0 64.741)">
        <path id="Контур_45648" data-name="Контур 45648" d="M209.114,279.82H92.077A3.176,3.176,0,0,0,88.9,283v38.1a3.176,3.176,0,0,0,3.177,3.177h85l7.739,8.409s.814-4.727,1.493-8.409h22.8a3.176,3.176,0,0,0,3.177-3.177V283A3.175,3.175,0,0,0,209.114,279.82Z" transform="translate(-88.9 -279.82)" fill="#71b0b0"/>
        <g id="Сгруппировать_9118" data-name="Сгруппировать 9118" transform="translate(53.912 13.975)">
          <g id="Сгруппировать_9114" data-name="Сгруппировать 9114" transform="translate(0 5.535)">
            <path id="Контур_45649" data-name="Контур 45649" d="M255.313,317.844c0,.072-13.815.134-30.854.134s-30.859-.062-30.859-.134,13.815-.134,30.859-.134S255.313,317.767,255.313,317.844Z" transform="translate(-193.6 -317.71)" fill="#f5f5f5"/>
          </g>
          <g id="Сгруппировать_9115" data-name="Сгруппировать 9115">
            <path id="Контур_45650" data-name="Контур 45650" d="M255.313,307.094c0,.072-13.815.134-30.854.134s-30.859-.062-30.859-.134,13.815-.134,30.859-.134S255.313,307.017,255.313,307.094Z" transform="translate(-193.6 -306.96)" fill="#f5f5f5"/>
          </g>
          <g id="Сгруппировать_9116" data-name="Сгруппировать 9116" transform="translate(0 11.009)">
            <path id="Контур_45651" data-name="Контур 45651" d="M255.313,328.474c0,.072-13.815.134-30.854.134s-30.859-.062-30.859-.134,13.815-.134,30.859-.134S255.313,328.4,255.313,328.474Z" transform="translate(-193.6 -328.34)" fill="#f5f5f5"/>
          </g>
          <g id="Сгруппировать_9117" data-name="Сгруппировать 9117" transform="translate(0 16.678)">
            <path id="Контур_45652" data-name="Контур 45652" d="M234.021,339.484c0,.072-9.052.134-20.211.134s-20.211-.062-20.211-.134,9.047-.134,20.211-.134S234.021,339.412,234.021,339.484Z" transform="translate(-193.6 -339.35)" fill="#f5f5f5"/>
          </g>
        </g>
      </g>
    </g>
    <g id="Character_2" transform="translate(198.458 65.687)">
      <g id="Сгруппировать_9175" data-name="Сгруппировать 9175" transform="translate(0)">
        <g id="Сгруппировать_9163" data-name="Сгруппировать 9163">
          <path id="Контур_45653" data-name="Контур 45653" d="M365.136,109.336a4.684,4.684,0,0,0-1.555-3,3.082,3.082,0,0,1-.86-3.28c.314-1.169,1.056-1.081,1.349-1.771a5.278,5.278,0,0,0,.17-1.643,3.418,3.418,0,0,1,4.078-2.9,4.738,4.738,0,0,1,8.738-.906,3.642,3.642,0,0,1,5.309,2.961,2.661,2.661,0,0,1,3.45.52,3.269,3.269,0,0,1,.247,3.6,4.285,4.285,0,0,1-3.095,2.039,6.278,6.278,0,0,1-3.718-.675,12.064,12.064,0,0,1-3.048-2.3" transform="translate(-348.465 -93.314)" fill="#39222f"/>
          <ellipse id="Эллипс_888" data-name="Эллипс 888" cx="22.291" cy="21.771" rx="22.291" ry="21.771" transform="translate(2.799 31.655)" fill="#e0e0e0"/>
          <g id="Сгруппировать_9158" data-name="Сгруппировать 9158" transform="translate(0 5.312)">
            <g id="Сгруппировать_9152" data-name="Сгруппировать 9152" transform="translate(3.417)">
              <path id="Контур_45654" data-name="Контур 45654" d="M416.718,191.138l-2.467-6.328-8.841,5.556,7.878,12.152A20.855,20.855,0,0,0,416.718,191.138Z" transform="translate(-372.661 -143.009)" fill="#eb996e"/>
              <g id="Сгруппировать_9143" data-name="Сгруппировать 9143" transform="translate(10.887)">
                <g id="Сгруппировать_9142" data-name="Сгруппировать 9142">
                  <g id="Сгруппировать_9141" data-name="Сгруппировать 9141" transform="translate(0 0.892)">
                    <g id="Сгруппировать_9138" data-name="Сгруппировать 9138">
                      <g id="Сгруппировать_9133" data-name="Сгруппировать 9133" transform="translate(2.81)">
                        <g id="Сгруппировать_9132" data-name="Сгруппировать 9132">
                          <g id="Сгруппировать_9120" data-name="Сгруппировать 9120">
                            <path id="Контур_45655" data-name="Контур 45655" d="M374.357,138.9h0a5.932,5.932,0,0,0,5.958-5.607c.129-2.621.242-5.144.242-5.144s4.866-.35,5.314-5.108.51-15.751.51-15.751h0a16.884,16.884,0,0,0-16.946.736l-.463.3-.561,24.608A5.931,5.931,0,0,0,374.357,138.9Z" transform="translate(-368.409 -105.361)" fill="#ffbe9d"/>
                          </g>
                          <g id="Сгруппировать_9124" data-name="Сгруппировать 9124" transform="translate(7.639 8.743)">
                            <g id="Сгруппировать_9121" data-name="Сгруппировать 9121" transform="translate(0.177 0.467)">
                              <path id="Контур_45656" data-name="Контур 45656" d="M384.511,123.285a.69.69,0,0,1,.443.875.7.7,0,0,1-.886.438.69.69,0,0,1-.443-.875A.7.7,0,0,1,384.511,123.285Z" transform="translate(-383.589 -123.248)" fill="#263238"/>
                            </g>
                            <g id="Сгруппировать_9123" data-name="Сгруппировать 9123">
                              <g id="Сгруппировать_9122" data-name="Сгруппировать 9122">
                                <path id="Контур_45657" data-name="Контур 45657" d="M385.678,123.092c-.082.077-.53-.309-1.195-.35s-1.164.268-1.231.18c-.036-.041.052-.185.268-.33a1.634,1.634,0,0,1,1.931.139C385.652,122.9,385.719,123.056,385.678,123.092Z" transform="translate(-383.245 -122.341)" fill="#263238"/>
                              </g>
                            </g>
                          </g>
                          <g id="Сгруппировать_9128" data-name="Сгруппировать 9128" transform="translate(14.987 8.755)">
                            <g id="Сгруппировать_9125" data-name="Сгруппировать 9125" transform="translate(0.09 0.455)">
                              <path id="Контур_45658" data-name="Контур 45658" d="M398.611,123.285a.69.69,0,0,1,.443.875.7.7,0,0,1-.886.438.69.69,0,0,1-.443-.875A.7.7,0,0,1,398.611,123.285Z" transform="translate(-397.689 -123.248)" fill="#263238"/>
                            </g>
                            <g id="Сгруппировать_9127" data-name="Сгруппировать 9127">
                              <g id="Сгруппировать_9126" data-name="Сгруппировать 9126">
                                <path id="Контур_45659" data-name="Контур 45659" d="M399.948,123.114c-.082.077-.53-.309-1.195-.35s-1.164.268-1.231.18c-.036-.041.052-.185.268-.33a1.652,1.652,0,0,1,.989-.247,1.613,1.613,0,0,1,.942.386C399.927,122.928,399.989,123.083,399.948,123.114Z" transform="translate(-397.515 -122.364)" fill="#263238"/>
                              </g>
                            </g>
                          </g>
                          <g id="Сгруппировать_9130" data-name="Сгруппировать 9130" transform="translate(12.425 8.917)">
                            <g id="Сгруппировать_9129" data-name="Сгруппировать 9129">
                              <path id="Контур_45660" data-name="Контур 45660" d="M392.54,128.411a3.2,3.2,0,0,1,1.086-.139c.175-.005.314-.031.335-.124a.9.9,0,0,0-.082-.5c-.134-.448-.273-.9-.412-1.375a17.928,17.928,0,0,1-.845-3.594,18.2,18.2,0,0,1,1.21,3.491c.134.479.263.932.386,1.38a1.092,1.092,0,0,1,.036.721.464.464,0,0,1-.319.252,1.243,1.243,0,0,1-.3.015A3.254,3.254,0,0,1,392.54,128.411Z" transform="translate(-392.54 -122.679)" fill="#263238"/>
                            </g>
                          </g>
                          <g id="Сгруппировать_9131" data-name="Сгруппировать 9131" transform="translate(6.04 20.452)">
                            <path id="Контур_45661" data-name="Контур 45661" d="M386.257,147.351a11.272,11.272,0,0,1-6.117-2.271s1.2,3.548,6.03,3.5Z" transform="translate(-380.14 -145.08)" fill="#eb996e"/>
                          </g>
                        </g>
                      </g>
                      <g id="Сгруппировать_9137" data-name="Сгруппировать 9137" transform="translate(0 9.208)">
                        <g id="Сгруппировать_9134" data-name="Сгруппировать 9134">
                          <path id="Контур_45662" data-name="Контур 45662" d="M366.205,123.983a.725.725,0,0,0-.68-.736c-.9-.041-2.374.283-2.559,2.734-.263,3.5,3.156,2.693,3.167,2.6C366.149,128.5,366.19,125.348,366.205,123.983Z" transform="translate(-362.952 -123.244)" fill="#ffbe9d"/>
                        </g>
                        <g id="Сгруппировать_9136" data-name="Сгруппировать 9136" transform="translate(0.949 1.115)">
                          <g id="Сгруппировать_9135" data-name="Сгруппировать 9135">
                            <path id="Контур_45663" data-name="Контур 45663" d="M366.281,128.231c-.015-.01-.067.036-.17.077a.627.627,0,0,1-.458-.026,1.512,1.512,0,0,1-.6-1.406,1.992,1.992,0,0,1,.237-.86.707.707,0,0,1,.5-.433.311.311,0,0,1,.35.2c.041.1.01.17.031.175s.082-.051.062-.2a.413.413,0,0,0-.124-.232.449.449,0,0,0-.335-.113.874.874,0,0,0-.685.494,2.134,2.134,0,0,0-.288.958,1.59,1.59,0,0,0,.783,1.581.663.663,0,0,0,.572-.051C366.266,128.319,366.291,128.242,366.281,128.231Z" transform="translate(-364.796 -125.409)" fill="#eb996e"/>
                          </g>
                        </g>
                      </g>
                    </g>
                    <g id="Сгруппировать_9139" data-name="Сгруппировать 9139" transform="translate(9.713 6.674)">
                      <path id="Контур_45664" data-name="Контур 45664" d="M381.849,119.274c.175.227.783.118,1.576.088.788-.062,1.406-.031,1.55-.278.165-.252-.6-.839-1.617-.752C382.338,118.373,381.653,119.042,381.849,119.274Z" transform="translate(-381.815 -118.323)" fill="#39222f"/>
                    </g>
                    <g id="Сгруппировать_9140" data-name="Сгруппировать 9140" transform="translate(17.449 6.641)">
                      <path id="Контур_45665" data-name="Контур 45665" d="M396.85,119.011c.1.3.675.4,1.318.391s1.22-.118,1.308-.427-.494-.731-1.323-.716S396.752,118.713,396.85,119.011Z" transform="translate(-396.839 -118.259)" fill="#39222f"/>
                    </g>
                  </g>
                  <path id="Контур_45666" data-name="Контур 45666" d="M387.021,107.955a7.911,7.911,0,0,1-6.643-.479c-2.466-1.231-5.335-1.833-5.968-1.334s-.767,3.033-3.208,3.774c0,0,.17,4.845-1.766,4.67s-.726-7.678-.726-7.678l4.727-2.307,5.154-.973,4.861.685,3.759,1.03Z" transform="translate(-365.565 -103.63)" fill="#39222f"/>
                </g>
              </g>
              <g id="Сгруппировать_9151" data-name="Сгруппировать 9151" transform="translate(0 24.129)">
                <g id="Сгруппировать_9147" data-name="Сгруппировать 9147" transform="translate(0 3.591)">
                  <path id="Контур_45667" data-name="Контур 45667" d="M341.81,162.106c5.051-5.2,13.939-4.624,13.939-4.624l7.369,5.273,4.176-4.866a27.164,27.164,0,0,1,8.507,2.631l.283.088-.005.057c3.234,1.756,7.806,5.963,12.168,10.046l-5.216,4.84-5.772,5.123a.168.168,0,0,1,.01.1c-.062.309.8,7.363,1.689,12.719a21.722,21.722,0,0,1-19.4,5.86,56.2,56.2,0,0,1-5.69-1.565A7.918,7.918,0,0,1,348,190.808h0c-.391-4.49-.7-10.051-.7-10.051" transform="translate(-341.81 -157.464)" fill="#36c28b"/>
                  <g id="Сгруппировать_9144" data-name="Сгруппировать 9144" transform="translate(30.1 1.332)">
                    <path id="Контур_45668" data-name="Контур 45668" d="M400.268,160.05a6.157,6.157,0,0,1,.319.829c.191.541.448,1.323.752,2.3.608,1.946,1.385,4.66,2.116,7.688s1.277,5.8,1.627,7.806c.175,1,.3,1.823.381,2.384a6.764,6.764,0,0,1,.1.881,5.345,5.345,0,0,1-.2-.865c-.118-.6-.273-1.4-.463-2.369-.4-2-.973-4.758-1.7-7.78s-1.473-5.736-2.034-7.7c-.273-.947-.5-1.73-.669-2.322A5.5,5.5,0,0,1,400.268,160.05Z" transform="translate(-400.266 -160.05)" fill="#018e57"/>
                  </g>
                  <g id="Сгруппировать_9145" data-name="Сгруппировать 9145" transform="translate(34.844 11.737)">
                    <path id="Контур_45669" data-name="Контур 45669" d="M409.479,188.415c-.046-.057,2.158-1.931,4.918-4.181s5.041-4.032,5.087-3.975-2.158,1.931-4.918,4.181S409.531,188.472,409.479,188.415Z" transform="translate(-409.479 -180.257)" fill="#263238"/>
                  </g>
                  <path id="Контур_45670" data-name="Контур 45670" d="M350.5,180.32l-4.521,14.866,1.684.875,1.658-4.207C349.322,191.859,351.021,183.023,350.5,180.32Z" transform="translate(-343.833 -168.551)" opacity="0.2"/>
                  <g id="Сгруппировать_9146" data-name="Сгруппировать 9146" transform="translate(23.187 0.353)" opacity="0.2">
                    <path id="Контур_45671" data-name="Контур 45671" d="M393.266,159.139c2.436,1.282-3.671,4.377-6.426,4.294l2-5.283A26.991,26.991,0,0,1,393.266,159.139Z" transform="translate(-386.84 -158.15)"/>
                  </g>
                </g>
                <path id="Контур_45672" data-name="Контур 45672" d="M367.47,154.429V150.49s7.688,1.977,7.971,6.581c0,0,.978-5.087,4.938-5.329l.561,7.152-4.609,4.011h-4.676l-3.7-3.193-.484-4.969" transform="translate(-354.257 -150.49)" fill="#36c28b"/>
                <g id="Сгруппировать_9148" data-name="Сгруппировать 9148" transform="translate(21.135 7.281)">
                  <path id="Контур_45673" data-name="Контур 45673" d="M384.634,186a5.156,5.156,0,0,1-.015-.844c.01-.546.021-1.334.026-2.3.005-1.946-.057-4.629-.3-7.585s-.628-5.618-.958-7.533c-.165-.922-.3-1.689-.4-2.266a5.892,5.892,0,0,1-.129-.839,4.81,4.81,0,0,1,.227.814c.134.53.3,1.3.489,2.255a70.583,70.583,0,0,1,1.262,15.154c-.026.973-.067,1.761-.108,2.307A6.385,6.385,0,0,1,384.634,186Z" transform="translate(-382.854 -164.63)" fill="#018e57"/>
                </g>
                <g id="Сгруппировать_9149" data-name="Сгруппировать 9149" transform="translate(12.93 3.192)">
                  <path id="Контур_45674" data-name="Контур 45674" d="M374.819,158.755a.907.907,0,0,0-.458.041c-.294.093-.556.458-.772.983a22.181,22.181,0,0,0-1.462,4.253l-.041.175-.155-.093c-.458-.278-.932-.577-1.406-.9a27.126,27.126,0,0,1-2.492-1.895,3.121,3.121,0,0,1-.85-1.112,3.372,3.372,0,0,1-.257-1.189,6.917,6.917,0,0,1,.17-1.72,2.347,2.347,0,0,1,.17-.608,2.962,2.962,0,0,1-.067.628,8.011,8.011,0,0,0-.082,1.694,3.351,3.351,0,0,0,.273,1.107,2.924,2.924,0,0,0,.808,1.014c.726.608,1.571,1.241,2.482,1.859.469.319.937.618,1.39.9l-.2.082a19.276,19.276,0,0,1,1.565-4.269,3.4,3.4,0,0,1,.407-.664,1.046,1.046,0,0,1,.489-.335C374.66,158.621,374.829,158.75,374.819,158.755Z" transform="translate(-366.921 -156.69)" fill="#018e57"/>
                </g>
                <g id="Сгруппировать_9150" data-name="Сгруппировать 9150" transform="translate(21.769 1.251)">
                  <path id="Контур_45675" data-name="Контур 45675" d="M388.44,152.92a2.712,2.712,0,0,1,.072.613c.031.453.072,1.014.124,1.674.057.705.144,1.545.288,2.466a4.126,4.126,0,0,1,.093,1.509,2.589,2.589,0,0,1-1.009,1.292,11.037,11.037,0,0,0-1.694,1.287l-.206.232-.021-.309a9.181,9.181,0,0,0-1.138-3.836c-.489-.875-.891-1.329-.86-1.354.01-.01.118.093.3.3a7.119,7.119,0,0,1,.7.968,8.74,8.74,0,0,1,1.251,3.9l-.227-.077a10.574,10.574,0,0,1,1.725-1.329,2.4,2.4,0,0,0,.917-1.143,4.1,4.1,0,0,0-.082-1.411c-.134-.932-.2-1.782-.232-2.492s-.041-1.287-.036-1.684A2.512,2.512,0,0,1,388.44,152.92Z" transform="translate(-384.087 -152.92)" fill="#018e57"/>
                </g>
              </g>
            </g>
            <g id="Сгруппировать_9157" data-name="Сгруппировать 9157" transform="translate(0 26.369)">
              <g id="Сгруппировать_9154" data-name="Сгруппировать 9154" transform="translate(2.754)">
                <path id="Контур_45676" data-name="Контур 45676" d="M429.652,154.84c-.314.371-11.632,15.5-11.632,15.5l1.6.9L431.233,156.3Z" transform="translate(-378.114 -154.84)" fill="#263238"/>
                <path id="Контур_45677" data-name="Контур 45677" d="M346.576,173.531s11.91,17.142,12.626,17.482c1.416.664,17.708-13.419,19.263-14.763.216-.288.654-.891,1.524-2.091,0,0,1.287-5.88,2.657-5.432s-.752,2.992.144,5.226,4.984-3.095,5.149-3.574L389,169a17.99,17.99,0,0,1,1.03,4.449c-.242,4.2-4.212,9.186-4.212,9.186s-17.832,22.09-30.046,22.775c-3.517.2-9.768-9.784-13.949-17.271a10.239,10.239,0,0,1,2.92-13.264Z" transform="translate(-340.522 -161.564)" fill="#ffbe9d"/>
                <g id="Сгруппировать_9153" data-name="Сгруппировать 9153" transform="translate(47.498 9.521)">
                  <path id="Контур_45678" data-name="Контур 45678" d="M432.767,176.435a260.049,260.049,0,0,1,1.534-3.105,9.726,9.726,0,0,1-1.534,3.105Z" transform="translate(-432.764 -173.329)" fill="#eb996e"/>
                </g>
              </g>
              <g id="Сгруппировать_9156" data-name="Сгруппировать 9156" transform="translate(0 3.599)">
                <path id="Контур_45679" data-name="Контур 45679" d="M341.969,161.83s-12.786,4.547-3.28,26.04l14.758-8.908-2.1-5.026Z" transform="translate(-335.174 -161.83)" fill="#36c28b"/>
                <g id="Сгруппировать_9155" data-name="Сгруппировать 9155" transform="translate(3.52 0.357)">
                  <path id="Контур_45680" data-name="Контур 45680" d="M344.306,162.542a4.43,4.43,0,0,1,1.54.129,6.363,6.363,0,0,1,1.679.705,9,9,0,0,1,1.864,1.529,22.3,22.3,0,0,1,3.471,5.185c1.081,2.091,2.091,4.47,3.126,6.972.309.752.618,1.488.906,2.188l.046.113-.1.057c-4.269,2.327-7.986,4.506-10.618,6.138-1.313.814-2.364,1.483-3.079,1.946-.345.221-.618.4-.829.53a1.487,1.487,0,0,1-.3.17,1.666,1.666,0,0,1,.268-.211c.18-.134.448-.33.8-.572.7-.489,1.735-1.184,3.038-2.018,2.606-1.674,6.313-3.883,10.582-6.22l-.057.17c-.288-.7-.6-1.437-.906-2.188-1.035-2.5-2.034-4.876-3.1-6.962a22.812,22.812,0,0,0-3.388-5.17,9.1,9.1,0,0,0-1.8-1.529,6.594,6.594,0,0,0-1.622-.736A9.156,9.156,0,0,0,344.306,162.542Z" transform="translate(-342.01 -162.523)" fill="#018e57"/>
                </g>
              </g>
            </g>
          </g>
          <g id="Сгруппировать_9159" data-name="Сгруппировать 9159" transform="translate(22.984 3.783)">
            <path id="Контур_45681" data-name="Контур 45681" d="M390.139,100.66a.737.737,0,0,1,.062.227,2.714,2.714,0,0,1,.036.669,3.523,3.523,0,0,1-.973,2.23,3.483,3.483,0,0,1-3.44.87,3.027,3.027,0,0,1-1.761-1.277,1.812,1.812,0,0,1-.263-1.164,1.5,1.5,0,0,1,.633-1.061,1.291,1.291,0,0,1,1.236-.077,1.569,1.569,0,0,1,.844.85,2.254,2.254,0,0,1-.34,2.142,2.692,2.692,0,0,1-3.378.736,5.785,5.785,0,0,0-1.272-.489,1.629,1.629,0,0,0-.983.1,4.552,4.552,0,0,0-.731.484.881.881,0,0,1,.149-.175,1.341,1.341,0,0,1,.211-.191,1.586,1.586,0,0,1,.33-.211,1.66,1.66,0,0,1,1.056-.154,5.663,5.663,0,0,1,1.323.463,3.916,3.916,0,0,0,.741.247,2.254,2.254,0,0,0,.829-.015,2.431,2.431,0,0,0,1.529-.937,2.019,2.019,0,0,0,.294-1.895,1.22,1.22,0,0,0-1.694-.649,1.252,1.252,0,0,0-.515.875,1.51,1.51,0,0,0,.227.994,2.8,2.8,0,0,0,1.607,1.174,3.286,3.286,0,0,0,3.239-.767,3.473,3.473,0,0,0,1-2.106A8.019,8.019,0,0,0,390.139,100.66Z" transform="translate(-379.809 -100.66)" fill="#53414b"/>
          </g>
          <g id="Сгруппировать_9160" data-name="Сгруппировать 9160" transform="translate(28 21.927)">
            <path id="Контур_45682" data-name="Контур 45682" d="M392.079,137.17c.005.031-.16.1-.443.113a2.231,2.231,0,0,1-1.071-.247,2.264,2.264,0,0,1-.834-.716c-.16-.237-.2-.407-.17-.422a6.05,6.05,0,0,0,1.128.9A5.912,5.912,0,0,0,392.079,137.17Z" transform="translate(-389.552 -135.896)" fill="#263238"/>
          </g>
          <g id="Сгруппировать_9161" data-name="Сгруппировать 9161" transform="translate(15.342 20.05)">
            <path id="Контур_45683" data-name="Контур 45683" d="M366.653,133.126c.026-.021.17.227-.021.582a.869.869,0,0,1-.525.417.879.879,0,0,1-.8-.211.967.967,0,0,1-.34-.747,1.039,1.039,0,0,1,.237-.618c.247-.288.5-.319.5-.288.021.036-.18.129-.35.4a.8.8,0,0,0,.124,1.05.678.678,0,0,0,.566.17.709.709,0,0,0,.422-.278C366.664,133.358,366.612,133.131,366.653,133.126Z" transform="translate(-364.969 -132.251)" fill="#263238"/>
          </g>
          <g id="Сгруппировать_9162" data-name="Сгруппировать 9162" transform="translate(30.574 5.518)">
            <path id="Контур_45684" data-name="Контур 45684" d="M398.139,104.03a1.673,1.673,0,0,1,.247.947,3.247,3.247,0,0,1-.762,2.23,3.2,3.2,0,0,1-2.1,1.071,1.685,1.685,0,0,1-.973-.113c.005-.046.376.021.948-.077a3.182,3.182,0,0,0,2.7-3.11C398.211,104.4,398.093,104.04,398.139,104.03Z" transform="translate(-394.55 -104.03)" fill="#53414b"/>
          </g>
        </g>
      </g>
    </g>
    <g id="Character_1" transform="translate(68.222 130.059)">
      <g id="Сгруппировать_9231" data-name="Сгруппировать 9231" transform="translate(0)">
        <ellipse id="Эллипс_889" data-name="Эллипс 889" cx="22.291" cy="21.266" rx="22.291" ry="21.266" transform="translate(9.14 31.885)" fill="#e0e0e0"/>
        <g id="Сгруппировать_9208" data-name="Сгруппировать 9208" transform="translate(16.742)">
          <path id="Контур_45696" data-name="Контур 45696" d="M124.91,221.98c-3.538.185-4.923,3.872-5.35,4.7a7.149,7.149,0,0,0-.566,2.7,5.82,5.82,0,0,1-.68,2.662c-.778,1.241-2.415,1.885-2.858,3.28-.5,1.581.788,3.27.443,4.892-.185.87-.819,1.586-1.045,2.446a3.586,3.586,0,0,0,.479,2.672,7.014,7.014,0,0,0,5.875,3.079,20.663,20.663,0,0,0,6.771-1.292" transform="translate(-114.763 -220.1)" fill="#39222f"/>
          <path id="Контур_45697" data-name="Контур 45697" d="M161.688,230.88a2.195,2.195,0,0,0,.525,2.276,14.068,14.068,0,0,0,1.916,1.56,3.13,3.13,0,0,1,1.308,2.018c.067.752-.309,1.5-.206,2.25.263,1.926,3.337,2.508,3.5,4.444.108,1.292-1.215,2.477-.85,3.718a5.89,5.89,0,0,0,.767,1.272,3.776,3.776,0,0,1-.983,4.567,7.529,7.529,0,0,1-4.712,1.6c-1.421.062-3.033-.17-3.872-1.318-.767-1.05-.608-2.487-.453-3.78a131.785,131.785,0,0,0,.469-18.208" transform="translate(-135.979 -224.417)" fill="#39222f"/>
          <g id="Сгруппировать_9199" data-name="Сгруппировать 9199" transform="translate(5.922 1.45)">
            <g id="Сгруппировать_9198" data-name="Сгруппировать 9198">
              <g id="Сгруппировать_9197" data-name="Сгруппировать 9197">
                <g id="Сгруппировать_9191" data-name="Сгруппировать 9191" transform="translate(0.056 3.093)">
                  <g id="Сгруппировать_9176" data-name="Сгруппировать 9176">
                    <path id="Контур_45698" data-name="Контур 45698" d="M131.474,256.995c.026-3.172-.005-6.509-.005-6.509s-4.078-.726-4.861-6.066c-.747-5.093.52-16.04.52-16.04h0c5.906-2.327,12.554-1.426,16.689,3.326h0l-.644,25.746a5.523,5.523,0,0,1-5.9,5.2h0A5.835,5.835,0,0,1,131.474,256.995Z" transform="translate(-126.372 -227.15)" fill="#ffbe9d"/>
                  </g>
                  <g id="Сгруппировать_9180" data-name="Сгруппировать 9180" transform="translate(0.761 8.409)">
                    <g id="Сгруппировать_9177" data-name="Сгруппировать 9177" transform="translate(1.107 0.622)">
                      <path id="Контур_45699" data-name="Контур 45699" d="M130,245.3a.679.679,0,0,0,.649.7.651.651,0,0,0,.711-.608.679.679,0,0,0-.649-.7A.654.654,0,0,0,130,245.3Z" transform="translate(-129.999 -244.688)" fill="#263238"/>
                    </g>
                    <g id="Сгруппировать_9179" data-name="Сгруппировать 9179">
                      <g id="Сгруппировать_9178" data-name="Сгруппировать 9178">
                        <path id="Контур_45700" data-name="Контур 45700" d="M127.86,244.185c.082.093.608-.288,1.339-.278,1.385.2,1.359.412,1.349.294.041-.041-.046-.2-.278-.376a1.846,1.846,0,0,0-1.081-.345,1.8,1.8,0,0,0-1.071.33C127.9,243.985,127.819,244.144,127.86,244.185Z" transform="translate(-127.849 -243.48)" fill="#39222f"/>
                      </g>
                    </g>
                  </g>
                  <g id="Сгруппировать_9184" data-name="Сгруппировать 9184" transform="translate(8.428 8.661)">
                    <g id="Сгруппировать_9181" data-name="Сгруппировать 9181" transform="translate(0.968 0.591)">
                      <path id="Контур_45701" data-name="Контур 45701" d="M144.619,245.726a.679.679,0,0,0,.649.7.651.651,0,0,0,.711-.608.679.679,0,0,0-.649-.7A.651.651,0,0,0,144.619,245.726Z" transform="translate(-144.619 -245.117)" fill="#263238"/>
                    </g>
                    <g id="Сгруппировать_9183" data-name="Сгруппировать 9183">
                      <g id="Сгруппировать_9182" data-name="Сгруппировать 9182">
                        <path id="Контур_45702" data-name="Контур 45702" d="M142.75,244.675c.082.093.608-.288,1.339-.278s1.272.386,1.349.294c.041-.041-.046-.2-.278-.376a1.846,1.846,0,0,0-1.081-.345,1.8,1.8,0,0,0-1.071.33C142.786,244.475,142.709,244.634,142.75,244.675Z" transform="translate(-142.739 -243.97)" fill="#39222f"/>
                      </g>
                    </g>
                  </g>
                  <g id="Сгруппировать_9186" data-name="Сгруппировать 9186" transform="translate(3.839 8.516)">
                    <g id="Сгруппировать_9185" data-name="Сгруппировать 9185">
                      <path id="Контур_45703" data-name="Контур 45703" d="M135.693,249.817a5.1,5.1,0,0,0-1.189-.232c-.185-.021-.366-.062-.4-.191a.943.943,0,0,1,.134-.556q.27-.68.572-1.421a25.466,25.466,0,0,0,1.292-3.728,24.419,24.419,0,0,0-1.586,3.615c-.191.5-.376.978-.551,1.431a1.094,1.094,0,0,0-.108.736.489.489,0,0,0,.3.278,1.289,1.289,0,0,0,.319.046A4.817,4.817,0,0,0,135.693,249.817Z" transform="translate(-133.827 -243.689)" fill="#263238"/>
                    </g>
                  </g>
                  <g id="Сгруппировать_9187" data-name="Сгруппировать 9187" transform="translate(5.096 21.513)">
                    <path id="Контур_45704" data-name="Контур 45704" d="M136.27,270.753a13.539,13.539,0,0,0,7.157-1.823s-1.771,3.641-7.1,3.079Z" transform="translate(-136.27 -268.93)" fill="#eb996e"/>
                  </g>
                  <g id="Сгруппировать_9188" data-name="Сгруппировать 9188" transform="translate(5.924 15.927)">
                    <path id="Контур_45705" data-name="Контур 45705" d="M137.95,258.57a1.327,1.327,0,0,1,1.195-.479,1.2,1.2,0,0,1,.829.458.762.762,0,0,1,.046.875.89.89,0,0,1-.968.232,2.78,2.78,0,0,1-.932-.572.839.839,0,0,1-.206-.221.249.249,0,0,1,.005-.273" transform="translate(-137.876 -258.081)" fill="#eb996e"/>
                  </g>
                  <g id="Сгруппировать_9190" data-name="Сгруппировать 9190" transform="translate(5.503 15.175)">
                    <g id="Сгруппировать_9189" data-name="Сгруппировать 9189">
                      <path id="Контур_45706" data-name="Контур 45706" d="M139.423,256.62c-.118-.01-.129.788-.819,1.349s-1.54.463-1.545.572c-.01.051.185.16.546.17a1.99,1.99,0,0,0,1.287-.432,1.731,1.731,0,0,0,.639-1.133C139.562,256.816,139.475,256.615,139.423,256.62Z" transform="translate(-137.059 -256.62)" fill="#263238"/>
                    </g>
                  </g>
                </g>
                <g id="Сгруппировать_9192" data-name="Сгруппировать 9192">
                  <path id="Контур_45707" data-name="Контур 45707" d="M141.452,224.994c-1.952,2.781-7.111,5.638-10.808,6.3.433-.566,2.7-1.967,3.136-2.533-1.673,1.251-4.073,2.925-6.3,3.038a1.31,1.31,0,0,1-.762-.118,1.028,1.028,0,0,1-.386-.839,22.287,22.287,0,0,1,.154-4.83,5.351,5.351,0,0,1,1.921-3.445,9.208,9.208,0,0,1,5.381-1.416,12.119,12.119,0,0,1,4.742.639,4.451,4.451,0,0,1,2.945,3.11" transform="translate(-126.264 -221.144)" fill="#39222f"/>
                </g>
                <g id="Сгруппировать_9193" data-name="Сгруппировать 9193" transform="translate(10.657 0.615)">
                  <path id="Контур_45708" data-name="Контур 45708" d="M157.084,238.029a29.551,29.551,0,0,0,.53-3.563c.16-2.75-.639-12.9-10.118-12.08l-.381,2.889s-1.468,9.881,4.665,9.959a11.028,11.028,0,0,0,3.115,5.808c.005-.005,1.612-.051,2.188-3.012" transform="translate(-146.961 -222.339)" fill="#39222f"/>
                </g>
                <g id="Сгруппировать_9194" data-name="Сгруппировать 9194" transform="translate(15.219 13.444)">
                  <path id="Контур_45709" data-name="Контур 45709" d="M156.083,247.313a3.182,3.182,0,0,1,1.715.129,2.2,2.2,0,0,1,1.241,1.153,2.32,2.32,0,0,1-.005,1.7,3.893,3.893,0,0,1-.989,1.421,2.653,2.653,0,0,1-1.04.675,1.274,1.274,0,0,1-1.184-.2" transform="translate(-155.82 -247.253)" fill="#ffbe9d"/>
                </g>
                <g id="Сгруппировать_9196" data-name="Сгруппировать 9196" transform="translate(15.744 14.24)">
                  <g id="Сгруппировать_9195" data-name="Сгруппировать 9195">
                    <path id="Контур_45710" data-name="Контур 45710" d="M156.85,251.523c-.067.021.18.366.7.232a1.111,1.111,0,0,0,.649-.556,2.47,2.47,0,0,0,.294-.942,1.459,1.459,0,0,0-.232-1,1,1,0,0,0-.741-.453c-.536-.021-.705.35-.644.36.041.046.252-.144.6-.057a.963.963,0,0,1,.582,1.107,1.6,1.6,0,0,1-.618,1.251C157.118,251.626,156.886,251.477,156.85,251.523Z" transform="translate(-156.839 -248.798)" fill="#eb996e"/>
                  </g>
                </g>
              </g>
            </g>
          </g>
          <path id="Контур_45711" data-name="Контур 45711" d="M157.567,222.666a3.227,3.227,0,0,0,4.372-1.148,2.065,2.065,0,0,0,.3-1.545,2.124,2.124,0,0,0-1.591-1.38,3.269,3.269,0,0,0-2.992.716,2.859,2.859,0,0,0-.772,2.935,2.554,2.554,0,0,0,2.461,1.7" transform="translate(-135.128 -218.406)" fill="#39222f"/>
          <path id="Контур_45712" data-name="Контур 45712" d="M157.067,256.44a7.563,7.563,0,0,0-1.473,1.272,2.555,2.555,0,0,0-.639,1.792,4.548,4.548,0,0,1,.118,1.081,3.676,3.676,0,0,1-.747,1.287,3.047,3.047,0,0,0,.484,3.579,4.967,4.967,0,0,0,3.5,1.426,3,3,0,0,0,3.4-3.378" transform="translate(-133.768 -236.815)" fill="#39222f"/>
          <g id="Сгруппировать_9200" data-name="Сгруппировать 9200" transform="translate(18.257 6.385)">
            <path id="Контур_45713" data-name="Контур 45713" d="M155.9,230.729a3.6,3.6,0,0,1-.561.973,11.273,11.273,0,0,1-4.078,3.5,3.509,3.509,0,0,1-1.045.407,24.351,24.351,0,0,0,3.12-2.116A23.834,23.834,0,0,0,155.9,230.729Z" transform="translate(-150.218 -230.727)" fill="#53414b"/>
          </g>
          <g id="Сгруппировать_9201" data-name="Сгруппировать 9201" transform="translate(20.455 6.329)">
            <path id="Контур_45714" data-name="Контур 45714" d="M158.958,230.62a4.136,4.136,0,0,1-.175,1.3,10.565,10.565,0,0,1-1.2,2.93,10.445,10.445,0,0,1-2.024,2.436,4.139,4.139,0,0,1-1.066.762,16.268,16.268,0,0,0,2.863-3.337A15.992,15.992,0,0,0,158.958,230.62Z" transform="translate(-154.487 -230.62)" fill="#53414b"/>
          </g>
          <g id="Сгруппировать_9202" data-name="Сгруппировать 9202" transform="translate(4.304 10.624)">
            <path id="Контур_45715" data-name="Контур 45715" d="M123.162,238.96c.077-.005.18.886.489,1.941s.69,1.864.623,1.9a6.094,6.094,0,0,1-1.112-3.841Z" transform="translate(-123.121 -238.96)" fill="#53414b"/>
          </g>
          <g id="Сгруппировать_9203" data-name="Сгруппировать 9203" transform="translate(24.931 11.735)">
            <path id="Контур_45716" data-name="Контур 45716" d="M165.306,258.225a1.455,1.455,0,0,0,.783.252,1.6,1.6,0,0,0,.906-.288,1.809,1.809,0,0,0,.685-1.04,3.34,3.34,0,0,0,.01-1.55c-.113-.561-.33-1.138-.52-1.766a4.6,4.6,0,0,1-.227-2.075,11.761,11.761,0,0,1,.844-2.044,2.687,2.687,0,0,0-1.565-3.326,9.6,9.6,0,0,1-.886-.386,1.749,1.749,0,0,1-.705-.633,2.958,2.958,0,0,1-.319-1.622,5.544,5.544,0,0,0-.051-1.308,2.177,2.177,0,0,0-.386-.886,1.237,1.237,0,0,0-.7-.427.508.508,0,0,1,.227.015,1.082,1.082,0,0,1,.551.345,2.175,2.175,0,0,1,.453.922,5.538,5.538,0,0,1,.1,1.344,2.818,2.818,0,0,0,.314,1.5,2.854,2.854,0,0,0,1.5.911,2.921,2.921,0,0,1,1.72,3.641,12.423,12.423,0,0,0-.839,2,4.494,4.494,0,0,0,.206,1.962c.18.618.391,1.21.5,1.792a3.464,3.464,0,0,1-.046,1.648,1.973,1.973,0,0,1-.788,1.112,1.7,1.7,0,0,1-.994.268,1.221,1.221,0,0,1-.618-.2A.553.553,0,0,1,165.306,258.225Z" transform="translate(-163.179 -241.119)" fill="#53414b"/>
          </g>
          <g id="Сгруппировать_9204" data-name="Сгруппировать 9204" transform="translate(23.337 19.655)">
            <path id="Контур_45717" data-name="Контур 45717" d="M160.087,265.32c.026-.015.067.165.319.278a.847.847,0,0,0,1-.273,1.576,1.576,0,0,0-.082-1.612,6.766,6.766,0,0,1-1.025-2,1.456,1.456,0,0,1,.288-1.189c.252-.309.546-.52.741-.772a2.262,2.262,0,0,0,.36-1.643,6.789,6.789,0,0,0-.294-1.169,1.323,1.323,0,0,1-.118-.438,1.591,1.591,0,0,1,.216.4,4.976,4.976,0,0,1,.386,1.179,2.389,2.389,0,0,1-.35,1.823c-.221.293-.52.515-.731.783a1.173,1.173,0,0,0-.227.984,7.253,7.253,0,0,0,.978,1.931,1.748,1.748,0,0,1,.015,1.838.916.916,0,0,1-.654.355.929.929,0,0,1-.546-.1C160.077,265.526,160.077,265.315,160.087,265.32Z" transform="translate(-160.084 -256.5)" fill="#53414b"/>
          </g>
          <g id="Сгруппировать_9205" data-name="Сгруппировать 9205" transform="translate(1.625 14.114)">
            <path id="Контур_45718" data-name="Контур 45718" d="M119.449,258.757a2.25,2.25,0,0,1-.417-.417,4.965,4.965,0,0,1-.9-1.354,2.664,2.664,0,0,1-.216-1.123,1.969,1.969,0,0,1,.453-1.246c.319-.371.783-.561,1.061-.906a1.509,1.509,0,0,0,.211-1.323,5.539,5.539,0,0,0-.566-1.359,4.6,4.6,0,0,1-.5-1.349,1.752,1.752,0,0,1,.268-1.3,4.611,4.611,0,0,1,.783-.819,2.35,2.35,0,0,0,.881-1.256,1.563,1.563,0,0,0-.021-.566c.005-.005.041.041.077.134a.929.929,0,0,1,.046.448,2.357,2.357,0,0,1-.855,1.38,4.531,4.531,0,0,0-.726.8,1.555,1.555,0,0,0-.206,1.138,4.521,4.521,0,0,0,.489,1.272,5.69,5.69,0,0,1,.592,1.421,1.768,1.768,0,0,1-.273,1.55c-.35.412-.808.592-1.081.906a1.741,1.741,0,0,0-.417,1.092,2.538,2.538,0,0,0,.17,1.045,5.6,5.6,0,0,0,.8,1.359A2.781,2.781,0,0,1,119.449,258.757Z" transform="translate(-117.918 -245.739)" fill="#53414b"/>
          </g>
          <g id="Сгруппировать_9206" data-name="Сгруппировать 9206" transform="translate(21.718 2.699)">
            <path id="Контур_45719" data-name="Контур 45719" d="M159.849,225.8a8.521,8.521,0,0,0-1.256-1.365,8.681,8.681,0,0,0-1.653-.839,3.071,3.071,0,0,1,2.909,2.2Z" transform="translate(-156.94 -223.569)" fill="#e8505b"/>
          </g>
          <g id="Сгруппировать_9207" data-name="Сгруппировать 9207" transform="translate(24.286)">
            <path id="Контур_45720" data-name="Контур 45720" d="M163.01,218.329c.026-.015.2.185.34.582a2.8,2.8,0,0,1,.046,1.632,2.832,2.832,0,0,1-.875,1.38c-.324.273-.577.355-.592.33s.191-.175.458-.463a3.176,3.176,0,0,0,.752-1.313,3.138,3.138,0,0,0,.031-1.509A3.876,3.876,0,0,1,163.01,218.329Z" transform="translate(-161.927 -218.328)" fill="#53414b"/>
          </g>
        </g>
        <path id="Контур_45721" data-name="Контур 45721" d="M113.25,338.638s12.791,12.147,20.4,9.948,9.856-7.9,9.856-7.9l.185-2.044-.762-.5-29.278-2.369Z" transform="translate(-97.287 -275.297)" opacity="0.3"/>
        <g id="Сгруппировать_9230" data-name="Сгруппировать 9230" transform="translate(0 30.201)">
          <g id="Сгруппировать_9211" data-name="Сгруппировать 9211" transform="translate(7.961 1.203)">
            <path id="Контур_45722" data-name="Контур 45722" d="M98.56,313.278l2.466-6.328,8.841,5.556-7.878,12.152A20.805,20.805,0,0,1,98.56,313.278Z" transform="translate(-98.122 -292.721)" fill="#eb996e"/>
            <g id="Сгруппировать_9210" data-name="Сгруппировать 9210">
              <g id="Сгруппировать_9209" data-name="Сгруппировать 9209">
                <path id="Контур_45723" data-name="Контур 45723" d="M108.122,282.4a31.69,31.69,0,0,1,9.444-2.77h0c1.545,3.095,6.421,3.486,9.372,1.375l2.487-1.684a9.136,9.136,0,0,1,1.04.041,13.288,13.288,0,0,1,11.771,10.587,26.459,26.459,0,0,1,.623,6.689c-.324,5.623-6.148,6.133-6.148,6.133s-.3,5.561-.7,10.051h0a8.388,8.388,0,0,1-5.093,7.266,20.743,20.743,0,0,1-6.493,2,21.8,21.8,0,0,1-19.351-6.7c.886-5.36,1.73-12.3,1.668-12.605a.168.168,0,0,1,.01-.1l-5.772-5.124-3.275-2.75s7.183-10.659,10.412-12.41" transform="translate(-97.71 -279.316)" fill="#f25858"/>
              </g>
            </g>
          </g>
          <g id="Сгруппировать_9225" data-name="Сгруппировать 9225">
            <g id="Сгруппировать_9223" data-name="Сгруппировать 9223">
              <g id="Сгруппировать_9222" data-name="Сгруппировать 9222">
                <path id="Контур_45733" data-name="Контур 45733" d="M83.831,276.98c.314.371,11.632,15.5,11.632,15.5l-1.6.9L82.25,278.442Z" transform="translate(-82.25 -276.98)" fill="#263238"/>
                <path id="Контур_45734" data-name="Контур 45734" d="M131.408,294.5s-10.618,18.311-11.339,18.651c-1.416.664-17.708-13.419-19.263-14.763-.216-.288-.654-.891-1.524-2.091,0,0-1.287-5.88-2.657-5.432s.752,2.992-.144,5.226S91.5,293,91.332,292.52l-1.056-1.38a17.989,17.989,0,0,0-1.03,4.449c.242,4.2,4.212,9.186,4.212,9.186s16.133,20.216,28.352,20.906c3.517.2,10.237-9.933,14.418-17.415,2.523-4.521,1.354-9.114-2.832-12.162Z" transform="translate(-85.642 -283.704)" fill="#ffbe9d"/>
                <g id="Сгруппировать_9221" data-name="Сгруппировать 9221" transform="translate(4.079 9.521)">
                  <path id="Контур_45735" data-name="Контур 45735" d="M91.71,298.575a9.725,9.725,0,0,1-1.534-3.105c.041-.015.35.7.772,1.55S91.746,298.554,91.71,298.575Z" transform="translate(-90.171 -295.47)" fill="#eb996e"/>
                </g>
              </g>
            </g>
            <path id="Контур_45736" data-name="Контур 45736" d="M160.463,288.06c-.417.252-10.293,18.584-10.293,18.584l12.708,9.959a147.542,147.542,0,0,0,5.051-14.768,21.2,21.2,0,0,0-.438-8.455c-.947-2.631-2.379-1.977-4.526-3.517Z" transform="translate(-115.196 -282.355)" fill="#f25858"/>
            <g id="Сгруппировать_9224" data-name="Сгруппировать 9224" transform="translate(34.809 5.179)" opacity="0.7">
              <path id="Контур_45737" data-name="Контур 45737" d="M164.484,287.564c-.005.01-.124-.072-.36-.191a2.147,2.147,0,0,0-1.117-.237,3.074,3.074,0,0,0-1.658.69,8.2,8.2,0,0,0-1.653,1.782c-.536.731-.978,1.627-1.524,2.554-.53.937-1.1,1.931-1.7,2.981-1.2,2.1-2.523,4.4-3.908,6.823-.844,1.468-1.663,2.894-2.436,4.238l-.031-.165c3.445,2.719,6.442,5.087,8.6,6.8,1.045.839,1.89,1.519,2.5,2,.273.227.494.407.659.546a1.418,1.418,0,0,1,.221.2,1.741,1.741,0,0,1-.247-.165c-.175-.129-.4-.3-.69-.51-.618-.469-1.478-1.128-2.544-1.941-2.173-1.689-5.19-4.032-8.656-6.72l-.088-.067.057-.1c.767-1.344,1.586-2.77,2.43-4.238,1.39-2.415,2.714-4.717,3.924-6.812.6-1.045,1.179-2.039,1.72-2.971a28.417,28.417,0,0,1,1.565-2.559,8.211,8.211,0,0,1,1.72-1.792,3.113,3.113,0,0,1,1.746-.675,2.1,2.1,0,0,1,1.148.294,2.005,2.005,0,0,1,.257.17C164.464,287.539,164.489,287.559,164.484,287.564Z" transform="translate(-149.85 -287.038)" fill="#a12e2e"/>
            </g>
          </g>
        </g>
      </g>
    </g>
  </g>
</svg>
