<svg xmlns="http://www.w3.org/2000/svg" width="31" height="31" viewBox="0 0 31 31">
  <g id="transportation" transform="translate(0 0)">
    <path id="Контур_43862" data-name="Контур 43862" d="M27.67,218.052H26.655L26.149,214a.908.908,0,0,0-.9-.8H22.826a.908.908,0,0,0-.812.5l-2.171,4.342H8.567l2.807-4.679a.908.908,0,1,0-1.558-.935l-3.475,5.792-3.867,1.547A3.917,3.917,0,0,0,0,223.432v2.794a.908.908,0,0,0,.908.908H3.134a3.935,3.935,0,0,0,7.657,0h9.417a3.935,3.935,0,0,0,7.657,0h2.226a.908.908,0,0,0,.908-.908v-4.844a3.334,3.334,0,0,0-3.33-3.33Zm-4.282-3.027h1.059l.378,3.027H21.874ZM1.816,223.432a2.109,2.109,0,0,1,1.332-1.968l3.989-1.6h7.454v5.449h-3.8a3.935,3.935,0,0,0-7.657,0H1.816Zm5.146,4.913a2.119,2.119,0,1,1,2.119-2.119A2.122,2.122,0,0,1,6.963,228.345Zm17.074,0a2.119,2.119,0,1,1,2.119-2.119A2.122,2.122,0,0,1,24.037,228.345Zm5.146-3.027H27.866a3.935,3.935,0,0,0-7.657,0h-3.8v-5.449H27.67a1.515,1.515,0,0,1,1.514,1.514Z" transform="translate(0 -199.161)" fill="#00b870"/>
    <path id="Контур_43863" data-name="Контур 43863" d="M149.776,12.449a.908.908,0,0,0,1.284,0l4.86-4.86a4.446,4.446,0,0,0-5.5-6.914,4.446,4.446,0,0,0-5.5,6.913ZM146.2,2.587a2.63,2.63,0,0,1,3.612-.1.908.908,0,0,0,1.211,0A2.63,2.63,0,0,1,154.636,6.3l-4.218,4.218L146.2,6.3a2.628,2.628,0,0,1,0-3.718Z" transform="translate(-134.919 0)" fill="#00b870"/>
  </g>
</svg>
