<svg xmlns="http://www.w3.org/2000/svg" xmlns:xlink="http://www.w3.org/1999/xlink" width="313.081" height="215.153" viewBox="0 0 313.081 215.153">
  <defs>
    <clipPath id="clip-path">
      <path id="Контур_45240" data-name="Контур 45240" d="M355.41,408.473a26.541,26.541,0,0,1,1.832,2.441c.234.505.919,4.112.919,4.112a2.825,2.825,0,0,1-2.036,1.023l-1.2-2.188a20.075,20.075,0,0,1-2.187,4.309c-1.123,1.2-6.668,1.936-7.4,1.405,0,0-.685-2.151,1.141-2.99,3.37-1.553,4.067-5.788,4.067-5.788A2.92,2.92,0,0,1,355.41,408.473Z" transform="translate(-345.21 -407.723)" fill="#018e57"/>
    </clipPath>
    <clipPath id="clip-path-2">
      <path id="Контур_45245" data-name="Контур 45245" d="M338.373,411.877a26.154,26.154,0,0,1,1.286,2.786c.126.549.048,4.216.048,4.216a2.8,2.8,0,0,1-2.2.561l-.721-2.4a19.619,19.619,0,0,1-3.028,3.736c-1.346.931-6.914.45-7.521-.228,0,0-.228-2.25,1.73-2.675,3.616-.783,5.166-4.771,5.166-4.771A2.9,2.9,0,0,1,338.373,411.877Z" transform="translate(-326.23 -410.652)"/>
    </clipPath>
    <clipPath id="clip-path-3">
      <path id="Контур_45336" data-name="Контур 45336" d="M488.111,405.057l-.555,7.964s.253,1.689.241,2.25-.333,2.207-.333,2.207a6.5,6.5,0,0,1-4.062.265l-.21-.191a10.275,10.275,0,0,1-1.812.456c-1.621.339-6.411.327-7.1-.271,0,0-.542-2.4,1.449-2.848,4.993-1.116,5.751-2.429,6.14-3.945.487-1.911,1.1-6.694,1.1-6.694Z" transform="translate(-474.211 -404.25)"/>
    </clipPath>
    <clipPath id="clip-path-5">
      <path id="Контур_45342" data-name="Контур 45342" d="M528.153,405.584v7.983a22.254,22.254,0,0,0-.395,2.231c-.025.561.185,2.225.185,2.225a6.455,6.455,0,0,0,4.032.542l.222-.173a10.479,10.479,0,0,0,1.775.579c1.6.45,6.374.771,7.108.222,0,0,.709-2.355-1.245-2.94-4.9-1.461-5.566-2.817-5.85-4.358-.358-1.936-.641-6.756-.641-6.756Z" transform="translate(-527.757 -405.14)"/>
    </clipPath>
    <clipPath id="clip-path-7">
      <path id="Контур_45388" data-name="Контур 45388" d="M164.949,407.794v8.051a22.476,22.476,0,0,1,.395,2.25c.025.561-.185,2.244-.185,2.244a6.522,6.522,0,0,1-4.068.549l-.228-.173a11.034,11.034,0,0,1-1.788.586c-1.609.456-6.423.777-7.163.222,0,0-.715-2.373,1.258-2.965,4.944-1.473,5.616-2.842,5.9-4.4.358-1.954.647-6.812.647-6.812Z" transform="translate(-151.785 -407.35)"/>
    </clipPath>
    <clipPath id="clip-path-9">
      <path id="Контур_45393" data-name="Контур 45393" d="M205.05,407.261l.555,8.026s-.253,1.7-.24,2.275.339,2.225.339,2.225a6.508,6.508,0,0,0,4.093.265l.216-.191a10.472,10.472,0,0,0,1.825.462c1.634.345,6.46.333,7.163-.271,0,0,.549-2.416-1.461-2.866-5.03-1.128-5.8-2.447-6.189-3.976-.493-1.923-1.116-6.75-1.116-6.75Z" transform="translate(-205.05 -406.46)" fill="#242424"/>
    </clipPath>
    <clipPath id="clip-path-10">
      <path id="Контур_45395" data-name="Контур 45395" d="M205.05,407.261l.555,8.026s-.253,1.7-.24,2.275.339,2.225.339,2.225a6.508,6.508,0,0,0,4.093.265l.216-.191a10.472,10.472,0,0,0,1.825.462c1.634.345,6.46.333,7.163-.271,0,0,.549-2.416-1.461-2.866-5.03-1.128-5.8-2.447-6.189-3.976-.493-1.923-1.116-6.75-1.116-6.75Z" transform="translate(-205.05 -406.46)"/>
    </clipPath>
  </defs>
  <g id="OBJECTS" transform="translate(44 -7)">
    <g id="Сгруппировать_8967" data-name="Сгруппировать 8967" transform="translate(-44 7)">
      <g id="Сгруппировать_8833" data-name="Сгруппировать 8833" transform="translate(0 180.404)">
        <g id="Сгруппировать_8832" data-name="Сгруппировать 8832">
          <g id="Сгруппировать_8831" data-name="Сгруппировать 8831">
            <g id="Сгруппировать_8826" data-name="Сгруппировать 8826" transform="translate(0 17.756)">
              <path id="Контур_45219" data-name="Контур 45219" d="M73.784,405.345a4.718,4.718,0,0,1-.111.777c-.006.031-.012.055-.018.086a4.426,4.426,0,0,1-.277.82c-.185.37-.4.462-.518.2a.849.849,0,0,1-.049-.327,3.8,3.8,0,0,1,.1-.789c.006-.031.012-.055.019-.086a3.6,3.6,0,0,1,.29-.832c.191-.37.432-.444.53-.179A1.751,1.751,0,0,1,73.784,405.345Z" transform="translate(-72.81 -404.853)" fill="#fff"/>
            </g>
            <g id="Сгруппировать_8827" data-name="Сгруппировать 8827" transform="translate(0.818 14.575)">
              <path id="Контур_45220" data-name="Контур 45220" d="M74.139,401.688a4.524,4.524,0,0,1,.173-.869,3.606,3.606,0,0,1,.339-.814c.216-.358.456-.413.536-.142a1.042,1.042,0,0,1,.025.321,5.712,5.712,0,0,1-.179.857,4.34,4.34,0,0,1-.327.807c-.2.358-.431.438-.53.16A.729.729,0,0,1,74.139,401.688Z" transform="translate(-74.137 -399.693)" fill="#fff"/>
            </g>
            <g id="Сгруппировать_8828" data-name="Сгруппировать 8828" transform="translate(1.776 6.361)">
              <path id="Контур_45221" data-name="Контур 45221" d="M75.752,393.4a35.116,35.116,0,0,1,2.725-6.577c.2-.351.45-.536.573-.413.1.1.074.382-.043.672-.456,1.091-.906,2.17-1.362,3.255s-.881,2.176-1.338,3.267c-.16.37-.382.586-.518.475C75.672,393.982,75.659,393.7,75.752,393.4Z" transform="translate(-75.691 -386.368)" fill="#fff"/>
            </g>
            <g id="Сгруппировать_8829" data-name="Сгруппировать 8829" transform="translate(5.92 3.042)">
              <path id="Контур_45222" data-name="Контур 45222" d="M82.418,382.06a1.605,1.605,0,0,1,.185-.505,1.635,1.635,0,0,1,.327-.425c.333-.271.561-.154.512.265v.025a1.66,1.66,0,0,1-.179.5,1.512,1.512,0,0,1-.327.419c-.327.277-.555.166-.518-.253Z" transform="translate(-82.414 -380.983)" fill="#fff"/>
            </g>
            <g id="Сгруппировать_8830" data-name="Сгруппировать 8830" transform="translate(7.675)">
              <path id="Контур_45223" data-name="Контур 45223" d="M85.279,377.066a1.54,1.54,0,0,1,.216-.493,1.688,1.688,0,0,1,.358-.4c.358-.253.573-.1.493.3l-.006.025a1.549,1.549,0,0,1-.216.481,1.783,1.783,0,0,1-.351.4c-.345.253-.567.129-.5-.284Z" transform="translate(-85.26 -376.048)" fill="#fff"/>
            </g>
          </g>
        </g>
      </g>
      <g id="Сгруппировать_8835" data-name="Сгруппировать 8835" transform="translate(141.224 50.37)">
        <g id="Сгруппировать_8834" data-name="Сгруппировать 8834" transform="translate(0)">
          <path id="Контур_45607" data-name="Контур 45607" d="M216.493,426.913c0,1.356-19.159,2.453-42.786,2.453s-42.786-1.1-42.786-2.453,19.159-2.453,42.786-2.453S216.493,425.557,216.493,426.913Z" transform="translate(-51.242 -265.459)" fill="#d2d8dc" opacity="0.3"/>
          <rect id="Прямоугольник_6801" data-name="Прямоугольник 6801" width="98.973" height="64.591" fill="#71b0b0" opacity="0.63"/>
          <rect id="Прямоугольник_6802" data-name="Прямоугольник 6802" width="94.337" height="52.778" transform="translate(2.323 8.959)" fill="#fff"/>
          <rect id="Прямоугольник_6803" data-name="Прямоугольник 6803" width="98.973" height="6.564" fill="#71b0b0"/>
          <path id="Контур_45224" data-name="Контур 45224" d="M338.617,200.447H323.975V190.119h14.642v-.555H323.975V179.236h14.642v-.555H323.975V168.354h14.642V167.8H323.975V157.5h-.55v10.294H307.848V157.5h-.55v10.294H291.721V157.5h-.55v10.294H275.594V157.5h-.55v10.294H259.468V157.5h-.55v10.294H244.29v.555h14.627v10.333H244.29v.555h14.627v10.328H244.29v.555h14.627v10.328H244.29V201h14.627v9.179h.55V201h15.577v9.179h.55V201h15.577v9.179h.55V201H307.3v9.179h.55V201h15.577v9.179h.55V201h14.642Zm-47.451-10.883H275.59V179.236h15.577Zm.55-10.333h15.577v10.328H291.717Zm16.127,10.333V179.236H323.42v10.328Zm0-10.883V168.354H323.42v10.328Zm-.55,0H291.717V168.354h15.577Zm-16.127,0H275.59V168.354h15.577Zm-16.127,0H259.463V168.354h15.577Zm0,.55v10.328H259.463V179.232Zm0,10.883v10.328H259.463V190.114Zm.55,0h15.577v10.328H275.59Zm16.127,0h15.577v10.328H291.717Zm16.127,0H323.42v10.328H307.844Z" transform="translate(-241.963 -148.541)" fill="#e2e2e2"/>
        </g>
        <rect id="Прямоугольник_6804" data-name="Прямоугольник 6804" width="5.122" height="7.762" transform="translate(33.891 20.784) rotate(-9.207)" fill="#ffbe57"/>
        <rect id="Прямоугольник_6805" data-name="Прямоугольник 6805" width="5.122" height="7.762" transform="translate(26.443 31.156) rotate(8.077)" fill="#ff8976"/>
        <rect id="Прямоугольник_6806" data-name="Прямоугольник 6806" width="5.122" height="7.762" transform="translate(27.377 31.641) rotate(4.008)" fill="#71bf9d"/>
      </g>
      <g id="Сгруппировать_8871" data-name="Сгруппировать 8871" transform="translate(270.855 43.161)">
        <path id="Контур_45236" data-name="Контур 45236" d="M337.791,162.734c-1.748-5.462-4.9-5.24-4.9-5.24s-1.472-4.753-9.876-1.849c-3.923,1.036-8.981,7.015-5.641,17.4,1.1,3.409-4.049,6.158-3.124,14.6.817,7.477,25.873,6.984,27.122.148,1.436-7.866-5.256-8.926-4.728-12.988C337.2,170.637,338.854,166.057,337.791,162.734Z" transform="translate(-301.134 -154.706)" fill="#39222f"/>
        <path id="Контур_45237" data-name="Контур 45237" d="M360.7,202.59c-9.6,6.947-16.219,23.48-14.147,26.161s6.079.16,8.35-2.4c3.214-3.618,10.609-14.32,11.468-16.348C368.444,205.074,362.346,201.4,360.7,202.59Z" transform="translate(-345.591 -172.986)" fill="#018e57"/>
        <g id="Сгруппировать_8846" data-name="Сгруппировать 8846" transform="translate(3.437 61.243)">
          <g id="Сгруппировать_8845" data-name="Сгруппировать 8845" transform="translate(5.395 94.724)">
            <g id="Сгруппировать_8844" data-name="Сгруппировать 8844">
              <path id="Контур_45238" data-name="Контур 45238" d="M355.41,408.473a26.541,26.541,0,0,1,1.832,2.441c.234.505.919,4.112.919,4.112a2.825,2.825,0,0,1-2.036,1.023l-1.2-2.188a20.075,20.075,0,0,1-2.187,4.309c-1.123,1.2-6.668,1.936-7.4,1.405,0,0-.685-2.151,1.141-2.99,3.37-1.553,4.067-5.788,4.067-5.788A2.92,2.92,0,0,1,355.41,408.473Z" transform="translate(-345.21 -407.723)" fill="#018e57"/>
              <g id="Сгруппировать_8843" data-name="Сгруппировать 8843" clip-path="url(#clip-path)">
                <path id="Контур_45239" data-name="Контур 45239" d="M343.44,421.156c.1-.037,6.944.068,8.032-1.843.853-1.492,1.652-4.112,2.06-4.37s2.4-2.053,2.4-2.053l1.982,5.209-11.371,7.169Z" transform="translate(-343.897 -409.705)" fill="#057247"/>
              </g>
            </g>
            <path id="Контур_45241" data-name="Контур 45241" d="M358.377,418.556l.889.339a3.274,3.274,0,0,0,.847-1.652l-.847-.456a.316.316,0,0,0-.426.129l-.625,1.171A.325.325,0,0,0,358.377,418.556Z" transform="translate(-354.948 -411.186)" fill="#ffc800"/>
          </g>
          <path id="Контур_45242" data-name="Контур 45242" d="M337.089,308.335c-.042-6.941,4.92-34.249,9.413-50.06,2.061-7.249,9.041-4.105,12.158,1.56,7,12.717-10.566,46.5-9.816,50.627a252.6,252.6,0,0,1,3.833,39.069c-.072,1.677-4.944,4.876-4.992,1.763C347.691,351.294,337.125,314,337.089,308.335Z" transform="translate(-337.089 -254.057)" fill="#ffb072"/>
        </g>
        <g id="Сгруппировать_8850" data-name="Сгруппировать 8850" transform="translate(19.685 65.843)">
          <g id="Сгруппировать_8849" data-name="Сгруппировать 8849" transform="translate(0 91.929)">
            <g id="Сгруппировать_8848" data-name="Сгруппировать 8848">
              <path id="Контур_45243" data-name="Контур 45243" d="M338.373,411.877a26.154,26.154,0,0,1,1.286,2.786c.126.549.048,4.216.048,4.216a2.8,2.8,0,0,1-2.2.561l-.721-2.4a19.619,19.619,0,0,1-3.028,3.736c-1.346.931-6.914.45-7.521-.228,0,0-.228-2.25,1.73-2.675,3.616-.783,5.166-4.771,5.166-4.771A2.9,2.9,0,0,1,338.373,411.877Z" transform="translate(-326.23 -410.652)" fill="#018e57"/>
              <g id="Сгруппировать_8847" data-name="Сгруппировать 8847" clip-path="url(#clip-path-2)">
                <path id="Контур_45244" data-name="Контур 45244" d="M324.91,422.513c.108-.012,6.776,1.572,8.23-.055,1.141-1.276,2.463-3.655,2.913-3.822s2.763-1.486,2.763-1.486l.865,5.523-12.591,4.537Z" transform="translate(-325.388 -413.144)" fill="#057247"/>
              </g>
            </g>
            <path id="Контур_45246" data-name="Контур 45246" d="M338.654,419.733l.8.524a3.227,3.227,0,0,0,1.165-1.43l-.733-.635a.309.309,0,0,0-.445.037l-.853,1.011A.336.336,0,0,0,338.654,419.733Z" transform="translate(-334.495 -413.514)" fill="#ffc800"/>
          </g>
          <path id="Контур_45247" data-name="Контур 45247" d="M315.791,284.753l.391-17.981c2.523-5.905,11.131-7.718,13.588-.764,4.59,12.982-4.019,60.342-6.3,89.228-.414,2.04-5.208,2.441-5.046.006C318.422,355.242,316.152,292.909,315.791,284.753Z" transform="translate(-311.326 -261.52)" fill="#ffb072"/>
        </g>
        <g id="Сгруппировать_8851" data-name="Сгруппировать 8851" transform="translate(4.525 47.613)">
          <path id="Контур_45248" data-name="Контур 45248" d="M343.264,259.044s3.268,3.292,4.3,10.683,1.322,25.169,1.322,25.169-19.847,7.508-37.7-.734c0,0,4.619-31.6,9.359-35.864S338.669,253.052,343.264,259.044Z" transform="translate(-311.18 -240.721)" fill="#fc9100"/>
          <path id="Контур_45249" data-name="Контур 45249" d="M317.753,255.169c.306,1.424,5.647,4.71,13.336,4.451s13.732-2.6,13.408-4.66c-.769-4.864-5.719-23.27-13.408-23.011S316.912,251.23,317.753,255.169Z" transform="translate(-310.713 -231.946)" fill="#ce7d0e"/>
        </g>
        <path id="Контур_45250" data-name="Контур 45250" d="M342.837,202.546c-2.361-5.11-14.057-8.667-14.657-9.006,0,0-11.305,4.223-12.747,7.286-.288.61,1.285,2.669,1.532,5.153.1,1.054-1.189,4.666-1.021,5.912.547,4.105,2.054,10.313,1.55,11.731-.7,1.985-3.664,12.125-4.517,15.059a1.006,1.006,0,0,0,.481,1.184c11.822,5.733,21.481,3.07,27.326-.271a.99.99,0,0,0,.6-1.085c-.721-2.854-3.953-11.275-4.854-13.851C335.322,221.2,344.663,206.5,342.837,202.546Z" transform="translate(-301.903 -169.602)" fill="#36c28b"/>
        <path id="Контур_45251" data-name="Контур 45251" d="M343.886,242.59s-2.331,9.185-6.145,9.394-13.75-7.107-13.75-7.107Z" transform="translate(-309.355 -188.416)" fill="#05643f"/>
        <g id="Сгруппировать_8856" data-name="Сгруппировать 8856" transform="translate(17.205 25.683)">
          <g id="Сгруппировать_8852" data-name="Сгруппировать 8852" transform="translate(3.119)">
            <path id="Контур_45252" data-name="Контур 45252" d="M330.519,209.007a.234.234,0,0,0,.15-.062c5.13-5.19,7.965-9.209,8.44-11.663.024-.117-.42-.247-.438-.129-.451,2.33-3.268,6.4-8.23,11.422l-1.394-.1c-2.625-5.529-2.733-10.2-1.328-12.051.072-.092-.463-.062-.535.037-1.52,2-1.207,6.565,1.538,12.316a.227.227,0,0,0,.174.123l1.61.117C330.507,209.007,330.513,209.007,330.519,209.007Z" transform="translate(-326.279 -196.37)" fill="#4b4a4a"/>
          </g>
          <g id="Сгруппировать_8855" data-name="Сгруппировать 8855" transform="translate(0 11.798)">
            <g id="Сгруппировать_8853" data-name="Сгруппировать 8853" transform="translate(0 1.146)">
              <path id="Контур_45253" data-name="Контур 45253" d="M332.732,225.149l10.933.8a.469.469,0,0,0,.5-.444l.469-6.824a.474.474,0,0,0-.433-.512l-10.933-.8a.469.469,0,0,0-.5.444l-.469,6.824A.474.474,0,0,0,332.732,225.149Z" transform="translate(-332.298 -217.368)" fill="#fff"/>
              <path id="Контур_45254" data-name="Контур 45254" d="M334.058,225.911l2.751.2a.375.375,0,0,0,.4-.358l.264-3.8a.378.378,0,0,0-.348-.407l-2.751-.2a.375.375,0,0,0-.4.357l-.264,3.8A.382.382,0,0,0,334.058,225.911Z" transform="translate(-325.983 -218.895)" fill="#d0cccc"/>
            </g>
            <path id="Контур_45601" data-name="Контур 45601" d="M0,.481,3.053.486V.006L0,0Z" transform="translate(7.9 2.43) rotate(-175.952)" fill="#3e2344"/>
            <path id="Контур_45255" data-name="Контур 45255" d="M340.72,217.563l1.225.086a.2.2,0,0,0,.21-.185l.114-1.652a.2.2,0,0,0-.18-.216l-1.225-.086a.2.2,0,0,0-.21.185l-.114,1.652A.208.208,0,0,0,340.72,217.563Z" transform="translate(-334.886 -215.509)" fill="#4b4a4a"/>
            <g id="Сгруппировать_8854" data-name="Сгруппировать 8854" transform="translate(0.993 3.098)">
              <path id="Контур_45602" data-name="Контур 45602" d="M0,.524l5.425.01V.01L0,0Z" transform="translate(5.701 0.915) rotate(-175.957)" fill="#a1abad"/>
              <path id="Контур_45603" data-name="Контур 45603" d="M0,.524l5.425.01V.01L0,0Z" transform="translate(5.617 1.994) rotate(-175.952)" fill="#a1abad"/>
              <path id="Контур_45604" data-name="Контур 45604" d="M0,.524l5.425.01V.01L0,0Z" transform="translate(5.551 3.11) rotate(-175.957)" fill="#a1abad"/>
              <path id="Контур_45605" data-name="Контур 45605" d="M0,.524l5.425.01V.01L0,0Z" transform="translate(5.412 4.934) rotate(-175.952)" fill="#a1abad"/>
            </g>
          </g>
        </g>
        <path id="Контур_45256" data-name="Контур 45256" d="M358.791,227.574c-7.052-.129-19.829.949-25.146,3.81a5.611,5.611,0,0,0-2.6,6.152c.823,3.131,5.28,2.188,5.28,2.188s16.856-3.273,21.157-4.79C362.251,233.251,362.311,227.641,358.791,227.574Z" transform="translate(-330.869 -182.652)" fill="#00b870"/>
        <g id="Сгруппировать_8857" data-name="Сгруппировать 8857" transform="translate(18.412 11.475)">
          <path id="Контур_45257" data-name="Контур 45257" d="M348.291,177.432a3.278,3.278,0,0,0,.4-3.557,1.107,1.107,0,0,0-1.448-.444c-.751.314-.973,1.282-.883,2.244C346.458,176.834,347.432,178.1,348.291,177.432Z" transform="translate(-346.337 -173.321)" fill="#ffb072" fill-rule="evenodd"/>
          <path id="Контур_45258" data-name="Контур 45258" d="M348.4,177.562l-.186-1.054.625-.179s-.084-1.936-1.135-1.381C346.836,175.4,347.371,177.8,348.4,177.562Z" transform="translate(-346.709 -173.907)" fill="#e57e55"/>
        </g>
        <g id="Сгруппировать_8859" data-name="Сгруппировать 8859" transform="translate(0.061 29.475)">
          <path id="Контур_45259" data-name="Контур 45259" d="M371.619,233.209a7.217,7.217,0,0,1-3.046-1.393c-.8-.672-1.76,1.72-1.76,1.72a3.649,3.649,0,0,1,.24-3.329c.21-.308-.066-.863.282-1.479s.487-.3.757-.752.144-.666.318-1.128.523-.358.817-.647.4-.8.757-.949a2.111,2.111,0,0,1,1.748.247A7.985,7.985,0,0,1,375,228.641C375.565,229.831,376.388,233.788,371.619,233.209Z" transform="translate(-366.512 -211.196)" fill="#ffb072"/>
          <g id="Сгруппировать_8858" data-name="Сгруппировать 8858" transform="translate(5.444)">
            <path id="Контур_45260" data-name="Контур 45260" d="M348.242,210.645c.637-7.175-5.01-10.966-8.7-5.585-2.739,3.994-5.5,18.123-7.245,18.887-1.43.629-17.042-4.266-17.042-4.266-2.469.055-3.67,4.488-2.835,6.047,10.47,4.722,19.463,10.22,23.6,8.217C341.117,231.468,347.611,217.734,348.242,210.645Z" transform="translate(-312.158 -202.521)" fill="#018e57"/>
          </g>
        </g>
        <g id="Сгруппировать_8870" data-name="Сгруппировать 8870" transform="translate(19.205 2.485)">
          <path id="Контур_45261" data-name="Контур 45261" d="M335.417,181.22a25.4,25.4,0,0,0,.787,5.881,8.018,8.018,0,0,0,2.5,4.3c1.015,1.066-7.677,5.5-7.677,5.5s-.937,2.5-1.388,2.6l-.252-2.786s-3.19-3.212-1.886-4.919c1.928-2.527,2.7-1.886,2.313-5.48-.33-3.131-.541-4.87-.541-4.87Z" transform="translate(-325.39 -167.361)" fill="#ffb072"/>
          <g id="Сгруппировать_8869" data-name="Сгруппировать 8869">
            <g id="Сгруппировать_8868" data-name="Сгруппировать 8868" transform="translate(0.014 2.171)">
              <g id="Сгруппировать_8867" data-name="Сгруппировать 8867">
                <g id="Сгруппировать_8860" data-name="Сгруппировать 8860">
                  <path id="Контур_45262" data-name="Контур 45262" d="M336.632,174.1s-1.814,6.429-7.755,5.03c-2.985-.7-3.574-6.885-2.169-8.716a10.915,10.915,0,0,1,.865-5.825c1.1-2.472,6.187-3.131,10.11-1.2,0,0,1.009,1.338-.21,6.436a1.525,1.525,0,0,1,1.994.037c.829.647.751,1.862.276,2.947C339.173,174.1,337.617,175.044,336.632,174.1Z" transform="translate(-325.982 -162.259)" fill="#ffb072" fill-rule="evenodd"/>
                  <path id="Контур_45263" data-name="Контур 45263" d="M327.437,178.857l.631-1.159-.721-.444s.841-2.219,1.958-1.177C330.231,176.928,328.651,179.523,327.437,178.857Z" transform="translate(-316.289 -167.453)" fill="#e57e55"/>
                </g>
                <g id="Сгруппировать_8866" data-name="Сгруппировать 8866" transform="translate(0.594 5.674)">
                  <g id="Сгруппировать_8862" data-name="Сгруппировать 8862" transform="translate(1.922 6.468)">
                    <path id="Контур_45264" data-name="Контур 45264" d="M339.19,182.427s.559-.962,3.664-.136C342.242,183.956,339.166,184.338,339.19,182.427Z" transform="translate(-339.19 -181.957)" fill="#fd6141"/>
                    <g id="Сгруппировать_8861" data-name="Сгруппировать 8861" transform="translate(0 0.335)">
                      <path id="Контур_45265" data-name="Контур 45265" d="M339.19,182.636a10.374,10.374,0,0,0,3.664-.136" transform="translate(-339.19 -182.5)" fill="#e57e55"/>
                      <path id="Контур_45266" data-name="Контур 45266" d="M339.18,182.636a6.419,6.419,0,0,0,1.844.2,5.445,5.445,0,0,0,1.826-.339c-.312.025-.613.068-.919.086s-.607.043-.913.043C340.405,182.66,339.8,182.636,339.18,182.636Z" transform="translate(-339.18 -182.5)" fill="#e57e55"/>
                    </g>
                  </g>
                  <g id="Сгруппировать_8863" data-name="Сгруппировать 8863" transform="translate(0)">
                    <path id="Контур_45267" data-name="Контур 45267" d="M344.45,175.2c-.018.3.348.376.811.407s.835.006.853-.29-.336-.561-.8-.592S344.468,174.913,344.45,175.2Z" transform="translate(-343.686 -172.715)" fill="#3e2344"/>
                    <path id="Контур_45268" data-name="Контур 45268" d="M343.2,172.6a11.061,11.061,0,0,1,1.478-.709c.336-.018,1.286.635,1.418.5a2.533,2.533,0,0,0,.282-.45,8.143,8.143,0,0,0-1.784-.469A3.287,3.287,0,0,0,343.2,172.6Z" transform="translate(-343.2 -171.463)" fill="#39222f"/>
                  </g>
                  <g id="Сгруппировать_8864" data-name="Сгруппировать 8864" transform="translate(4.247 0.182)">
                    <path id="Контур_45269" data-name="Контур 45269" d="M337.44,175.682c-.018.3.348.376.811.407s.835.006.853-.29-.336-.561-.8-.592S337.464,175.386,337.44,175.682Z" transform="translate(-336.713 -173.08)" fill="#3e2344"/>
                    <path id="Контур_45270" data-name="Контур 45270" d="M338.96,172.925c.018.043-1.327-.783-1.7-.746s-1.6.456-1.742.308a2,2,0,0,1-.258-.475,12.515,12.515,0,0,1,2.169-.24A3.239,3.239,0,0,1,338.96,172.925Z" transform="translate(-335.26 -171.759)" fill="#39222f"/>
                  </g>
                  <g id="Сгруппировать_8865" data-name="Сгруппировать 8865" transform="translate(1.303 0.836)">
                    <path id="Контур_45271" data-name="Контур 45271" d="M343.375,179.521s1.057.129,1.075-.173-2.127-.968-2.283-.77S342.919,179.311,343.375,179.521Z" transform="translate(-341.945 -175.015)" fill="#e57e55" opacity="0.5"/>
                    <path id="Контур_45272" data-name="Контур 45272" d="M345.009,172.82a5.684,5.684,0,0,1-.12,1.862c-.228.462-1.358,1.405-1.412,1.634s.973.968,1.051,1.017-1.55-.475-1.424-1,1.562-1.664,1.646-1.917S345.009,172.82,345.009,172.82Z" transform="translate(-343.097 -172.82)" fill="#e57e55"/>
                  </g>
                </g>
              </g>
            </g>
            <path id="Контур_45273" data-name="Контур 45273" d="M324.983,161.26c-.475.419-3.04,1.788.03,2.244,2.343.345,7.124-.881,8.542-1.288a8.773,8.773,0,0,0-.36,3.477c.27,1.245.775,4.118.775,4.118a13.8,13.8,0,0,1,1.069-1.356c.445-.456,1.988-.789,2.6,1.1a13.166,13.166,0,0,0,1.5-4.537C339.232,159.774,330.961,156.014,324.983,161.26Z" transform="translate(-323.529 -158.737)" fill="#39222f"/>
          </g>
        </g>
        <path id="Контур_45274" data-name="Контур 45274" d="M333.923,230.983a6.194,6.194,0,0,0-3.46-2.965,2.811,2.811,0,0,0-1.664-.29,4.516,4.516,0,0,0-.481-.018s-4.307-.062-4.866,1.744a9.063,9.063,0,0,0,.036,4.149,8.865,8.865,0,0,0,2.9.012,6.486,6.486,0,0,1,2.1,1.892c.264.376,1.015.24.925-.216a4.829,4.829,0,0,0-1.484-2.54,7.931,7.931,0,0,1,2.889,1.584c.384.345,1.2.049,1-.407a6.043,6.043,0,0,0-3.076-2.8l.012-.012a8.727,8.727,0,0,1,3.22,1.646c.384.333,1.2.055,1-.382a5.1,5.1,0,0,0-1.916-2.053,6.715,6.715,0,0,1,1.892,1.165C333.346,231.846,334.151,231.464,333.923,230.983Z" transform="translate(-298.966 -182.701)" fill="#ffb072"/>
      </g>
      <g id="Сгруппировать_8937" data-name="Сгруппировать 8937" transform="translate(212.778 43.546)">
        <g id="Сгруппировать_8936" data-name="Сгруппировать 8936">
          <g id="Сгруппировать_8904" data-name="Сгруппировать 8904" transform="translate(0 34.139)">
            <path id="Контур_45326" data-name="Контур 45326" d="M482.538,211.827c-3.982,7.755-4.426,31.678-10.338,52.082a22.578,22.578,0,0,0,6.509,3.316,126.564,126.564,0,0,0,13.6-49.74C492.573,212.524,485.675,205.724,482.538,211.827Z" transform="translate(-459.791 -209.412)" fill="#00b870"/>
            <g id="Сгруппировать_8903" data-name="Сгруппировать 8903" transform="translate(0 33.009)">
              <g id="Сгруппировать_8901" data-name="Сгруппировать 8901">
                <path id="Контур_45327" data-name="Контур 45327" d="M486.467,292.7l-34.4-5.967,4.66-23.769,33.836,6.09Z" transform="translate(-452.07 -262.96)" fill="#8c8c8c"/>
                <path id="Контур_45328" data-name="Контур 45328" d="M453.87,287.389l4.821-23.209,32.566,5.338-4.1,23.646Z" transform="translate(-452.76 -263.428)" fill="#e2e2e2"/>
                <path id="Контур_45329" data-name="Контур 45329" d="M485.18,285.725a2.6,2.6,0,1,1-2.6-2.6A2.6,2.6,0,0,1,485.18,285.725Z" transform="translate(-462.779 -270.697)" fill="#8c8c8c"/>
              </g>
              <g id="Сгруппировать_8902" data-name="Сгруппировать 8902" transform="translate(11.69 23.761)">
                <path id="Контур_45330" data-name="Контур 45330" d="M475.453,304.9a.9.9,0,1,1-1.757-.333,12.715,12.715,0,0,1,.622-2.515c.407-.845,1.27-.678,1.424.3A12.358,12.358,0,0,1,475.453,304.9Z" transform="translate(-472.047 -301.507)" fill="#f4b998"/>
                <path id="Контур_45331" data-name="Контур 45331" d="M478.073,305.647a.9.9,0,1,1-1.757-.321,11.837,11.837,0,0,1,.623-2.41c.407-.808,1.27-.647,1.424.29A11.379,11.379,0,0,1,478.073,305.647Z" transform="translate(-473.052 -301.848)" fill="#f4b998"/>
                <path id="Контур_45332" data-name="Контур 45332" d="M480.713,306.627c-.179,1.029-2,.808-1.757-.253a7.972,7.972,0,0,1,.623-1.923.755.755,0,0,1,1.424.234A7.334,7.334,0,0,1,480.713,306.627Z" transform="translate(-474.065 -302.476)" fill="#f4b998"/>
                <path id="Контур_45333" data-name="Контур 45333" d="M472.813,304.557c-.179,1.029-2,.808-1.757-.253a7.97,7.97,0,0,1,.623-1.923.755.755,0,0,1,1.424.234A7.6,7.6,0,0,1,472.813,304.557Z" transform="translate(-471.034 -301.682)" fill="#f4b998"/>
              </g>
            </g>
          </g>
          <g id="Сгруппировать_8908" data-name="Сгруппировать 8908" transform="translate(13.648 71.49)">
            <g id="Сгруппировать_8907" data-name="Сгруппировать 8907" transform="translate(0 82.752)">
              <path id="Контур_45334" data-name="Контур 45334" d="M488.111,405.057l-.555,7.964s.253,1.689.241,2.25-.333,2.207-.333,2.207a6.5,6.5,0,0,1-4.062.265l-.21-.191a10.275,10.275,0,0,1-1.812.456c-1.621.339-6.411.327-7.1-.271,0,0-.542-2.4,1.449-2.848,4.993-1.116,5.751-2.429,6.14-3.945.487-1.911,1.1-6.694,1.1-6.694Z" transform="translate(-474.211 -404.25)" fill="#207089"/>
              <g id="Сгруппировать_8905" data-name="Сгруппировать 8905" clip-path="url(#clip-path-3)">
                <path id="Контур_45335" data-name="Контур 45335" d="M480.108,418.066a2.858,2.858,0,0,1,2.053.635c.684.715,1.221,1.313,2.287,1.128,2.731-.475,2.638-2.589,3.779-1.609l-.111,5.517-15.066.351.043-4.179Z" transform="translate(-473.765 -409.51)" fill="#1c3742"/>
              </g>
              <g id="Сгруппировать_8906" data-name="Сгруппировать 8906" clip-path="url(#clip-path-3)">
                <path id="Контур_45337" data-name="Контур 45337" d="M473.582,424.884s.185.721,4.919.592,5.178-1.2,8.864-1.036l-.216,1.288-13.87.956Z" transform="translate(-473.854 -411.988)" fill="#207089"/>
              </g>
            </g>
            <path id="Контур_45339" data-name="Контур 45339" d="M505.5,276.29c-1.843-7.847-12.9-8.648-13.987-.684-1.56,11.429-6.029,85.277-6.029,85.277,2.145,1.738,5.233.838,7.175.216C492.655,361.1,510.31,296.81,505.5,276.29Z" transform="translate(-478.533 -270.005)" fill="#19323a"/>
          </g>
          <g id="Сгруппировать_8912" data-name="Сгруппировать 8912" transform="translate(39.233 70.923)">
            <g id="Сгруппировать_8911" data-name="Сгруппировать 8911" transform="translate(7.422 83.868)">
              <path id="Контур_45340" data-name="Контур 45340" d="M528.153,405.584v7.983a22.254,22.254,0,0,0-.395,2.231c-.025.561.185,2.225.185,2.225a6.455,6.455,0,0,0,4.032.542l.222-.173a10.479,10.479,0,0,0,1.775.579c1.6.45,6.374.771,7.108.222,0,0,.709-2.355-1.245-2.94-4.9-1.461-5.566-2.817-5.85-4.358-.358-1.936-.641-6.756-.641-6.756Z" transform="translate(-527.757 -405.14)" fill="#207089"/>
              <g id="Сгруппировать_8909" data-name="Сгруппировать 8909" clip-path="url(#clip-path-5)">
                <path id="Контур_45341" data-name="Контур 45341" d="M534.561,418.861a2.839,2.839,0,0,0-2.09.493c-.734.666-1.307,1.227-2.361.968-2.694-.66-2.453-2.762-3.655-1.868l-.265,5.511,15,1.393.247-4.173Z" transform="translate(-527.156 -410.164)" fill="#1c3742"/>
              </g>
              <g id="Сгруппировать_8910" data-name="Сгруппировать 8910" clip-path="url(#clip-path-5)">
                <path id="Контур_45343" data-name="Контур 45343" d="M541.452,426.129s-.234.709-4.95.247-5.079-1.553-8.772-1.646l.123,1.3,13.771,1.911Z" transform="translate(-527.746 -412.654)" fill="#207089"/>
              </g>
            </g>
            <path id="Контур_45345" data-name="Контур 45345" d="M531.037,273.372c-3.76-7.12-14.985-4.894-15.257,3.156-.869,25.508,7.379,84.562,7.379,84.562a6.893,6.893,0,0,0,6.818-.247C529.977,360.85,538.089,286.742,531.037,273.372Z" transform="translate(-515.716 -269.085)" fill="#1c3742"/>
          </g>
          <path id="Контур_45346" data-name="Контур 45346" d="M498.083,272.7c.1,4.2,8.032,9.037,14.887,8.87s12.02-3.7,11.922-7.9c-.333-13.561-5.948-20.817-12.8-20.65S497.744,258.881,498.083,272.7Z" transform="translate(-469.715 -191.998)" fill="#1c3742"/>
          <g id="Сгруппировать_8915" data-name="Сгруппировать 8915" transform="translate(23.503 25.919)">
            <path id="Контур_45347" data-name="Контур 45347" d="M494.917,273.894c.062,2.46,7.373,3.532,15.349,3.341s13.944-1.5,13.888-3.964c-.2-7.946-7.126-12.4-15.1-12.205S494.72,265.8,494.917,273.894Z" transform="translate(-492.006 -221.002)" fill="#018e57"/>
            <g id="Сгруппировать_8914" data-name="Сгруппировать 8914">
              <path id="Контур_45348" data-name="Контур 45348" d="M527.481,205.75c-3.02-5.061-18.857-9.647-19.584-9.672-5.036-.148-16.4,6.99-17.55,9.579-1,2.256,3.4,21.137,2.965,29.712-.222,4.469-.8,7.8-.69,12.31.1,4.2,30.026,4.266,29.928.062-.086-3.483-.727-6.115-.684-9.746C521.951,230.722,528.781,207.926,527.481,205.75Z" transform="translate(-490.197 -196.076)" fill="#36c28b"/>
              <path id="Контур_45349" data-name="Контур 45349" d="M538.991,253.113c-.086-3.483-.727-6.115-.684-9.746.08-7.274,6.91-30.069,5.609-32.239s-6.072-.666-6.707,1.874c-5.4,12.606-5.363,23.819-.955,42.034C537.968,254.543,539.009,253.9,538.991,253.113Z" transform="translate(-506.633 -201.447)" fill="#018e57"/>
              <g id="Сгруппировать_8913" data-name="Сгруппировать 8913" transform="translate(13.668 13.268)">
                <path id="Контур_45350" data-name="Контур 45350" d="M515.93,218.315a.7.7,0,1,0,.684-.715A.7.7,0,0,0,515.93,218.315Z" transform="translate(-513.735 -217.6)" fill="#fff"/>
                <path id="Контур_45351" data-name="Контур 45351" d="M514.41,230.405a.7.7,0,1,0,.684-.715A.7.7,0,0,0,514.41,230.405Z" transform="translate(-513.152 -222.237)" fill="#fff"/>
                <path id="Контур_45352" data-name="Контур 45352" d="M513.53,242.175a.7.7,0,1,0,.684-.715A.693.693,0,0,0,513.53,242.175Z" transform="translate(-512.815 -226.752)" fill="#fff"/>
                <path id="Контур_45353" data-name="Контур 45353" d="M512.66,253.045a.7.7,0,1,0,.684-.715A.7.7,0,0,0,512.66,253.045Z" transform="translate(-512.481 -230.921)" fill="#fff"/>
                <path id="Контур_45354" data-name="Контур 45354" d="M512.68,263.765a.7.7,0,1,0,.684-.715A.694.694,0,0,0,512.68,263.765Z" transform="translate(-512.489 -235.033)" fill="#fff"/>
                <path id="Контур_45355" data-name="Контур 45355" d="M512.37,274.485a.7.7,0,1,0,.684-.715A.705.705,0,0,0,512.37,274.485Z" transform="translate(-512.37 -239.145)" fill="#fff"/>
              </g>
            </g>
          </g>
          <g id="Сгруппировать_8918" data-name="Сгруппировать 8918" transform="translate(32.449 44.79)">
            <g id="Сгруппировать_8916" data-name="Сгруппировать 8916" transform="translate(0 1.634)">
              <path id="Контур_45356" data-name="Контур 45356" d="M517.439,237.773H505.185a.475.475,0,0,1-.475-.475v-7.483a.475.475,0,0,1,.475-.475h12.255a.475.475,0,0,1,.475.475V237.3A.467.467,0,0,1,517.439,237.773Z" transform="translate(-504.71 -229.34)" fill="#fff"/>
              <path id="Контур_45357" data-name="Контур 45357" d="M509.524,237.64h-3.132a.384.384,0,0,1-.382-.382v-4.186a.384.384,0,0,1,.382-.382h3.132a.384.384,0,0,1,.382.382v4.186A.38.38,0,0,1,509.524,237.64Z" transform="translate(-505.209 -230.625)" fill="#d0cccc"/>
            </g>
            <rect id="Прямоугольник_6818" data-name="Прямоугольник 6818" width="3.384" height="0.518" transform="translate(4.913 1.96)" fill="#3e2344"/>
            <path id="Контур_45358" data-name="Контур 45358" d="M515.48,228.909h-1.393a.2.2,0,0,1-.2-.2v-1.825a.2.2,0,0,1,.2-.2h1.393a.2.2,0,0,1,.2.2v1.825A.2.2,0,0,1,515.48,228.909Z" transform="translate(-508.231 -226.69)" fill="#4b4a4a"/>
            <g id="Сгруппировать_8917" data-name="Сгруппировать 8917" transform="translate(6.14 3.699)">
              <rect id="Прямоугольник_6819" data-name="Прямоугольник 6819" width="6.029" height="0.567" fill="#a1abad"/>
              <rect id="Прямоугольник_6820" data-name="Прямоугольник 6820" width="6.029" height="0.567" transform="translate(0 1.19)" fill="#a1abad"/>
              <rect id="Прямоугольник_6821" data-name="Прямоугольник 6821" width="6.029" height="0.567" transform="translate(0 2.379)" fill="#a1abad"/>
              <rect id="Прямоугольник_6822" data-name="Прямоугольник 6822" width="6.029" height="0.567" transform="translate(0 4.383)" fill="#a1abad"/>
            </g>
          </g>
          <g id="Сгруппировать_8919" data-name="Сгруппировать 8919" transform="translate(33.997 27.595)">
            <path id="Контур_45359" data-name="Контур 45359" d="M513.033,216.508h-1.578a.433.433,0,0,1-.395-.259c-2-4.8-4.944-15.09-3.415-17.192.074-.1.376-.351.321-.228-.9,2.059,1.257,11.823,3.526,17.242l1.541-.025.1-.129c2.577-2.959,8.7-10.757,9.068-16.545.006-.129.407.271.4.4-.382,5.93-6.51,13.457-9.117,16.452l-.13.148A.437.437,0,0,1,513.033,216.508Z" transform="translate(-507.221 -198.795)" fill="#4b4a4a"/>
          </g>
          <g id="Сгруппировать_8934" data-name="Сгруппировать 8934" transform="translate(31.869)">
            <path id="Контур_45360" data-name="Контур 45360" d="M521.6,192.822c-.573-1.288-10.683-.869-11.09.395L511,198.6l10.646-.653Z" transform="translate(-506.355 -168.609)" fill="#018e57"/>
            <g id="Сгруппировать_8933" data-name="Сгруппировать 8933">
              <g id="Сгруппировать_8932" data-name="Сгруппировать 8932">
                <path id="Контур_45361" data-name="Контур 45361" d="M518.392,181.96a26.14,26.14,0,0,0,.715,6.214,33.7,33.7,0,0,0,2.817,6.306l-4.783.629-3.107,4.851-1.147-5.462-3.717-1.153s3.39-2.336,3.057-6.127c-.29-3.3-.475-5.141-.475-5.141Z" transform="translate(-505.841 -164.743)" fill="#ffb072"/>
                <g id="Сгруппировать_8920" data-name="Сгруппировать 8920" transform="translate(7.915 24.213)">
                  <path id="Контур_45362" data-name="Контур 45362" d="M523.939,193.31s.314,1.054-1.658,2.984c-.616.6-2.755,2.121-2.755,2.121L516.61,204.7l.734.08,2.774-5.85,3.279,4.4c1.572-1.973,2.6-3.834,2.669-5.492Z" transform="translate(-516.61 -193.31)" fill="#00b870"/>
                  <path id="Контур_45363" data-name="Контур 45363" d="M523.853,206.817l-3.279-4.407-2.774,5.85,3.489-3.125Z" transform="translate(-517.067 -196.801)" fill="#018e57"/>
                </g>
                <g id="Сгруппировать_8921" data-name="Сгруппировать 8921" transform="translate(2.386 24.602)">
                  <path id="Контур_45364" data-name="Контур 45364" d="M509.415,193.94a6.093,6.093,0,0,0,2.8,4.808l1.689,6.263-.734-.08-1.4-5.653-1.96,4.42a11.761,11.761,0,0,1-2.176-5.579Z" transform="translate(-507.64 -193.94)" fill="#36c28b"/>
                  <path id="Контур_45365" data-name="Контур 45365" d="M511.16,207.03l1.96-4.42,1.4,5.646-1.319-3.039Z" transform="translate(-508.99 -197.266)" fill="#018e57"/>
                </g>
                <g id="Сгруппировать_8929" data-name="Сгруппировать 8929">
                  <g id="Сгруппировать_8922" data-name="Сгруппировать 8922" transform="translate(0 11.477)">
                    <path id="Контур_45366" data-name="Контур 45366" d="M506.513,177.877c.986-.838,1.11-3.372.253-4.586a1.466,1.466,0,0,0-1.936-.456c-.962.456-1.19,1.72-1,2.947C504.059,177.254,505.434,178.8,506.513,177.877Z" transform="translate(-503.77 -172.648)" fill="#ffb072" fill-rule="evenodd"/>
                    <path id="Контур_45367" data-name="Контур 45367" d="M506.6,178.061l-.321-1.338.808-.277s-.259-2.472-1.6-1.683C504.386,175.411,505.267,178.45,506.6,178.061Z" transform="translate(-504.237 -173.4)" fill="#e57e55"/>
                  </g>
                  <g id="Сгруппировать_8924" data-name="Сгруппировать 8924" transform="translate(0.578)">
                    <path id="Контур_45368" data-name="Контур 45368" d="M517.276,174.341a9.044,9.044,0,0,1-1.066,3.544c-1.036,1.473-2.472,3.261-6.614,2.632s-3.255-9.425-3.255-9.425a19.686,19.686,0,0,1,.573-6.183c.838-2.737,6.479-3.686,10.837-1.9,0,0,1.171,1.344.173,6.775a1.675,1.675,0,0,1,2.151-.086c.937.629.925,1.911.475,3.082C520.019,174.181,518.4,175.278,517.276,174.341Z" transform="translate(-505.303 -157.125)" fill="#ffb072" fill-rule="evenodd"/>
                    <path id="Контур_45369" data-name="Контур 45369" d="M505.665,179.494s-3.52,9.253,2.94,10.344a7.636,7.636,0,0,0,8.168-3.711c.734-1.535.037-5.141-.327-6.892-.056-.259-.24,0-.265-.185l-.993,4.081a7.714,7.714,0,0,0-5.591-2.614c-3.218-.074-3.773,1.923-3.773,1.923Z" transform="translate(-504.707 -163.627)" fill="#39222f"/>
                    <g id="Сгруппировать_8923" data-name="Сгруппировать 8923" transform="translate(2.979 17.979)">
                      <path id="Контур_45370" data-name="Контур 45370" d="M514.385,183.285a3.921,3.921,0,0,1-1.159.487,5.048,5.048,0,0,1-1.257.148c-.21,0-.425-.006-.635-.025s-.413-.025-.623-.055a2.863,2.863,0,0,1-.616-.166,1.078,1.078,0,0,1-.549-.395.059.059,0,0,1,.018-.074.054.054,0,0,1,.043-.006l.012.006a9.258,9.258,0,0,0,1.159.2,8.881,8.881,0,0,0,1.2.179,5.243,5.243,0,0,0,2.361-.37h.006a.046.046,0,0,1,.056.025A.032.032,0,0,1,514.385,183.285Z" transform="translate(-509.54 -183.196)" fill="#ffb072"/>
                    </g>
                    <path id="Контур_45371" data-name="Контур 45371" d="M519.53,159.855c-.623-1.177-2.854-1.911-4.771-2.342a4.05,4.05,0,0,0-.129-.505c-.869-2.731-3.9-2.663-3.9-2.663v1.763a4.777,4.777,0,0,1-.462-2.077c-2.244,1.319-2.09,2.977-2.09,2.977l-.493-1.276a4.3,4.3,0,0,0-1.59,2.953,2.159,2.159,0,0,0-.783,1c-.746,2.219.579,8.316.579,8.316l.284-4.4a9.495,9.495,0,0,1,.727-2.546s.481.561,3.366.561c.117,0,.24,0,.358-.006.062.006.1.006.1.006s.025-.006.037-.006a27.563,27.563,0,0,0,5.135-.66,16.265,16.265,0,0,0,.617,3.107c.271.845-.21,5.579-.21,5.579s.117.567.284,0c.3-1.036.894-3.5,2.09-3.384C518.679,166.26,520.67,162.019,519.53,159.855Z" transform="translate(-504.85 -154.03)" fill="#39222f"/>
                    <path id="Контур_45372" data-name="Контур 45372" d="M524.851,179.116l.61-1.257-.8-.425s.771-2.386,2.04-1.362C527.742,176.916,526.195,179.739,524.851,179.116Z" transform="translate(-512.361 -162.387)" fill="#e57e55"/>
                  </g>
                  <g id="Сгруппировать_8928" data-name="Сгруппировать 8928" transform="translate(2.09 10.64)">
                    <g id="Сгруппировать_8925" data-name="Сгруппировать 8925" transform="translate(4.519 0.004)">
                      <path id="Контур_45373" data-name="Контур 45373" d="M516.3,176.5c0,.308.4.37.9.376s.9-.049.906-.358-.4-.567-.894-.573S516.3,176.19,516.3,176.5Z" transform="translate(-515.184 -173.082)" fill="#3e2344"/>
                      <path id="Контур_45374" data-name="Контур 45374" d="M518.935,172.458a17.458,17.458,0,0,0-1.874-.4,11.255,11.255,0,0,1-2.3.166,2.376,2.376,0,0,1-.271-.734,18.62,18.62,0,0,1,2.8-.166A3.149,3.149,0,0,1,518.935,172.458Z" transform="translate(-514.49 -171.298)" fill="#39222f"/>
                    </g>
                    <g id="Сгруппировать_8926" data-name="Сгруппировать 8926">
                      <path id="Контур_45375" data-name="Контур 45375" d="M508.21,176.395c0,.308.4.37.9.376s.9-.049.906-.358-.4-.567-.894-.573S508.21,176.08,508.21,176.395Z" transform="translate(-507.562 -173.035)" fill="#3e2344"/>
                      <path id="Контур_45376" data-name="Контур 45376" d="M507.16,172.449c-.019.043.789-.549,1.1-.524s1.707.536,1.825.382a3.6,3.6,0,0,0,.271-.721,12.109,12.109,0,0,0-2.293-.277C507.715,171.407,507.3,172.067,507.16,172.449Z" transform="translate(-507.16 -171.291)" fill="#39222f"/>
                    </g>
                    <g id="Сгруппировать_8927" data-name="Сгруппировать 8927" transform="translate(1.444 1.467)">
                      <path id="Контур_45377" data-name="Контур 45377" d="M511.243,180.813s1.146.068,1.146-.247-2.355-.882-2.509-.666S510.744,180.622,511.243,180.813Z" transform="translate(-509.642 -176.041)" fill="#e57e55" opacity="0.5"/>
                      <path id="Контур_45378" data-name="Контур 45378" d="M511.35,173.67a5.725,5.725,0,0,1-.018,1.96c-.222.5-1.375,1.566-1.424,1.806s1.11.956,1.2,1-1.7-.4-1.6-.962,1.584-1.843,1.658-2.121S511.35,173.67,511.35,173.67Z" transform="translate(-509.503 -173.67)" fill="#e57e55"/>
                    </g>
                  </g>
                </g>
                <g id="Сгруппировать_8931" data-name="Сгруппировать 8931" transform="translate(0.758 11.918)">
                  <g id="Сгруппировать_8930" data-name="Сгруппировать 8930" transform="translate(0.14 0.144)">
                    <path id="Контур_45379" data-name="Контур 45379" d="M505.29,173.833s-.623,2.663,2.028,2.663c2.694,0,2.01-2.749,2.01-2.749A8.837,8.837,0,0,0,505.29,173.833Z" transform="translate(-505.227 -173.597)" fill="#a1abad" opacity="0.5"/>
                    <path id="Контур_45380" data-name="Контур 45380" d="M518.658,173.747a8.836,8.836,0,0,0-4.038.086S514,176.5,516.648,176.5C519.336,176.5,518.658,173.747,518.658,173.747Z" transform="translate(-508.805 -173.597)" fill="#a1abad" opacity="0.5"/>
                  </g>
                  <path id="Контур_45381" data-name="Контур 45381" d="M517.131,174.3v-.438l-2.028-.333-.092-.012c-2.91-.382-4.062.074-4.106.092l-.068.025-.012.062a1.494,1.494,0,0,0-1.442-.043c0-.012-.006-.031-.006-.037l-.025-.092-.092-.012c-2.91-.382-4.062.074-4.105.092l-.068.025-.018.068a2.753,2.753,0,0,0,.37,2.114,2.592,2.592,0,0,0,3.588-.012,2.551,2.551,0,0,0,.407-1.825c.45-.339,1.19-.043,1.344.025a2.483,2.483,0,0,0,.419,1.806,2.591,2.591,0,0,0,3.588-.012,2.452,2.452,0,0,0,.419-1.683h0Zm-8.322,1.344a2.329,2.329,0,0,1-3.15.006,2.438,2.438,0,0,1-.333-1.806,9.522,9.522,0,0,1,3.8-.068A2.528,2.528,0,0,1,508.809,175.648Zm5.751,0a2.329,2.329,0,0,1-3.15.006,2.439,2.439,0,0,1-.333-1.806,9.523,9.523,0,0,1,3.8-.068A2.529,2.529,0,0,1,514.561,175.648Z" transform="translate(-504.999 -173.363)" fill="#4b4a4a"/>
                </g>
              </g>
            </g>
          </g>
          <g id="Сгруппировать_8935" data-name="Сгруппировать 8935" transform="translate(49.322 33.801)">
            <path id="Контур_45382" data-name="Контур 45382" d="M544.87,210.871c-4.031-5.554-12.248,1.473-9.043,8.26,3.242,6.855,8.094,12.994,9.037,19.3.66,4.4-9.764,21.458-9.764,21.458-.074.808,4.654,5.6,5.492,5.609,0,0,17.92-19.035,16.046-29.515C555.109,227.471,550.214,218.866,544.87,210.871Z" transform="translate(-533.24 -208.864)" fill="#00b870"/>
            <path id="Контур_45383" data-name="Контур 45383" d="M551.731,255.056c1.393-1.227,6.454-3.316,6.885-2.78.339.425-4.635,2.176-4.635,2.176s6.386-2,6.744-.647c.2.74-3.933.2-8.513,1.677C552.212,255.482,550.912,255.778,551.731,255.056Z" transform="translate(-539.516 -225.483)" fill="#018e57"/>
            <path id="Контур_45384" data-name="Контур 45384" d="M532.673,288.33a21.92,21.92,0,0,0,7.311,7.989.594.594,0,0,1-.388.666c-.475.148-1.59-.783-3.686-2.848a24.622,24.622,0,0,1-3.822-5.332C532.026,288.33,532.673,288.33,532.673,288.33Z" transform="translate(-532.083 -239.345)" fill="#2b545e"/>
          </g>
        </g>
      </g>
      <g id="Сгруппировать_8964" data-name="Сгруппировать 8964" transform="translate(79.095 43.546)">
        <path id="Контур_45385" data-name="Контур 45385" d="M216.493,426.913c0,1.356-19.159,2.453-42.786,2.453s-42.786-1.1-42.786-2.453,19.159-2.453,42.786-2.453S216.493,425.557,216.493,426.913Z" transform="translate(-130.92 -257.759)" fill="#d2d8dc" opacity="0.3"/>
        <g id="Сгруппировать_8963" data-name="Сгруппировать 8963" transform="translate(0.003)">
          <g id="Сгруппировать_8940" data-name="Сгруппировать 8940" transform="translate(12.859 156.154)">
            <path id="Контур_45386" data-name="Контур 45386" d="M164.949,407.794v8.051a22.476,22.476,0,0,1,.395,2.25c.025.561-.185,2.244-.185,2.244a6.522,6.522,0,0,1-4.068.549l-.228-.173a11.034,11.034,0,0,1-1.788.586c-1.609.456-6.423.777-7.163.222,0,0-.715-2.373,1.258-2.965,4.944-1.473,5.616-2.842,5.9-4.4.358-1.954.647-6.812.647-6.812Z" transform="translate(-151.785 -407.35)" fill="#207089"/>
            <g id="Сгруппировать_8938" data-name="Сгруппировать 8938" clip-path="url(#clip-path-7)">
              <path id="Контур_45387" data-name="Контур 45387" d="M157.369,421.179a2.889,2.889,0,0,1,2.108.493c.74.672,1.319,1.239,2.379.98,2.718-.666,2.472-2.786,3.686-1.88l.271,5.554-15.127,1.405-.247-4.21Z" transform="translate(-151.269 -412.413)" fill="#2e1933"/>
            </g>
            <g id="Сгруппировать_8939" data-name="Сгруппировать 8939" clip-path="url(#clip-path-7)">
              <path id="Контур_45389" data-name="Контур 45389" d="M151.263,428.516s.234.715,4.993.253,5.122-1.566,8.846-1.658l-.123,1.313-13.888,1.929Z" transform="translate(-151.519 -414.93)" fill="#206d86"/>
            </g>
          </g>
          <g id="Сгруппировать_8943" data-name="Сгруппировать 8943" transform="translate(45.693 155.605)">
            <path id="Контур_45391" data-name="Контур 45391" d="M205.05,407.261l.555,8.026s-.253,1.7-.24,2.275.339,2.225.339,2.225a6.508,6.508,0,0,0,4.093.265l.216-.191a10.472,10.472,0,0,0,1.825.462c1.634.345,6.46.333,7.163-.271,0,0,.549-2.416-1.461-2.866-5.03-1.128-5.8-2.447-6.189-3.976-.493-1.923-1.116-6.75-1.116-6.75Z" transform="translate(-205.05 -406.46)" fill="#207089"/>
            <g id="Сгруппировать_8941" data-name="Сгруппировать 8941" clip-path="url(#clip-path-9)">
              <path id="Контур_45392" data-name="Контур 45392" d="M212.316,420.39a2.888,2.888,0,0,0-2.071.641c-.69.721-1.227,1.325-2.305,1.14-2.755-.475-2.657-2.607-3.81-1.621l.117,5.56,15.189.358-.043-4.216Z" transform="translate(-204.697 -411.766)" fill="#2e1933"/>
            </g>
            <g id="Сгруппировать_8942" data-name="Сгруппировать 8942" clip-path="url(#clip-path-10)">
              <path id="Контур_45394" data-name="Контур 45394" d="M219.58,427.249s-.185.727-4.962.592-5.221-1.208-8.938-1.042l.216,1.3,13.987.962Z" transform="translate(-205.292 -414.255)" fill="#207089"/>
            </g>
          </g>
          <g id="Сгруппировать_8944" data-name="Сгруппировать 8944" transform="translate(38.961 33.139)">
            <path id="Контур_45396" data-name="Контур 45396" d="M194.758,216.038c2.213,4.66,16.872,22.395,22.685,24.713,8.667,3.452,22.833-2.373,28.954-4.777,2.336-1.338-.148-7.785-2.231-7.483,0,0-20.065,2.879-22.253,1.658-1.874-1.048-11.207-15.626-19.128-21.76C200.115,206.323,191.793,209.787,194.758,216.038Z" transform="translate(-194.128 -207.79)" fill="#f25858"/>
            <path id="Контур_45397" data-name="Контур 45397" d="M277.014,244.667a4.841,4.841,0,0,1,.037,3.119,1.145,1.145,0,0,1-.69.7,1.424,1.424,0,0,1-1.338-.5,5.477,5.477,0,0,1-1.313-2.336,4.762,4.762,0,0,1-.025-3.125,1.139,1.139,0,0,1,.69-.69.835.835,0,0,1,.351-.031h.006C275.571,241.9,276.533,243.07,277.014,244.667Z" transform="translate(-224.549 -220.836)" fill="#fff"/>
            <path id="Контур_45398" data-name="Контур 45398" d="M288.953,237.117a4.816,4.816,0,0,1-.573.666.553.553,0,0,1,.259.912,5.219,5.219,0,0,1-.974.857.666.666,0,0,1-.111.567c-1.492,2.195-8.149,4.432-9.943,4.142a.829.829,0,0,0-.129-.006c-.512.012-1.56.388-1.96.228a.6.6,0,0,1-.068-.031,5.475,5.475,0,0,1-1.313-2.336,4.762,4.762,0,0,1-.025-3.125c.2-.271.573-.3,1.042-.721h.006a3.544,3.544,0,0,0,.764-.974,13.6,13.6,0,0,1,3.52-3.329,14.528,14.528,0,0,1,2.928-1.085c1.227-.376,1.036,1.1.37,1.671-.949.814-1.43.968-1.732,1.405a3.578,3.578,0,0,0-.388.69,31.781,31.781,0,0,0,4.321-.955,22.646,22.646,0,0,0,2.589-1.27c.493-.247.937.37.592.9a6.825,6.825,0,0,1-2.515,1.985c-.5.216-1.017.419-1.5.592a9.434,9.434,0,0,0,1.812-.438c.8-.284,1.455-.74,2.558-1.233C288.977,236.02,289.323,236.612,288.953,237.117Z" transform="translate(-224.714 -217.392)" fill="#ffb072"/>
          </g>
          <path id="Контур_45399" data-name="Контур 45399" d="M183.158,277.406c1.855-7.915,13.007-8.722,14.1-.69,1.572,11.521,6.078,86,6.078,86-2.164,1.757-5.277.845-7.237.216C196.1,362.929,178.3,298.1,183.158,277.406Z" transform="translate(-150.638 -198.922)" fill="#19323a"/>
          <path id="Контур_45400" data-name="Контур 45400" d="M159.061,274.459c3.791-7.181,15.109-4.938,15.386,3.187.875,25.724-7.44,85.277-7.44,85.277a6.951,6.951,0,0,1-6.873-.247C160.128,362.676,151.948,287.94,159.061,274.459Z" transform="translate(-140.602 -198.564)" fill="#1c3742"/>
          <path id="Контур_45401" data-name="Контур 45401" d="M186.876,276.867c-.1,4.241-4.284,9.111-11.194,8.944s-15.941-3.736-15.842-7.97c.333-13.679,6-20.989,12.908-20.823S187.221,262.936,186.876,276.867Z" transform="translate(-142.015 -193.532)" fill="#1c3742"/>
          <path id="Контур_45402" data-name="Контур 45402" d="M188.554,274.995c-.062,2.484-7.434,3.563-15.479,3.366s-14.061-1.51-14.005-3.995c.2-8.014,7.181-12.507,15.226-12.31S188.751,266.827,188.554,274.995Z" transform="translate(-141.72 -195.463)" fill="#3c8460"/>
          <g id="Сгруппировать_8946" data-name="Сгруппировать 8946" transform="translate(7.012 26.196)">
            <path id="Контур_45403" data-name="Контур 45403" d="M153.181,206.28c3.045-5.1,17.4-9.733,18.135-9.752,5.079-.148,16.039,6.75,17.2,9.364,1.011,2.275-2.934,21.618-2.5,30.26.228,4.506.8,7.872.69,12.415-.1,4.241-30.285,4.3-30.18.062.086-3.514,2.651-6.1,2.607-9.764C159.062,231.523,151.874,208.469,153.181,206.28Z" transform="translate(-146.413 -196.526)" fill="#f5f6ae"/>
            <path id="Контур_45404" data-name="Контур 45404" d="M160.176,200.11s7.169,25.539,4.223,41.683c-1.128,6.183-9.444,13.34-11.761,18.253-1.418,3-1.59,10.042-1.59,10.042s-8.759-3.341-8.747-10.042c.006-3.606,10.338-24.047,10.338-24.047s-7.07-22.654-5.344-28.121S160.176,200.11,160.176,200.11Z" transform="translate(-142.3 -197.901)" fill="#f25858"/>
            <path id="Контур_45405" data-name="Контур 45405" d="M158.876,241.185c3.828-10.806,3.076-35.081-6.5-33.454a6.9,6.9,0,0,0-2.151,3.033c-1.726,5.468,5.344,28.122,5.344,28.122a80.459,80.459,0,0,0-5.233,10.467C153.4,246.443,157.483,245.124,158.876,241.185Z" transform="translate(-145.234 -200.794)" fill="#2e1933" opacity="0.5"/>
            <g id="Сгруппировать_8945" data-name="Сгруппировать 8945" transform="translate(25.36 13.372)">
              <path id="Контур_45406" data-name="Контур 45406" d="M184.845,218.941a.7.7,0,1,1-.684-.721A.7.7,0,0,1,184.845,218.941Z" transform="translate(-183.439 -218.219)" fill="#b94646"/>
              <path id="Контур_45407" data-name="Контур 45407" d="M186.375,231.131a.7.7,0,1,1-.684-.721A.7.7,0,0,1,186.375,231.131Z" transform="translate(-184.026 -222.895)" fill="#b94646"/>
              <path id="Контур_45408" data-name="Контур 45408" d="M187.255,243a.7.7,0,1,1-.684-.721A.7.7,0,0,1,187.255,243Z" transform="translate(-184.364 -227.448)" fill="#b94646"/>
              <path id="Контур_45409" data-name="Контур 45409" d="M188.135,253.961a.7.7,0,1,1-.684-.721A.7.7,0,0,1,188.135,253.961Z" transform="translate(-184.701 -231.652)" fill="#b94646"/>
              <path id="Контур_45410" data-name="Контур 45410" d="M188.115,264.771a.7.7,0,1,1-.684-.721A.7.7,0,0,1,188.115,264.771Z" transform="translate(-184.694 -235.799)" fill="#b94646"/>
              <path id="Контур_45411" data-name="Контур 45411" d="M188.425,275.591a.7.7,0,1,1-.684-.721A.7.7,0,0,1,188.425,275.591Z" transform="translate(-184.813 -239.949)" fill="#b94646"/>
            </g>
          </g>
          <g id="Сгруппировать_8947" data-name="Сгруппировать 8947" transform="translate(0 32.591)">
            <path id="Контур_45412" data-name="Контур 45412" d="M143.8,208.786c4.068-5.6,10.689,2.392,7.453,9.24-3.267,6.91-7.366,13.882-8.322,20.243-.666,4.438,9.851,21.637,9.851,21.637.074.814-4.691,5.64-5.536,5.659,0,0-18.074-19.2-16.181-29.761A53.676,53.676,0,0,1,143.8,208.786Z" transform="translate(-130.925 -206.9)" fill="#f25858"/>
            <path id="Контур_45413" data-name="Контур 45413" d="M143.793,255.99c-1.405-1.239-6.51-3.347-6.941-2.8-.345.432,4.673,2.195,4.673,2.195s-6.442-2.016-6.8-.653c-.2.746,3.964.2,8.581,1.689C143.306,256.416,144.619,256.718,143.793,255.99Z" transform="translate(-132.38 -224.62)" fill="#2e1933" opacity="0.5"/>
            <path id="Контур_45414" data-name="Контур 45414" d="M163.869,289.55a22.054,22.054,0,0,1-7.372,8.057.6.6,0,0,0,.395.672c.481.148,1.6-.789,3.717-2.873a24.882,24.882,0,0,0,3.853-5.375C164.522,289.55,163.869,289.55,163.869,289.55Z" transform="translate(-140.731 -238.602)" fill="#2b545e"/>
          </g>
          <path id="Контур_45415" data-name="Контур 45415" d="M193.53,199.53s1.295,37.417,1.664,39.772,3.064,27.086,4.623,28.991,6.133-.888,6.133-.888l-3.581-31.167s3.52-24.534,2.194-28.9S193.53,199.53,193.53,199.53Z" transform="translate(-154.938 -171.483)" fill="#f25858"/>
          <g id="Сгруппировать_8962" data-name="Сгруппировать 8962" transform="translate(24.5)">
            <path id="Контур_45416" data-name="Контур 45416" d="M172.979,193.766c.9-1.2,9.931-1.412,10.411-.16l-.2,5.449-10.757-.086Z" transform="translate(-171.345 -168.887)" fill="#e2e38c"/>
            <g id="Сгруппировать_8959" data-name="Сгруппировать 8959" transform="translate(0.199)">
              <g id="Сгруппировать_8958" data-name="Сгруппировать 8958">
                <path id="Контур_45417" data-name="Контур 45417" d="M175.315,182.569a26.3,26.3,0,0,1-.388,6.294,34.1,34.1,0,0,1-2.5,6.5l4.851.37,3.39,4.716.863-5.566,3.68-1.362s-3.538-2.17-3.409-6.01c.111-3.341.2-5.2.2-5.2Z" transform="translate(-171.544 -164.877)" fill="#ffb072"/>
                <g id="Сгруппировать_8955" data-name="Сгруппировать 8955">
                  <g id="Сгруппировать_8948" data-name="Сгруппировать 8948" transform="translate(12.656 11.334)">
                    <path id="Контур_45418" data-name="Контур 45418" d="M192.489,177.732c-1.036-.789-1.294-3.335-.5-4.6a1.473,1.473,0,0,1,1.923-.561c1,.413,1.288,1.671,1.165,2.916C194.924,176.968,193.624,178.6,192.489,177.732Z" transform="translate(-191.524 -172.417)" fill="#ffb072" fill-rule="evenodd"/>
                    <path id="Контур_45419" data-name="Контур 45419" d="M193.293,177.889l.253-1.368-.826-.24s.129-2.5,1.523-1.781C195.389,175.1,194.662,178.2,193.293,177.889Z" transform="translate(-191.983 -173.165)" fill="#e57e55"/>
                  </g>
                  <g id="Сгруппировать_8950" data-name="Сгруппировать 8950">
                    <path id="Контур_45420" data-name="Контур 45420" d="M174.764,174.907a9.129,9.129,0,0,0,1.27,3.514c1.122,1.43,2.663,3.15,6.8,2.293s2.768-9.666,2.768-9.666a19.842,19.842,0,0,0-.912-6.2c-.992-2.706-6.725-3.36-11.016-1.331,0,0-1.11,1.418.191,6.836a1.7,1.7,0,0,0-2.176.025c-.912.684-.826,1.973-.314,3.125C172,174.888,173.679,175.912,174.764,174.907Z" transform="translate(-170.993 -157.215)" fill="#ffb072" fill-rule="evenodd"/>
                    <g id="Сгруппировать_8949" data-name="Сгруппировать 8949" transform="translate(7.981 17.983)">
                      <path id="Контур_45421" data-name="Контур 45421" d="M184,183.472a5.375,5.375,0,0,0,2.4.247,9.151,9.151,0,0,0,1.2-.247,8.086,8.086,0,0,0,1.153-.259l.012-.006a.048.048,0,0,1,.068.031.053.053,0,0,1,0,.043,1.047,1.047,0,0,1-.53.425,2.815,2.815,0,0,1-.61.2c-.21.043-.413.068-.623.092s-.425.049-.635.062a5.145,5.145,0,0,1-1.27-.086,3.8,3.8,0,0,1-1.2-.425.04.04,0,0,1-.012-.055.033.033,0,0,1,.049-.019Z" transform="translate(-183.94 -183.202)" fill="#fd6141"/>
                    </g>
                    <path id="Контур_45422" data-name="Контур 45422" d="M171.443,160.392a10.029,10.029,0,0,1,8.568-6.022l.092,1.775a4.817,4.817,0,0,0,.351-2.114c2.33,1.208,2.262,2.885,2.262,2.885l.431-1.313c3.544,1.818,3.773,6.09,2.472,12.255l-.524-4.407a9.67,9.67,0,0,0-.869-2.527s-.456.592-3.36.746c-.123.006-.24.012-.358.012-.062.006-.1.012-.1.012s-.025-.006-.037-.006a27.958,27.958,0,0,1-5.2-.388,16.635,16.635,0,0,1-.45,3.162c-.228.863.512,5.61.512,5.61s-.086.579-.284.012c-.364-1.029-.752-3.9-3.224-2.9C171.715,167.191,170.414,162.635,171.443,160.392Z" transform="translate(-171.014 -154.03)" fill="#39222f"/>
                    <path id="Контур_45423" data-name="Контур 45423" d="M174.778,179.956l-.684-1.233.783-.468s-.9-2.361-2.127-1.258C171.739,177.9,173.453,180.653,174.778,179.956Z" transform="translate(-171.55 -162.727)" fill="#e57e55"/>
                  </g>
                  <g id="Сгруппировать_8954" data-name="Сгруппировать 8954" transform="translate(4.984 10.563)">
                    <g id="Сгруппировать_8951" data-name="Сгруппировать 8951" transform="translate(0 0.304)">
                      <path id="Контур_45424" data-name="Контур 45424" d="M183.592,176.84c.018.314-.382.395-.882.425s-.912,0-.931-.314.37-.592.869-.623S183.573,176.526,183.592,176.84Z" transform="translate(-180.114 -173.449)" fill="#3e2344"/>
                      <path id="Контур_45425" data-name="Контур 45425" d="M179.079,172.948c0,.049,1.412-.493,1.868-.505a11.134,11.134,0,0,0,2.324.043,2.383,2.383,0,0,0,.234-.752,19.03,19.03,0,0,0-2.836-.018,3.571,3.571,0,0,0-1.405.549A1.017,1.017,0,0,0,179.079,172.948Z" transform="translate(-179.079 -171.659)" fill="#39222f"/>
                    </g>
                    <g id="Сгруппировать_8952" data-name="Сгруппировать 8952" transform="translate(5.771)">
                      <path id="Контур_45426" data-name="Контур 45426" d="M191.732,176.29c.018.314-.382.395-.882.425s-.912,0-.931-.314.37-.592.869-.623S191.713,175.976,191.732,176.29Z" transform="translate(-189.007 -172.934)" fill="#3e2344"/>
                      <path id="Контур_45427" data-name="Контур 45427" d="M191.7,172.278c0,.049-.82-.512-1.134-.469s-1.689.635-1.818.481a3.367,3.367,0,0,1-.308-.709,12.768,12.768,0,0,1,2.293-.407,1.836,1.836,0,0,1,.826.376A1.153,1.153,0,0,1,191.7,172.278Z" transform="translate(-188.44 -171.166)" fill="#39222f"/>
                    </g>
                    <g id="Сгруппировать_8953" data-name="Сгруппировать 8953" transform="translate(5.062 1.599)">
                      <path id="Контур_45428" data-name="Контур 45428" d="M188.461,180.89s-1.153.129-1.171-.185,2.324-1.011,2.49-.808S188.954,180.668,188.461,180.89Z" transform="translate(-187.29 -176.1)" fill="#e57e55" opacity="0.5"/>
                      <path id="Контур_45429" data-name="Контур 45429" d="M188.361,173.76a5.861,5.861,0,0,0,.123,1.973c.247.493,1.467,1.5,1.529,1.745s-1.066,1.023-1.153,1.073,1.7-.5,1.553-1.054-1.7-1.775-1.788-2.04S188.361,173.76,188.361,173.76Z" transform="translate(-187.689 -173.76)" fill="#e57e55"/>
                    </g>
                  </g>
                </g>
                <g id="Сгруппировать_8957" data-name="Сгруппировать 8957" transform="translate(3.179 11.825)">
                  <g id="Сгруппировать_8956" data-name="Сгруппировать 8956" transform="translate(2.09 0.139)">
                    <path id="Контур_45430" data-name="Контур 45430" d="M193.051,173.587s.771,2.644-1.9,2.792c-2.712.148-2.17-2.657-2.17-2.657C191.886,173.174,193.051,173.587,193.051,173.587Z" transform="translate(-183.145 -173.438)" fill="#a1abad" opacity="0.5"/>
                    <path id="Контур_45431" data-name="Контур 45431" d="M179.583,174.226c2.91-.542,4.068-.129,4.068-.129s.771,2.644-1.9,2.792C179.047,177.024,179.583,174.226,179.583,174.226Z" transform="translate(-179.54 -173.633)" fill="#a1abad" opacity="0.5"/>
                  </g>
                  <path id="Контур_45432" data-name="Контур 45432" d="M178.1,174.432h0a2.477,2.477,0,0,0,.518,1.671,2.609,2.609,0,0,0,3.612-.185,2.509,2.509,0,0,0,.321-1.843c.148-.074.875-.413,1.35-.1a2.574,2.574,0,0,0,.512,1.818,2.609,2.609,0,0,0,3.612-.185,2.8,2.8,0,0,0,.259-2.145l-.018-.068-.068-.025c-.049-.019-1.233-.419-4.142.129l-.092.018-.018.092c0,.006-.006.025-.006.037a1.535,1.535,0,0,0-1.449.123l-.018-.062-.068-.025c-.049-.019-1.233-.419-4.142.129l-.092.019-2.022.444.025.444Zm6.1-.684a9.772,9.772,0,0,1,3.834-.142,2.44,2.44,0,0,1-.234,1.837,2.346,2.346,0,0,1-3.175.166A2.473,2.473,0,0,1,184.2,173.747Zm-5.794.314a9.773,9.773,0,0,1,3.834-.142,2.44,2.44,0,0,1-.234,1.837,2.346,2.346,0,0,1-3.175.166A2.506,2.506,0,0,1,178.406,174.062Z" transform="translate(-176.15 -173.213)" fill="#666"/>
                </g>
              </g>
            </g>
            <g id="Сгруппировать_8960" data-name="Сгруппировать 8960" transform="translate(0 24.879)">
              <path id="Контур_45433" data-name="Контур 45433" d="M172.3,194.39s-.259,1.079,1.831,2.916c.653.573,2.891,1.985,2.891,1.985l3.273,6.164-.74.123-3.107-5.739-3.064,4.611a16.479,16.479,0,0,1-2.718-6.029Z" transform="translate(-170.67 -194.39)" fill="#f5f6ae"/>
              <path id="Контур_45434" data-name="Контур 45434" d="M175.08,207.841l3.064-4.611,3.113,5.739L177.57,206Z" transform="translate(-172.362 -197.781)" fill="#e2e38c"/>
            </g>
            <g id="Сгруппировать_8961" data-name="Сгруппировать 8961" transform="translate(8.895 24.719)">
              <path id="Контур_45435" data-name="Контур 45435" d="M188.25,194.13a8.756,8.756,0,0,1-1.788,4.95l-1.362,6.4.74-.123,1.1-5.764,2.213,4.346a9.6,9.6,0,0,0,.882-6.719Z" transform="translate(-185.1 -194.13)" fill="#f5f6ae"/>
              <path id="Контур_45436" data-name="Контур 45436" d="M189.606,207.336l-2.213-4.346-1.1,5.77,1.165-3.138Z" transform="translate(-185.556 -197.528)" fill="#e2e38c"/>
            </g>
          </g>
        </g>
      </g>
      <g id="Сгруппировать_8966" data-name="Сгруппировать 8966" transform="translate(83.112 0)">
        <path id="Контур_45441" data-name="Контур 45441" d="M304.33,81.109a6.682,6.682,0,1,1-6.682,6.682A6.687,6.687,0,0,1,304.33,81.109Zm1.664-8.994a15.754,15.754,0,0,0-3.323,0l-.308,4.833a11.294,11.294,0,0,0-2.231.653l-2.872-3.9a15.908,15.908,0,0,0-2.8,1.8l2.349,4.229a11.163,11.163,0,0,0-1.523,1.757l-4.525-1.726a15.6,15.6,0,0,0-1.381,3.027l4.266,2.287a11.125,11.125,0,0,0-.333,2.3l-4.734.992a15.648,15.648,0,0,0,.475,3.292l4.827-.382a10.927,10.927,0,0,0,.968,2.114l-3.446,3.4a15.666,15.666,0,0,0,2.176,2.515l3.853-2.928a11.222,11.222,0,0,0,1.954,1.258l-1.06,4.722a15.561,15.561,0,0,0,3.193.937l1.658-4.549a11.264,11.264,0,0,0,2.324,0l1.658,4.549a15.673,15.673,0,0,0,3.193-.937l-1.06-4.722a11,11,0,0,0,1.954-1.258l3.853,2.928a15.668,15.668,0,0,0,2.176-2.515l-3.446-3.4a11.285,11.285,0,0,0,.968-2.114l4.827.382a16.061,16.061,0,0,0,.475-3.292l-4.753-.986a11.124,11.124,0,0,0-.333-2.3l4.266-2.287a15.764,15.764,0,0,0-1.381-3.027L313.373,81.5a11.164,11.164,0,0,0-1.523-1.757l2.349-4.229a15.914,15.914,0,0,0-2.8-1.8l-2.873,3.9a10.89,10.89,0,0,0-2.231-.653Z" transform="translate(-288.58 -72.028)" fill="#d8eaea" fill-rule="evenodd"/>
        <path id="Контур_45442" data-name="Контур 45442" d="M351.912,97.849a5.948,5.948,0,1,1-6.805,4.944A5.951,5.951,0,0,1,351.912,97.849Zm1.874-7.872c-.407-.08-.814-.148-1.227-.2l-1.535,4.13a10.306,10.306,0,0,0-1.744.148l-2.207-3.816c-.4.117-.789.247-1.177.395l.561,4.37a10.351,10.351,0,0,0-1.479.943L341.254,93.6c-.3.29-.586.586-.857.9l2.527,3.606a9.526,9.526,0,0,0-.869,1.523l-4.389-.351c-.129.395-.247.789-.339,1.2l3.914,2.022a9.766,9.766,0,0,0-.062,1.751l-4.05,1.726c.068.407.148.814.253,1.214l4.4-.031a9.28,9.28,0,0,0,.758,1.578l-2.786,3.415c.247.333.512.653.789.962l3.883-2.071a10.149,10.149,0,0,0,1.405,1.048l-.882,4.315q.564.268,1.147.481l2.478-3.643a10.244,10.244,0,0,0,1.732.277l1.227,4.229c.413-.018.826-.049,1.239-.1l.5-4.377a9.906,9.906,0,0,0,1.658-.561l3.051,3.175c.358-.21.709-.431,1.048-.666l-1.59-4.105a9.81,9.81,0,0,0,1.208-1.27l4.179,1.393c.222-.351.425-.709.616-1.079l-3.316-2.9a10.074,10.074,0,0,0,.481-1.683l4.346-.709c.031-.413.049-.826.043-1.239l-4.284-1.023a9.626,9.626,0,0,0-.358-1.714l3.52-2.651c-.16-.382-.339-.752-.536-1.122l-4.272,1.085a9.759,9.759,0,0,0-1.116-1.35l1.886-3.982c-.321-.259-.653-.512-.992-.74l-3.273,2.947a9.24,9.24,0,0,0-1.615-.678Z" transform="translate(-307.202 -78.837)" fill="#d8eaea" fill-rule="evenodd"/>
        <path id="Контур_45443" data-name="Контур 45443" d="M360.541,111.141a2.121,2.121,0,1,1-2.121-2.121A2.12,2.12,0,0,1,360.541,111.141Z" transform="translate(-314.555 -86.217)" fill="#d8eaea" fill-rule="evenodd"/>
      </g>
    </g>
  </g>
</svg>
