<svg xmlns="http://www.w3.org/2000/svg" width="49.867" height="49.867" viewBox="0 0 49.867 49.867">
  <path id="Контур_44391" data-name="Контур 44391" d="M48.406,46.945H41.978V32.628a2.925,2.925,0,0,0-2.922-2.922H36.884a12.68,12.68,0,0,0-3.337-6.252,10.438,10.438,0,0,0-3.53-2.31,14.529,14.529,0,0,0,4.671-10.463c0-3.456-.962-6.169-2.858-8.063A9.5,9.5,0,0,0,24.934,0a9.5,9.5,0,0,0-6.9,2.618c-1.9,1.893-2.858,4.606-2.858,8.063A14.529,14.529,0,0,0,19.85,21.144a10.438,10.438,0,0,0-3.53,2.31,12.679,12.679,0,0,0-3.337,6.252H10.811a2.925,2.925,0,0,0-2.922,2.922V46.945H1.461a1.461,1.461,0,0,0,0,2.922H48.406a1.461,1.461,0,1,0,0-2.922ZM24.934,2.922c2.146,0,5.513.713,6.531,4.954a8.512,8.512,0,0,1-3-.939,3.316,3.316,0,0,0-2.294-.482,4.394,4.394,0,0,0-1.763.981c-.923.728-2.27,1.789-6.249,2,.5-5.636,4.393-6.518,6.78-6.518ZM18.248,12.36c4.962-.261,6.815-1.724,7.965-2.632.166-.131.381-.3.513-.381.117.049.29.135.437.208a11.527,11.527,0,0,0,4.6,1.287,11.968,11.968,0,0,1-2.16,6.417c-1.349,1.919-3.051,3.019-4.669,3.019s-3.32-1.1-4.669-3.019a12.282,12.282,0,0,1-2.016-4.9Zm5.906,10.917h1.558c4.054,0,7.012,2.371,8.16,6.428H15.995C17.142,25.648,20.1,23.278,24.154,23.278ZM10.811,46.945V32.628H39.056V46.945Z" transform="translate(0 0)" fill="#00b870"/>
</svg>
