<svg xmlns="http://www.w3.org/2000/svg" width="39.091" height="32.067" viewBox="0 0 39.091 32.067">
  <g id="decision" transform="translate(0 -46)">
    <path id="Контур_46173" data-name="Контур 46173" d="M9.162,46A9.162,9.162,0,0,0,8.017,64.252V76.921a1.145,1.145,0,0,0,2.29,0V64.252A9.162,9.162,0,0,0,9.162,46Zm0,16.033a6.871,6.871,0,1,1,6.871-6.871A6.879,6.879,0,0,1,9.162,62.033Z" fill="#00b870"/>
    <path id="Контур_46174" data-name="Контур 46174" d="M290.324,55.162a9.162,9.162,0,1,0-10.307,9.09V76.921a1.145,1.145,0,1,0,2.29,0V64.252A9.175,9.175,0,0,0,290.324,55.162Zm-9.162,6.871a6.871,6.871,0,1,1,6.871-6.871A6.879,6.879,0,0,1,281.162,62.033Z" transform="translate(-251.233)" fill="#00b870"/>
    <path id="Контур_46175" data-name="Контур 46175" d="M79.994,119.516a1.145,1.145,0,0,0-1.62,0l-1.62,1.62-1.62-1.62a1.145,1.145,0,0,0-1.62,1.62l1.62,1.62-1.62,1.62a1.145,1.145,0,0,0,1.62,1.62l1.62-1.62,1.62,1.62a1.145,1.145,0,0,0,1.62-1.62l-1.62-1.62,1.62-1.62A1.145,1.145,0,0,0,79.994,119.516Z" transform="translate(-67.593 -67.593)" fill="#00b870"/>
    <path id="Контур_46176" data-name="Контур 46176" d="M337.665,119.515l-3.91,3.91-1.62-1.62a1.145,1.145,0,1,0-1.62,1.62l2.429,2.429a1.145,1.145,0,0,0,1.62,0l4.72-4.72a1.145,1.145,0,1,0-1.62-1.62Z" transform="translate(-304.971 -67.592)" fill="#00b870"/>
  </g>
</svg>
