<svg xmlns="http://www.w3.org/2000/svg" width="39" height="39" viewBox="0 0 39 39">
  <g id="management" transform="translate(0)">
    <path id="Контур_46181" data-name="Контур 46181" d="M37.857,13.787H34.852q-.208-.558-.457-1.1l2.126-2.126a1.143,1.143,0,0,0,0-1.616L30.057,2.48a1.143,1.143,0,0,0-1.616,0L26.315,4.605q-.543-.249-1.1-.457V1.143A1.143,1.143,0,0,0,24.07,0H14.93a1.143,1.143,0,0,0-1.143,1.143V4.148q-.558.208-1.1.457L10.559,2.48a1.143,1.143,0,0,0-1.616,0L2.48,8.943a1.143,1.143,0,0,0,0,1.616l2.126,2.126q-.249.543-.457,1.1H1.143A1.143,1.143,0,0,0,0,14.93V24.07a1.143,1.143,0,0,0,1.143,1.143H4.148q.208.558.457,1.1L2.48,28.441a1.143,1.143,0,0,0,0,1.616L8.943,36.52a1.143,1.143,0,0,0,1.616,0l2.126-2.126q.543.249,1.1.457v3.005A1.143,1.143,0,0,0,14.93,39H24.07a1.143,1.143,0,0,0,1.143-1.143V34.852q.558-.208,1.1-.457l2.126,2.126a1.143,1.143,0,0,0,1.616,0l6.463-6.463a1.143,1.143,0,0,0,0-1.616l-2.126-2.126q.249-.543.457-1.1h3.005A1.143,1.143,0,0,0,39,24.07V14.93a1.143,1.143,0,0,0-1.143-1.143Zm-1.143,9.141H34.036a1.143,1.143,0,0,0-1.09.8A14.042,14.042,0,0,1,32,26.017a1.142,1.142,0,0,0,.2,1.337l1.895,1.9L29.249,34.1l-1.9-1.9a1.143,1.143,0,0,0-1.337-.2,14.043,14.043,0,0,1-2.289.95,1.143,1.143,0,0,0-.8,1.09v2.678H16.072V34.037a1.143,1.143,0,0,0-.8-1.09A14.042,14.042,0,0,1,12.983,32a1.143,1.143,0,0,0-1.337.2l-1.9,1.9L4.9,29.249l1.895-1.9A1.143,1.143,0,0,0,7,26.017a14.039,14.039,0,0,1-.95-2.289,1.143,1.143,0,0,0-1.09-.8H2.285V16.072H4.963a1.143,1.143,0,0,0,1.09-.8A14.046,14.046,0,0,1,7,12.983a1.143,1.143,0,0,0-.2-1.337L4.9,9.751,9.751,4.9l1.9,1.9a1.142,1.142,0,0,0,1.337.2,14.049,14.049,0,0,1,2.289-.95,1.142,1.142,0,0,0,.8-1.09V2.285h6.855V4.964a1.143,1.143,0,0,0,.8,1.09A14.037,14.037,0,0,1,26.017,7a1.142,1.142,0,0,0,1.337-.2l1.9-1.9L34.1,9.751l-1.895,1.9a1.143,1.143,0,0,0-.2,1.337,14.041,14.041,0,0,1,.95,2.289,1.143,1.143,0,0,0,1.09.8h2.678Z" fill="#00b870"/>
    <path id="Контур_46182" data-name="Контур 46182" d="M131.283,121a10.283,10.283,0,1,0,10.283,10.283A10.295,10.295,0,0,0,131.283,121Zm-4.115,17.139a4.183,4.183,0,0,1,8.229,0,7.983,7.983,0,0,1-8.229,0Zm1.829-8a2.285,2.285,0,1,1,2.285,2.285A2.288,2.288,0,0,1,129,130.141Zm8.31,6.4a6.5,6.5,0,0,0-2.744-3.219,4.57,4.57,0,1,0-6.561,0,6.5,6.5,0,0,0-2.744,3.219,8,8,0,1,1,12.049,0Z" transform="translate(-111.783 -111.783)" fill="#00b870"/>
  </g>
</svg>
