<svg xmlns="http://www.w3.org/2000/svg" width="16.623" height="15" viewBox="0 0 16.623 15">
  <g id="calendar_5_" data-name="calendar (5)" transform="translate(0 -25)">
    <path id="Контур_44086" data-name="Контур 44086" d="M16.623,29.675V27.76A1.463,1.463,0,0,0,15.162,26.3h-.195v1.786a.487.487,0,1,1-.974,0v-2.6a.487.487,0,1,0-.974,0V26.3H9.773v1.786a.487.487,0,1,1-.974,0v-2.6a.487.487,0,1,0-.974,0V26.3H4.578v1.786a.487.487,0,1,1-.974,0v-2.6a.487.487,0,1,0-.974,0V26.3H1.461A1.463,1.463,0,0,0,0,27.76v1.916Z" fill="#00b870"/>
    <path id="Контур_44087" data-name="Контур 44087" d="M0,199v7.89a1.463,1.463,0,0,0,1.461,1.461h13.7a1.463,1.463,0,0,0,1.461-1.461V199Zm4.675,6.753H3.636a.487.487,0,1,1,0-.974H4.675a.487.487,0,1,1,0,.974Zm0-2.078H3.636a.487.487,0,0,1,0-.974H4.675a.487.487,0,0,1,0,.974Zm0-2.078H3.636a.487.487,0,0,1,0-.974H4.675a.487.487,0,0,1,0,.974Zm4.156,4.156H7.792a.487.487,0,1,1,0-.974H8.831a.487.487,0,1,1,0,.974Zm0-2.078H7.792a.487.487,0,0,1,0-.974H8.831a.487.487,0,0,1,0,.974Zm0-2.078H7.792a.487.487,0,0,1,0-.974H8.831a.487.487,0,0,1,0,.974Zm4.156,4.156H11.948a.487.487,0,1,1,0-.974h1.039a.487.487,0,1,1,0,.974Zm0-2.078H11.948a.487.487,0,0,1,0-.974h1.039a.487.487,0,0,1,0,.974Zm0-2.078H11.948a.487.487,0,0,1,0-.974h1.039a.487.487,0,0,1,0,.974Z" transform="translate(0 -168.351)" fill="#00b870"/>
  </g>
</svg>
