<svg xmlns="http://www.w3.org/2000/svg" width="20" height="13.466" viewBox="0 0 20 13.466">
  <g id="dollar" transform="translate(0 -75.473)">
    <g id="Сгруппировать_7254" data-name="Сгруппировать 7254" transform="translate(8.317 85.589)">
      <g id="Сгруппировать_7253" data-name="Сгруппировать 7253" transform="translate(0 0)">
        <path id="Контур_44263" data-name="Контур 44263" d="M194.124,309.307v-.078c-.4,0-.779-.026-1.147-.056a5.228,5.228,0,0,1-.831,1.424,13.518,13.518,0,0,0,2,.177Z" transform="translate(-192.146 -309.173)" fill="#00b870"/>
      </g>
    </g>
    <g id="Сгруппировать_7256" data-name="Сгруппировать 7256" transform="translate(0 79.416)">
      <g id="Сгруппировать_7255" data-name="Сгруппировать 7255" transform="translate(0 0)">
        <path id="Контур_44264" data-name="Контур 44264" d="M8.542,170.014a4.346,4.346,0,0,0-2.952-3.251,4.409,4.409,0,0,0-1.277-.19,4.313,4.313,0,1,0,2.9,7.5,4.289,4.289,0,0,0,1.411-3.19A4.527,4.527,0,0,0,8.542,170.014Zm-4.229.29a1.634,1.634,0,0,1,.442,3.208v.381a.433.433,0,1,1-.866,0v-.377a1.644,1.644,0,0,1-1.212-1.58.433.433,0,0,1,.866,0,.768.768,0,1,0,.766-.77,1.633,1.633,0,0,1-.416-3.212v-.186a.433.433,0,0,1,.866,0v.195a1.636,1.636,0,0,1,1.19,1.576.433.433,0,0,1-.866,0,.771.771,0,1,0-.77.766Z" transform="translate(0 -166.573)" fill="#00b870"/>
      </g>
    </g>
    <g id="Сгруппировать_7258" data-name="Сгруппировать 7258" transform="translate(9.395 83.213)">
      <g id="Сгруппировать_7257" data-name="Сгруппировать 7257" transform="translate(0 0)">
        <path id="Контур_44265" data-name="Контур 44265" d="M217.933,255.836l-.026-1.532c-.268,0-.532-.013-.784-.03.013.173.022.342.022.511a5.32,5.32,0,0,1-.1,1.013C217.332,255.823,217.63,255.836,217.933,255.836Z" transform="translate(-217.046 -254.273)" fill="#00b870"/>
      </g>
    </g>
    <g id="Сгруппировать_7260" data-name="Сгруппировать 7260" transform="translate(6.131 77.611)">
      <g id="Сгруппировать_7259" data-name="Сгруппировать 7259">
        <path id="Контур_44266" data-name="Контур 44266" d="M150.537,124.873a5.192,5.192,0,0,1-.939.377,14.3,14.3,0,0,1-7.017.035,4.8,4.8,0,0,1-.935-.359l.03,1.221a4.994,4.994,0,0,1,1.355.766c.013,0,.022,0,.035.009a12.385,12.385,0,0,0,2.948.325,12.252,12.252,0,0,0,3.333-.42c.939-.286,1.147-.584,1.147-.641a.249.249,0,0,1,.043-.177v-1.134Z" transform="translate(-141.646 -124.873)" fill="#00b870"/>
      </g>
    </g>
    <g id="Сгруппировать_7262" data-name="Сгруппировать 7262" transform="translate(6.088 75.473)">
      <g id="Сгруппировать_7261" data-name="Сгруппировать 7261">
        <path id="Контур_44267" data-name="Контур 44267" d="M148.386,75.893a12.086,12.086,0,0,0-3.333-.42,11.693,11.693,0,0,0-3.29.42c-.913.277-1.112.55-1.117.636,0,0,0,0,0,.009.022.1.281.39,1.212.658a11.885,11.885,0,0,0,3.19.39,12.231,12.231,0,0,0,3.329-.416c.939-.281,1.151-.58,1.151-.641S149.325,76.179,148.386,75.893Z" transform="translate(-140.646 -75.473)" fill="#00b870"/>
      </g>
    </g>
    <g id="Сгруппировать_7264" data-name="Сгруппировать 7264" transform="translate(11.178 86.572)">
      <g id="Сгруппировать_7263" data-name="Сгруппировать 7263" transform="translate(0 0)">
        <path id="Контур_44268" data-name="Контур 44268" d="M267.059,333.172v-1.3a5.556,5.556,0,0,1-.909.368,12.8,12.8,0,0,1-3.575.454,13.323,13.323,0,0,1-3.251-.372,5.643,5.643,0,0,1-1.078-.394l.022,1.255v.009c0,.065.19.355,1.1.636a11.78,11.78,0,0,0,3.285.411,11.558,11.558,0,0,0,3.294-.424c.913-.286,1.112-.584,1.112-.645Z" transform="translate(-258.246 -331.873)" fill="#00b870"/>
      </g>
    </g>
    <g id="Сгруппировать_7266" data-name="Сгруппировать 7266" transform="translate(8.529 80.027)">
      <g id="Сгруппировать_7265" data-name="Сгруппировать 7265">
        <path id="Контур_44269" data-name="Контур 44269" d="M203.53,180.673a5.467,5.467,0,0,1-.935.372,12.921,12.921,0,0,1-3.588.454,15.593,15.593,0,0,1-1.961-.126,5.132,5.132,0,0,1,.775,1.61c.372.026.775.043,1.19.043h.043c.71-.779,2.619-1.169,4.476-1.221v-1.134Z" transform="translate(-197.046 -180.673)" fill="#00b870"/>
      </g>
    </g>
    <g id="Сгруппировать_7268" data-name="Сгруппировать 7268" transform="translate(11.139 84.178)">
      <g id="Сгруппировать_7267" data-name="Сгруппировать 7267" transform="translate(0 0)">
        <path id="Контур_44270" data-name="Контур 44270" d="M265.259,276.941a12.955,12.955,0,0,1-3.536.442,12.794,12.794,0,0,1-3.433-.42,5.311,5.311,0,0,1-.944-.364l.017,1,0,.364c.338.42,1.952.961,4.35.961a11.976,11.976,0,0,0,3.32-.416c.935-.286,1.138-.58,1.138-.641s.026-.1.026-.143h0v-1.147A4.943,4.943,0,0,1,265.259,276.941Z" transform="translate(-257.346 -276.573)" fill="#00b870"/>
      </g>
    </g>
    <g id="Сгруппировать_7270" data-name="Сгруппировать 7270" transform="translate(11.109 82.035)">
      <g id="Сгруппировать_7269" data-name="Сгруппировать 7269">
        <path id="Контур_44271" data-name="Контур 44271" d="M264.386,227.484a12.132,12.132,0,0,0-3.333-.411h-.074a11.78,11.78,0,0,0-3.086.368c-.9.251-1.2.537-1.242.654a.033.033,0,0,0,0,.017l.009.017c.026.091.281.385,1.212.658a13.452,13.452,0,0,0,6.48-.022c.961-.286,1.177-.584,1.182-.649v0C265.524,228.047,265.308,227.761,264.386,227.484Z" transform="translate(-256.646 -227.073)" fill="#00b870"/>
      </g>
    </g>
  </g>
</svg>
