<svg id="clock_3_" data-name="clock (3)" xmlns="http://www.w3.org/2000/svg" width="14" height="14" viewBox="0 0 14 14">
  <g id="Сгруппировать_7272" data-name="Сгруппировать 7272" transform="translate(0 0)">
    <g id="Сгруппировать_7271" data-name="Сгруппировать 7271">
      <path id="Контур_44272" data-name="Контур 44272" d="M11.95,2.05a7,7,0,0,0-9.9,9.9,7,7,0,0,0,9.9-9.9ZM7,12.626A5.632,5.632,0,0,1,1.374,7c0-.005,0-.01,0-.015s0,0,0,0,0,0,0-.006a5.632,5.632,0,0,1,5.549-5.6H7A5.626,5.626,0,1,1,7,12.626Z" transform="translate(0 0)" fill="#00b870"/>
    </g>
  </g>
  <g id="Сгруппировать_7274" data-name="Сгруппировать 7274" transform="translate(1.979 1.976)">
    <g id="Сгруппировать_7273" data-name="Сгруппировать 7273">
      <path id="Контур_44273" data-name="Контур 44273" d="M90.65,86.408a.435.435,0,0,1,0-.87h.524a5.047,5.047,0,0,0-4.637-4.509v.456a.435.435,0,1,1-.87,0v-.446A5.046,5.046,0,0,0,81.146,85.6h.47a.435.435,0,1,1,0,.87h-.473a5.046,5.046,0,0,0,4.586,4.6v-.551a.435.435,0,1,1,.87,0v.551a5.046,5.046,0,0,0,4.59-4.664Zm-2.727-1.5L86.47,86.361a.435.435,0,0,1-.615,0l-2.529-2.529a.435.435,0,0,1,.615-.615l2.222,2.222,1.146-1.146a.435.435,0,1,1,.615.615Z" transform="translate(-81.142 -81.029)" fill="#00b870"/>
    </g>
  </g>
</svg>
