<svg xmlns="http://www.w3.org/2000/svg" width="15.5" height="15.5" viewBox="0 0 15.5 15.5">
  <g id="comment_1_" data-name="comment (1)" transform="translate(0 -28)">
    <path id="Контур_44122" data-name="Контур 44122" d="M317.087,2.641H315.6V.99a.99.99,0,0,0-1.981,0v.926a1.15,1.15,0,0,1-.816,1.1l-.835.257V8.417c0,.013,0,.026,0,.039a1.557,1.557,0,0,0,1.1.456h4.016a1.485,1.485,0,0,0,1.485-1.485v-3.3A1.485,1.485,0,0,0,317.087,2.641Z" transform="translate(-303.073 28)" fill="#00b870"/>
    <path id="Контур_44123" data-name="Контур 44123" d="M223.485,86.272h-.99a.5.5,0,0,1-.5-.5V80.5a.5.5,0,0,1,.5-.5h.99a.5.5,0,0,1,.5.5v5.281A.5.5,0,0,1,223.485,86.272Z" transform="translate(-215.36 -49.707)" fill="#00b870"/>
    <path id="Контур_44124" data-name="Контур 44124" d="M11.4,181.06a2.528,2.528,0,0,1-1.491-.482,1.482,1.482,0,0,1-1.094.482h-.99a1.485,1.485,0,0,1-1.485-1.485V177H.5a.5.5,0,0,0-.5.5v10.052a.511.511,0,0,0,.231.434.5.5,0,0,0,.539-.007l1.856-1.237H13.039a.5.5,0,0,0,.5-.5V181.06Zm-8.923-1.584H5.281a.5.5,0,1,1,0,.99H2.476a.5.5,0,1,1,0-.99Zm8.582,5.447H2.476a.5.5,0,1,1,0-.99h8.582a.5.5,0,1,1,0,.99Zm0-2.228H2.476a.5.5,0,0,1,0-.99h8.582a.5.5,0,0,1,0,.99Z" transform="translate(0 -144.558)" fill="#00b870"/>
  </g>
</svg>
