<svg xmlns="http://www.w3.org/2000/svg" width="13.342" height="15.668" viewBox="0 0 13.342 15.668">
  <g id="surface1" transform="translate(0 0.001)">
    <path id="Контур_44053" data-name="Контур 44053" d="M123.426,158.457a2.985,2.985,0,1,0,2.985,2.985A2.989,2.989,0,0,0,123.426,158.457Zm1.772,2.423-2.139,2.139a.46.46,0,0,1-.65,0l-.817-.817a.46.46,0,0,1,.65-.65l.492.492,1.814-1.814a.46.46,0,1,1,.65.65Zm0,0" transform="translate(-116.755 -153.609)" fill="#00b870"/>
    <path id="Контур_44054" data-name="Контур 44054" d="M13.326,4.25V4.238c-.007-.15-.011-.31-.014-.487a1.661,1.661,0,0,0-1.564-1.627A6.443,6.443,0,0,1,7.363.276l-.01-.01a1,1,0,0,0-1.363,0l-.01.01A6.444,6.444,0,0,1,1.594,2.124,1.66,1.66,0,0,0,.031,3.751c0,.176-.007.335-.014.487v.028a16.98,16.98,0,0,0,.686,6.2,7.89,7.89,0,0,0,1.893,2.948A9.9,9.9,0,0,0,6.3,15.6a1.147,1.147,0,0,0,.152.041,1.121,1.121,0,0,0,.441,0,1.151,1.151,0,0,0,.152-.042,9.908,9.908,0,0,0,3.7-2.192,7.9,7.9,0,0,0,1.893-2.949A17.005,17.005,0,0,0,13.326,4.25ZM6.671,11.738a3.9,3.9,0,1,1,3.9-3.9A3.909,3.909,0,0,1,6.671,11.738Zm0,0" transform="translate(0 0)" fill="#00b870"/>
  </g>
</svg>
