<svg xmlns="http://www.w3.org/2000/svg" width="39" height="39" viewBox="0 0 39 39">
  <g id="Сгруппировать_10539" data-name="Сгруппировать 10539" transform="translate(-397 -663)">
    <g id="Прямоугольник_6908" data-name="Прямоугольник 6908" transform="translate(397 663)" fill="none" stroke="#00b870" stroke-width="2.5">
      <path d="M5,0h8a5,5,0,0,1,5,5V18a0,0,0,0,1,0,0H5a5,5,0,0,1-5-5V5A5,5,0,0,1,5,0Z" stroke="none"/>
      <path d="M5,1.25h8A3.75,3.75,0,0,1,16.75,5V15.5a1.25,1.25,0,0,1-1.25,1.25H5A3.75,3.75,0,0,1,1.25,13V5A3.75,3.75,0,0,1,5,1.25Z" fill="none"/>
    </g>
    <g id="Прямоугольник_6910" data-name="Прямоугольник 6910" transform="translate(418 663)" fill="none" stroke="#00b870" stroke-width="2.5">
      <path d="M5,0h8a5,5,0,0,1,5,5v8a5,5,0,0,1-5,5H0a0,0,0,0,1,0,0V5A5,5,0,0,1,5,0Z" stroke="none"/>
      <path d="M5,1.25h8A3.75,3.75,0,0,1,16.75,5v8A3.75,3.75,0,0,1,13,16.75H2.5A1.25,1.25,0,0,1,1.25,15.5V5A3.75,3.75,0,0,1,5,1.25Z" fill="none"/>
    </g>
    <g id="Прямоугольник_6909" data-name="Прямоугольник 6909" transform="translate(397 684)" fill="none" stroke="#00b870" stroke-width="2.5">
      <path d="M5,0H18a0,0,0,0,1,0,0V13a5,5,0,0,1-5,5H5a5,5,0,0,1-5-5V5A5,5,0,0,1,5,0Z" stroke="none"/>
      <path d="M5,1.25H15.5A1.25,1.25,0,0,1,16.75,2.5V13A3.75,3.75,0,0,1,13,16.75H5A3.75,3.75,0,0,1,1.25,13V5A3.75,3.75,0,0,1,5,1.25Z" fill="none"/>
    </g>
    <g id="Прямоугольник_6911" data-name="Прямоугольник 6911" transform="translate(418 684)" fill="none" stroke="#00b870" stroke-width="2.5">
      <path d="M0,0H13a5,5,0,0,1,5,5v8a5,5,0,0,1-5,5H5a5,5,0,0,1-5-5V0A0,0,0,0,1,0,0Z" stroke="none"/>
      <path d="M2.5,1.25H13A3.75,3.75,0,0,1,16.75,5v8A3.75,3.75,0,0,1,13,16.75H5A3.75,3.75,0,0,1,1.25,13V2.5A1.25,1.25,0,0,1,2.5,1.25Z" fill="none"/>
    </g>
  </g>
</svg>
