<svg xmlns="http://www.w3.org/2000/svg" width="17.601" height="16.501" viewBox="0 0 17.601 16.501">
  <g id="chat_1_" data-name="chat (1)" transform="translate(0 -16.007)">
    <g id="Сгруппировать_7767" data-name="Сгруппировать 7767" transform="translate(4.09 22.1)">
      <g id="Сгруппировать_7766" data-name="Сгруппировать 7766">
        <path id="Контур_44303" data-name="Контур 44303" d="M130.972,201.356a5.475,5.475,0,0,0,1.529-3.743,5.632,5.632,0,0,0-2.2-4.357c-.028,3.923-3.715,7.107-8.248,7.107h-3.06a7.386,7.386,0,0,0,6.361,3.3h6.6a.551.551,0,0,0,.389-.939Z" transform="translate(-118.99 -193.255)" fill="#fff"/>
      </g>
    </g>
    <g id="Сгруппировать_7769" data-name="Сгруппировать 7769" transform="translate(0 16.007)">
      <g id="Сгруппировать_7768" data-name="Сгруппировать 7768" transform="translate(0 0)">
        <path id="Контур_44304" data-name="Контур 44304" d="M7.151,16.007c-3.943,0-7.15,2.714-7.15,6.05A5.477,5.477,0,0,0,1.529,25.8L.161,27.169a.55.55,0,0,0,.389.938h6.6c3.943,0,7.15-2.714,7.15-6.05S11.093,16.007,7.151,16.007Zm1.1,7.7H3.85a.55.55,0,0,1,0-1.1h4.4a.55.55,0,1,1,0,1.1Zm2.2-2.2H3.85a.55.55,0,0,1,0-1.1h6.6a.55.55,0,1,1,0,1.1Z" transform="translate(0 -16.007)" fill="#fff"/>
      </g>
    </g>
  </g>
</svg>
