<svg xmlns="http://www.w3.org/2000/svg" width="64.298" height="54" viewBox="0 0 64.298 54">
  <g id="photo-camera" transform="translate(0 -41)">
    <circle id="Эллипс_831" data-name="Эллипс 831" cx="10" cy="10" r="10" transform="translate(22.298 63)" fill="#fff"/>
    <path id="Контур_44393" data-name="Контур 44393" d="M167.415,47.279l-.65-3.25A3.778,3.778,0,0,0,163.07,41H142.047a3.778,3.778,0,0,0-3.694,3.029l-.65,3.25Z" transform="translate(-120.41)" fill="#fff"/>
    <path id="Контур_44394" data-name="Контур 44394" d="M58.647,121h-53A5.658,5.658,0,0,0,0,126.651V159.3a5.658,5.658,0,0,0,5.651,5.651h53A5.658,5.658,0,0,0,64.3,159.3V126.651A5.658,5.658,0,0,0,58.647,121ZM16.074,132.8H10.047a1.884,1.884,0,0,1,0-3.767h6.028a1.884,1.884,0,0,1,0,3.767Zm16.074,24.112a13.94,13.94,0,1,1,13.94-13.94A13.955,13.955,0,0,1,32.149,156.916Z" transform="translate(0 -69.953)" fill="#fff"/>
  </g>
</svg>
