<svg xmlns="http://www.w3.org/2000/svg" width="34.147" height="31.4" viewBox="0 0 34.147 31.4">
  <g id="house" transform="translate(0.001)">
    <g id="Сгруппировать_4872" data-name="Сгруппировать 4872" transform="translate(-0.001 0)">
      <g id="Сгруппировать_4871" data-name="Сгруппировать 4871" transform="translate(0 0)">
        <path id="Контур_43848" data-name="Контур 43848" d="M32.975,49.648H31.836v-19.2a1.282,1.282,0,0,0,.465.092,1.183,1.183,0,0,0,1.061-.656,1.17,1.17,0,0,0-.532-1.568L17.384,20.731a1.184,1.184,0,0,0-1.049.006l-3.948,1.987v-.941a1.177,1.177,0,0,0-1.158-1.191H6.659a1.167,1.167,0,0,0-1.146,1.191v4.425l-4.2,2.11a1.175,1.175,0,0,0,1,2.127v19.2H1.172a1.172,1.172,0,0,0,0,2.343h31.8a1.172,1.172,0,1,0,0-2.343ZM7.856,22.934h2.187v.97L7.856,25.026Zm11.17,26.714H15.121V41.134h3.906Zm10.467,0H21.369V39.962A1.172,1.172,0,0,0,20.2,38.791H13.949a1.172,1.172,0,0,0-1.172,1.172v9.686H4.654V33.635H29.493V49.648Zm0-18.356H4.654V29.268l12.223-6.177L29.493,29.3v1.994Z" transform="translate(0 -20.591)" fill="#00b870"/>
      </g>
    </g>
    <g id="Сгруппировать_4874" data-name="Сгруппировать 4874" transform="translate(15.603 6.338)">
      <g id="Сгруппировать_4873" data-name="Сгруппировать 4873">
        <ellipse id="Эллипс_662" data-name="Эллипс 662" cx="1.3" cy="1.3" rx="1.3" ry="1.3" fill="#00b870"/>
      </g>
    </g>
  </g>
</svg>
