<svg xmlns="http://www.w3.org/2000/svg" width="15" height="15" viewBox="0 0 15 15">
  <g id="pencil" transform="translate(0 0)">
    <g id="Сгруппировать_6468" data-name="Сгруппировать 6468" transform="translate(0 0)">
      <path id="Контур_44092" data-name="Контур 44092" d="M14.533,1.825,13.174.466a1.6,1.6,0,0,0-2.253,0L.808,10.58a.448.448,0,0,0-.121.231l-.68,3.67a.439.439,0,0,0,.512.512l3.67-.68a.448.448,0,0,0,.231-.121L14.533,4.078A1.592,1.592,0,0,0,14.533,1.825ZM.988,14.012l.411-2.22L3.208,13.6Zm3.122-.753L1.741,10.89l8.649-8.649L12.758,4.61Zm9.8-9.8-.532.532L11.011,1.62l.532-.532a.715.715,0,0,1,1.01,0l1.359,1.359A.714.714,0,0,1,13.912,3.457Z" transform="translate(0 0)" fill="#71b0b0"/>
    </g>
  </g>
</svg>
