<svg xmlns="http://www.w3.org/2000/svg" width="13" height="16" viewBox="0 0 13 16">
  <g id="delete_1_" data-name="delete (1)" transform="translate(0 0)">
    <path id="Контур_44093" data-name="Контур 44093" d="M12.959,3.576l-.351-1.059a.981.981,0,0,0-.931-.674H8.723V.876A.875.875,0,0,0,7.852,0h-2.7a.875.875,0,0,0-.871.876v.967H1.322a.981.981,0,0,0-.931.674L.04,3.576a.8.8,0,0,0,.108.714.789.789,0,0,0,.64.329h.367l.809,10.05A1.449,1.449,0,0,0,3.4,16H9.766A1.449,1.449,0,0,0,11.2,14.67l.809-10.05h.2a.789.789,0,0,0,.64-.329.8.8,0,0,0,.108-.714ZM5.208.937H7.791v.906H5.208ZM10.27,14.594a.51.51,0,0,1-.5.468H3.4a.51.51,0,0,1-.5-.468l-.8-9.975h8.981ZM.988,3.682l.288-.868a.048.048,0,0,1,.046-.033H11.677a.049.049,0,0,1,.046.033l.288.868Zm0,0" transform="translate(0)" fill="#71b0b0"/>
    <path id="Контур_44094" data-name="Контур 44094" d="M268.783,175.852h.027a.513.513,0,0,0,.512-.486l.482-9.25a.513.513,0,0,0-1.025-.053l-.482,9.25A.513.513,0,0,0,268.783,175.852Zm0,0" transform="translate(-260.055 -161.428)" fill="#71b0b0"/>
    <path id="Контур_44095" data-name="Контур 44095" d="M106.3,175.37a.513.513,0,0,0,.512.485h.028a.513.513,0,0,0,.484-.54l-.5-9.25a.513.513,0,1,0-1.025.056Zm0,0" transform="translate(-102.545 -161.43)" fill="#71b0b0"/>
    <path id="Контур_44096" data-name="Контур 44096" d="M194.767,175.856a.513.513,0,0,0,.513-.513v-9.25a.513.513,0,0,0-1.026,0v9.25A.513.513,0,0,0,194.767,175.856Zm0,0" transform="translate(-188.262 -161.43)" fill="#71b0b0"/>
  </g>
</svg>
