<svg id="Сгруппировать_10513" data-name="Сгруппировать 10513" xmlns="http://www.w3.org/2000/svg" width="35.634" height="24.498" viewBox="0 0 35.634 24.498">
  <g id="Сгруппировать_10512" data-name="Сгруппировать 10512" transform="translate(0.066 14.442)">
    <path id="Контур_46149" data-name="Контур 46149" d="M22.539,277.922l-3.152,1.947a1.181,1.181,0,0,1-1.225,0l-3.152-1.949L1.024,286.214a2.155,2.155,0,0,0,2.156,1.763H34.368a2.155,2.155,0,0,0,2.156-1.763Z" transform="translate(-1.024 -277.92)" fill="#00b870"/>
  </g>
  <g id="email">
    <g id="Сгруппировать_10507" data-name="Сгруппировать 10507" transform="translate(24.368 5.001)">
      <g id="Сгруппировать_10506" data-name="Сгруппировать 10506">
        <path id="Контур_46146" data-name="Контур 46146" d="M339.392,152.319l11.266,7.122V144.9Z" transform="translate(-339.392 -144.896)" fill="#00b870"/>
      </g>
    </g>
    <g id="Сгруппировать_10509" data-name="Сгруппировать 10509" transform="translate(0 5.001)">
      <g id="Сгруппировать_10508" data-name="Сгруппировать 10508">
        <path id="Контур_46147" data-name="Контур 46147" d="M0,144.9v14.545l11.266-7.122Z" transform="translate(0 -144.896)" fill="#00b870"/>
      </g>
    </g>
    <g id="Сгруппировать_10511" data-name="Сгруппировать 10511" transform="translate(0.063)">
      <g id="Сгруппировать_10510" data-name="Сгруппировать 10510">
        <path id="Контур_46148" data-name="Контур 46148" d="M34.308,80H3.121A2.157,2.157,0,0,0,.96,81.777L18.714,92.744,36.469,81.777A2.157,2.157,0,0,0,34.308,80Z" transform="translate(-0.96 -80)" fill="#00b870"/>
      </g>
    </g>
  </g>
</svg>
