<svg id="Сгруппировать_10443" data-name="Сгруппировать 10443" xmlns="http://www.w3.org/2000/svg" width="30.5" height="30.5" viewBox="0 0 30.5 30.5">
  <g id="call" transform="translate(0 0)">
    <g id="Сгруппировать_10505" data-name="Сгруппировать 10505" transform="translate(0 0)">
      <g id="Сгруппировать_10504" data-name="Сгруппировать 10504" transform="translate(0 0)">
        <path id="Контур_46142" data-name="Контур 46142" d="M29.907,24.252,26.526,22l-3.006-2a1.331,1.331,0,0,0-1.788.29l-1.86,2.391a1.325,1.325,0,0,1-1.691.351,21.655,21.655,0,0,1-6.047-4.66,21.81,21.81,0,0,1-4.66-6.047,1.325,1.325,0,0,1,.351-1.691l2.391-1.86a1.332,1.332,0,0,0,.29-1.788L8.564,4.067,6.248.593A1.331,1.331,0,0,0,4.455.19l-2.671,1.6A3.263,3.263,0,0,0,.3,3.71c-.73,2.663-.878,8.537,8.537,17.951S24.127,30.928,26.79,30.2a3.263,3.263,0,0,0,1.918-1.482l1.6-2.671A1.331,1.331,0,0,0,29.907,24.252Z" transform="translate(0 0)" fill="#00b870"/>
        <path id="Контур_46143" data-name="Контур 46143" d="M283.008,62.844a8.949,8.949,0,0,1,8.939,8.939.526.526,0,0,0,1.052,0,10,10,0,0,0-9.991-9.991.526.526,0,1,0,0,1.052Z" transform="translate(-265.655 -58.111)" fill="#00b870"/>
        <path id="Контур_46144" data-name="Контур 46144" d="M283.007,115.808a5.791,5.791,0,0,1,5.784,5.784.526.526,0,1,0,1.052,0,6.844,6.844,0,0,0-6.836-6.836.526.526,0,1,0,0,1.052Z" transform="translate(-265.654 -107.92)" fill="#00b870"/>
        <path id="Контур_46145" data-name="Контур 46145" d="M283.008,168.775a2.632,2.632,0,0,1,2.629,2.629.526.526,0,1,0,1.052,0,3.685,3.685,0,0,0-3.681-3.681.526.526,0,1,0,0,1.052Z" transform="translate(-265.655 -157.732)" fill="#00b870"/>
      </g>
    </g>
  </g>
</svg>
