<svg id="video-player" xmlns="http://www.w3.org/2000/svg" width="16" height="16" viewBox="0 0 16 16">
  <g id="Сгруппировать_6465" data-name="Сгруппировать 6465" transform="translate(0)">
    <g id="Сгруппировать_6464" data-name="Сгруппировать 6464">
      <path id="Контур_44090" data-name="Контур 44090" d="M13.657,2.343A8,8,0,0,0,2.343,13.657,8,8,0,0,0,13.657,2.343ZM8,15.063A7.063,7.063,0,1,1,15.063,8,7.07,7.07,0,0,1,8,15.063Z" transform="translate(0 0)" fill="#71b0b0"/>
    </g>
  </g>
  <g id="Сгруппировать_6467" data-name="Сгруппировать 6467" transform="translate(5.396 4.257)" opacity="0.8">
    <g id="Сгруппировать_6466" data-name="Сгруппировать 6466">
      <path id="Контур_44091" data-name="Контур 44091" d="M190.586,116.118l-5.192-3.582a.392.392,0,0,0-.415-.021.42.42,0,0,0-.213.369v7.164a.42.42,0,0,0,.213.369.392.392,0,0,0,.415-.021l5.192-3.582a.426.426,0,0,0,0-.7Zm-5.012,3.149v-5.6l4.06,2.8Z" transform="translate(-184.766 -112.466)" fill="#71b0b0"/>
    </g>
  </g>
</svg>
