<svg xmlns="http://www.w3.org/2000/svg" width="24.444" height="26.667" viewBox="0 0 24.444 26.667">
  <g id="share" transform="translate(0 0)">
    <path id="Контур_46183" data-name="Контур 46183" d="M321.89,19.611A3.611,3.611,0,1,1,318.279,16,3.611,3.611,0,0,1,321.89,19.611Zm0,0" transform="translate(-298.279 -15.167)" fill="#00b870"/>
    <path id="Контур_46184" data-name="Контур 46184" d="M303.112,8.889a4.444,4.444,0,1,1,4.444-4.445A4.449,4.449,0,0,1,303.112,8.889Zm0-7.222a2.778,2.778,0,1,0,2.778,2.778,2.781,2.781,0,0,0-2.778-2.778Zm0,0" transform="translate(-283.112)" fill="#00b870"/>
    <path id="Контур_46185" data-name="Контур 46185" d="M321.89,360.943a3.611,3.611,0,1,1-3.611-3.611A3.611,3.611,0,0,1,321.89,360.943Zm0,0" transform="translate(-298.279 -338.721)" fill="#00b870"/>
    <path id="Контур_46186" data-name="Контур 46186" d="M303.112,350.221a4.444,4.444,0,1,1,4.444-4.444A4.449,4.449,0,0,1,303.112,350.221Zm0-7.222a2.778,2.778,0,1,0,2.778,2.778A2.781,2.781,0,0,0,303.112,343Zm0,0" transform="translate(-283.112 -323.554)" fill="#00b870"/>
    <path id="Контур_46187" data-name="Контур 46187" d="M23.222,190.279a3.611,3.611,0,1,1-3.611-3.611A3.611,3.611,0,0,1,23.222,190.279Zm0,0" transform="translate(-15.167 -176.946)" fill="#00b870"/>
    <path id="Контур_46188" data-name="Контур 46188" d="M4.444,179.557a4.444,4.444,0,1,1,4.445-4.444,4.449,4.449,0,0,1-4.445,4.444Zm0-7.222a2.778,2.778,0,1,0,2.778,2.778,2.781,2.781,0,0,0-2.778-2.778Zm0,0" transform="translate(0 -161.779)" fill="#00b870"/>
    <path id="Контур_46189" data-name="Контур 46189" d="M115.461,98.316a1.111,1.111,0,0,1-.551-2.077l10.31-5.878a1.111,1.111,0,1,1,1.1,1.931l-10.31,5.878A1.1,1.1,0,0,1,115.461,98.316Zm0,0" transform="translate(-108.393 -85.516)" fill="#00b870"/>
    <path id="Контур_46190" data-name="Контур 46190" d="M125.791,274.32a1.1,1.1,0,0,1-.549-.146l-10.31-5.878a1.111,1.111,0,0,1,1.1-1.931l10.31,5.878a1.111,1.111,0,0,1-.551,2.077Zm0,0" transform="translate(-108.414 -252.353)" fill="#00b870"/>
  </g>
</svg>
