<svg id="close_1_" data-name="close (1)" xmlns="http://www.w3.org/2000/svg" width="20" height="20" viewBox="0 0 20 20">
  <g id="Сгруппировать_6833" data-name="Сгруппировать 6833" transform="translate(0)">
    <g id="Сгруппировать_6832" data-name="Сгруппировать 6832">
      <path id="Контур_44184" data-name="Контур 44184" d="M17.071,2.929A10,10,0,0,0,2.929,17.071,10,10,0,0,0,17.071,2.929Zm-.829,13.314A8.828,8.828,0,0,1,3.758,3.758,8.828,8.828,0,1,1,16.242,16.242Z" transform="translate(0)" fill="#fff"/>
    </g>
  </g>
  <g id="Сгруппировать_6835" data-name="Сгруппировать 6835" transform="translate(5.878 5.878)">
    <g id="Сгруппировать_6834" data-name="Сгруппировать 6834">
      <path id="Контур_44185" data-name="Контур 44185" d="M146.842,146.1l-3.222-3.222,3.222-3.222a.527.527,0,0,0-.746-.746l-3.222,3.222-3.222-3.222a.527.527,0,1,0-.746.746l3.222,3.222-3.222,3.222a.527.527,0,0,0,.746.746l3.222-3.222,3.222,3.222a.527.527,0,0,0,.746-.746Z" transform="translate(-138.753 -138.754)" fill="#fff"/>
    </g>
  </g>
</svg>
