<svg id="painting" xmlns="http://www.w3.org/2000/svg" width="44" height="30.775" viewBox="0 0 44 30.775">
  <g id="painting-2" data-name="painting" transform="translate(17.473 0)">
    <g id="Сгруппировать_4875" data-name="Сгруппировать 4875" transform="translate(0)">
      <path id="Контур_43849" data-name="Контур 43849" d="M61.55,3.869a1.057,1.057,0,0,0-.737-.318h0l-3.339.028V2.994A2.975,2.975,0,0,0,54.515,0H39.638a3,3,0,0,0-2.985,2.994v.557h-.278a1.044,1.044,0,0,0,0,2.089h.278v.59a2.971,2.971,0,0,0,2.985,2.961H54.516A2.946,2.946,0,0,0,57.471,6.23V5.7l2.3-.032V8.288L46.59,15.6a1.044,1.044,0,0,0-.538.913v2.354H44.579a1.058,1.058,0,0,0-1.033,1.071v9.776a1.047,1.047,0,0,0,1.033,1.059h5a1.082,1.082,0,0,0,1.073-1.059V19.94a1.093,1.093,0,0,0-1.073-1.071H48.141V17.129L61.32,9.817a1.044,1.044,0,0,0,.538-.913V4.622A1.075,1.075,0,0,0,61.55,3.869ZM55.382,6.211h0a.891.891,0,0,1-.891.891H39.633a.891.891,0,0,1-.891-.891V2.98a.891.891,0,0,1,.891-.891H54.491a.891.891,0,0,1,.891.891ZM48.559,28.686H45.635v-.905H48.28a1.883,1.883,0,0,0,.278-.031v.936Zm0-7.728v4.766a1.876,1.876,0,0,0-.278-.031H45.635V20.957Z" transform="translate(-35.33)" fill="#00b870"/>
    </g>
  </g>
  <g id="Сгруппировать_2292" data-name="Сгруппировать 2292" transform="translate(0 11.54)">
    <path id="Контур_6543" data-name="Контур 6543" d="M115.86,87.537l-1.047,1.047a1.034,1.034,0,0,0,1.463,1.463L117.324,89a1.034,1.034,0,1,0-1.463-1.463Zm0,0" transform="translate(-114.511 -82.915)" fill="#fc9100"/>
    <path id="Контур_6544" data-name="Контур 6544" d="M162.715,87.561l-1.047,1.047a1.034,1.034,0,0,0,1.456,1.469l1.053-1.053a1.034,1.034,0,0,0-1.463-1.463Zm0,0" transform="translate(-156.525 -82.939)" fill="#fc9100"/>
    <path id="Контур_6545" data-name="Контур 6545" d="M209.444,87.537,208.4,88.584a1.034,1.034,0,0,0,1.463,1.463L210.907,89a1.034,1.034,0,1,0-1.463-1.463Zm0,0" transform="translate(-198.414 -82.915)" fill="#fc9100"/>
    <path id="Контур_6546" data-name="Контур 6546" d="M256.237,87.537l-1.047,1.047a1.034,1.034,0,0,0,1.463,1.463L257.7,89a1.034,1.034,0,1,0-1.463-1.463Zm0,0" transform="translate(-240.366 -82.915)" fill="#fc9100"/>
    <path id="Контур_6547" data-name="Контур 6547" d="M303.117,87.63l-1.047,1.047a1.034,1.034,0,0,0,1.456,1.469l.006-.006,1.047-1.047a1.034,1.034,0,0,0-1.463-1.462Zm0,0" transform="translate(-282.405 -83.008)" fill="#fc9100"/>
    <path id="Контур_6548" data-name="Контур 6548" d="M162.123,48.741a1.031,1.031,0,0,0,.731-.3l1.047-1.047a1.034,1.034,0,0,0-1.463-1.463l-1.047,1.047a1.034,1.034,0,0,0,.731,1.766Zm0,0" transform="translate(-156.27 -45.611)" fill="#fc9100"/>
    <path id="Контур_6549" data-name="Контур 6549" d="M208.918,48.616a1.03,1.03,0,0,0,.731-.3l1.047-1.047a1.035,1.035,0,1,0-1.434-1.491l-.028.028-1.047,1.048a1.034,1.034,0,0,0,.731,1.766Zm0,0" transform="translate(-198.225 -45.486)" fill="#fc9100"/>
    <path id="Контур_6550" data-name="Контур 6550" d="M255.711,48.769a1.032,1.032,0,0,0,.732-.3l1.047-1.047a1.034,1.034,0,0,0-1.463-1.463L254.98,47a1.034,1.034,0,0,0,.731,1.766Zm0,0" transform="translate(-240.178 -45.639)" fill="#fc9100"/>
    <path id="Контур_6551" data-name="Контур 6551" d="M302.506,48.741a1.031,1.031,0,0,0,.731-.3l1.047-1.047a1.034,1.034,0,0,0-1.463-1.463l-1.047,1.047a1.034,1.034,0,0,0,.731,1.766Zm0,0" transform="translate(-282.132 -45.611)" fill="#fc9100"/>
    <path id="Контур_6552" data-name="Контур 6552" d="M349.644,45.928,348.6,46.975a1.034,1.034,0,0,0,1.463,1.463l1.047-1.047a1.034,1.034,0,0,0-1.463-1.463Zm0,0" transform="translate(-324.113 -45.611)" fill="#fc9100"/>
  </g>
</svg>
