<svg xmlns="http://www.w3.org/2000/svg" width="15.044" height="20" viewBox="0 0 15.044 20">
  <g id="google-docs" transform="translate(-61)">
    <path id="Контур_44097" data-name="Контур 44097" d="M62.736,20H74.308a1.749,1.749,0,0,0,1.736-1.758V5.859h-4.05A1.749,1.749,0,0,1,70.258,4.1V0H62.736A1.749,1.749,0,0,0,61,1.758V18.242A1.749,1.749,0,0,0,62.736,20ZM65.05,8.242h6.943a.586.586,0,0,1,0,1.172H65.05a.586.586,0,0,1,0-1.172Zm0,2.344h6.943a.586.586,0,0,1,0,1.172H65.05a.586.586,0,0,1,0-1.172Zm0,2.344h6.943a.586.586,0,0,1,0,1.172H65.05a.586.586,0,0,1,0-1.172Zm0,2.344h4.629a.586.586,0,0,1,0,1.172H65.05a.586.586,0,0,1,0-1.172Z" fill="#00b870"/>
    <path id="Контур_44098" data-name="Контур 44098" d="M331.7,13.946h4.462L331,8.789v4.462A.7.7,0,0,0,331.7,13.946Z" transform="translate(-260.521 -8.381)" fill="#00b870"/>
  </g>
</svg>
