<svg xmlns="http://www.w3.org/2000/svg" width="70" height="70" viewBox="0 0 70 70">
  <g id="error" transform="translate(110 -446)">
    <g id="Сгруппировать_6485" data-name="Сгруппировать 6485" transform="translate(-110 446)">
      <g id="Сгруппировать_6482" data-name="Сгруппировать 6482">
        <g id="Сгруппировать_6481" data-name="Сгруппировать 6481">
          <path id="Контур_44111" data-name="Контур 44111" d="M35,0A35,35,0,1,0,70,35,34.98,34.98,0,0,0,35,0Zm0,64.531A29.531,29.531,0,1,1,64.531,35,29.515,29.515,0,0,1,35,64.531Z" fill="#f25858"/>
        </g>
      </g>
      <g id="Сгруппировать_6484" data-name="Сгруппировать 6484" transform="translate(22.407 22.407)">
        <g id="Сгруппировать_6483" data-name="Сгруппировать 6483">
          <path id="Контур_44112" data-name="Контур 44112" d="M186.952,183.141l-7.992-7.992,7.992-7.992a2.7,2.7,0,1,0-3.812-3.812l-7.992,7.992-7.992-7.992a2.7,2.7,0,1,0-3.812,3.812l7.992,7.992-7.992,7.992a2.7,2.7,0,1,0,3.812,3.812l7.992-7.992,7.992,7.992a2.7,2.7,0,1,0,3.812-3.812Z" transform="translate(-162.555 -162.556)" fill="#f25858"/>
        </g>
      </g>
    </g>
  </g>
</svg>
