<svg xmlns="http://www.w3.org/2000/svg" width="13.8" height="18.346" viewBox="0 0 13.8 18.346">
  <g id="google-docs" transform="translate(-61)">
    <path id="Контур_44097" data-name="Контур 44097" d="M62.592,18.346H73.208A1.6,1.6,0,0,0,74.8,16.733V5.375H71.084a1.6,1.6,0,0,1-1.592-1.612V0h-6.9A1.6,1.6,0,0,0,61,1.612V16.733A1.6,1.6,0,0,0,62.592,18.346ZM64.715,7.56h6.369a.538.538,0,0,1,0,1.075H64.715a.538.538,0,0,1,0-1.075Zm0,2.15h6.369a.538.538,0,0,1,0,1.075H64.715a.538.538,0,0,1,0-1.075Zm0,2.15h6.369a.538.538,0,0,1,0,1.075H64.715a.538.538,0,0,1,0-1.075Zm0,2.15h4.246a.538.538,0,0,1,0,1.075H64.715a.538.538,0,0,1,0-1.075Z" transform="translate(0)" fill="#00b870"/>
    <path id="Контур_44098" data-name="Контур 44098" d="M331.638,13.52h4.092L331,8.789v4.092A.638.638,0,0,0,331.638,13.52Z" transform="translate(-261.305 -8.415)" fill="#00b870"/>
  </g>
</svg>
