<svg xmlns="http://www.w3.org/2000/svg" width="15.066" height="15.066" viewBox="0 0 15.066 15.066">
  <g id="edit_1_" data-name="edit (1)" transform="translate(0 -0.004)">
    <g id="Сгруппировать_6458" data-name="Сгруппировать 6458" transform="translate(0 1.08)">
      <g id="Сгруппировать_6457" data-name="Сгруппировать 6457">
        <path id="Контур_44084" data-name="Контур 44084" d="M12.376,40.594a.538.538,0,0,0-.538.538v5.381a.538.538,0,0,1-.538.538H1.614a.538.538,0,0,1-.538-.538V35.751a.538.538,0,0,1,.538-.538H8.071a.538.538,0,1,0,0-1.076H1.614A1.614,1.614,0,0,0,0,35.751V46.513a1.614,1.614,0,0,0,1.614,1.614H11.3a1.614,1.614,0,0,0,1.614-1.614V41.132A.538.538,0,0,0,12.376,40.594Z" transform="translate(0 -34.137)" fill="#71b0b0"/>
      </g>
    </g>
    <g id="Сгруппировать_6460" data-name="Сгруппировать 6460" transform="translate(3.229 0.004)">
      <g id="Сгруппировать_6459" data-name="Сгруппировать 6459" transform="translate(0 0)">
        <path id="Контур_44085" data-name="Контур 44085" d="M113.643.607a2.06,2.06,0,0,0-2.913,0l-7.088,7.087a.544.544,0,0,0-.13.21l-1.076,3.228a.538.538,0,0,0,.51.708.547.547,0,0,0,.17-.027l3.228-1.076a.538.538,0,0,0,.21-.13l7.088-7.088A2.06,2.06,0,0,0,113.643.607Z" transform="translate(-102.409 -0.004)" fill="#71b0b0"/>
      </g>
    </g>
  </g>
</svg>
