<svg xmlns="http://www.w3.org/2000/svg" width="16.608" height="14.257" viewBox="0 0 16.608 14.257">
  <g id="Сгруппировать_4483" data-name="Сгруппировать 4483" transform="translate(-133.236 -245.78)">
    <path id="Контур_4" data-name="Контур 4" d="M148.557,247.3a4.554,4.554,0,0,0-3.43-1.517,4.45,4.45,0,0,0-3.587,1.814,4.451,4.451,0,0,0-3.587-1.814,4.553,4.553,0,0,0-3.43,1.517,5.154,5.154,0,0,0-1.287,3.464c0,2.828,2.153,4.573,5.132,6.989.734.6,1.566,1.27,2.437,2.016a1.129,1.129,0,0,0,1.47,0c.871-.746,1.7-1.421,2.437-2.016,2.98-2.416,5.132-4.161,5.132-6.989A5.154,5.154,0,0,0,148.557,247.3Zm-5.268,8.7c-.538.436-1.127.914-1.749,1.434-.622-.52-1.212-1-1.749-1.434-2.9-2.352-4.3-3.557-4.3-5.234a2.554,2.554,0,0,1,2.458-2.722c1.817,0,2.471,2.151,2.5,2.255a1.128,1.128,0,0,0,2.172,0c.027-.092.679-2.256,2.5-2.256a2.554,2.554,0,0,1,2.458,2.722C147.585,252.437,146.191,253.643,143.289,255.995Z" transform="translate(0 0)" fill="#f56868"/>
  </g>
</svg>
