<svg xmlns="http://www.w3.org/2000/svg" width="15.234" height="20" viewBox="0 0 15.234 20">
  <g id="Сгруппировать_7234" data-name="Сгруппировать 7234" transform="translate(-1092.766 -7038)">
    <g id="document" transform="translate(1031.766 7038)">
      <path id="Контур_44254" data-name="Контур 44254" d="M75.562,4.151,71.8.588A2.14,2.14,0,0,0,70.319,0H63.148A2.151,2.151,0,0,0,61,2.148v15.7A2.151,2.151,0,0,0,63.148,20H74.086a2.151,2.151,0,0,0,2.148-2.148V5.712A2.157,2.157,0,0,0,75.562,4.151Zm-1.138.536H71.508a.2.2,0,0,1-.2-.2V1.744Zm-.338,14.141H63.148a.978.978,0,0,1-.977-.977V2.148a.978.978,0,0,1,.977-.977h6.992v3.32a1.369,1.369,0,0,0,1.367,1.367h3.555V17.852A.978.978,0,0,1,74.086,18.828Z" fill="#71b0b0"/>
      <path id="Контур_44255" data-name="Контур 44255" d="M137.18,200h-8.594a.586.586,0,0,0,0,1.172h8.594a.586.586,0,0,0,0-1.172Z" transform="translate(-64.383 -192.188)" fill="#979696"/>
      <path id="Контур_44256" data-name="Контур 44256" d="M137.18,280h-8.594a.586.586,0,0,0,0,1.172h8.594a.586.586,0,0,0,0-1.172Z" transform="translate(-64.383 -269.063)" fill="#979696"/>
      <path id="Контур_44257" data-name="Контур 44257" d="M131.427,360h-2.841a.586.586,0,0,0,0,1.172h2.841a.586.586,0,0,0,0-1.172Z" transform="translate(-64.383 -345.938)" fill="#979696"/>
    </g>
  </g>
</svg>
