<svg id="Сгруппировать_8054" data-name="Сгруппировать 8054" xmlns="http://www.w3.org/2000/svg" width="27.908" height="19.186" viewBox="0 0 27.908 19.186">
  <g id="Контур_44302" data-name="Контур 44302" transform="translate(0 2.616)" fill="#fff">
    <path d="M 13.95309734344482 15.19781684875488 L 1.744137048721313 15.19781684875488 C 1.058117032051086 15.19781684875488 0.499997079372406 14.63966655731201 0.499997079372406 13.95361709594727 L 0.499997079372406 1.744197010993958 C 0.499997079372406 1.058146953582764 1.058117032051086 0.4999969899654388 1.744137048721313 0.4999969899654388 L 13.95309734344482 0.4999969899654388 C 14.63911724090576 0.4999969899654388 15.19723701477051 1.058146953582764 15.19723701477051 1.744197010993958 L 15.19723701477051 13.95361709594727 C 15.19723701477051 14.63966655731201 14.63911724090576 15.19781684875488 13.95309734344482 15.19781684875488 Z" stroke="none"/>
    <path d="M 1.744136810302734 0.9999971389770508 C 1.333817481994629 0.9999971389770508 0.9999971389770508 1.333847045898438 0.9999971389770508 1.744196891784668 L 0.9999971389770508 13.95361709594727 C 0.9999971389770508 14.3639669418335 1.333817481994629 14.69781684875488 1.744136810302734 14.69781684875488 L 13.95309734344482 14.69781684875488 C 14.36341667175293 14.69781684875488 14.69723701477051 14.3639669418335 14.69723701477051 13.95361709594727 L 14.69723701477051 1.744196891784668 C 14.69723701477051 1.333847045898438 14.36341667175293 0.9999971389770508 13.95309734344482 0.9999971389770508 L 1.744136810302734 0.9999971389770508 M 1.744136810302734 -2.86102294921875e-06 L 13.95309734344482 -2.86102294921875e-06 C 14.91635704040527 -2.86102294921875e-06 15.69723701477051 0.7809066772460938 15.69723701477051 1.744196891784668 L 15.69723701477051 13.95361709594727 C 15.69723701477051 14.91690731048584 14.91635704040527 15.69781684875488 13.95309734344482 15.69781684875488 L 1.744136810302734 15.69781684875488 C 0.7808771133422852 15.69781684875488 -2.86102294921875e-06 14.91690731048584 -2.86102294921875e-06 13.95361709594727 L -2.86102294921875e-06 1.744196891784668 C -2.86102294921875e-06 0.7809066772460938 0.7808771133422852 -2.86102294921875e-06 1.744136810302734 -2.86102294921875e-06 Z" stroke="none" fill="#00b870"/>
  </g>
  <path id="Контур_44301" data-name="Контур 44301" d="M7.65,14.614,4.988,17.167V2.019L7.65,4.572a.647.647,0,0,0,.887,0,.585.585,0,0,0,0-.851L4.835.171A.635.635,0,0,0,4.36,0a.631.631,0,0,0-.475.17l-3.7,3.55a.585.585,0,0,0,0,.851.647.647,0,0,0,.887,0L3.733,2.019V17.167L1.071,14.614a.647.647,0,0,0-.887,0,.585.585,0,0,0,0,.851l3.7,3.55a.635.635,0,0,0,.475.17.633.633,0,0,0,.475-.17l3.7-3.55a.585.585,0,0,0,0-.851A.645.645,0,0,0,7.65,14.614Z" transform="translate(27.908 19.186) rotate(180)" fill="#00b870"/>
</svg>
