<svg xmlns="http://www.w3.org/2000/svg" width="11" height="15.499" viewBox="0 0 11 15.499">
  <g id="Сгруппировать_10520" data-name="Сгруппировать 10520" transform="translate(-947.002 -1020.001)">
    <g id="Контур_44300" data-name="Контур 44300" transform="translate(948 1026.5)" fill="#fff">
      <path d="M 7.999845504760742 8.5 L 0.9999855756759644 8.5 C 0.7242856025695801 8.5 0.4999955892562866 8.275699615478516 0.4999955892562866 8 L 0.4999955892562866 1 C 0.4999955892562866 0.7243000268936157 0.7242856025695801 0.5 0.9999855756759644 0.5 L 7.999845504760742 0.5 C 8.275546073913574 0.5 8.499835968017578 0.7243000268936157 8.499835968017578 1 L 8.499835968017578 8 C 8.499835968017578 8.275699615478516 8.275546073913574 8.5 7.999845504760742 8.5 Z" stroke="none"/>
      <path d="M 0.9999856948852539 1 L 0.9999957084655762 1 L 0.9999856948852539 8 L 7.99983549118042 8 L 7.999845504760742 1 L 0.9999856948852539 1 M 0.9999856948852539 0 L 7.999845504760742 0 C 8.552125930786133 0 8.999835968017578 0.4477100372314453 8.999835968017578 1 L 8.999835968017578 8 C 8.999835968017578 8.552289962768555 8.552125930786133 9 7.999845504760742 9 L 0.9999856948852539 9 C 0.4477052688598633 9 -4.76837158203125e-06 8.552289962768555 -4.76837158203125e-06 8 L -4.76837158203125e-06 1 C -4.76837158203125e-06 0.4477100372314453 0.4477052688598633 0 0.9999856948852539 0 Z" stroke="none" fill="#00b870"/>
    </g>
    <path id="Контур_44301" data-name="Контур 44301" d="M227.26,8.378l-1.526,1.464V1.158l1.526,1.464a.371.371,0,0,0,.509,0,.335.335,0,0,0,0-.488L225.646.1a.429.429,0,0,0-.545,0l-2.122,2.035a.335.335,0,0,0,0,.488.371.371,0,0,0,.509,0l1.526-1.464V9.842l-1.526-1.464a.371.371,0,0,0-.509,0,.335.335,0,0,0,0,.488L225.1,10.9a.429.429,0,0,0,.545,0l2.122-2.036a.335.335,0,0,0,0-.488A.37.37,0,0,0,227.26,8.378Z" transform="translate(958.002 797.127) rotate(90)" fill="#00b870"/>
  </g>
</svg>
