<svg xmlns="http://www.w3.org/2000/svg" width="30.959" height="31" viewBox="0 0 30.959 31">
  <g id="seat" transform="translate(-0.342)">
    <g id="Сгруппировать_4884" data-name="Сгруппировать 4884" transform="translate(4.44 29.162)">
      <g id="Сгруппировать_4883" data-name="Сгруппировать 4883">
        <path id="Контур_43857" data-name="Контур 43857" d="M71.582,481.641H68.947a.919.919,0,0,0,0,1.838h2.635a.919.919,0,0,0,0-1.838Z" transform="translate(-68.028 -481.641)" fill="#00b870"/>
      </g>
    </g>
    <g id="Сгруппировать_4886" data-name="Сгруппировать 4886" transform="translate(22.729 29.162)">
      <g id="Сгруппировать_4885" data-name="Сгруппировать 4885">
        <path id="Контур_43858" data-name="Контур 43858" d="M373.651,481.641h-2.635a.919.919,0,0,0,0,1.838h2.635a.919.919,0,0,0,0-1.838Z" transform="translate(-370.097 -481.641)" fill="#00b870"/>
      </g>
    </g>
    <g id="Сгруппировать_4888" data-name="Сгруппировать 4888" transform="translate(0.342)">
      <g id="Сгруппировать_4887" data-name="Сгруппировать 4887" transform="translate(0)">
        <path id="Контур_43859" data-name="Контур 43859" d="M31.288,10.734a4.241,4.241,0,0,0-4.038-3.9c-.058,0-.116,0-.175,0h-.017a3.975,3.975,0,0,0-.661.056A6.478,6.478,0,0,0,19.93,0H11.712A6.478,6.478,0,0,0,5.245,6.882a3.966,3.966,0,0,0-.679-.056c-.058,0-.116,0-.173,0a4.244,4.244,0,0,0-1.439,8.157V27.362a.919.919,0,0,0,.919.919h23.9a.919.919,0,0,0,.919-.919V14.987A4.272,4.272,0,0,0,31.288,10.734ZM8.3,3.335a4.594,4.594,0,0,1,3.415-1.5H19.93A4.643,4.643,0,0,1,24.558,6.86l-.075.919-.024.022c-.036.031-.072.063-.107.1l-.066.062-.032.03-.042.044c-.028.028-.055.056-.082.085l-.058.065c-.027.031-.055.062-.081.093s-.041.051-.061.076-.045.056-.067.085-.062.085-.092.128l-.027.038A4.055,4.055,0,0,0,23.2,9.788l0,.009q-.027.1-.05.2l-.005.023c-.013.061-.025.123-.036.185l-.006.036q-.014.086-.024.174c0,.016,0,.031-.006.047-.006.056-.01.112-.014.169,0,.017,0,.034,0,.051,0,.072-.006.145-.006.218l-.008,4.386a4.38,4.38,0,0,0-2.582-.839H11.189a4.38,4.38,0,0,0-2.582.839L8.6,10.9c0-.073,0-.146-.006-.218,0-.017,0-.034,0-.051,0-.057-.008-.113-.014-.169,0-.016,0-.031-.006-.047-.007-.058-.015-.116-.024-.174L8.538,10.2q-.016-.093-.036-.185L8.5,9.994q-.022-.1-.05-.2l0-.009A4.058,4.058,0,0,0,7.9,8.6L7.87,8.566c-.03-.043-.06-.086-.092-.128s-.044-.057-.067-.085-.04-.051-.061-.076-.054-.062-.081-.093l-.058-.065-.082-.085-.042-.044-.031-.03L7.289,7.9q-.051-.048-.1-.093L7.159,7.78,7.084,6.86A4.594,4.594,0,0,1,8.3,3.335Zm7.8,15.61H8.622v-.1a2.57,2.57,0,0,1,2.567-2.567h9.264a2.57,2.57,0,0,1,2.567,2.567v3.827H8.622V20.783H16.1a.919.919,0,1,0,0-1.838ZM4.069,13.419a2.406,2.406,0,0,1,.406-4.753l.1,0h.009a2.11,2.11,0,0,1,1.172.355l.009.007a2.258,2.258,0,0,1,.215.164l.012.01c.03.026.059.053.087.08l.012.011q.043.043.084.088l.039.045.042.05.037.047.042.056.03.043q.026.039.051.078l.015.024a2.247,2.247,0,0,1,.124.233l0,.008q.026.057.049.116l0,.008a2.266,2.266,0,0,1,.11.388l0,.016q.01.055.017.11c0,.011,0,.022,0,.033,0,.033.007.065.009.1,0,.012,0,.023,0,.035,0,.043,0,.087,0,.13l.022,11.843H4.792V14.317A.919.919,0,0,0,4.069,13.419ZM26.85,26.443H4.792V24.58H26.85v1.863Zm.723-13.024a.919.919,0,0,0-.723.9v8.425H24.86L24.881,10.9c0-.044,0-.087,0-.13,0-.012,0-.023,0-.035q0-.049.009-.1l0-.033q.007-.055.017-.11l0-.016a2.269,2.269,0,0,1,.11-.388l0-.008q.023-.059.049-.116l0-.008a2.265,2.265,0,0,1,.124-.233l.015-.024c.017-.026.034-.053.051-.078l.03-.043.042-.056.037-.047.042-.05.039-.045c.027-.03.055-.059.084-.088l.012-.011c.028-.027.057-.054.087-.081l.011-.01a2.244,2.244,0,0,1,.215-.164l.009-.007a2.108,2.108,0,0,1,1.171-.355h.009l.1,0a2.406,2.406,0,0,1,.405,4.753Z" transform="translate(-0.342 0)" fill="#00b870"/>
      </g>
    </g>
    <g id="Сгруппировать_4890" data-name="Сгруппировать 4890" transform="translate(17.938 18.945)">
      <g id="Сгруппировать_4889" data-name="Сгруппировать 4889">
        <path id="Контур_43860" data-name="Контур 43860" d="M292.541,313.174a.877.877,0,0,0-.14-.114.94.94,0,0,0-.158-.085.952.952,0,0,0-.173-.052.919.919,0,1,0-.179,1.82.9.9,0,0,0,.179-.017.96.96,0,0,0,.173-.053.934.934,0,0,0,.158-.085.874.874,0,0,0,.14-.114.919.919,0,0,0,0-1.3Z" transform="translate(-290.972 -312.905)" fill="#00b870"/>
      </g>
    </g>
  </g>
</svg>
