<svg xmlns="http://www.w3.org/2000/svg" xmlns:xlink="http://www.w3.org/1999/xlink" width="58" height="58" viewBox="0 0 58 58">
  <defs>
    <clipPath id="clip-path">
      <rect id="Прямоугольник_6698" data-name="Прямоугольник 6698" width="58" height="58" transform="translate(-0.3 -0.3)" fill="#fff"/>
    </clipPath>
  </defs>
  <g id="Сгруппировать_7977" data-name="Сгруппировать 7977" transform="translate(0.3 0.3)" clip-path="url(#clip-path)">
    <path id="Контур_44354" data-name="Контур 44354" d="M62.45,74.682,58.832,73.4l.9-.464a4.888,4.888,0,0,0-.271-8.818L54.05,61.736a2.223,2.223,0,0,0-2.673.718l-.084.115a.378.378,0,0,1-.6.017A5.218,5.218,0,0,0,48.934,61.2l2.466-.6a1.133,1.133,0,0,0,.846-.9L53.4,53.424a1.132,1.132,0,0,0-.674-1.249l-3.213-1.353-6.654-4.095a2.938,2.938,0,0,0-1.191-.414L43.6,36.995A1.626,1.626,0,0,0,41.446,35.1l-5.608,2.1a1.133,1.133,0,0,0-.714,1.281l.289,1.458a.172.172,0,0,1-.248.186l-.675-.354a1.133,1.133,0,0,0-1.657.934l-.255,4.136L29.99,41.327A1.133,1.133,0,0,0,28.4,41.09l-3.057,2.28a1.133,1.133,0,0,0-.371,1.337l1.232,3.012-.765.948L23.7,46.292a1.134,1.134,0,0,0-.418-.349l-4.16-2.023a1.133,1.133,0,0,0-1.268.191L9.689,51.736a1.133,1.133,0,0,0-.3,1.183l1,3.033a1.134,1.134,0,0,0,.79.741v3.9l-1.569,1.8A1.133,1.133,0,0,0,9.6,63.87l.308.362-.42.943a5.651,5.651,0,0,0-.435,3.069l.008.059a5.837,5.837,0,0,0,3.871,4.733l4.963,1.736a1.133,1.133,0,1,0,.748-2.138L13.68,70.9a3.581,3.581,0,0,1-2.375-2.9l-.008-.059a3.387,3.387,0,0,1,.261-1.84l.709-1.595a1.133,1.133,0,0,0-.172-1.194l-.138-.162,1.207-1.383a1.132,1.132,0,0,0,.279-.745V55.26a1.133,1.133,0,0,0-1.27-1.124L11.764,52.9l7.067-6.6,3.208,1.56,1.649,2.249,2.282,3.879a1.133,1.133,0,0,0,.652.511l5.931,1.772a1.133,1.133,0,0,0,1.216-.387l1.283-1.639,1.926,1.711a1.134,1.134,0,0,0,1.066.242l1.141-.329-1.511,2.39A5.532,5.532,0,0,0,34.26,62.7a6.745,6.745,0,0,0,3.981,6.962l2.724,1.184.35,1.844a1.131,1.131,0,0,0,.3.576l1.435,1.485a2.017,2.017,0,0,0,3.461-1.569l-.153-1.84,1.327-2.724a1.132,1.132,0,0,0-.129-1.2l-1.9-2.411a1.281,1.281,0,0,1-.263-.619,1.279,1.279,0,0,1,1.267-1.452,2.95,2.95,0,0,1,2.289,1.083,2.644,2.644,0,0,0,4.178-.116l.058-.079,5.369,2.363a2.623,2.623,0,0,1,.145,4.732l-1.159.6a2.139,2.139,0,0,0,.266,3.918l2.581.915-1.094,1.805a1.226,1.226,0,0,1-1.72.39l-2.809-1.839A1.133,1.133,0,0,0,53,77.656V79.5l-1.446.384a1.134,1.134,0,0,0-.562.348l-4.191,4.784H45.131l1.29-2.509a1.133,1.133,0,0,0-1.007-1.65H44.176l-4.067-3.692a1.132,1.132,0,0,0-1.253-.182l-1.327.639H32.9L28.265,76a1.133,1.133,0,1,0-.748,2.138l4.813,1.684a1.131,1.131,0,0,0,.374.064h5.084a1.131,1.131,0,0,0,.491-.112l.872-.42,3.826,3.473a1.132,1.132,0,0,0,.588.281l-1.3,2.523a1.133,1.133,0,0,0,1.007,1.65H47.32a1.132,1.132,0,0,0,.852-.386l4.3-4.91,1.954-.518a1.133,1.133,0,0,0,.842-1.095v-.62l1.056.692a3.492,3.492,0,0,0,4.9-1.111l1.815-3a1.133,1.133,0,0,0-.59-1.655ZM48.4,52.8a1.117,1.117,0,0,0,.154.079l2.454,1.033-.858,4.66-1.829.445-2.289-.725a.687.687,0,0,1-.407-.962A2.939,2.939,0,0,0,44.544,53.5l-3.439-2.137a1.662,1.662,0,0,1-.262-2.621.689.689,0,0,1,.831-.085ZM35,42.4a2.441,2.441,0,0,0,2.637-2.9l-.1-.515,3.623-1.357-1.873,9.039-4.517-.5ZM32.461,53.877,27.7,52.453l-1.012-1.721,1.7-2.114a1.132,1.132,0,0,0,.167-1.14L27.4,44.661l1.439-1.073,2.627,3.571,1.264,6.371Zm5.555-.032-2.36-2.1a1.114,1.114,0,0,0-1.017-.253l-.62-3.126,4.2.464a3.935,3.935,0,0,0,1.694,4.455l.013.008Zm5.969,8.044a3.544,3.544,0,0,0-.112,4.527l1.462,1.852-1.152,2.365a1.131,1.131,0,0,0-.11.59l.121,1.457-.716-.741-.4-2.1a1.133,1.133,0,0,0-.661-.827l-3.273-1.423a4.465,4.465,0,0,1-2.636-4.609,3.261,3.261,0,0,1,2.254-2.71,1.133,1.133,0,0,0,.618-.475l3.1-4.908.865.537a.684.684,0,0,1,.252.891,2.952,2.952,0,0,0,1.749,4.135l.821.26a3.543,3.543,0,0,0-2.187,1.179Z" transform="translate(-8.278 -31.333)" fill="#00b870"/>
    <path id="Контур_44355" data-name="Контур 44355" d="M487.724,347.724l-.809-1.131a1.133,1.133,0,0,0-2.054.659v1.13a1.133,1.133,0,0,0,1.133,1.133h.809a1.133,1.133,0,0,0,.921-1.792Z" transform="translate(-430.235 -307.21)" fill="#00b870"/>
    <path id="Контур_44356" data-name="Контур 44356" d="M96.629,373.381,87,370.039,87.963,368l9.459,3.285Z" transform="translate(-77.442 -326.612)" fill="#00b870"/>
  </g>
</svg>
