<svg id="multimedia-option" xmlns="http://www.w3.org/2000/svg" width="20" height="11.813" viewBox="0 0 20 11.813">
  <g id="Сгруппировать_4891" data-name="Сгруппировать 4891">
    <path id="Контур_43865" data-name="Контур 43865" d="M19.68,101.685l-.655-.66a1.1,1.1,0,0,0-1.547,0L10,108.5l-7.482-7.482a1.1,1.1,0,0,0-1.547,0l-.655.656a1.1,1.1,0,0,0,0,1.547l8.908,8.94a1.118,1.118,0,0,0,.776.351h0a1.118,1.118,0,0,0,.773-.351l8.9-8.916a1.11,1.11,0,0,0,0-1.559Z" transform="translate(0 -100.698)" fill="#00b870"/>
  </g>
</svg>
