<svg id="information" xmlns="http://www.w3.org/2000/svg" width="17.799" height="17.799" viewBox="0 0 17.799 17.799">
  <g id="Сгруппировать_10621" data-name="Сгруппировать 10621">
    <g id="Сгруппировать_10620" data-name="Сгруппировать 10620">
      <circle id="Эллипс_890" data-name="Эллипс 890" cx="0.869" cy="0.869" r="0.869" transform="translate(8.031 12.289)" fill="#fff"/>
      <path id="Контур_46200" data-name="Контур 46200" d="M8.9,0a8.9,8.9,0,1,0,8.9,8.9A8.895,8.895,0,0,0,8.9,0Zm0,16.409A7.509,7.509,0,1,1,16.409,8.9,7.505,7.505,0,0,1,8.9,16.409Z" fill="#fff"/>
      <path id="Контур_46201" data-name="Контур 46201" d="M178.781,128.5A2.784,2.784,0,0,0,176,131.281a.7.7,0,0,0,1.391,0,1.391,1.391,0,1,1,1.391,1.391.7.7,0,0,0-.7.7v1.738a.7.7,0,1,0,1.391,0v-1.131a2.781,2.781,0,0,0-.7-5.474Z" transform="translate(-169.881 -124.033)" fill="#fff"/>
    </g>
  </g>
</svg>
