<svg xmlns="http://www.w3.org/2000/svg" width="40.906" height="31" viewBox="0 0 40.906 31">
  <g id="real-estate" transform="translate(0 0)">
    <g id="Сгруппировать_4876" data-name="Сгруппировать 4876" transform="translate(0 0)">
      <path id="Контур_43850" data-name="Контур 43850" d="M39.941,67.416,20.81,62.041a1.324,1.324,0,0,0-.715,0L.965,67.416A1.322,1.322,0,0,0,0,68.689v6.788A1.3,1.3,0,0,0,1.322,76.77h.97v14.87a1.326,1.326,0,0,0,1.3,1.351H37.316a1.326,1.326,0,0,0,1.3-1.351V76.77h.97a1.3,1.3,0,0,0,1.322-1.293V68.689A1.323,1.323,0,0,0,39.941,67.416ZM15.78,90.347h-3V82.236h3Zm20.188,0H18.425V80.883A1.3,1.3,0,0,0,17.1,79.591H11.46a1.3,1.3,0,0,0-1.322,1.292v9.463h-5.2V76.77h22.9c.015.088.017.047.033.062l8.1,7.734v5.78Zm0-9.431-4.3-4.145h4.3Zm2.292-6.79H2.645V72.451H38.261v1.675Zm0-4.32H2.645v-.115l17.808-5,17.808,5Z" transform="translate(0 -61.992)" fill="#00b870"/>
    </g>
  </g>
</svg>
