<svg id="information" xmlns="http://www.w3.org/2000/svg" width="39" height="39" viewBox="0 0 39 39">
  <g id="Сгруппировать_10538" data-name="Сгруппировать 10538">
    <g id="Сгруппировать_10537" data-name="Сгруппировать 10537">
      <circle id="Эллипс_837" data-name="Эллипс 837" cx="1.904" cy="1.904" r="1.904" transform="translate(17.596 26.927)" fill="#00b870"/>
      <path id="Контур_46150" data-name="Контур 46150" d="M19.5,0A19.5,19.5,0,1,0,39,19.5,19.489,19.489,0,0,0,19.5,0Zm0,35.953A16.453,16.453,0,1,1,35.953,19.5,16.444,16.444,0,0,1,19.5,35.953Z" fill="#00b870"/>
      <path id="Контур_46151" data-name="Контур 46151" d="M182.094,128.5A6.1,6.1,0,0,0,176,134.594a1.523,1.523,0,0,0,3.047,0,3.047,3.047,0,1,1,3.047,3.047,1.523,1.523,0,0,0-1.523,1.523v3.809a1.523,1.523,0,0,0,3.047,0v-2.478a6.094,6.094,0,0,0-1.523-11.995Z" transform="translate(-162.594 -118.712)" fill="#00b870"/>
    </g>
  </g>
</svg>
