<svg xmlns="http://www.w3.org/2000/svg" width="39.525" height="40.8" viewBox="0 0 39.525 40.8">
  <g id="bill" transform="translate(-7.967)">
    <path id="Контур_46157" data-name="Контур 46157" d="M46.225,28.6a1.189,1.189,0,0,0-.087-.132,7.962,7.962,0,0,0-3.771-2.991V5.04A5.046,5.046,0,0,0,37.327,0H13.007a5.046,5.046,0,0,0-5.04,5.04v5.2a2.4,2.4,0,0,0,2.4,2.4h5.28V34.56a2.4,2.4,0,0,0,2.4,2.4H32.781A7.918,7.918,0,1,0,46.225,28.6ZM15.647,10.24h-5.28V5.04a2.64,2.64,0,1,1,5.28,0Zm16.18,24.32H18.047V5.68A5.48,5.48,0,0,0,17.3,2.4H37.327a2.643,2.643,0,0,1,2.64,2.64V24.97A7.928,7.928,0,0,0,31.827,34.56Zm7.74,3.84a5.518,5.518,0,1,1,4.01-9.307l-3.69,3.69-1.072-1.072a1.2,1.2,0,1,0-1.7,1.7l1.92,1.92a1.2,1.2,0,0,0,1.7,0l4.1-4.1A5.526,5.526,0,0,1,39.567,38.4Z" fill="#00b870"/>
    <path id="Контур_46158" data-name="Контур 46158" d="M169.167,98.4h2.56a1.2,1.2,0,0,0,0-2.4h-2.56a1.2,1.2,0,1,0,0,2.4Z" transform="translate(-147.2 -88.32)" fill="#00b870"/>
    <path id="Контур_46159" data-name="Контур 46159" d="M169.167,154.4h2.56a1.2,1.2,0,1,0,0-2.4h-2.56a1.2,1.2,0,1,0,0,2.4Z" transform="translate(-147.2 -139.84)" fill="#00b870"/>
    <path id="Контур_46160" data-name="Контур 46160" d="M169.167,218.4h2.56a1.2,1.2,0,1,0,0-2.4h-2.56a1.2,1.2,0,1,0,0,2.4Z" transform="translate(-147.2 -198.72)" fill="#00b870"/>
    <path id="Контур_46161" data-name="Контур 46161" d="M176.207,280h-7.04a1.2,1.2,0,1,0,0,2.4h7.04a1.2,1.2,0,0,0,0-2.4Z" transform="translate(-147.2 -257.6)" fill="#00b870"/>
    <path id="Контур_46162" data-name="Контур 46162" d="M176.207,344h-7.04a1.2,1.2,0,1,0,0,2.4h7.04a1.2,1.2,0,0,0,0-2.4Z" transform="translate(-147.2 -316.48)" fill="#00b870"/>
    <path id="Контур_46163" data-name="Контур 46163" d="M269.959,71.18a12.331,12.331,0,0,1-3.019-1.3.757.757,0,0,1-.211-.747c.248-1.38,2.39-1.315,3.222-.652l-.015-.012,0,0a1.2,1.2,0,1,0,1.536-1.841,4.615,4.615,0,0,0-1.986-.894V65.35a1.2,1.2,0,1,0-2.4,0v.459c-3,.78-3.647,4.5-1.558,6.015a13.275,13.275,0,0,0,3.683,1.638c1.139.372,1.2,1.138,1.132,1.561a1.983,1.983,0,0,1-2.064,1.6,3.686,3.686,0,0,1-2.5-.605,1.2,1.2,0,1,0-1.243,2.053,5.631,5.631,0,0,0,2.546.908v.443a1.2,1.2,0,1,0,2.4,0v-.551C273.336,77.878,274.166,72.557,269.959,71.18Z" transform="translate(-235.516 -59.018)" fill="#00b870"/>
  </g>
</svg>
