<svg xmlns="http://www.w3.org/2000/svg" width="39" height="38.993" viewBox="0 0 39 38.993">
  <g id="mail" transform="translate(0 -0.046)">
    <path id="Контур_46177" data-name="Контур 46177" d="M19.5.046,0,14.469v24.57H39V14.469Zm-4.963,26.42L2.285,35.617V17.323Zm4.963-.855L34.418,36.754H4.582Zm4.963.855,12.252-9.143V35.617ZM35.942,15.049,22.554,25.04,19.5,22.759,16.446,25.04,3.058,15.049,19.5,2.888Z" fill="#00b870"/>
    <path id="Контур_46178" data-name="Контур 46178" d="M213.285,95.382a1.143,1.143,0,1,1,1.713.99,3.44,3.44,0,0,0-1.713,2.968v1.754h2.285V99.341a1.148,1.148,0,0,1,.572-.99A3.428,3.428,0,1,0,211,95.382Z" transform="translate(-194.928 -84.907)" fill="#00b870"/>
    <path id="Контур_46179" data-name="Контур 46179" d="M241,241.954h2.285v2.285H241Z" transform="translate(-222.643 -223.481)" fill="#00b870"/>
  </g>
</svg>
