<svg xmlns="http://www.w3.org/2000/svg" width="24.618" height="31" viewBox="0 0 24.618 31">
  <path id="leafs" d="M73.275.335A.97.97,0,0,0,72.347.02a15.986,15.986,0,0,0-7.383,3.712A16,16,0,0,0,57.579.02a.97.97,0,0,0-.929.315,16.427,16.427,0,0,0-1.483,19.473,7.952,7.952,0,0,0,8.3,3.714,34.2,34.2,0,0,1,.1,6.431.97.97,0,1,0,1.933.155,36.155,36.155,0,0,0-.11-6.845,8,8,0,0,0,9.365-3.455A16.427,16.427,0,0,0,73.275.335ZM56.809,18.775a14.488,14.488,0,0,1,.939-16.728A14.229,14.229,0,0,1,68.423,14.792a6.172,6.172,0,0,1-3.355,6.157A42.605,42.605,0,0,0,62.9,13.09L64,9.963a.97.97,0,1,0-1.829-.646L61.79,10.4q-.838-1.883-1.855-3.772a.97.97,0,1,0-1.707.92,49.374,49.374,0,0,1,3.761,8.869l-2.038-.7a.97.97,0,0,0-.633,1.833l3.3,1.139c.238.973.434,1.93.594,2.913A6.023,6.023,0,0,1,56.809,18.775Zm16.307,0a6,6,0,0,1-5.683,2.919,8.1,8.1,0,0,0,2.923-7.055,16.4,16.4,0,0,0-4.023-9.53,14.073,14.073,0,0,1,5.844-3.062A14.489,14.489,0,0,1,73.116,18.775Z" transform="translate(-52.654 0)" fill="#00b870"/>
</svg>
