<svg xmlns="http://www.w3.org/2000/svg" width="10.733" height="10.733" viewBox="0 0 10.733 10.733">
  <path id="log-in_1_" data-name="log-in (1)" d="M34.178,34.733H26.036a.555.555,0,0,1-.555-.555V31.958a.555.555,0,1,1,1.11,0v1.666h7.032V25.11H26.591v1.666a.555.555,0,1,1-1.11,0V24.555A.555.555,0,0,1,26.036,24h8.143a.555.555,0,0,1,.555.555v9.623A.555.555,0,0,1,34.178,34.733Zm-4.133-5.367-.74-.555h-4.75a.555.555,0,0,0,0,1.11h4.75ZM28.96,32.032l2.961-2.221a.555.555,0,0,0,0-.888L28.96,26.7a.555.555,0,0,0-.666.888l2.369,1.777-2.369,1.777a.555.555,0,0,0,.666.888Z" transform="translate(-24 -24)" fill="#fff"/>
</svg>
