<svg xmlns="http://www.w3.org/2000/svg" width="16.373" height="14.774" viewBox="0 0 16.373 14.774">
  <g id="calendar_4_" data-name="calendar (4)" transform="translate(0 -25)">
    <path id="Контур_44059" data-name="Контур 44059" d="M16.373,29.6V27.718a1.441,1.441,0,0,0-1.439-1.439h-.192v1.759a.48.48,0,1,1-.959,0V25.48a.48.48,0,0,0-.959,0v.8h-3.2v1.759a.48.48,0,1,1-.959,0V25.48a.48.48,0,0,0-.959,0v.8h-3.2v1.759a.48.48,0,1,1-.959,0V25.48a.48.48,0,0,0-.959,0v.8H1.439A1.441,1.441,0,0,0,0,27.718V29.6Z" fill="#00b870"/>
    <path id="Контур_44060" data-name="Контур 44060" d="M0,199v7.771a1.441,1.441,0,0,0,1.439,1.439H14.934a1.441,1.441,0,0,0,1.439-1.439V199Zm4.6,6.651H3.581a.48.48,0,0,1,0-.959H4.6a.48.48,0,0,1,0,.959Zm0-2.047H3.581a.48.48,0,0,1,0-.959H4.6a.48.48,0,0,1,0,.959Zm0-2.047H3.581a.48.48,0,0,1,0-.959H4.6a.48.48,0,0,1,0,.959ZM8.7,205.651H7.675a.48.48,0,0,1,0-.959H8.7a.48.48,0,0,1,0,.959Zm0-2.047H7.675a.48.48,0,0,1,0-.959H8.7a.48.48,0,0,1,0,.959Zm0-2.047H7.675a.48.48,0,0,1,0-.959H8.7a.48.48,0,0,1,0,.959Zm4.093,4.093H11.768a.48.48,0,0,1,0-.959h1.023a.48.48,0,0,1,0,.959Zm0-2.047H11.768a.48.48,0,0,1,0-.959h1.023a.48.48,0,0,1,0,.959Zm0-2.047H11.768a.48.48,0,0,1,0-.959h1.023a.48.48,0,0,1,0,.959Z" transform="translate(0 -168.436)" fill="#00b870"/>
  </g>
</svg>
