<svg xmlns="http://www.w3.org/2000/svg" width="33.952" height="31" viewBox="0 0 33.952 31">
  <g id="moving" transform="translate(0 -22.261)">
    <g id="Сгруппировать_4880" data-name="Сгруппировать 4880" transform="translate(0 22.261)">
      <g id="Сгруппировать_4879" data-name="Сгруппировать 4879" transform="translate(0 0)">
        <path id="Контур_43855" data-name="Контур 43855" d="M24.853,28.9H21.4V25.582c0-2.028-2.4-3.321-4.059-3.321H3.321A3.325,3.325,0,0,0,0,25.582V47.725a1.107,1.107,0,0,0,1.107,1.107H4.619a3.321,3.321,0,1,0,6.262,0h12.19a3.321,3.321,0,1,0,6.262,0h1.3a3.325,3.325,0,0,0,3.321-3.321V38A9.11,9.11,0,0,0,24.853,28.9ZM7.75,51.047A1.107,1.107,0,1,1,8.857,49.94,1.108,1.108,0,0,1,7.75,51.047Zm11.44-4.429H2.214V44.4H19.19Zm0-4.429H2.214V25.582a1.108,1.108,0,0,1,1.107-1.107H17.345c.8,0,1.845.7,1.845,1.107Zm6.643-11a6.9,6.9,0,0,1,5.9,6.573h-5.9ZM26.2,51.047a1.107,1.107,0,1,1,1.107-1.107A1.108,1.108,0,0,1,26.2,51.047Zm5.536-8.857H30.631a1.107,1.107,0,0,0,0,2.214h1.107v1.107a1.108,1.108,0,0,1-1.107,1.107H21.4v-15.5h2.214v7.75a1.107,1.107,0,0,0,1.107,1.107h7.012Z" transform="translate(0 -22.261)" fill="#00b870"/>
      </g>
    </g>
    <g id="Сгруппировать_4882" data-name="Сгруппировать 4882" transform="translate(5.167 26.69)">
      <g id="Сгруппировать_4881" data-name="Сгруппировать 4881">
        <path id="Контур_43856" data-name="Контур 43856" d="M88.661,93.8h0l-4.428-4.428a1.107,1.107,0,0,0-1.566,0L78.238,93.8h0a1.116,1.116,0,0,0-.323.782v6.643a1.107,1.107,0,0,0,1.107,1.107h8.857a1.107,1.107,0,0,0,1.107-1.107V94.58A1.118,1.118,0,0,0,88.661,93.8Zm-5.212-2.081L85.2,93.473H81.693Zm3.321,8.4H84.556V99.008a1.107,1.107,0,0,0-2.214,0v1.107H80.127V95.687H86.77Z" transform="translate(-77.913 -89.044)" fill="#00b870"/>
      </g>
    </g>
  </g>
</svg>
