<svg xmlns="http://www.w3.org/2000/svg" width="16.662" height="21.023" viewBox="0 0 16.662 21.023">
  <g id="bell_2_" data-name="bell (2)" transform="translate(-53.013)">
    <path id="Контур_44276" data-name="Контур 44276" d="M184.9,465.044a3.176,3.176,0,0,0,5.813,0Z" transform="translate(-126.466 -445.917)" fill="#fff"/>
    <path id="Контур_44277" data-name="Контур 44277" d="M198.716,2.009a7.143,7.143,0,0,1,2.439.427V2.342A2.345,2.345,0,0,0,198.813,0h-.194a2.345,2.345,0,0,0-2.342,2.342v.093A7.157,7.157,0,0,1,198.716,2.009Z" transform="translate(-137.371)" fill="#fff"/>
    <path id="Контур_44278" data-name="Контур 44278" d="M69.043,93.486h-15.4a.627.627,0,0,1-.619-.481.6.6,0,0,1,.329-.681,3.267,3.267,0,0,0,.994-1.352,15.617,15.617,0,0,0,1.036-6.18A5.956,5.956,0,0,1,67.3,84.769q0,.012,0,.024a15.617,15.617,0,0,0,1.036,6.18,3.266,3.266,0,0,0,.994,1.352.6.6,0,0,1,.329.681A.627.627,0,0,1,69.043,93.486Zm.3-1.158h0Z" transform="translate(0 -75.594)" fill="#fff"/>
  </g>
</svg>
