<svg xmlns="http://www.w3.org/2000/svg" width="39" height="34.349" viewBox="0 0 39 34.349">
  <path id="Контур_46155" data-name="Контур 46155" d="M36.715,46.8V40.887a1.143,1.143,0,0,0-1.143-1.143h-.92l-3.079-8.46a1.143,1.143,0,0,0-1.462-.684L17.473,35.174H3.428A3.432,3.432,0,0,0,0,38.6V61.453a3.432,3.432,0,0,0,3.428,3.428H35.572a1.143,1.143,0,0,0,1.143-1.143V57.829A3.433,3.433,0,0,0,39,54.6v-4.57A3.433,3.433,0,0,0,36.715,46.8ZM25.624,34.654a5.719,5.719,0,0,0,5.717,2.672l.88,2.418H11.558Zm4.908.45a3.442,3.442,0,0,1-2.684-1.255l1.968-.712Zm-27.1,2.355h7.729L4.842,39.744H3.428a1.143,1.143,0,0,1,0-2.285Zm0,25.137a1.144,1.144,0,0,1-1.143-1.143V41.833a3.412,3.412,0,0,0,1.143.2h31V46.6H28.717a5.713,5.713,0,1,0,0,11.426H34.43V62.6Zm33.287-8a1.144,1.144,0,0,1-1.143,1.143H28.717a3.428,3.428,0,1,1,0-6.855h6.855a1.144,1.144,0,0,1,1.143,1.143Z" transform="translate(0 -30.532)" fill="#00b870"/>
</svg>
