<svg xmlns="http://www.w3.org/2000/svg" width="15.075" height="15.076" viewBox="0 0 15.075 15.076">
  <g id="telephone-handle-silhouette" transform="translate(-0.01 -8)">
    <path id="Контур_44101" data-name="Контур 44101" d="M15.052,11.681q-.064-.193-.814-.567-.2-.118-.578-.321t-.68-.375q-.306-.171-.573-.332-.043-.032-.268-.188a3.009,3.009,0,0,0-.38-.23.7.7,0,0,0-.305-.075.889.889,0,0,0-.535.305,5.213,5.213,0,0,0-.589.664,6.455,6.455,0,0,1-.567.664.816.816,0,0,1-.493.305.728.728,0,0,1-.241-.053c-.1-.036-.169-.066-.22-.091s-.135-.075-.257-.15-.189-.116-.2-.123A11.251,11.251,0,0,1,5.834,9.25,11.246,11.246,0,0,1,3.971,6.734q-.011-.021-.123-.2T3.7,6.274a2.32,2.32,0,0,1-.091-.219.724.724,0,0,1-.054-.241.816.816,0,0,1,.305-.493,6.448,6.448,0,0,1,.664-.567,5.211,5.211,0,0,0,.664-.589.889.889,0,0,0,.305-.535.7.7,0,0,0-.075-.305,2.976,2.976,0,0,0-.23-.38Q5.031,2.719,5,2.677q-.16-.267-.332-.573t-.375-.68q-.2-.375-.321-.578Q3.6.1,3.4.032A.6.6,0,0,0,3.179,0a3.527,3.527,0,0,0-.755.107,4.24,4.24,0,0,0-.733.225A2.87,2.87,0,0,0,.556,1.638,4.151,4.151,0,0,0,.01,3.629a4.135,4.135,0,0,0,.037.562,4.619,4.619,0,0,0,.134.616q.1.343.155.509t.219.594q.16.428.193.525a9.7,9.7,0,0,0,.889,1.874A15.875,15.875,0,0,0,3.944,11.14a15.882,15.882,0,0,0,2.832,2.307,9.713,9.713,0,0,0,1.874.889q.1.032.524.193t.594.219q.166.059.508.155a4.66,4.66,0,0,0,.616.134,3.971,3.971,0,0,0,2.554-.509,2.868,2.868,0,0,0,1.306-1.135,4.217,4.217,0,0,0,.225-.733,3.52,3.52,0,0,0,.107-.755A.6.6,0,0,0,15.052,11.681Z" transform="translate(0 8)" fill="#00b870"/>
  </g>
</svg>
