<svg id="comment_1_" data-name="comment (1)" xmlns="http://www.w3.org/2000/svg" width="26.443" height="26.443" viewBox="0 0 26.443 26.443">
  <path id="Контур_44122" data-name="Контур 44122" d="M320.7,4.505h-2.534V1.69a1.69,1.69,0,1,0-3.379,0V3.27A1.961,1.961,0,0,1,313.4,5.154l-1.424.438V14.36c0,.022,0,.044,0,.067a2.657,2.657,0,0,0,1.878.778H320.7a2.534,2.534,0,0,0,2.534-2.534V7.039A2.534,2.534,0,0,0,320.7,4.505Z" transform="translate(-296.792 0)" fill="#00b870"/>
  <path id="Контур_44123" data-name="Контур 44123" d="M224.534,90.7h-1.689a.845.845,0,0,1-.845-.845v-9.01a.845.845,0,0,1,.845-.845h1.689a.845.845,0,0,1,.845.845v9.01A.845.845,0,0,1,224.534,90.7Z" transform="translate(-210.672 -76.089)" fill="#00b870"/>
  <path id="Контур_44124" data-name="Контур 44124" d="M19.446,183.926A4.313,4.313,0,0,1,16.9,183.1a2.528,2.528,0,0,1-1.867.822H13.346a2.534,2.534,0,0,1-2.534-2.534V177H.845a.845.845,0,0,0-.845.845v17.149a.871.871,0,0,0,.394.741.845.845,0,0,0,.919-.012l3.166-2.111H22.244a.845.845,0,0,0,.845-.845v-8.841Zm-15.223-2.7H9.01a.845.845,0,1,1,0,1.689H4.223a.845.845,0,1,1,0-1.689Zm14.641,9.292H4.223a.845.845,0,0,1,0-1.689H18.865a.845.845,0,0,1,0,1.689Zm0-3.8H4.223a.845.845,0,1,1,0-1.689H18.865a.845.845,0,1,1,0,1.689Z" transform="translate(0 -169.422)" fill="#00b870"/>
</svg>
