<svg id="coin" xmlns="http://www.w3.org/2000/svg" width="50" height="50" viewBox="0 0 50 50">
  <g id="Сгруппировать_7944" data-name="Сгруппировать 7944">
    <g id="Сгруппировать_7943" data-name="Сгруппировать 7943">
      <path id="Контур_44325" data-name="Контур 44325" d="M42.678,7.322A25,25,0,0,0,7.322,42.678,25,25,0,0,0,42.678,7.322ZM25,47.07A22.07,22.07,0,1,1,47.07,25,22.1,22.1,0,0,1,25,47.07Z" fill="#00b870"/>
    </g>
  </g>
  <g id="Сгруппировать_7946" data-name="Сгруппировать 7946" transform="translate(19.272 13.467)">
    <g id="Сгруппировать_7945" data-name="Сгруппировать 7945">
      <path id="Контур_44326" data-name="Контур 44326" d="M183.623,106.851H181.3a2.4,2.4,0,1,1,0-4.8h4.644a1.084,1.084,0,0,0,0-2.168h-2.4v-2.4a1.084,1.084,0,0,0-2.168,0v2.4H181.3a4.567,4.567,0,1,0,0,9.134h2.322a2.4,2.4,0,0,1,0,4.8h-4.644a1.084,1.084,0,0,0,0,2.168h2.4v2.4a1.084,1.084,0,1,0,2.168,0v-2.4h.077a4.567,4.567,0,0,0,0-9.134Z" transform="translate(-176.734 -96.401)" fill="#00b870"/>
    </g>
  </g>
</svg>
