<svg id="user_1_" data-name="user (1)" xmlns="http://www.w3.org/2000/svg" width="39" height="39" viewBox="0 0 39 39">
  <path id="Контур_46152" data-name="Контур 46152" d="M19.5,39a19.5,19.5,0,1,1,14.911-6.932,19.7,19.7,0,0,1-2.3,2.307A19.506,19.506,0,0,1,19.5,39Zm0-36.562A17.064,17.064,0,0,0,6.452,30.5a17.262,17.262,0,0,0,2.015,2.02,17.064,17.064,0,0,0,22.065,0,17.261,17.261,0,0,0,2.015-2.02A17.063,17.063,0,0,0,19.5,2.437Z" transform="translate(0 0)" fill="#00b870"/>
  <path id="Контур_46153" data-name="Контур 46153" d="M167.312,78.625a7.313,7.313,0,1,1,7.313-7.312A7.321,7.321,0,0,1,167.312,78.625Zm0-12.188a4.875,4.875,0,1,0,4.875,4.875A4.88,4.88,0,0,0,167.312,66.437Z" transform="translate(-147.812 -59.125)" fill="#00b870"/>
  <path id="Контур_46154" data-name="Контур 46154" d="M105.228,241.6a1.22,1.22,0,0,1-1.183-1.516,10.979,10.979,0,0,0-10.479-13.648h-.321a10.979,10.979,0,0,0-10.479,13.648,1.219,1.219,0,1,1-2.364.593A13.41,13.41,0,0,1,93.216,224h.38a13.416,13.416,0,0,1,12.813,16.679A1.219,1.219,0,0,1,105.228,241.6Z" transform="translate(-73.906 -206.937)" fill="#00b870"/>
</svg>
