<svg id="clock_5_" data-name="clock (5)" xmlns="http://www.w3.org/2000/svg" width="49" height="49" viewBox="0 0 49 49">
  <g id="Сгруппировать_7948" data-name="Сгруппировать 7948" transform="translate(0)">
    <g id="Сгруппировать_7947" data-name="Сгруппировать 7947">
      <path id="Контур_44338" data-name="Контур 44338" d="M41.822,7.178A24.488,24.488,0,1,0,49,24.5,24.455,24.455,0,0,0,41.822,7.178ZM40.469,40.469A22.549,22.549,0,0,1,1.977,24.5,22.555,22.555,0,0,1,24.5,1.977,22.547,22.547,0,0,1,40.469,40.469Z" transform="translate(0)" fill="#00b870"/>
      <path id="Контур_44339" data-name="Контур 44339" d="M73.867,46.818A19.026,19.026,0,1,0,79.484,60.29,19.105,19.105,0,0,0,73.867,46.818Zm-1.4,25.644a17.124,17.124,0,0,1-11.132,4.994V75.011a.988.988,0,0,0-1.977,0v2.445a16.9,16.9,0,0,1-11.132-4.994,17.124,17.124,0,0,1-4.994-11.132h2.445a.988.988,0,0,0,0-1.977H43.229a16.765,16.765,0,0,1,4.994-11.132,17.124,17.124,0,0,1,11.132-4.994v2.445a.988.988,0,1,0,1.977,0V43.229a16.9,16.9,0,0,1,11.132,4.994,17.124,17.124,0,0,1,4.994,11.132H75.011a.988.988,0,0,0,0,1.977h2.445A16.9,16.9,0,0,1,72.462,72.462Z" transform="translate(-35.842 -35.842)" fill="#00b870"/>
      <path id="Контур_44340" data-name="Контур 44340" d="M123.22,106.147V98.188a.988.988,0,1,0-1.977,0v7.959a3.18,3.18,0,0,0-1.144.676l-.052.052a3.087,3.087,0,0,0-.728,1.2h-5.93a.988.988,0,0,0-.988.988,1.023,1.023,0,0,0,.988.988h5.93a3,3,0,0,0,2.913,2.081,3.3,3.3,0,0,0,2.185-.884,3.066,3.066,0,0,0,.884-2.185,3.3,3.3,0,0,0-.884-2.185A3.087,3.087,0,0,0,123.22,106.147Zm-.156,3.693a1.059,1.059,0,0,1-.78.312.981.981,0,0,1-.78-.312,1.131,1.131,0,0,1,0-1.561l.052-.052a1.059,1.059,0,0,1,.78-.312.981.981,0,0,1,.78.312,1.059,1.059,0,0,1,.312.78A1.048,1.048,0,0,1,123.063,109.84Z" transform="translate(-97.783 -84.56)" fill="#00b870"/>
    </g>
  </g>
</svg>
