<svg xmlns="http://www.w3.org/2000/svg" width="222.448" height="242.77" viewBox="0 0 222.448 242.77">
  <g id="_333" data-name="333" transform="translate(-59.113 -36.033)">
    <g id="OBJECTS" transform="translate(59.113 36.033)">
      <g id="Сгруппировать_8353" data-name="Сгруппировать 8353" transform="translate(0 34.202)">
        <g id="Сгруппировать_8352" data-name="Сгруппировать 8352">
          <path id="Контур_44776" data-name="Контур 44776" d="M160.261,127.468c-9.069-32.909-49.952-43.508-73.375-18.915q-.5.53-1.008,1.078c-33.587,36.508-17.721,126.48,52.374,149.283s143-18.839,147.1-56.06-28.244-48.921-78.428-38.513C178.567,170.223,165.905,147.953,160.261,127.468Z" transform="translate(-63.251 -95.053)" fill="#eff3f9"/>
          <path id="Контур_44777" data-name="Контур 44777" d="M360.768,366.417c-8.264,4.688-7.817,13.386,1.026,16.394a22.333,22.333,0,0,0,11.538.394c18.463-3.558,24.843-14.673,14.174-22.067C380.917,356.572,368.962,361.77,360.768,366.417Z" transform="translate(-183.475 -206.202)" fill="#eff3f9"/>
          <path id="Контур_44778" data-name="Контур 44778" d="M349.866,164.734c-9.434,1.124-12.39,9.312-5.407,15.513a22.328,22.328,0,0,0,10.483,4.833c18.4,3.871,27.456-7.128,21.615-14.852C371.655,163.743,359.219,163.621,349.866,164.734Z" transform="translate(-177.487 -124.131)" fill="#eff3f9"/>
          <path id="Контур_44779" data-name="Контур 44779" d="M412.7,339.047c-2.66,3.755-.591,8.223,3.981,8.391a8.97,8.97,0,0,0,5.21-1.623c7.435-4.787,7.881-11.6,1.547-13.757C419.528,330.719,415.332,335.326,412.7,339.047Z" transform="translate(-207.303 -194.616)" fill="#eff3f9"/>
          <path id="Контур_44780" data-name="Контур 44780" d="M63.226,295.592c2.7,3.732,7.591,3.21,9.225-1.066a8.944,8.944,0,0,0,.139-5.453c-2.133-8.582-8.437-11.2-12.529-5.9C57.541,286.442,60.549,291.895,63.226,295.592Z" transform="translate(-59.113 -173.008)" fill="#eff3f9"/>
        </g>
      </g>
      <path id="Контур_45606" data-name="Контур 45606" d="M105.942,0c58.51,0,105.942,2.3,105.942,5.14s-47.432,5.14-105.942,5.14S0,7.979,0,5.14,47.432,0,105.942,0Z" transform="translate(5.3 217.267)" fill="#f5f5f5"/>
      <g id="Сгруппировать_8393" data-name="Сгруппировать 8393" transform="translate(10.579 80.356)">
        <g id="Сгруппировать_8392" data-name="Сгруппировать 8392" transform="translate(0 0)">
          <path id="Контур_44801" data-name="Контур 44801" d="M89.881,189.6H79.757a2.388,2.388,0,0,1-2.387-2.387V177.088a2.388,2.388,0,0,1,2.387-2.387H89.881a2.388,2.388,0,0,1,2.388,2.387v10.124A2.388,2.388,0,0,1,89.881,189.6Z" transform="translate(-77.37 -174.7)" fill="#fff"/>
          <path id="Контур_44802" data-name="Контур 44802" d="M91.634,183.988a2.593,2.593,0,0,1-.759,1.837l-3.448,3.448-3.448-3.448a2.6,2.6,0,0,1,0-3.674c.945-.945,2.376-.771,3.448.823,1.072-1.594,2.509-1.762,3.448-.823A2.6,2.6,0,0,1,91.634,183.988Z" transform="translate(-79.83 -177.59)" fill="#f25858"/>
        </g>
      </g>
      <g id="Сгруппировать_8456" data-name="Сгруппировать 8456" transform="translate(60.642 52.013)">
        <g id="Сгруппировать_8413" data-name="Сгруппировать 8413" transform="translate(3.129)">
          <path id="Контур_44826" data-name="Контур 44826" d="M261.444,134.355V285.266a8.567,8.567,0,0,1-8.565,8.565H177.725a8.557,8.557,0,0,1-8.565-8.559V134.355a8.567,8.567,0,0,1,8.565-8.565h75.148a8.564,8.564,0,0,1,8.571,8.565Z" transform="translate(-169.16 -125.79)" fill="#233b78"/>
          <path id="Контур_44827" data-name="Контур 44827" d="M263.248,135.032V285.943a8.567,8.567,0,0,1-8.565,8.565H179.529a8.556,8.556,0,0,1-6.079-2.527L258.566,127.4A8.551,8.551,0,0,1,263.248,135.032Z" transform="translate(-170.964 -126.467)" fill="#0b3158"/>
        </g>
        <g id="Сгруппировать_8414" data-name="Сгруппировать 8414" transform="translate(0 22.664)">
          <path id="Контур_44828" data-name="Контур 44828" d="M166.9,184.84h-.684a2.448,2.448,0,0,1-2.451-2.451V167.351a2.448,2.448,0,0,1,2.451-2.451h.684Z" transform="translate(-163.76 -164.9)" fill="#29245d"/>
          <path id="Контур_44829" data-name="Контур 44829" d="M328.41,186.257h.556a2.006,2.006,0,0,0,2.005-2.005V172.025a2.006,2.006,0,0,0-2.005-2.005h-.556Z" transform="translate(-232.997 -167.053)" fill="#29245d"/>
          <path id="Контур_44830" data-name="Контур 44830" d="M166.9,223.92h-.684a2.448,2.448,0,0,1-2.451-2.451V206.431a2.448,2.448,0,0,1,2.451-2.451h.684Z" transform="translate(-163.76 -181.334)" fill="#29245d"/>
        </g>
        <g id="Сгруппировать_8415" data-name="Сгруппировать 8415" transform="translate(7.406 4.277)">
          <path id="Контур_44831" data-name="Контур 44831" d="M260.276,137.087V288.746a3.92,3.92,0,0,1-3.917,3.917h-75.9a3.913,3.913,0,0,1-3.6-2.37,3.857,3.857,0,0,1-.319-1.553V137.087a3.916,3.916,0,0,1,3.917-3.917h75.9a3.919,3.919,0,0,1,3.923,3.917Z" transform="translate(-176.54 -133.17)" fill="#fff"/>
        </g>
        <g id="Сгруппировать_8416" data-name="Сгруппировать 8416" transform="translate(25.132 3.135)">
          <path id="Контур_44832" data-name="Контур 44832" d="M256.653,132.2l-3.489,5.314a5.269,5.269,0,0,1-4.4,2.376H215.023a5.276,5.276,0,0,1-4.4-2.376L207.13,132.2a1.007,1.007,0,0,1,1-1h47.518A1.007,1.007,0,0,1,256.653,132.2Z" transform="translate(-207.13 -131.2)" fill="#233b78"/>
          <path id="Контур_44833" data-name="Контур 44833" d="M248.669,138.013H219.294a.838.838,0,0,1-.834-.834v-.464a.838.838,0,0,1,.834-.834h29.374a.838.838,0,0,1,.834.834v.464A.838.838,0,0,1,248.669,138.013Z" transform="translate(-211.894 -133.168)" fill="#29245d"/>
          <circle id="Эллипс_861" data-name="Эллипс 861" cx="1.281" cy="1.281" r="1.281" transform="translate(40.715 2.422)" fill="#233b78"/>
        </g>
        <g id="Сгруппировать_8430" data-name="Сгруппировать 8430" transform="translate(14.383 66.253)">
          <g id="Сгруппировать_8418" data-name="Сгруппировать 8418">
            <g id="Сгруппировать_8417" data-name="Сгруппировать 8417">
              <path id="Контур_44834" data-name="Контур 44834" d="M211.933,251.8a11.618,11.618,0,0,1-2.671,7.435,11.873,11.873,0,0,1-1.275,1.315,11.673,11.673,0,0,1-15.461,0,12.425,12.425,0,0,1-1.275-1.315,11.677,11.677,0,1,1,20.682-7.435Z" transform="translate(-188.58 -240.12)" fill="#d1e6ec"/>
            </g>
            <circle id="Эллипс_862" data-name="Эллипс 862" cx="4.479" cy="4.479" r="4.479" transform="translate(7.197 4.335)" fill="#fff"/>
            <path id="Контур_44835" data-name="Контур 44835" d="M210.851,271.313a11.674,11.674,0,0,1-15.461,0,6.881,6.881,0,0,1,2.868-4.074,8.551,8.551,0,0,1,9.724,0A6.9,6.9,0,0,1,210.851,271.313Z" transform="translate(-191.444 -250.886)" fill="#fff"/>
          </g>
          <g id="Сгруппировать_8428" data-name="Сгруппировать 8428" transform="translate(26.79 2.834)">
            <g id="Сгруппировать_8420" data-name="Сгруппировать 8420">
              <g id="Сгруппировать_8419" data-name="Сгруппировать 8419">
                <path id="Контур_44836" data-name="Контур 44836" d="M236.247,251.408c.006-.029.012-.052.017-.075l.7-2.156a.085.085,0,0,0-.035-.11q-1.034-.765-2.069-1.541a.137.137,0,0,1-.046-.052h.151c.834-.012,1.669-.017,2.5-.023.046,0,.064-.017.081-.064.249-.771.5-1.547.748-2.318a.357.357,0,0,0,.017-.058c.012.029.023.046.029.064.29.788.579,1.576.863,2.37a.089.089,0,0,0,.1.07c.777-.006,1.553-.012,2.33-.012a.3.3,0,0,1,.1.012l-.052.035c-.672.458-1.344.91-2.017,1.368-.046.029-.052.058-.035.11l.817,2.364c.006.017.012.041.023.075-.041-.029-.064-.046-.093-.064l-1.982-1.408c-.041-.029-.064-.029-.1,0-.655.458-1.31.91-1.964,1.368Z" transform="translate(-234.81 -245.01)" fill="#d1e6ec"/>
              </g>
            </g>
            <g id="Сгруппировать_8422" data-name="Сгруппировать 8422" transform="translate(8.872)">
              <g id="Сгруппировать_8421" data-name="Сгруппировать 8421">
                <path id="Контур_44837" data-name="Контур 44837" d="M251.557,251.408c.006-.029.012-.052.017-.075l.7-2.156a.085.085,0,0,0-.035-.11q-1.034-.765-2.069-1.541a.137.137,0,0,1-.046-.052h.151c.834-.012,1.669-.017,2.5-.023.046,0,.064-.017.081-.064.249-.771.5-1.547.748-2.318a.358.358,0,0,0,.017-.058c.012.029.023.046.029.064.29.788.579,1.576.863,2.37a.089.089,0,0,0,.1.07c.777-.006,1.553-.012,2.33-.012a.3.3,0,0,1,.1.012l-.052.035c-.672.458-1.344.91-2.017,1.368-.046.029-.052.058-.035.11l.817,2.364c.006.017.012.041.023.075-.041-.029-.064-.046-.093-.064l-1.982-1.408c-.041-.029-.064-.029-.1,0-.655.458-1.31.91-1.964,1.368Z" transform="translate(-250.12 -245.01)" fill="#d1e6ec"/>
              </g>
            </g>
            <g id="Сгруппировать_8424" data-name="Сгруппировать 8424" transform="translate(17.744)">
              <g id="Сгруппировать_8423" data-name="Сгруппировать 8423">
                <path id="Контур_44838" data-name="Контур 44838" d="M266.867,251.408c.006-.029.012-.052.017-.075l.7-2.156a.085.085,0,0,0-.035-.11q-1.034-.765-2.069-1.541a.137.137,0,0,1-.046-.052h.151c.834-.012,1.669-.017,2.5-.023.046,0,.064-.017.081-.064.249-.771.5-1.547.748-2.318a.357.357,0,0,0,.017-.058c.012.029.023.046.029.064.29.788.579,1.576.863,2.37a.089.089,0,0,0,.1.07c.777-.006,1.553-.012,2.33-.012a.3.3,0,0,1,.1.012l-.052.035c-.672.458-1.344.91-2.017,1.368-.046.029-.052.058-.035.11l.817,2.364c.006.017.012.041.023.075-.041-.029-.064-.046-.093-.064l-1.982-1.408c-.041-.029-.064-.029-.1,0-.655.458-1.31.91-1.964,1.368Z" transform="translate(-265.43 -245.01)" fill="#d1e6ec"/>
              </g>
            </g>
            <g id="Сгруппировать_8426" data-name="Сгруппировать 8426" transform="translate(26.616)">
              <g id="Сгруппировать_8425" data-name="Сгруппировать 8425">
                <path id="Контур_44839" data-name="Контур 44839" d="M282.177,251.408c.006-.029.012-.052.017-.075l.7-2.156a.085.085,0,0,0-.035-.11q-1.034-.765-2.069-1.541a.137.137,0,0,1-.046-.052h.151c.834-.012,1.669-.017,2.5-.023.046,0,.064-.017.081-.064.249-.771.5-1.547.748-2.318a.363.363,0,0,0,.017-.058c.012.029.023.046.029.064.29.788.579,1.576.863,2.37a.089.089,0,0,0,.1.07c.776-.006,1.553-.012,2.33-.012a.3.3,0,0,1,.1.012l-.052.035c-.672.458-1.344.91-2.017,1.368-.046.029-.052.058-.035.11l.817,2.364c.006.017.012.041.023.075-.041-.029-.064-.046-.093-.064l-1.982-1.408c-.041-.029-.064-.029-.1,0-.655.458-1.31.91-1.964,1.368Z" transform="translate(-280.74 -245.01)" fill="#d1e6ec"/>
              </g>
            </g>
            <g id="Сгруппировать_8427" data-name="Сгруппировать 8427" transform="translate(35.488)">
              <path id="Контур_44840" data-name="Контур 44840" d="M297.487,251.408c.006-.029.012-.052.017-.075l.7-2.156a.085.085,0,0,0-.035-.11q-1.034-.765-2.069-1.541a.137.137,0,0,1-.046-.052h.151c.834-.012,1.669-.017,2.5-.023.046,0,.064-.017.081-.064.249-.771.5-1.547.748-2.318a.36.36,0,0,0,.017-.058c.012.029.023.046.029.064.29.788.579,1.576.863,2.37a.089.089,0,0,0,.1.07c.776-.006,1.553-.012,2.33-.012a.3.3,0,0,1,.1.012l-.052.035c-.672.458-1.344.91-2.017,1.368-.046.029-.052.058-.035.11l.817,2.364c.006.017.012.041.023.075-.041-.029-.064-.046-.093-.064l-1.982-1.408c-.041-.029-.064-.029-.1,0-.655.458-1.31.91-1.965,1.368Z" transform="translate(-296.05 -245.01)" fill="#d1e6ec"/>
            </g>
          </g>
          <g id="Сгруппировать_8429" data-name="Сгруппировать 8429" transform="translate(26.784 12.169)">
            <path id="Контур_44841" data-name="Контур 44841" d="M276.234,261.12h-40.5a.932.932,0,0,0-.933.933h0a.932.932,0,0,0,.933.933h40.5a.932.932,0,0,0,.933-.933h0A.932.932,0,0,0,276.234,261.12Z" transform="translate(-234.8 -261.12)" fill="#d1e6ec"/>
            <path id="Контур_44842" data-name="Контур 44842" d="M276.234,268.01h-40.5a.932.932,0,0,0-.933.933h0a.932.932,0,0,0,.933.933h40.5a.932.932,0,0,0,.933-.933h0A.932.932,0,0,0,276.234,268.01Z" transform="translate(-234.8 -264.017)" fill="#d1e6ec"/>
          </g>
        </g>
        <g id="Сгруппировать_8441" data-name="Сгруппировать 8441" transform="translate(14.383 97.795)">
          <g id="Сгруппировать_8432" data-name="Сгруппировать 8432">
            <g id="Сгруппировать_8431" data-name="Сгруппировать 8431">
              <path id="Контур_44843" data-name="Контур 44843" d="M211.933,306.227a11.619,11.619,0,0,1-2.671,7.435,11.881,11.881,0,0,1-1.275,1.315,11.673,11.673,0,0,1-15.461,0,12.434,12.434,0,0,1-1.275-1.315,11.677,11.677,0,1,1,20.682-7.435Z" transform="translate(-188.58 -294.55)" fill="#d1e6ec"/>
            </g>
            <circle id="Эллипс_863" data-name="Эллипс 863" cx="4.479" cy="4.479" r="4.479" transform="translate(5.827 6.367) rotate(-22.39)" fill="#fff"/>
            <path id="Контур_44844" data-name="Контур 44844" d="M210.851,325.743a11.674,11.674,0,0,1-15.461,0,6.881,6.881,0,0,1,2.868-4.074,8.551,8.551,0,0,1,9.724,0A6.881,6.881,0,0,1,210.851,325.743Z" transform="translate(-191.444 -305.316)" fill="#fff"/>
          </g>
          <g id="Сгруппировать_8439" data-name="Сгруппировать 8439" transform="translate(26.79 2.839)">
            <g id="Сгруппировать_8434" data-name="Сгруппировать 8434">
              <g id="Сгруппировать_8433" data-name="Сгруппировать 8433">
                <path id="Контур_44845" data-name="Контур 44845" d="M236.247,305.842c.006-.029.012-.052.017-.075l.7-2.156a.085.085,0,0,0-.035-.11c-.69-.51-1.379-1.026-2.069-1.536a.137.137,0,0,1-.046-.052h.151c.834-.012,1.669-.017,2.5-.023.046,0,.064-.017.081-.064.249-.771.5-1.547.748-2.318a.356.356,0,0,0,.017-.058c.012.029.023.046.029.064.29.788.579,1.576.863,2.37a.089.089,0,0,0,.1.07c.777-.006,1.553-.012,2.33-.012a.3.3,0,0,1,.1.012l-.052.035c-.672.458-1.344.916-2.017,1.368-.046.029-.052.058-.035.11l.817,2.364c.006.017.012.041.023.075-.041-.029-.064-.046-.093-.064l-1.982-1.408c-.041-.029-.064-.029-.1,0-.655.458-1.31.91-1.964,1.368A.476.476,0,0,0,236.247,305.842Z" transform="translate(-234.81 -299.45)" fill="#d1e6ec"/>
              </g>
            </g>
            <g id="Сгруппировать_8436" data-name="Сгруппировать 8436" transform="translate(8.872)">
              <g id="Сгруппировать_8435" data-name="Сгруппировать 8435">
                <path id="Контур_44846" data-name="Контур 44846" d="M251.557,305.842c.006-.029.012-.052.017-.075l.7-2.156a.085.085,0,0,0-.035-.11c-.69-.51-1.379-1.026-2.069-1.536a.137.137,0,0,1-.046-.052h.151c.834-.012,1.669-.017,2.5-.023.046,0,.064-.017.081-.064.249-.771.5-1.547.748-2.318a.357.357,0,0,0,.017-.058c.012.029.023.046.029.064.29.788.579,1.576.863,2.37a.089.089,0,0,0,.1.07c.777-.006,1.553-.012,2.33-.012a.3.3,0,0,1,.1.012l-.052.035c-.672.458-1.344.916-2.017,1.368-.046.029-.052.058-.035.11l.817,2.364c.006.017.012.041.023.075-.041-.029-.064-.046-.093-.064l-1.982-1.408c-.041-.029-.064-.029-.1,0-.655.458-1.31.91-1.964,1.368A.477.477,0,0,0,251.557,305.842Z" transform="translate(-250.12 -299.45)" fill="#d1e6ec"/>
              </g>
            </g>
            <g id="Сгруппировать_8438" data-name="Сгруппировать 8438" transform="translate(17.744)">
              <g id="Сгруппировать_8437" data-name="Сгруппировать 8437">
                <path id="Контур_44847" data-name="Контур 44847" d="M266.867,305.842c.006-.029.012-.052.017-.075l.7-2.156a.085.085,0,0,0-.035-.11c-.69-.51-1.379-1.026-2.069-1.536a.137.137,0,0,1-.046-.052h.151c.834-.012,1.669-.017,2.5-.023.046,0,.064-.017.081-.064.249-.771.5-1.547.748-2.318a.356.356,0,0,0,.017-.058c.012.029.023.046.029.064.29.788.579,1.576.863,2.37a.089.089,0,0,0,.1.07c.777-.006,1.553-.012,2.33-.012a.3.3,0,0,1,.1.012l-.052.035c-.672.458-1.344.916-2.017,1.368-.046.029-.052.058-.035.11l.817,2.364c.006.017.012.041.023.075-.041-.029-.064-.046-.093-.064l-1.982-1.408c-.041-.029-.064-.029-.1,0-.655.458-1.31.91-1.964,1.368A.476.476,0,0,0,266.867,305.842Z" transform="translate(-265.43 -299.45)" fill="#d1e6ec"/>
              </g>
            </g>
          </g>
          <g id="Сгруппировать_8440" data-name="Сгруппировать 8440" transform="translate(26.784 12.163)">
            <path id="Контур_44848" data-name="Контур 44848" d="M276.234,315.54h-40.5a.932.932,0,0,0-.933.933h0a.932.932,0,0,0,.933.933h40.5a.932.932,0,0,0,.933-.933h0A.932.932,0,0,0,276.234,315.54Z" transform="translate(-234.8 -315.54)" fill="#d1e6ec"/>
            <path id="Контур_44849" data-name="Контур 44849" d="M276.234,322.43h-40.5a.932.932,0,0,0-.933.933h0a.932.932,0,0,0,.933.933h40.5a.932.932,0,0,0,.933-.933h0A.932.932,0,0,0,276.234,322.43Z" transform="translate(-234.8 -318.437)" fill="#d1e6ec"/>
          </g>
        </g>
        <g id="Сгруппировать_8454" data-name="Сгруппировать 8454" transform="translate(14.383 130.113)">
          <g id="Сгруппировать_8443" data-name="Сгруппировать 8443">
            <g id="Сгруппировать_8442" data-name="Сгруппировать 8442">
              <path id="Контур_44850" data-name="Контур 44850" d="M211.933,362a11.619,11.619,0,0,1-2.671,7.435,11.881,11.881,0,0,1-1.275,1.315,11.674,11.674,0,0,1-15.461,0,12.431,12.431,0,0,1-1.275-1.315A11.677,11.677,0,1,1,211.933,362Z" transform="translate(-188.58 -350.32)" fill="#d1e6ec"/>
            </g>
            <path id="Контур_44851" data-name="Контур 44851" d="M209.959,362.279a4.479,4.479,0,1,1-4.479-4.479A4.479,4.479,0,0,1,209.959,362.279Z" transform="translate(-193.803 -353.465)" fill="#fff"/>
            <path id="Контур_44852" data-name="Контур 44852" d="M210.851,381.523a11.673,11.673,0,0,1-15.461,0,6.881,6.881,0,0,1,2.868-4.074,8.55,8.55,0,0,1,9.724,0A6.863,6.863,0,0,1,210.851,381.523Z" transform="translate(-191.444 -361.09)" fill="#fff"/>
          </g>
          <g id="Сгруппировать_8452" data-name="Сгруппировать 8452" transform="translate(26.79 2.845)">
            <g id="Сгруппировать_8445" data-name="Сгруппировать 8445">
              <g id="Сгруппировать_8444" data-name="Сгруппировать 8444">
                <path id="Контур_44853" data-name="Контур 44853" d="M236.247,361.622c.006-.029.012-.052.017-.075l.7-2.156a.085.085,0,0,0-.035-.11c-.69-.51-1.379-1.026-2.069-1.536a.137.137,0,0,1-.046-.052h.151c.834-.012,1.669-.017,2.5-.023.046,0,.064-.017.081-.064.249-.771.5-1.547.748-2.318a.356.356,0,0,0,.017-.058c.012.029.023.046.029.064.29.788.579,1.576.863,2.37a.089.089,0,0,0,.1.07c.777-.006,1.553-.012,2.33-.012a.3.3,0,0,1,.1.012l-.052.035c-.672.458-1.344.916-2.017,1.368-.046.029-.052.058-.035.11l.817,2.364c.006.017.012.041.023.075-.041-.029-.064-.046-.093-.064l-1.982-1.408c-.041-.029-.064-.029-.1,0-.655.458-1.31.91-1.964,1.368A.161.161,0,0,0,236.247,361.622Z" transform="translate(-234.81 -355.23)" fill="#d1e6ec"/>
              </g>
            </g>
            <g id="Сгруппировать_8447" data-name="Сгруппировать 8447" transform="translate(8.872)">
              <g id="Сгруппировать_8446" data-name="Сгруппировать 8446">
                <path id="Контур_44854" data-name="Контур 44854" d="M251.557,361.622c.006-.029.012-.052.017-.075l.7-2.156a.085.085,0,0,0-.035-.11c-.69-.51-1.379-1.026-2.069-1.536a.137.137,0,0,1-.046-.052h.151c.834-.012,1.669-.017,2.5-.023.046,0,.064-.017.081-.064.249-.771.5-1.547.748-2.318a.357.357,0,0,0,.017-.058c.012.029.023.046.029.064.29.788.579,1.576.863,2.37a.089.089,0,0,0,.1.07c.777-.006,1.553-.012,2.33-.012a.3.3,0,0,1,.1.012l-.052.035c-.672.458-1.344.916-2.017,1.368-.046.029-.052.058-.035.11l.817,2.364c.006.017.012.041.023.075-.041-.029-.064-.046-.093-.064l-1.982-1.408c-.041-.029-.064-.029-.1,0-.655.458-1.31.91-1.964,1.368A.162.162,0,0,0,251.557,361.622Z" transform="translate(-250.12 -355.23)" fill="#d1e6ec"/>
              </g>
            </g>
            <g id="Сгруппировать_8449" data-name="Сгруппировать 8449" transform="translate(17.744)">
              <g id="Сгруппировать_8448" data-name="Сгруппировать 8448">
                <path id="Контур_44855" data-name="Контур 44855" d="M266.867,361.622c.006-.029.012-.052.017-.075l.7-2.156a.085.085,0,0,0-.035-.11c-.69-.51-1.379-1.026-2.069-1.536a.137.137,0,0,1-.046-.052h.151c.834-.012,1.669-.017,2.5-.023.046,0,.064-.017.081-.064.249-.771.5-1.547.748-2.318a.356.356,0,0,0,.017-.058c.012.029.023.046.029.064.29.788.579,1.576.863,2.37a.089.089,0,0,0,.1.07c.777-.006,1.553-.012,2.33-.012a.3.3,0,0,1,.1.012l-.052.035c-.672.458-1.344.916-2.017,1.368-.046.029-.052.058-.035.11l.817,2.364c.006.017.012.041.023.075-.041-.029-.064-.046-.093-.064l-1.982-1.408c-.041-.029-.064-.029-.1,0-.655.458-1.31.91-1.964,1.368A.162.162,0,0,0,266.867,361.622Z" transform="translate(-265.43 -355.23)" fill="#d1e6ec"/>
              </g>
            </g>
            <g id="Сгруппировать_8451" data-name="Сгруппировать 8451" transform="translate(26.616)">
              <g id="Сгруппировать_8450" data-name="Сгруппировать 8450">
                <path id="Контур_44856" data-name="Контур 44856" d="M282.177,361.622c.006-.029.012-.052.017-.075l.7-2.156a.085.085,0,0,0-.035-.11c-.69-.51-1.379-1.026-2.069-1.536a.137.137,0,0,1-.046-.052h.151c.834-.012,1.669-.017,2.5-.023.046,0,.064-.017.081-.064.249-.771.5-1.547.748-2.318a.362.362,0,0,0,.017-.058c.012.029.023.046.029.064.29.788.579,1.576.863,2.37a.089.089,0,0,0,.1.07c.776-.006,1.553-.012,2.33-.012a.3.3,0,0,1,.1.012l-.052.035c-.672.458-1.344.916-2.017,1.368-.046.029-.052.058-.035.11l.817,2.364c.006.017.012.041.023.075-.041-.029-.064-.046-.093-.064l-1.982-1.408c-.041-.029-.064-.029-.1,0-.655.458-1.31.91-1.964,1.368A.161.161,0,0,0,282.177,361.622Z" transform="translate(-280.74 -355.23)" fill="#d1e6ec"/>
              </g>
            </g>
          </g>
          <g id="Сгруппировать_8453" data-name="Сгруппировать 8453" transform="translate(26.784 12.169)">
            <path id="Контур_44857" data-name="Контур 44857" d="M276.234,371.32h-40.5a.932.932,0,0,0-.933.933h0a.932.932,0,0,0,.933.933h40.5a.932.932,0,0,0,.933-.933h0A.932.932,0,0,0,276.234,371.32Z" transform="translate(-234.8 -371.32)" fill="#d1e6ec"/>
            <path id="Контур_44858" data-name="Контур 44858" d="M276.234,378.21h-40.5a.932.932,0,0,0-.933.933h0a.932.932,0,0,0,.933.933h40.5a.932.932,0,0,0,.933-.933h0A.932.932,0,0,0,276.234,378.21Z" transform="translate(-234.8 -374.217)" fill="#d1e6ec"/>
          </g>
        </g>
        <g id="Сгруппировать_8455" data-name="Сгруппировать 8455" transform="translate(14.528 27.688)">
          <path id="Контур_44859" data-name="Контур 44859" d="M207.947,173.57H190.366a1.535,1.535,0,0,0-1.536,1.536h0a1.535,1.535,0,0,0,1.536,1.536h17.582a1.535,1.535,0,0,0,1.536-1.536h0A1.535,1.535,0,0,0,207.947,173.57Z" transform="translate(-188.83 -173.57)" fill="#d1e6ec"/>
          <path id="Контур_44860" data-name="Контур 44860" d="M207.951,184.91h-17.53a1.562,1.562,0,0,0-1.582,1.507,1.537,1.537,0,0,0,1.536,1.565h17.582a1.535,1.535,0,0,0,1.536-1.536h0A1.543,1.543,0,0,0,207.951,184.91Z" transform="translate(-188.834 -178.339)" fill="#d1e6ec"/>
          <path id="Контур_44861" data-name="Контур 44861" d="M207.947,197.46H190.366A1.535,1.535,0,0,0,188.83,199h0a1.535,1.535,0,0,0,1.536,1.536h17.582A1.535,1.535,0,0,0,209.483,199h0A1.538,1.538,0,0,0,207.947,197.46Z" transform="translate(-188.83 -183.616)" fill="#d1e6ec"/>
          <path id="Контур_44862" data-name="Контур 44862" d="M207.951,208.8h-17.53a1.562,1.562,0,0,0-1.582,1.507,1.537,1.537,0,0,0,1.536,1.565h17.582a1.535,1.535,0,0,0,1.536-1.536h0A1.547,1.547,0,0,0,207.951,208.8Z" transform="translate(-188.834 -188.385)" fill="#d1e6ec"/>
        </g>
      </g>
      <g id="Сгруппировать_8467" data-name="Сгруппировать 8467" transform="translate(101.357 66.698)">
        <g id="Сгруппировать_8458" data-name="Сгруппировать 8458">
          <path id="Контур_44863" data-name="Контур 44863" d="M309.742,167.089h-74.25a1.474,1.474,0,0,1-1.472-1.472V152.6a1.474,1.474,0,0,1,1.472-1.472h74.256a1.474,1.474,0,0,1,1.472,1.472v13.015A1.483,1.483,0,0,1,309.742,167.089Z" transform="translate(-234.02 -151.13)" fill="#36c28b"/>
          <path id="Контур_44864" data-name="Контур 44864" d="M352.535,165.587h-6.172a1.443,1.443,0,0,1-1.443-1.443v-6.172a1.443,1.443,0,0,1,1.443-1.443h6.172a1.443,1.443,0,0,1,1.443,1.443v6.172A1.443,1.443,0,0,1,352.535,165.587Z" transform="translate(-280.655 -153.401)" fill="#fff" opacity="0.3"/>
          <g id="Сгруппировать_8457" data-name="Сгруппировать 8457" transform="translate(4.966 3.129)">
            <path id="Контур_44865" data-name="Контур 44865" d="M294.454,158.245H243.262a.673.673,0,0,1-.672-.672V157.2a.673.673,0,0,1,.672-.672h51.192a.673.673,0,0,1,.672.672v.371A.673.673,0,0,1,294.454,158.245Z" transform="translate(-242.59 -156.53)" fill="#fff" opacity="0.3"/>
            <path id="Контур_44866" data-name="Контур 44866" d="M294.454,164.585H243.262a.673.673,0,0,1-.672-.672v-.371a.673.673,0,0,1,.672-.672h51.192a.673.673,0,0,1,.672.672v.371A.673.673,0,0,1,294.454,164.585Z" transform="translate(-242.59 -159.196)" fill="#fff" opacity="0.3"/>
            <path id="Контур_44867" data-name="Контур 44867" d="M294.454,170.915H243.262a.673.673,0,0,1-.672-.672v-.371a.673.673,0,0,1,.672-.672h51.192a.673.673,0,0,1,.672.672v.371A.673.673,0,0,1,294.454,170.915Z" transform="translate(-242.59 -161.858)" fill="#fff" opacity="0.3"/>
          </g>
        </g>
        <g id="Сгруппировать_8466" data-name="Сгруппировать 8466" transform="translate(0.388 22.652)">
          <path id="Контур_44868" data-name="Контур 44868" d="M309.23,206.173H237.344a2.654,2.654,0,0,1-2.654-2.654V192.874a2.654,2.654,0,0,1,2.654-2.654H309.23a2.654,2.654,0,0,1,2.654,2.654v10.645A2.654,2.654,0,0,1,309.23,206.173Z" transform="translate(-234.69 -190.22)" fill="#ffc461"/>
          <g id="Сгруппировать_8465" data-name="Сгруппировать 8465" transform="translate(4.537 3.303)">
            <g id="Сгруппировать_8459" data-name="Сгруппировать 8459">
              <path id="Контур_44869" data-name="Контур 44869" d="M244.392,204.218c.012-.041.017-.07.023-.093q.452-1.4.9-2.793c.023-.07.006-.1-.046-.145-.9-.666-1.791-1.333-2.689-2a.187.187,0,0,1-.064-.07h.2l3.245-.035c.064,0,.087-.023.1-.081q.478-1.5.968-3.008c.006-.017.012-.041.023-.075a.339.339,0,0,1,.035.087q.565,1.539,1.124,3.077a.117.117,0,0,0,.133.093l3.019-.017a.5.5,0,0,1,.128.012l-.064.046c-.875.591-1.744,1.188-2.619,1.773a.1.1,0,0,0-.046.139c.353,1.026.707,2.046,1.06,3.071a.525.525,0,0,0,.029.093c-.052-.035-.087-.058-.116-.081l-2.573-1.825a.1.1,0,0,0-.133,0q-1.278.887-2.55,1.773A.585.585,0,0,0,244.392,204.218Z" transform="translate(-242.52 -195.92)" fill="#fff"/>
            </g>
            <g id="Сгруппировать_8461" data-name="Сгруппировать 8461" transform="translate(11.52)">
              <g id="Сгруппировать_8460" data-name="Сгруппировать 8460">
                <path id="Контур_44870" data-name="Контур 44870" d="M264.272,204.218c.012-.041.017-.07.023-.093q.452-1.4.9-2.793c.023-.07.006-.1-.046-.145-.9-.666-1.791-1.333-2.689-2a.187.187,0,0,1-.064-.07h.2l3.245-.035c.064,0,.087-.023.1-.081q.478-1.5.968-3.008c.006-.017.012-.041.023-.075a.338.338,0,0,1,.035.087q.565,1.539,1.124,3.077a.117.117,0,0,0,.133.093l3.019-.017a.5.5,0,0,1,.128.012l-.064.046c-.875.591-1.744,1.188-2.619,1.773a.1.1,0,0,0-.046.139c.353,1.026.707,2.046,1.06,3.071a.525.525,0,0,0,.029.093c-.052-.035-.087-.058-.116-.081l-2.573-1.825a.1.1,0,0,0-.133,0q-1.278.887-2.55,1.773A.586.586,0,0,0,264.272,204.218Z" transform="translate(-262.4 -195.92)" fill="#fff"/>
              </g>
            </g>
            <g id="Сгруппировать_8462" data-name="Сгруппировать 8462" transform="translate(23.041)">
              <path id="Контур_44871" data-name="Контур 44871" d="M284.152,204.218c.012-.041.017-.07.023-.093q.452-1.4.9-2.793c.023-.07.006-.1-.046-.145-.9-.666-1.791-1.333-2.689-2a.187.187,0,0,1-.064-.07h.2l3.245-.035c.064,0,.087-.023.1-.081q.478-1.5.968-3.008c.006-.017.012-.041.023-.075a.338.338,0,0,1,.035.087q.565,1.539,1.124,3.077a.117.117,0,0,0,.133.093l3.019-.017a.5.5,0,0,1,.128.012l-.064.046c-.875.591-1.744,1.188-2.619,1.773a.1.1,0,0,0-.046.139c.353,1.026.707,2.046,1.06,3.071a.525.525,0,0,0,.029.093c-.052-.035-.087-.058-.116-.081l-2.573-1.825a.1.1,0,0,0-.133,0q-1.278.887-2.55,1.773A1.059,1.059,0,0,0,284.152,204.218Z" transform="translate(-282.28 -195.92)" fill="#fff"/>
            </g>
            <g id="Сгруппировать_8463" data-name="Сгруппировать 8463" transform="translate(34.567)">
              <path id="Контур_44872" data-name="Контур 44872" d="M304.042,204.218c.012-.041.017-.07.023-.093q.452-1.4.9-2.793c.023-.07.006-.1-.046-.145-.9-.666-1.791-1.333-2.689-2a.187.187,0,0,1-.064-.07h.2l3.245-.035c.064,0,.087-.023.1-.081q.478-1.5.968-3.008c.006-.017.012-.041.023-.075a.338.338,0,0,1,.035.087q.565,1.539,1.124,3.077a.117.117,0,0,0,.133.093l3.019-.017a.5.5,0,0,1,.128.012l-.064.046c-.875.591-1.744,1.188-2.619,1.773a.1.1,0,0,0-.046.139c.353,1.026.707,2.046,1.06,3.071a.525.525,0,0,0,.029.093c-.052-.035-.087-.058-.116-.081l-2.573-1.825a.1.1,0,0,0-.133,0q-1.278.887-2.55,1.773A.585.585,0,0,0,304.042,204.218Z" transform="translate(-302.17 -195.92)" fill="#fff"/>
            </g>
            <g id="Сгруппировать_8464" data-name="Сгруппировать 8464" transform="translate(46.087)">
              <path id="Контур_44873" data-name="Контур 44873" d="M323.922,204.218c.012-.041.017-.07.023-.093q.452-1.4.9-2.793c.023-.07.006-.1-.046-.145-.9-.666-1.791-1.333-2.689-2a.187.187,0,0,1-.064-.07h.2l3.245-.035c.064,0,.087-.023.1-.081q.478-1.5.968-3.008c.006-.017.012-.041.023-.075a.341.341,0,0,1,.035.087q.565,1.539,1.124,3.077a.117.117,0,0,0,.133.093l3.019-.017a.5.5,0,0,1,.127.012l-.064.046c-.875.591-1.744,1.188-2.619,1.773a.1.1,0,0,0-.046.139c.354,1.026.707,2.046,1.06,3.071a.518.518,0,0,0,.029.093c-.052-.035-.087-.058-.116-.081l-2.573-1.825a.1.1,0,0,0-.133,0q-1.278.887-2.55,1.773A.589.589,0,0,0,323.922,204.218Z" transform="translate(-322.05 -195.92)" fill="#fc9100"/>
            </g>
          </g>
          <path id="Контур_44874" data-name="Контур 44874" d="M352.535,205.207h-6.172a1.443,1.443,0,0,1-1.443-1.443v-6.172a1.443,1.443,0,0,1,1.443-1.443h6.172a1.443,1.443,0,0,1,1.443,1.443v6.172A1.443,1.443,0,0,1,352.535,205.207Z" transform="translate(-281.043 -192.714)" fill="#fc9100"/>
        </g>
      </g>
      <g id="Сгруппировать_8522" data-name="Сгруппировать 8522" transform="translate(2.566 65.526)">
        <ellipse id="Эллипс_864" data-name="Эллипс 864" cx="29.85" cy="5.14" rx="29.85" ry="5.14" transform="translate(4.589 165.359)" fill="#f5f5f5"/>
        <g id="Сгруппировать_8521" data-name="Сгруппировать 8521">
          <g id="Сгруппировать_8470" data-name="Сгруппировать 8470" transform="translate(0 34.417)">
            <path id="Контур_44875" data-name="Контур 44875" d="M83.248,227.395c-.191,2.156-.4,4.219-.585,5.951-.3,2.793-.533,4.711-.533,4.711l-2.069,7.331a4.225,4.225,0,0,1-5.853,2.683.47.47,0,0,1-.122-.058c-.875-.591-1.617-1.8-2.411-4.7h0c-.035-.255-2.915-11.074-3.176-15.015l5.047-.788c.191-.487,1.617,5.082,1.825,4.543.133-.342.272-.7.411-1.06.238-.6.475-1.217.724-1.849.353-.892.713-1.814,1.078-2.747,2.7-6.861,5.575-14.128,5.575-14.128C84.274,212.815,83.851,220.539,83.248,227.395Z" transform="translate(-65.626 -210.085)" fill="#fda893"/>
            <path id="Контур_44876" data-name="Контур 44876" d="M89.064,237.651c-.191,2.156-.4,4.219-.579,5.951a12.949,12.949,0,0,1-6.154-4.2c.353-.892.713-1.82,1.078-2.747Z" transform="translate(-71.442 -220.342)" fill="#ff877c"/>
            <g id="Сгруппировать_8468" data-name="Сгруппировать 8468" transform="translate(9.741 20.908)">
              <path id="Контур_44877" data-name="Контур 44877" d="M82.268,254.229h-.052a.324.324,0,0,1-.319-.272c-.574-3.813-1.159-6.624-1.547-8.316.133-.342.272-.7.411-1.06.365,1.489,1.072,4.659,1.773,9.278A.319.319,0,0,1,82.268,254.229Z" transform="translate(-80.35 -244.58)" fill="#ff877c"/>
            </g>
            <path id="Контур_44878" data-name="Контур 44878" d="M78.53,224.6a11.734,11.734,0,0,0,1.837,1.663,12.132,12.132,0,0,0,6.583,2.388c1.993-7.858,2.173-17.622,1.275-20.155C87.049,209.966,81.062,218.067,78.53,224.6Z" transform="translate(-69.844 -208.5)" fill="#36c28b"/>
            <g id="Сгруппировать_8469" data-name="Сгруппировать 8469" transform="translate(0 2.022)">
              <path id="Контур_44879" data-name="Контур 44879" d="M74.289,226.1l-.075.052-.661.435-.18-.278-5.946.2a.993.993,0,0,1-1.014-.84l-1.843-12.337a.967.967,0,0,1-.012-.18l-.249-.336.69-.452.029-.017.017-.012a.983.983,0,0,1,.469-.133l6.3-.209a.983.983,0,0,1,1.008.84l1.843,12.337A.956.956,0,0,1,74.289,226.1Z" transform="translate(-63.864 -211.989)" fill="#636363"/>
              <path id="Контур_44880" data-name="Контур 44880" d="M72.714,227.083l-6.3.209a.993.993,0,0,1-1.014-.84l-1.843-12.337a.991.991,0,0,1,.945-1.136l6.3-.209a.993.993,0,0,1,1.014.84l1.843,12.337A.991.991,0,0,1,72.714,227.083Z" transform="translate(-63.541 -212.317)" fill="#979696"/>
            </g>
            <path id="Контур_44881" data-name="Контур 44881" d="M64.677,220.349c-.579.1-.046.927-.353,2.15-.388,1.524,2.463,7.516,2.463,7.516,2.474.95,5.25-1.147,5.25-1.147s.336-4.717-.371-6.8c0,0-.458-1.872-.626-2.973s-.736-2.33-1.072-2.086-.365,1.153-.33,1.837-.023,2-.023,2-.284-1.605-.365-2.492-.1-2.306-.661-2.55c-.7-.307-.782,1.6-.829,2.289a19.629,19.629,0,0,0,.354,2.811,16.167,16.167,0,0,1-.533-3.083,17.131,17.131,0,0,0,.07-2.695c-.07-.585-.817-.44-1,.3a21.5,21.5,0,0,0-.388,2.695A24.561,24.561,0,0,0,66.5,220.8s-.44-2.335-.458-2.961a7.608,7.608,0,0,0-.133-2.086c-.214-.574-.921-.637-1.049.9a8.9,8.9,0,0,0-.087,2.179,9.579,9.579,0,0,1,.243,2.022.249.249,0,0,1-.226.18Z" transform="translate(-63.855 -211.135)" fill="#fda893"/>
          </g>
          <g id="Сгруппировать_8481" data-name="Сгруппировать 8481" transform="translate(13.083 92.337)">
            <path id="Контур_44882" data-name="Контур 44882" d="M103.8,425.218v4.624l4.23-.07.272-4.9Z" transform="translate(-93.553 -357.406)" fill="#fda893"/>
            <g id="Сгруппировать_8472" data-name="Сгруппировать 8472" transform="translate(6.083 0.041)">
              <g id="Сгруппировать_8471" data-name="Сгруппировать 8471">
                <path id="Контур_44883" data-name="Контур 44883" d="M111.516,308.7c-.029.551-.174,3.187-.4,6.873-.6,10.112-1.709,28.082-2.364,32.115-.672,4.143-.371,17.727-.151,24.831a4.3,4.3,0,0,1-1.2,3.112,4.5,4.5,0,0,1-.979.765,4.284,4.284,0,0,1-2.127.562h-3.222a4.309,4.309,0,0,1-4.306-4.439c.18-6.009.406-16.973-.017-25.445-.406-8.061.18-22.328.632-31.217h.006c.18-3.552.336-6.241.406-7.336Z" transform="translate(-96.615 -308.52)" fill="#fd4059"/>
              </g>
            </g>
            <path id="Контур_44884" data-name="Контур 44884" d="M98.346,308.52l13.728.18c-.029.551-.174,3.187-.4,6.873a57.786,57.786,0,0,1-13.734.284C98.125,312.3,98.282,309.621,98.346,308.52Z" transform="translate(-91.089 -308.479)" fill="#e51c4a"/>
            <g id="Сгруппировать_8473" data-name="Сгруппировать 8473" transform="translate(15.741)">
              <path id="Контур_44885" data-name="Контур 44885" d="M114.364,359.816c.122,4.549.243,9.249.162,13.039-.023,1.066-.058,1.976-.11,2.753a4.088,4.088,0,0,1-.985.765c.081-.9.139-2.063.174-3.541.081-3.767-.046-8.455-.162-12.992-.145-5.54-.284-10.779.017-13.01.661-4.879,2.133-31.321,2.521-38.38l.921.041c-.388,7.052-1.866,33.553-2.527,38.461C114.074,349.107,114.213,354.311,114.364,359.816Z" transform="translate(-113.281 -308.45)" fill="#e51c4a"/>
            </g>
            <g id="Сгруппировать_8480" data-name="Сгруппировать 8480" transform="translate(0 71.068)">
              <g id="Сгруппировать_8479" data-name="Сгруппировать 8479">
                <g id="Сгруппировать_8478" data-name="Сгруппировать 8478">
                  <path id="Контур_44886" data-name="Контур 44886" d="M97.448,432.283s-.875-1.234-1.594-1.194-6.345,4.311-8.246,4.63-1.565,1.727-1.234,2.445,15.119.064,15.119.064.5-4.387.052-5.743S98.92,432.637,97.448,432.283Z" transform="translate(-86.118 -431.088)" fill="#018e57"/>
                  <g id="Сгруппировать_8477" data-name="Сгруппировать 8477" transform="translate(4.097 1.382)">
                    <g id="Сгруппировать_8474" data-name="Сгруппировать 8474" transform="translate(1.087 0.73)">
                      <path id="Контур_44887" data-name="Контур 44887" d="M98.086,436.818a.266.266,0,0,0,.319-.377,4.119,4.119,0,0,0-1.35-1.472,1.832,1.832,0,0,0-1.878.046.266.266,0,0,0,.307.435,1.292,1.292,0,0,1,1.321-.012,3.611,3.611,0,0,1,1.13,1.252A.253.253,0,0,0,98.086,436.818Z" transform="translate(-95.063 -434.734)" fill="#fff"/>
                    </g>
                    <g id="Сгруппировать_8475" data-name="Сгруппировать 8475" transform="translate(1.895)">
                      <path id="Контур_44888" data-name="Контур 44888" d="M99.478,435.558a.266.266,0,0,0,.319-.377,4.119,4.119,0,0,0-1.35-1.472,1.832,1.832,0,0,0-1.878.046.268.268,0,0,0-.064.371.263.263,0,0,0,.371.064,1.3,1.3,0,0,1,1.321-.012,3.546,3.546,0,0,1,1.13,1.252A.27.27,0,0,0,99.478,435.558Z" transform="translate(-96.458 -433.474)" fill="#fff"/>
                    </g>
                    <g id="Сгруппировать_8476" data-name="Сгруппировать 8476" transform="translate(0 1.31)">
                      <path id="Контур_44889" data-name="Контур 44889" d="M96.208,437.818a.266.266,0,0,0,.319-.377,4.118,4.118,0,0,0-1.35-1.472,1.832,1.832,0,0,0-1.878.046.268.268,0,0,0-.064.371.263.263,0,0,0,.371.064,1.3,1.3,0,0,1,1.321-.012,3.547,3.547,0,0,1,1.13,1.252A.247.247,0,0,0,96.208,437.818Z" transform="translate(-93.188 -435.734)" fill="#fff"/>
                    </g>
                  </g>
                </g>
              </g>
            </g>
          </g>
          <g id="Сгруппировать_8490" data-name="Сгруппировать 8490" transform="translate(36.936 92.337)">
            <path id="Контур_44890" data-name="Контур 44890" d="M139.36,425.218l.452,4.619,3.778-.064.272-4.9Z" transform="translate(-132.36 -357.406)" fill="#fda893"/>
            <g id="Сгруппировать_8483" data-name="Сгруппировать 8483" transform="translate(0.006 0.249)">
              <g id="Сгруппировать_8482" data-name="Сгруппировать 8482">
                <path id="Контур_44891" data-name="Контур 44891" d="M142.055,347.225c-.423,8.472-.2,19.436-.017,25.445a4.313,4.313,0,0,1-4.306,4.439H134.51a4.3,4.3,0,0,1-1.982-.481,4.161,4.161,0,0,1-.974-.7,4.275,4.275,0,0,1-1.35-3.263c.214-7.11.522-20.694-.151-24.831-.666-4.109-1.814-22.623-2.4-32.631-.191-3.344-.325-5.731-.365-6.322l13.751.18c.041.713.1,1.814.18,3.2C141.661,320.273,142.519,337.9,142.055,347.225Z" transform="translate(-127.29 -308.88)" fill="#fd4059"/>
              </g>
            </g>
            <path id="Контур_44892" data-name="Контур 44892" d="M141.217,312.274a133.193,133.193,0,0,1-13.572,2.938c-.191-3.344-.325-5.731-.365-6.322l13.751.18C141.072,309.788,141.136,310.883,141.217,312.274Z" transform="translate(-127.28 -308.635)" fill="#e51c4a"/>
            <g id="Сгруппировать_8484" data-name="Сгруппировать 8484" transform="translate(1.773)">
              <path id="Контур_44893" data-name="Контур 44893" d="M133.632,372.831c.035,1.524.1,2.706.18,3.622a4.173,4.173,0,0,1-.979-.7c-.058-.811-.1-1.773-.122-2.9-.081-3.79.046-8.49.162-13.039a121.648,121.648,0,0,0-.006-12.859c-.661-4.914-2.138-31.42-2.527-38.467l.921-.041c.388,7.052,1.86,33.506,2.521,38.385.3,2.231.162,7.464.017,13.01C133.678,364.377,133.55,369.065,133.632,372.831Z" transform="translate(-130.34 -308.45)" fill="#e51c4a"/>
            </g>
            <g id="Сгруппировать_8489" data-name="Сгруппировать 8489" transform="translate(6.738 71.213)">
              <path id="Контур_44894" data-name="Контур 44894" d="M141.093,431.844a17.293,17.293,0,0,1,2.457-.5c.533.012,4.1,4,5.3,4.23,2.179.429,2.179,3.825.858,3.993-3.83.487-10.39-1.13-10.39-1.13a31.22,31.22,0,0,1-.342-5.731C139.239,431.34,140.021,432.244,141.093,431.844Z" transform="translate(-138.907 -431.34)" fill="#018e57"/>
              <g id="Сгруппировать_8488" data-name="Сгруппировать 8488" transform="translate(4.305 1.524)">
                <g id="Сгруппировать_8485" data-name="Сгруппировать 8485" transform="translate(0.736 0.806)">
                  <path id="Контур_44895" data-name="Контур 44895" d="M147.927,437.26a.232.232,0,0,1-.2-.041.263.263,0,0,1-.07-.371,4.069,4.069,0,0,1,1.484-1.333,1.821,1.821,0,0,1,1.866.226.267.267,0,1,1-.348.406,1.31,1.31,0,0,0-1.315-.139,3.594,3.594,0,0,0-1.246,1.142A.318.318,0,0,1,147.927,437.26Z" transform="translate(-147.607 -435.359)" fill="#fff"/>
                </g>
                <g id="Сгруппировать_8486" data-name="Сгруппировать 8486">
                  <path id="Контур_44896" data-name="Контур 44896" d="M146.657,435.87a.232.232,0,0,1-.2-.041.263.263,0,0,1-.07-.371,4.069,4.069,0,0,1,1.483-1.333,1.821,1.821,0,0,1,1.866.226.267.267,0,1,1-.348.406,1.31,1.31,0,0,0-1.315-.139,3.535,3.535,0,0,0-1.246,1.142A.287.287,0,0,1,146.657,435.87Z" transform="translate(-146.337 -433.969)" fill="#fff"/>
                </g>
                <g id="Сгруппировать_8487" data-name="Сгруппировать 8487" transform="translate(1.762 1.489)">
                  <path id="Контур_44897" data-name="Контур 44897" d="M149.7,438.44a.232.232,0,0,1-.2-.041.263.263,0,0,1-.07-.371,4.069,4.069,0,0,1,1.483-1.333,1.821,1.821,0,0,1,1.866.226.267.267,0,1,1-.348.406,1.315,1.315,0,0,0-1.315-.139,3.536,3.536,0,0,0-1.246,1.142A.318.318,0,0,1,149.7,438.44Z" transform="translate(-149.377 -436.539)" fill="#fff"/>
                </g>
              </g>
            </g>
          </g>
          <g id="Сгруппировать_8498" data-name="Сгруппировать 8498" transform="translate(16.536 26.003)">
            <g id="Сгруппировать_8492" data-name="Сгруппировать 8492">
              <g id="Сгруппировать_8491" data-name="Сгруппировать 8491">
                <path id="Контур_44898" data-name="Контур 44898" d="M92.136,261.954a74.825,74.825,0,0,0,37.221,0c.035-3.552-.012-15.455-.267-27.746-.017-.643-.029-1.3-.041-1.947-.006-.307-.017-.626-.023-.933-.006-.325-.012-.649-.023-.979s-.017-.649-.023-.974-.017-.649-.029-.979c-.006-.313-.017-.626-.023-.933-.006-.325-.017-.649-.029-.974s-.023-.649-.035-.979-.017-.649-.035-.974-.017-.626-.029-.933c-.017-.655-.035-1.31-.064-1.947-.353-10.153-.887-18.468-1.681-19.564-1.849-2.538-10.269-6.287-12.853-8.1v.406s-1.617,2.138-3.436,1.982c-1.657-.139-2.921-2.057-3.135-2.4-1.286.91-4.253,2.37-7.134,3.935s-5.662,3.21-6.589,4.479c-.788,1.1-1.252,9.26-1.524,19.268v.035c-.006.185-.012.371-.017.562v.029c0,.145-.006.29-.012.44-.006.3-.017.591-.023.892s-.017.62-.023.933-.012.643-.023.974-.012.649-.023.979-.012.643-.017.974c-.006.307-.012.62-.017.933s-.012.649-.017.979-.012.643-.017.974-.012.649-.017.979c-.006.307-.012.62-.012.933-.012.649-.023,1.3-.029,1.947C92.032,246.459,92.084,258.373,92.136,261.954Z" transform="translate(-92.076 -193.98)" fill="#36c28b"/>
              </g>
            </g>
            <g id="Сгруппировать_8493" data-name="Сгруппировать 8493" transform="translate(7.657 18.277)">
              <path id="Контур_44899" data-name="Контур 44899" d="M122.964,234.357l-.464,3.883h3.726v4.619h-4.311l-.522,4.219h-4.926l.522-4.219h-3.048l-.522,4.219h-4.926l.522-4.219H105.29V238.24H109.6l.464-3.883h-3.726v-4.619h4.311l.522-4.219H116.1l-.522,4.219h3.048l.522-4.219h4.926l-.522,4.219h3.726v4.619Zm-4.931,0h-3.048l-.464,3.883h3.048Z" transform="translate(-105.29 -225.52)" fill="#00b870"/>
            </g>
            <g id="Сгруппировать_8494" data-name="Сгруппировать 8494" transform="translate(0.286 22.049)">
              <path id="Контур_44900" data-name="Контур 44900" d="M96.354,232.481a46.079,46.079,0,0,0-3.32,6.218c-.093.209-.174.382-.232.516-.081.174-.122.272-.127.284a.268.268,0,0,1-.1.122c.006-.3.012-.6.023-.892,0-.145.006-.3.012-.44v-.023c.145-.307.313-.666.5-1.066a37.389,37.389,0,0,1,2.787-5.053.284.284,0,0,1,.458.336Z" transform="translate(-92.57 -232.028)" fill="#00b870"/>
            </g>
            <g id="Сгруппировать_8495" data-name="Сгруппировать 8495" transform="translate(12.805 3.27)">
              <path id="Контур_44901" data-name="Контур 44901" d="M129.22,207.67h-.012a19.907,19.907,0,0,1-11.068-3.906,19.627,19.627,0,0,1-3.912-3.686.286.286,0,1,1,.458-.342c.052.07,5.378,7.07,14.534,7.36a.289.289,0,0,1,.278.3A.271.271,0,0,1,129.22,207.67Z" transform="translate(-114.173 -199.623)" fill="#00b870"/>
            </g>
            <g id="Сгруппировать_8496" data-name="Сгруппировать 8496" transform="translate(10.936 42.293)">
              <path id="Контур_44902" data-name="Контур 44902" d="M111.239,282.984a.287.287,0,0,1-.023-.574,20.864,20.864,0,0,0,15.554-7.985,22.294,22.294,0,0,0,3.813-7.244.285.285,0,0,1,.348-.209.29.29,0,0,1,.209.348,22.422,22.422,0,0,1-3.9,7.435,21.436,21.436,0,0,1-15.982,8.223A.021.021,0,0,1,111.239,282.984Z" transform="translate(-110.949 -266.964)" fill="#00b870"/>
            </g>
            <g id="Сгруппировать_8497" data-name="Сгруппировать 8497" transform="translate(15.285 44.538)">
              <path id="Контур_44903" data-name="Контур 44903" d="M118.741,279.474a.289.289,0,0,1-.075-.568,11.462,11.462,0,0,0,8.408-7.841.288.288,0,0,1,.562.122,10.137,10.137,0,0,1-1.617,3.39,12.587,12.587,0,0,1-7.2,4.879A.178.178,0,0,1,118.741,279.474Z" transform="translate(-118.454 -270.838)" fill="#00b870"/>
            </g>
          </g>
          <g id="Сгруппировать_8499" data-name="Сгруппировать 8499" transform="translate(51.771 34.695)">
            <path id="Контур_44904" data-name="Контур 44904" d="M165,277.878c-.18,2.521-1.686,4.387-1.7,6.044s-1.924.574-1.037-2.7-.429-6.444-1.13-6.415.226,3.691-.516,4.908-1.292-1.339-1.941-2.915c-.672-1.64-.3-5.042.313-7.435s-2.376-17.582-1.988-21.858l-1.078-5.552-.632-3.239-.116-3.378,5.754-2.277c.214,1.084.44,2.208.661,3.344.1.5.191,1,.284,1.5.771,4.051,1.46,8.032,1.744,10.587.777,7.07-.5,21.493-.5,21.493S165.165,275.519,165,277.878Z" transform="translate(-153.847 -219.106)" fill="#fda893"/>
            <path id="Контур_44905" data-name="Контур 44905" d="M161.889,237.9a12.764,12.764,0,0,1-5.951,4.056l-.632-3.239-.116-3.378,5.754-2.277c.214,1.084.44,2.208.661,3.344C161.7,236.9,161.8,237.395,161.889,237.9Z" transform="translate(-153.851 -219.106)" fill="#ff877c"/>
            <path id="Контур_44906" data-name="Контур 44906" d="M162.517,224.563a12.363,12.363,0,0,1-1.883,1.709,10.8,10.8,0,0,1-6.287,2.318c-.319-9.37-.788-17.286-1.466-19.61C154.091,210.481,159.915,217.858,162.517,224.563Z" transform="translate(-152.88 -208.98)" fill="#36c28b"/>
          </g>
          <g id="Сгруппировать_8500" data-name="Сгруппировать 8500" transform="translate(49.228 47.101)">
            <path id="Контур_44907" data-name="Контур 44907" d="M148.549,230.847a46.083,46.083,0,0,1,3.32,6.218c.093.209.174.382.232.516.081.174.122.272.128.278a.282.282,0,0,0,.261.174h.006c0-.145-.006-.3-.012-.44.087,0,.168,0,.249-.006-.041-.087-.133-.29-.267-.585-.168-.365-.4-.869-.678-1.443A37.39,37.39,0,0,0,149,230.505a.281.281,0,0,0-.4-.058A.291.291,0,0,0,148.549,230.847Z" transform="translate(-148.492 -230.388)" fill="#00b870"/>
          </g>
          <g id="Сгруппировать_8520" data-name="Сгруппировать 8520" transform="translate(25.219)">
            <path id="Контур_44908" data-name="Контур 44908" d="M126.61,157.054s.6-3.651-.29-4.891-2.33-.869-3.877-2.3-6.247-.064-8.31-.435c-1.13-.2-2.341-.052-3.448-.278-1.588-.319-2.434,1.252-2.051,2.8.243.985.742,2.469,2.167,2.857C110.8,154.811,124.489,152.314,126.61,157.054Z" transform="translate(-107.684 -149.108)" fill="#39222f"/>
            <path id="Контур_44909" data-name="Контур 44909" d="M127.552,160.912c0,5.285-3.257,8.93-8.542,8.93s-8.971-3.917-8.971-9.2,3.129-9.289,8.414-9.289C124.794,151.344,127.552,155.627,127.552,160.912Z" transform="translate(-108.314 -150.051)" fill="#39222f"/>
            <g id="Сгруппировать_8505" data-name="Сгруппировать 8505" transform="translate(17.489 12.157)">
              <path id="Контур_44910" data-name="Контур 44910" d="M137.8,171.068s1.466-1.959,2.561-.342-.452,6.4-3.123,5.233Z" transform="translate(-137.24 -170.086)" fill="#ff877c"/>
              <g id="Сгруппировать_8503" data-name="Сгруппировать 8503" transform="translate(0.356 1.716)">
                <g id="Сгруппировать_8502" data-name="Сгруппировать 8502">
                  <g id="Сгруппировать_8501" data-name="Сгруппировать 8501">
                    <path id="Контур_44911" data-name="Контур 44911" d="M138.078,175.726a.229.229,0,0,0,.22-.162,3.489,3.489,0,0,1,1.959-2.08.226.226,0,1,0-.156-.423,3.922,3.922,0,0,0-2.237,2.382.223.223,0,0,0,.156.278A.178.178,0,0,0,138.078,175.726Z" transform="translate(-137.855 -173.048)" fill="#f25b56"/>
                  </g>
                </g>
              </g>
              <g id="Сгруппировать_8504" data-name="Сгруппировать 8504" transform="translate(1.15 2.601)">
                <path id="Контур_44912" data-name="Контур 44912" d="M140.2,175.627a.228.228,0,0,0,.122-.035.232.232,0,0,0,.07-.313,2.1,2.1,0,0,0-.846-.684.219.219,0,0,0-.3.116.227.227,0,0,0,.116.3,1.649,1.649,0,0,1,.655.516A.206.206,0,0,0,140.2,175.627Z" transform="translate(-139.225 -174.575)" fill="#f25b56"/>
              </g>
            </g>
            <g id="Сгруппировать_8512" data-name="Сгруппировать 8512" transform="translate(0 12.157)">
              <path id="Контур_44913" data-name="Контур 44913" d="M109.975,171.068s-1.466-1.959-2.561-.342.452,6.4,3.123,5.233Z" transform="translate(-107.061 -170.086)" fill="#ff877c"/>
              <g id="Сгруппировать_8508" data-name="Сгруппировать 8508" transform="translate(0.566 1.716)">
                <g id="Сгруппировать_8507" data-name="Сгруппировать 8507">
                  <g id="Сгруппировать_8506" data-name="Сгруппировать 8506">
                    <path id="Контур_44914" data-name="Контур 44914" d="M110.363,175.726a.229.229,0,0,1-.22-.162,3.505,3.505,0,0,0-1.959-2.08.226.226,0,0,1,.156-.423,3.922,3.922,0,0,1,2.237,2.382.223.223,0,0,1-.156.278A.179.179,0,0,1,110.363,175.726Z" transform="translate(-108.038 -173.048)" fill="#f25b56"/>
                  </g>
                </g>
              </g>
              <g id="Сгруппировать_8511" data-name="Сгруппировать 8511" transform="translate(1.125 2.601)">
                <g id="Сгруппировать_8510" data-name="Сгруппировать 8510">
                  <g id="Сгруппировать_8509" data-name="Сгруппировать 8509">
                    <path id="Контур_44915" data-name="Контур 44915" d="M109.227,175.627a.228.228,0,0,1-.122-.035.232.232,0,0,1-.07-.313,2.1,2.1,0,0,1,.846-.684.219.219,0,0,1,.3.116.227.227,0,0,1-.116.3,1.649,1.649,0,0,0-.655.516A.2.2,0,0,1,109.227,175.627Z" transform="translate(-109.002 -174.575)" fill="#f25b56"/>
                  </g>
                </g>
              </g>
            </g>
            <path id="Контур_44916" data-name="Контур 44916" d="M118.91,187.23v4.758s1.42,2.422,3.338,2.585,3.622-2.086,3.622-2.086V187.56Z" transform="translate(-112.044 -165.139)" fill="#fda893"/>
            <path id="Контур_44917" data-name="Контур 44917" d="M118.91,187.23v2.109c1.286,1.426,3.575,1.785,6.954,1.286v-3.06Z" transform="translate(-112.044 -165.139)" fill="#ff877c"/>
            <path id="Контур_44918" data-name="Контур 44918" d="M127.225,164.979q-.026.417-.07.834c-.07.707-.168,1.437-.3,2.161-.006.023-.006.052-.012.075-.637,3.506-2.075,6.954-5.169,8.061-7.012,2.5-9.515-3.506-10.518-7.012-.11-.388-.209-.823-.3-1.286-.006-.017-.006-.035-.012-.058-.1-.522-.18-1.072-.255-1.64-.052-.423-.1-.852-.139-1.281-.1-1.049-.168-2.1-.214-3.031a4.946,4.946,0,0,1,3.17-4.856c2.874-1.107,7.244-1.982,11.375.365a4.96,4.96,0,0,1,2.521,4.225C127.335,162.511,127.317,163.7,127.225,164.979Z" transform="translate(-108.398 -151.934)" fill="#fda893"/>
            <path id="Контур_44919" data-name="Контур 44919" d="M130.27,171.591c0,.51.261.921.585.921s.585-.411.585-.921-.261-.921-.585-.921S130.27,171.081,130.27,171.591Z" transform="translate(-116.821 -158.175)" fill="#29245d"/>
            <path id="Контур_44920" data-name="Контур 44920" d="M117.9,171.591c0,.51.261.921.585.921s.585-.411.585-.921-.261-.921-.585-.921S117.9,171.081,117.9,171.591Z" transform="translate(-111.619 -158.175)" fill="#29245d"/>
            <path id="Контур_44921" data-name="Контур 44921" d="M115.768,166.767a4.949,4.949,0,0,1,3.263-.116l-.145.788a9.164,9.164,0,0,0-3.135.249A1.435,1.435,0,0,1,115.768,166.767Z" transform="translate(-110.687 -156.382)" fill="#39222f"/>
            <path id="Контур_44922" data-name="Контур 44922" d="M132.343,166.767a4.949,4.949,0,0,0-3.263-.116l.145.788a9.165,9.165,0,0,1,3.135.249A1.435,1.435,0,0,0,132.343,166.767Z" transform="translate(-116.32 -156.382)" fill="#39222f"/>
            <g id="Сгруппировать_8513" data-name="Сгруппировать 8513" transform="translate(9.52 12.966)">
              <path id="Контур_44923" data-name="Контур 44923" d="M124.22,175.92a2.433,2.433,0,0,0,.834-.07.226.226,0,1,0-.122-.435,1.36,1.36,0,0,1-.91-.023.245.245,0,0,1-.087-.22c.017-.794.551-3.39.556-3.419a.225.225,0,0,0-.44-.093,32.436,32.436,0,0,0-.562,3.5.685.685,0,0,0,.261.585A.979.979,0,0,0,124.22,175.92Z" transform="translate(-123.49 -171.483)" fill="#ff877c"/>
            </g>
            <path id="Контур_44924" data-name="Контур 44924" d="M125.93,181.48a2.911,2.911,0,0,1-2.868,2.637,2.8,2.8,0,0,1-2.851-2.637Z" transform="translate(-112.59 -162.721)" fill="#fff"/>
            <path id="Контур_44925" data-name="Контур 44925" d="M110.483,165.108h1.026a7.412,7.412,0,0,1,.568-3.1c.7-1.878-.788-2.706.417-3.645s4.2-.539,6.287-.608a44.263,44.263,0,0,1,6.287.151c.823.185.371,1.547.07,2.6s1.008,2.219,1.223,3.309a4.681,4.681,0,0,1,0,1.281h.852c.1-1.327.116-2.567.1-3.57a4.96,4.96,0,0,0-2.521-4.224c-4.138-2.347-8.5-1.472-11.375-.365a4.946,4.946,0,0,0-3.17,4.856C110.3,162.814,110.373,163.967,110.483,165.108Z" transform="translate(-108.398 -151.93)" fill="#39222f"/>
            <g id="Сгруппировать_8519" data-name="Сгруппировать 8519" transform="translate(1.193 11.174)">
              <g id="Сгруппировать_8514" data-name="Сгруппировать 8514" transform="translate(2.788)">
                <path id="Контур_44926" data-name="Контур 44926" d="M116.625,173.779a2.695,2.695,0,1,1,2.695-2.695A2.7,2.7,0,0,1,116.625,173.779Zm0-4.966a2.272,2.272,0,1,0,2.272,2.272A2.275,2.275,0,0,0,116.625,168.813Z" transform="translate(-113.93 -168.39)" fill="#fff"/>
              </g>
              <g id="Сгруппировать_8515" data-name="Сгруппировать 8515" transform="translate(10.142)">
                <path id="Контур_44927" data-name="Контур 44927" d="M129.315,173.779a2.695,2.695,0,1,1,2.695-2.695A2.7,2.7,0,0,1,129.315,173.779Zm0-4.966a2.272,2.272,0,1,0,2.272,2.272A2.275,2.275,0,0,0,129.315,168.813Z" transform="translate(-126.62 -168.39)" fill="#fff"/>
              </g>
              <g id="Сгруппировать_8516" data-name="Сгруппировать 8516" transform="translate(0 0.459)">
                <path id="Контур_44928" data-name="Контур 44928" d="M112.365,170.554a.258.258,0,0,1-.151-.058h0a3.3,3.3,0,0,0-2.84-.823.208.208,0,1,1-.093-.406,3.691,3.691,0,0,1,3.234.933.21.21,0,0,1,0,.3A.258.258,0,0,1,112.365,170.554Z" transform="translate(-109.119 -169.181)" fill="#fff"/>
              </g>
              <g id="Сгруппировать_8517" data-name="Сгруппировать 8517" transform="translate(14.917 0.397)">
                <path id="Контур_44929" data-name="Контур 44929" d="M135.069,170.509a.212.212,0,0,1-.174-.093.208.208,0,0,1,.064-.29,6.122,6.122,0,0,1,3.6-1.014.211.211,0,1,1-.07.417,5.824,5.824,0,0,0-3.309.95A.264.264,0,0,1,135.069,170.509Z" transform="translate(-134.862 -169.075)" fill="#fff"/>
              </g>
              <g id="Сгруппировать_8518" data-name="Сгруппировать 8518" transform="translate(7.673 0.991)">
                <path id="Контур_44930" data-name="Контур 44930" d="M124.979,171.2a1.706,1.706,0,0,0-1.159-.678,1.561,1.561,0,0,0-1.107.678l-.354-.232a1.952,1.952,0,0,1,1.455-.869,2.1,2.1,0,0,1,1.5.858Z" transform="translate(-122.36 -170.1)" fill="#fff"/>
              </g>
            </g>
          </g>
        </g>
      </g>
      <g id="Сгруппировать_8566" data-name="Сгруппировать 8566" transform="translate(128.552 100.318)">
        <ellipse id="Эллипс_865" data-name="Эллипс 865" cx="40.24" cy="5.14" rx="40.24" ry="5.14" transform="translate(1.495 132.172)" fill="#f5f5f5"/>
        <g id="Сгруппировать_8565" data-name="Сгруппировать 8565" transform="translate(0 0)">
          <g id="Сгруппировать_8523" data-name="Сгруппировать 8523" transform="translate(0 89.591)">
            <path id="Контур_44931" data-name="Контур 44931" d="M303.57,418.914h28.389a5.283,5.283,0,0,0-5.273-5.273h-.046s-6.027-.788-6.027-5.708V378.57h-5.7v29.363c0,4.92-6.027,5.708-6.027,5.708h-.046A5.278,5.278,0,0,0,303.57,418.914Z" transform="translate(-290.462 -369.982)" fill="#599090"/>
            <path id="Контур_44932" data-name="Контур 44932" d="M323.16,378.57v1.165l5.691,1.692V378.57Z" transform="translate(-298.7 -369.982)" fill="#3e6868"/>
            <path id="Контур_44933" data-name="Контур 44933" d="M280.95,372.338h54.605a10.456,10.456,0,0,0-10.315-8.588l-16.991.046-16.991-.046A10.449,10.449,0,0,0,280.95,372.338Z" transform="translate(-280.95 -363.75)" fill="#71b0b0"/>
          </g>
          <g id="Сгруппировать_8564" data-name="Сгруппировать 8564" transform="translate(6.295)">
            <g id="Сгруппировать_8524" data-name="Сгруппировать 8524" transform="translate(21.536 33.96)">
              <path id="Контур_44934" data-name="Контур 44934" d="M336.8,268.075c1.426,5.273,8.617,19.007,11.41,20.978,3.633,2.561,15.032,7.371,20.954,9.822,1.072.44-2.9,5.123-2.9,5.123s-15.328-3.9-21.574-7.887c-1.767-1.13-5.592-4.955-10.437-12.633-1.472-2.33-4.868-6.954-5.25-10.257C328.573,269.419,332.861,266.806,336.8,268.075Z" transform="translate(-328.977 -267.751)" fill="#e51c4a"/>
            </g>
            <g id="Сгруппировать_8559" data-name="Сгруппировать 8559" transform="translate(0.666)">
              <g id="Сгруппировать_8531" data-name="Сгруппировать 8531" transform="translate(30.121 75.385)">
                <g id="Сгруппировать_8530" data-name="Сгруппировать 8530" transform="translate(14.396 50.372)">
                  <path id="Контур_44935" data-name="Контур 44935" d="M371.9,426.16l-.2,5.737s1.42,1.049,4.352.527l1.2-6.172Z" transform="translate(-370.589 -426.16)" fill="#fda893"/>
                  <g id="Сгруппировать_8529" data-name="Сгруппировать 8529" transform="translate(0 4.177)">
                    <path id="Контур_44936" data-name="Контур 44936" d="M374.62,434.708s1-1.385,1.808-1.339,7.122,4.92,9.266,5.3,2.04,3.048,1.194,3.349c-.962.348-16.811.046-16.811.046s-.6-5.638-.081-7.163S372.951,435.09,374.62,434.708Z" transform="translate(-369.783 -433.368)" fill="#fd4059"/>
                    <g id="Сгруппировать_8528" data-name="Сгруппировать 8528" transform="translate(7.047 1.59)">
                      <g id="Сгруппировать_8525" data-name="Сгруппировать 8525" transform="translate(0.904 0.829)">
                        <path id="Контур_44937" data-name="Контур 44937" d="M383.89,439.876a.3.3,0,0,1-.348-.429,4.6,4.6,0,0,1,1.536-1.646,2.061,2.061,0,0,1,2.121.07.3.3,0,0,1-.348.487,1.481,1.481,0,0,0-1.5-.023,4.029,4.029,0,0,0-1.286,1.408A.368.368,0,0,1,383.89,439.876Z" transform="translate(-383.504 -437.542)" fill="#fff"/>
                      </g>
                      <g id="Сгруппировать_8526" data-name="Сгруппировать 8526">
                        <path id="Контур_44938" data-name="Контур 44938" d="M382.33,438.446a.3.3,0,0,1-.348-.429,4.6,4.6,0,0,1,1.536-1.646,2.061,2.061,0,0,1,2.121.07.3.3,0,0,1-.348.487,1.481,1.481,0,0,0-1.5-.023,4.03,4.03,0,0,0-1.286,1.408A.368.368,0,0,1,382.33,438.446Z" transform="translate(-381.944 -436.112)" fill="#fff"/>
                      </g>
                      <g id="Сгруппировать_8527" data-name="Сгруппировать 8527" transform="translate(2.121 1.495)">
                        <path id="Контур_44939" data-name="Контур 44939" d="M385.99,441.026a.3.3,0,0,1-.348-.429,4.6,4.6,0,0,1,1.536-1.646,2.061,2.061,0,0,1,2.121.07.3.3,0,0,1-.348.487,1.481,1.481,0,0,0-1.5-.023,4.029,4.029,0,0,0-1.286,1.408A.336.336,0,0,1,385.99,441.026Z" transform="translate(-385.604 -438.692)" fill="#fff"/>
                      </g>
                    </g>
                  </g>
                </g>
                <path id="Контур_44940" data-name="Контур 44940" d="M345.647,340.721s22.2-3.662,28.864.51c5.053,3.164-7.968,49.917-7.968,49.917a7.851,7.851,0,0,1-6.8-1.541s-2.046-5.517-.168-21.482a69.751,69.751,0,0,1,2.26-15.53l-16.9-7.458Z" transform="translate(-344.94 -339.235)" fill="#046e45"/>
              </g>
              <g id="Сгруппировать_8535" data-name="Сгруппировать 8535" transform="translate(0 27.232)">
                <path id="Контур_44941" data-name="Контур 44941" d="M304.023,256.47s-6.154,2.011-9.44,4.9-.539,11.5-.62,16.4.724,33.3,7.736,36.867c5.3,2.695,27.578-1.4,25.95-8.658a237.4,237.4,0,0,1-4.566-25.718c-.939-7.922-.545-13.774-1.426-17.06s-11.178-7.058-11.178-7.058Z" transform="translate(-292.962 -256.14)" fill="#fd4059"/>
                <g id="Сгруппировать_8532" data-name="Сгруппировать 8532" transform="translate(9.303 2.252)">
                  <path id="Контур_44942" data-name="Контур 44942" d="M315.364,263.957c-3.21,0-6.166-3.407-6.293-3.558a.226.226,0,0,1,.342-.3c.029.035,3.129,3.6,6.229,3.39a.231.231,0,0,1,.243.209.235.235,0,0,1-.209.243A2.823,2.823,0,0,1,315.364,263.957Z" transform="translate(-309.016 -260.026)" fill="#e51c4a"/>
                </g>
                <g id="Сгруппировать_8533" data-name="Сгруппировать 8533" transform="translate(12.642 28.464)">
                  <path id="Контур_44943" data-name="Контур 44943" d="M315.005,321.329a.231.231,0,0,1-.226-.2.227.227,0,0,1,.2-.249c8.287-.956,11.717-15.3,11.752-15.443a.226.226,0,1,1,.44.1c-.139.6-3.541,14.8-12.14,15.791Z" transform="translate(-314.778 -305.259)" fill="#e51c4a"/>
                </g>
                <g id="Сгруппировать_8534" data-name="Сгруппировать 8534" transform="translate(15.948 32.814)">
                  <path id="Контур_44944" data-name="Контур 44944" d="M320.707,320.145a.224.224,0,0,1-.191-.11.228.228,0,0,1,.075-.313,10.692,10.692,0,0,0,5.071-6.763.225.225,0,0,1,.446.064,10.932,10.932,0,0,1-5.279,7.081A.2.2,0,0,1,320.707,320.145Z" transform="translate(-320.482 -312.766)" fill="#e51c4a"/>
                </g>
              </g>
              <g id="Сгруппировать_8551" data-name="Сгруппировать 8551" transform="translate(3.803)">
                <circle id="Эллипс_866" data-name="Эллипс 866" cx="9.081" cy="9.081" r="9.081" transform="translate(0 10.455) rotate(-35.147)" fill="#39222f"/>
                <path id="Контур_44945" data-name="Контур 44945" d="M323.955,222.26a3.009,3.009,0,0,0,2.758-2.77c.087-2.144-2.608-1.223-2.1-2.816s1.246-3-.794-3.778c-1.785-.684-2.04.579-4.143-1.692-2.486-2.677-5.581,1.959-8.165,1.657-3.819-.446-4.671,1.605-5.343,3.251a3.247,3.247,0,0,0,.568,3.1Z" transform="translate(-302.233 -209.66)" fill="#39222f"/>
                <g id="Сгруппировать_8539" data-name="Сгруппировать 8539" transform="translate(18.263 15.768)">
                  <path id="Контур_44946" data-name="Контур 44946" d="M332.419,237.054s1.75-1.64,2.527.11-1.524,6.1-3.906,4.514Z" transform="translate(-331.04 -236.357)" fill="#ff877c"/>
                  <g id="Сгруппировать_8536" data-name="Сгруппировать 8536" transform="translate(0.622 1.759)">
                    <path id="Контур_44947" data-name="Контур 44947" d="M332.3,241.628a.222.222,0,0,0,.238-.122,3.44,3.44,0,0,1,2.243-1.675.222.222,0,1,0-.087-.435,3.811,3.811,0,0,0-2.561,1.918.222.222,0,0,0,.1.3A.176.176,0,0,0,332.3,241.628Z" transform="translate(-332.113 -239.393)" fill="#f25b56"/>
                  </g>
                  <g id="Сгруппировать_8538" data-name="Сгруппировать 8538" transform="translate(1.619 2.398)">
                    <g id="Сгруппировать_8537" data-name="Сгруппировать 8537">
                      <path id="Контур_44948" data-name="Контур 44948" d="M334.643,241.639a.216.216,0,0,0,.238-.3,2,2,0,0,0-.7-.805.221.221,0,0,0-.249.365,1.533,1.533,0,0,1,.539.608A.263.263,0,0,0,334.643,241.639Z" transform="translate(-333.834 -240.494)" fill="#f25b56"/>
                    </g>
                  </g>
                </g>
                <path id="Контур_44949" data-name="Контур 44949" d="M312.471,249.32l-.811,4.584s1.53,2.353,3.349,2.84,3.332-1.507,3.332-1.507l.782-4.41Z" transform="translate(-304.628 -226.04)" fill="#fda893"/>
                <path id="Контур_44950" data-name="Контур 44950" d="M312.8,249.32l-.359,2.034c1,1.594,3.141,2.33,6.484,2.422l.522-2.95Z" transform="translate(-304.956 -226.04)" fill="#ff877c"/>
                <path id="Контур_44951" data-name="Контур 44951" d="M308,224.283a45.306,45.306,0,0,0-.429,5.9c.006.458.029.892.07,1.286.365,3.552,1.756,9.77,8.942,8.553,3.176-.539,5.146-3.616,6.357-6.89a33.093,33.093,0,0,0,1.559-6.195,4.858,4.858,0,0,0-1.709-4.5c-3.587-2.967-7.945-2.868-10.906-2.289A4.85,4.85,0,0,0,308,224.283Z" transform="translate(-302.906 -213.635)" fill="#fda893"/>
                <path id="Контур_44952" data-name="Контур 44952" d="M314.1,243.3l3.883.707,3.3.574s-1.634-2.017-3.234-1.321C318.046,243.251,316.644,241.889,314.1,243.3Z" transform="translate(-305.654 -223.239)" fill="#39222f"/>
                <path id="Контур_44953" data-name="Контур 44953" d="M327.354,236.984c-.087.487.093.933.406.985s.632-.3.719-.788-.1-.933-.406-.985S327.441,236.491,327.354,236.984Z" transform="translate(-311.218 -220.518)" fill="#29245d"/>
                <path id="Контур_44954" data-name="Контур 44954" d="M315.974,234.964c-.087.487.1.933.406.985s.632-.3.719-.788-.1-.933-.406-.985S316.061,234.478,315.974,234.964Z" transform="translate(-306.433 -219.67)" fill="#29245d"/>
                <path id="Контур_44955" data-name="Контур 44955" d="M329.346,232.88A6.385,6.385,0,0,0,325.22,232v.863a7.721,7.721,0,0,1,3.825.962C329.23,233.46,329.427,233.3,329.346,232.88Z" transform="translate(-310.33 -218.716)" fill="#39222f"/>
                <path id="Контур_44956" data-name="Контур 44956" d="M313.728,230.234a6.434,6.434,0,0,1,4.178.585l-.3.811a7.717,7.717,0,0,0-3.917-.406C313.635,230.819,313.5,230.6,313.728,230.234Z" transform="translate(-305.444 -217.964)" fill="#39222f"/>
                <g id="Сгруппировать_8542" data-name="Сгруппировать 8542" transform="translate(11.536 15.207)">
                  <g id="Сгруппировать_8541" data-name="Сгруппировать 8541">
                    <g id="Сгруппировать_8540" data-name="Сгруппировать 8540">
                      <path id="Контур_44957" data-name="Контур 44957" d="M320.294,239.579a2.3,2.3,0,0,1-.759-.307.223.223,0,1,1,.238-.377c.185.116.632.325.858.238.046-.017.1-.052.145-.185a32.346,32.346,0,0,0,.458-3.361.221.221,0,0,1,.44.046,32.881,32.881,0,0,1-.475,3.442.681.681,0,0,1-.411.475A.941.941,0,0,1,320.294,239.579Z" transform="translate(-319.432 -235.388)" fill="#ff877c"/>
                    </g>
                  </g>
                </g>
                <path id="Контур_44958" data-name="Контур 44958" d="M321.251,245.054a2.851,2.851,0,0,1-3.21,2.057,2.739,2.739,0,0,1-2.3-3.031Z" transform="translate(-306.343 -223.837)" fill="#fff"/>
                <g id="Сгруппировать_8543" data-name="Сгруппировать 8543" transform="translate(10.434 23.541)">
                  <path id="Контур_44959" data-name="Контур 44959" d="M318.614,250.645a2.275,2.275,0,0,1-1.008-.487.222.222,0,0,1,.29-.336,1.894,1.894,0,0,0,.794.382,1.85,1.85,0,0,0,.834-.093.222.222,0,0,1,.168.411A2.191,2.191,0,0,1,318.614,250.645Z" transform="translate(-317.53 -249.77)" fill="#ff877c"/>
                </g>
                <path id="Контур_44960" data-name="Контур 44960" d="M322.528,231.61a9.272,9.272,0,0,0,.678-2.613c-.029-1.089-.788-1.86-.319-2.822a2.176,2.176,0,0,0-1.165-2.567c-.753-.325-2.671-.255-4.335-1.437-1.588-1.13-4.706-1.072-5.389-.046-.834,1.24-.046,1.512-1.924,2.683-.748.469-.249,2.109-.313,3.112a6.488,6.488,0,0,1-.168,1.165l-.052.243-1.941-.342c.052-1.559.232-3.257.411-4.671a4.837,4.837,0,0,1,3.883-4.138c2.961-.574,7.319-.678,10.906,2.295a4.871,4.871,0,0,1,1.709,4.5,35.308,35.308,0,0,1-1.1,4.81Z" transform="translate(-302.92 -213.65)" fill="#39222f"/>
                <g id="Сгруппировать_8550" data-name="Сгруппировать 8550" transform="translate(2.386 12.732)">
                  <path id="Контур_44961" data-name="Контур 44961" d="M306.648,234.694a8.019,8.019,0,0,0,.151-1.536,1.843,1.843,0,0,0-.736-1.767,1.209,1.209,0,0,0-1.663.122c-1.327,1.373-1.014,6.438,1.762,5.772Z" transform="translate(-303.642 -231.117)" fill="#fda893"/>
                  <g id="Сгруппировать_8546" data-name="Сгруппировать 8546" transform="translate(1.008 1.451)">
                    <g id="Сгруппировать_8545" data-name="Сгруппировать 8545">
                      <g id="Сгруппировать_8544" data-name="Сгруппировать 8544">
                        <path id="Контур_44962" data-name="Контур 44962" d="M306.644,236.831a.215.215,0,0,1-.139-.226,3.432,3.432,0,0,0-1.049-2.6.222.222,0,1,1,.3-.33,3.791,3.791,0,0,1,1.188,2.967.221.221,0,0,1-.243.2A.215.215,0,0,1,306.644,236.831Z" transform="translate(-305.382 -233.622)" fill="#ff877c"/>
                      </g>
                    </g>
                  </g>
                  <g id="Сгруппировать_8549" data-name="Сгруппировать 8549" transform="translate(0.988 2.725)">
                    <g id="Сгруппировать_8548" data-name="Сгруппировать 8548">
                      <g id="Сгруппировать_8547" data-name="Сгруппировать 8547">
                        <path id="Контур_44963" data-name="Контур 44963" d="M305.488,236.527a.218.218,0,0,1-.046-.382,2.076,2.076,0,0,1,1.014-.325.221.221,0,1,1,.023.44,1.6,1.6,0,0,0-.776.238A.225.225,0,0,1,305.488,236.527Z" transform="translate(-305.348 -235.82)" fill="#ff877c"/>
                      </g>
                    </g>
                  </g>
                </g>
              </g>
              <g id="Сгруппировать_8558" data-name="Сгруппировать 8558" transform="translate(3.702 76.457)">
                <g id="Сгруппировать_8557" data-name="Сгруппировать 8557" transform="translate(28.38 49.3)">
                  <path id="Контур_44964" data-name="Контур 44964" d="M350.437,426.16l-.2,5.737s1.42,1.049,4.352.527l1.2-6.172Z" transform="translate(-349.129 -426.16)" fill="#fda893"/>
                  <g id="Сгруппировать_8556" data-name="Сгруппировать 8556" transform="translate(0 4.177)">
                    <path id="Контур_44965" data-name="Контур 44965" d="M353.16,434.708s1-1.385,1.808-1.339,7.122,4.92,9.266,5.3,2.04,3.048,1.194,3.349c-.962.348-16.811.046-16.811.046s-.6-5.638-.081-7.163S351.491,435.09,353.16,434.708Z" transform="translate(-348.323 -433.368)" fill="#fd4059"/>
                    <g id="Сгруппировать_8555" data-name="Сгруппировать 8555" transform="translate(7.047 1.59)">
                      <g id="Сгруппировать_8552" data-name="Сгруппировать 8552" transform="translate(0.904 0.829)">
                        <path id="Контур_44966" data-name="Контур 44966" d="M362.43,439.876a.3.3,0,0,1-.348-.429,4.6,4.6,0,0,1,1.536-1.646,2.061,2.061,0,0,1,2.121.07.3.3,0,0,1-.348.487,1.481,1.481,0,0,0-1.5-.023,4.03,4.03,0,0,0-1.286,1.408A.368.368,0,0,1,362.43,439.876Z" transform="translate(-362.044 -437.542)" fill="#fff"/>
                      </g>
                      <g id="Сгруппировать_8553" data-name="Сгруппировать 8553">
                        <path id="Контур_44967" data-name="Контур 44967" d="M360.87,438.446a.3.3,0,0,1-.348-.429,4.6,4.6,0,0,1,1.536-1.646,2.061,2.061,0,0,1,2.121.07.3.3,0,1,1-.348.487,1.481,1.481,0,0,0-1.5-.023,4.03,4.03,0,0,0-1.286,1.408A.368.368,0,0,1,360.87,438.446Z" transform="translate(-360.484 -436.112)" fill="#fff"/>
                      </g>
                      <g id="Сгруппировать_8554" data-name="Сгруппировать 8554" transform="translate(2.121 1.495)">
                        <path id="Контур_44968" data-name="Контур 44968" d="M364.53,441.026a.3.3,0,0,1-.348-.429,4.6,4.6,0,0,1,1.536-1.646,2.061,2.061,0,0,1,2.121.07.3.3,0,1,1-.348.487,1.481,1.481,0,0,0-1.5-.023,4.029,4.029,0,0,0-1.286,1.408A.3.3,0,0,1,364.53,441.026Z" transform="translate(-364.144 -438.692)" fill="#fff"/>
                      </g>
                    </g>
                  </g>
                </g>
                <path id="Контур_44969" data-name="Контур 44969" d="M299.692,342.033s38.5-2.115,45.108-.023c5.685,1.8-9.857,49.917-9.857,49.917a7.851,7.851,0,0,1-6.8-1.541s-1.182-2.874.7-18.833a97.726,97.726,0,0,1,2.776-17.3l-25.538.128c-5.47,0-7.2-4.613-6.629-10.054Z" transform="translate(-299.35 -341.086)" fill="#018e57"/>
              </g>
            </g>
            <g id="Сгруппировать_8562" data-name="Сгруппировать 8562" transform="translate(0 31.451)">
              <path id="Контур_44970" data-name="Контур 44970" d="M361.85,322.35s5.795.979,8.211,3,5.656,3.755,5.175,4.8-3.894-1.171-3.894-1.171a5.546,5.546,0,0,1-3.6,2.7c-2.793.817-8.768-3.987-8.768-3.987Z" transform="translate(-320.053 -288.201)" fill="#fda893"/>
              <g id="Сгруппировать_8561" data-name="Сгруппировать 8561">
                <g id="Сгруппировать_8560" data-name="Сгруппировать 8560">
                  <path id="Контур_44971" data-name="Контур 44971" d="M295.41,263.42c3.234,4.9,15.606,21.841,18.4,23.811,3.633,2.561,13.8,7.887,19.726,10.338,1.072.44-2.376,5.482-2.376,5.482s-14.621-4.775-20.867-8.762c-1.767-1.13-9.115-8.49-13.8-15.015-1.605-2.237-4.213-5.343-4.6-8.646C291.469,266.827,292.663,264.793,295.41,263.42Z" transform="translate(-291.813 -263.42)" fill="#e51c4a"/>
                </g>
              </g>
            </g>
            <g id="Сгруппировать_8563" data-name="Сгруппировать 8563" transform="translate(32.229 50.134)">
              <path id="Контур_44972" data-name="Контур 44972" d="M348.769,339.64h29.49A1.339,1.339,0,0,0,379.6,338.3v-1.512a1.339,1.339,0,0,0-1.339-1.339h-29.49a1.339,1.339,0,0,0-1.339,1.339V338.3A1.335,1.335,0,0,0,348.769,339.64Z" transform="translate(-347.43 -312.392)" fill="#979696"/>
              <path id="Контур_44973" data-name="Контур 44973" d="M398.311,322.908l6.548-24.518a2.171,2.171,0,0,0-2.1-2.729H388.355a2.166,2.166,0,0,0-2.086,1.582L379.06,322.9h19.251Z" transform="translate(-360.731 -295.66)" fill="#d2d8dc"/>
              <path id="Контур_44974" data-name="Контур 44974" d="M385.117,297.252,377.966,322.7H376.32l7.151-25.451a2.17,2.17,0,0,1,2.086-1.582H387.2A2.177,2.177,0,0,0,385.117,297.252Z" transform="translate(-359.579 -295.664)" fill="#979696"/>
              <path id="Контур_44975" data-name="Контур 44975" d="M397.833,318.946a2.25,2.25,0,0,0,2.248,2.926,3.9,3.9,0,0,0,3.6-2.926,2.25,2.25,0,0,0-2.248-2.926A3.915,3.915,0,0,0,397.833,318.946Z" transform="translate(-368.592 -304.222)" fill="#979696"/>
            </g>
          </g>
        </g>
      </g>
      <g id="Сгруппировать_8602" data-name="Сгруппировать 8602" transform="translate(75.915)">
        <path id="Контур_44976" data-name="Контур 44976" d="M232.6,52.251l.006-.023c.128-.29.249-.579.353-.869,1.565-4.271,1.721-13.033-8.014-15.107,0,0-8.02-1.872-11.584,5.343,0,0-1.605,3.344-2.747,5.772,0,0-.956,5.105-5.772,5.552s-7.5,2.3-7.035,5.864-.278,3-3.61,6.015-5.656,8.658-2.782,12.366,13.635-5.071,20.526-1.147,18.457,2.776,19.8-2.8-4.045-9.266-3.755-12.1S231.732,54.963,232.6,52.251Z" transform="translate(-190.117 -36.033)" fill="#39222f"/>
        <g id="Сгруппировать_8567" data-name="Сгруппировать 8567" transform="translate(32.871 28.764)">
          <path id="Контур_44977" data-name="Контур 44977" d="M250.369,85.67l8.455,23.249-6.873.006-5.111-9.95S247.367,87.269,250.369,85.67Z" transform="translate(-246.84 -85.67)" fill="#fc9100"/>
          <path id="Контур_44978" data-name="Контур 44978" d="M270.86,123.526s.591,2.556,1.6,3.257.753-2.868.753-2.868.342,4.306,1.385,4.422.834-4.08.834-4.08.672,2.886,1.466,3.054.765-2.9.765-2.9.765,2.231,1.35,2.428.869-2.4.539-3.72-1.97-.522-1.97-.522-1.553-.446-2.092.087a3.308,3.308,0,0,0-2.173-.214C273.317,122.471,271.04,121.816,270.86,123.526Z" transform="translate(-256.941 -101.088)" fill="#fda893"/>
        </g>
        <g id="Сгруппировать_8574" data-name="Сгруппировать 8574" transform="translate(12.31 25.077)">
          <g id="Сгруппировать_8568" data-name="Сгруппировать 8568" transform="translate(0 0.004)">
            <path id="Контур_44979" data-name="Контур 44979" d="M232.065,106.252c-.064-3.3-.214-1.176.359-5.175.017-.156.035-.319.058-.475.052-.093.1-.18.151-.267a15.184,15.184,0,0,0,1.657-3.6c.956-3.593.238-5.87-.017-8.13.209-1.043.945-4.566,1.176-5.6l-4.6-1.773-.962-.371-.058-.023h0l-.979-.377-.075-.029a16.434,16.434,0,0,0-6.965-1.078c-.156.012-.307.017-.464.035l-1.762.156-.07.006-1.13.1-6.542.579-.481,26.031Z" transform="translate(-211.36 -79.313)" fill="#ffc800"/>
          </g>
          <g id="Сгруппировать_8571" data-name="Сгруппировать 8571" transform="translate(7.023)">
            <g id="Сгруппировать_8570" data-name="Сгруппировать 8570">
              <g id="Сгруппировать_8569" data-name="Сгруппировать 8569">
                <path id="Контур_44980" data-name="Контур 44980" d="M223.48,79.639c2.133,4.306,7.365,9.11,10.043,7.626,1.646-.91,2.324-3.906,2.416-6.05l-.962-.371-.058-.023h0l-.979-.377-.075-.029a16.525,16.525,0,0,0-6.965-1.078l-.243.035c-.075.012-.151.017-.22.029l-1.762.133-.07.006Z" transform="translate(-223.48 -79.307)" fill="#fda893"/>
              </g>
            </g>
          </g>
          <g id="Сгруппировать_8573" data-name="Сгруппировать 8573" transform="translate(7.595 19.738)">
            <g id="Сгруппировать_8572" data-name="Сгруппировать 8572">
              <path id="Контур_44981" data-name="Контур 44981" d="M237.994,114.922c-.017.156-.041.319-.058.475-1.136.243-4.694.742-10.75-.707-.782-.185-1.611-.411-2.48-.666a.333.333,0,0,1-.226-.417.341.341,0,0,1,.417-.226c8.733,2.6,13.189,1.292,13.236,1.281.006,0,.006,0,.012-.006C238.1,114.742,238.046,114.835,237.994,114.922Z" transform="translate(-224.466 -113.367)" fill="#fc9100"/>
            </g>
          </g>
        </g>
        <g id="Сгруппировать_8595" data-name="Сгруппировать 8595" transform="translate(22.313 3.638)">
          <g id="Сгруппировать_8583" data-name="Сгруппировать 8583" transform="translate(1.658)">
            <g id="Сгруппировать_8578" data-name="Сгруппировать 8578" transform="translate(13.176 11.542)">
              <path id="Контур_44982" data-name="Контур 44982" d="M256.231,62.635s1.924-1.205,2.417.533-2.37,5.349-4.427,3.483Z" transform="translate(-254.22 -62.228)" fill="#ff877c"/>
              <path id="Контур_44983" data-name="Контур 44983" d="M256.24,69.814a.467.467,0,1,0,.6-.284A.467.467,0,0,0,256.24,69.814Z" transform="translate(-255.058 -65.287)" fill="#fff"/>
              <g id="Сгруппировать_8575" data-name="Сгруппировать 8575" transform="translate(0.837 1.705)">
                <path id="Контур_44984" data-name="Контур 44984" d="M255.807,66.81a.226.226,0,0,0,.249-.07,3.271,3.271,0,0,1,2.4-1.153.2.2,0,0,0,.209-.209.222.222,0,0,0-.22-.209,3.645,3.645,0,0,0-2.747,1.321.2.2,0,0,0,.058.29A.126.126,0,0,0,255.807,66.81Z" transform="translate(-255.664 -65.17)" fill="#f25b56"/>
              </g>
              <g id="Сгруппировать_8577" data-name="Сгруппировать 8577" transform="translate(1.959 2.05)">
                <g id="Сгруппировать_8576" data-name="Сгруппировать 8576">
                  <path id="Контур_44985" data-name="Контур 44985" d="M258.244,66.921a.218.218,0,0,0,.122.006.2.2,0,0,0,.156-.243,1.957,1.957,0,0,0-.556-.858.224.224,0,0,0-.307,0,.205.205,0,0,0,.012.3,1.483,1.483,0,0,1,.429.655A.239.239,0,0,0,258.244,66.921Z" transform="translate(-257.601 -65.765)" fill="#f25b56"/>
                </g>
              </g>
            </g>
            <path id="Контур_44986" data-name="Контур 44986" d="M233.446,71.44l-1.8,5.036s1.7,2.642,3.465,3.448,3.164-1.118,3.164-1.118l1.675-4.688Z" transform="translate(-231.553 -54.56)" fill="#fda893"/>
            <path id="Контур_44987" data-name="Контур 44987" d="M233.929,72.29,233.21,74.3c.742,1.8,2.741,3.054,6.131,3.732l1.089-3.054Z" transform="translate(-232.209 -54.917)" fill="#ff877c"/>
            <path id="Контур_44988" data-name="Контур 44988" d="M246.78,57.061c-.232.464-.475.933-.742,1.4-1.75,3.066-5.082,5.864-7.91,5.523-6.1-.736-6.867-6.009-6.6-9.6.029-.4.365-.748.44-1.205.18-1.084.18-2.393.493-3.57.22-.817.452-1.611.672-2.33a4.91,4.91,0,0,1,4.479-3.512c2.967-.1,7.2.487,10.153,4.01a4.967,4.967,0,0,1,.869,4.758A35.822,35.822,0,0,1,246.78,57.061Z" transform="translate(-231.483 -42.916)" fill="#fda893"/>
            <g id="Сгруппировать_8581" data-name="Сгруппировать 8581" transform="translate(7.348 10.541)">
              <g id="Сгруппировать_8580" data-name="Сгруппировать 8580">
                <g id="Сгруппировать_8579" data-name="Сгруппировать 8579">
                  <path id="Контур_44989" data-name="Контур 44989" d="M244.317,64.18a.229.229,0,0,1-.151-.261.24.24,0,0,1,.272-.191l.8.145-.052-3.135a.235.235,0,1,1,.469-.006l.058,3.7-1.356-.243C244.341,64.186,244.329,64.18,244.317,64.18Z" transform="translate(-244.162 -60.5)" fill="#ff877c"/>
                </g>
              </g>
            </g>
            <path id="Контур_44990" data-name="Контур 44990" d="M247.013,50.162c1.849,1.8.209,4.167.487,5.749.017.1.064.133.133.11a36.583,36.583,0,0,0,1.895-4.613,5.03,5.03,0,0,0-.962-4.879c-3.141-3.639-7.591-4.288-10.7-4.213a4.993,4.993,0,0,0-4.665,3.541c-.22.73-.458,1.547-.678,2.376.29.348,1.147.771.974,1.368-.458,1.594-.759,2.683-.406,2.706.6.041,1.617-1.727,1.426-3.17a5.57,5.57,0,0,1,3.135-.7,42.368,42.368,0,0,0,6.079-.672A5.022,5.022,0,0,0,245.564,47,4.954,4.954,0,0,0,247.013,50.162Z" transform="translate(-231.919 -42.31)" fill="#39222f"/>
            <path id="Контур_44991" data-name="Контур 44991" d="M251.3,61.892c-.174.481-.064.962.243,1.072s.7-.191.869-.678.064-.962-.243-1.072S251.474,61.411,251.3,61.892Z" transform="translate(-239.781 -50.25)" fill="#29245d"/>
            <path id="Контур_44992" data-name="Контур 44992" d="M240.37,57.982c-.174.481-.064.962.243,1.072s.7-.191.869-.678.064-.962-.243-1.072S240.538,57.495,240.37,57.982Z" transform="translate(-235.185 -48.606)" fill="#29245d"/>
            <path id="Контур_44993" data-name="Контур 44993" d="M254.038,58.3a11.418,11.418,0,0,0-2.243-1.026.424.424,0,0,0-.568.249v.006a.379.379,0,0,0,.313.4,13,13,0,0,1,3.1,1.333.436.436,0,0,0-.046-.406A1.388,1.388,0,0,0,254.038,58.3Z" transform="translate(-239.784 -48.591)" fill="#39222f"/>
            <path id="Контур_44994" data-name="Контур 44994" d="M239.8,53.716a11.166,11.166,0,0,1,2.393.6.423.423,0,0,1,.284.551v.006a.378.378,0,0,1-.493.116,12.988,12.988,0,0,0-3.257-.892c.017-.122.139-.22.29-.29A1.406,1.406,0,0,1,239.8,53.716Z" transform="translate(-234.53 -47.099)" fill="#39222f"/>
            <path id="Контур_44995" data-name="Контур 44995" d="M244.129,69.292a2.644,2.644,0,0,1-3.3,1.281,2.546,2.546,0,0,1-1.733-3.083Z" transform="translate(-234.662 -52.899)" fill="#fff"/>
            <g id="Сгруппировать_8582" data-name="Сгруппировать 8582" transform="translate(4.725 17.967)">
              <path id="Контур_44996" data-name="Контур 44996" d="M240.629,74.355a2.287,2.287,0,0,0,1.113.064.228.228,0,1,0-.1-.446h0a1.593,1.593,0,0,1-1.605-.574.227.227,0,0,0-.354.284A2.343,2.343,0,0,0,240.629,74.355Z" transform="translate(-239.635 -73.315)" fill="#ff877c"/>
            </g>
          </g>
          <g id="Сгруппировать_8588" data-name="Сгруппировать 8588" transform="translate(0 5.426)">
            <path id="Контур_44997" data-name="Контур 44997" d="M231.872,53.323s-.875-2.422-2.266-1.4-1.53,5.47,1.049,5.291Z" transform="translate(-228.622 -51.673)" fill="#fda893"/>
            <path id="Контур_44998" data-name="Контур 44998" d="M229.63,60.3a.467.467,0,1,0,.6-.284A.467.467,0,0,0,229.63,60.3Z" transform="translate(-229.034 -55.172)" fill="#fff"/>
            <g id="Сгруппировать_8584" data-name="Сгруппировать 8584" transform="translate(0.764 1.268)">
              <path id="Контур_44999" data-name="Контур 44999" d="M231.157,56.735a.2.2,0,0,1-.133-.2,3.1,3.1,0,0,0-1.014-2.318.2.2,0,0,1,.261-.307,3.437,3.437,0,0,1,1.153,2.648.2.2,0,0,1-.214.185A.16.16,0,0,1,231.157,56.735Z" transform="translate(-229.941 -53.861)" fill="#ff877c"/>
            </g>
            <g id="Сгруппировать_8587" data-name="Сгруппировать 8587" transform="translate(0.779 2.396)">
              <g id="Сгруппировать_8586" data-name="Сгруппировать 8586">
                <g id="Сгруппировать_8585" data-name="Сгруппировать 8585">
                  <path id="Контур_45000" data-name="Контур 45000" d="M230.1,56.47a.206.206,0,0,1-.093-.064.2.2,0,0,1,.035-.278,1.881,1.881,0,0,1,.91-.319.2.2,0,0,1,.214.185.2.2,0,0,1-.185.214,1.387,1.387,0,0,0-.7.238A.192.192,0,0,1,230.1,56.47Z" transform="translate(-229.966 -55.808)" fill="#ff877c"/>
                </g>
              </g>
            </g>
          </g>
          <g id="Сгруппировать_8594" data-name="Сгруппировать 8594" transform="translate(3.395 6.05)">
            <g id="Сгруппировать_8589" data-name="Сгруппировать 8589" transform="translate(1.323 1.206)">
              <path id="Контур_45001" data-name="Контур 45001" d="M242.075,57.328a.966.966,0,0,0-.562-1.223l-3.17-1.211a.951.951,0,0,0-.736.023.941.941,0,0,0-.325.238.962.962,0,0,0-.18.3l-.156.406A2.709,2.709,0,0,0,237,57.942a2.5,2.5,0,0,0,1.321,1.315l.081.035a2.734,2.734,0,0,0,3.535-1.588l.133-.342C242.07,57.346,242.07,57.334,242.075,57.328Zm-.516.226a2.347,2.347,0,0,1-3.025,1.356l-.075-.029a2.079,2.079,0,0,1-1.107-1.113A2.291,2.291,0,0,1,237.312,56l.156-.406a.566.566,0,0,1,.73-.325l3.17,1.211a.566.566,0,0,1,.325.73Z" transform="translate(-236.764 -54.832)" fill="#29245d"/>
            </g>
            <g id="Сгруппировать_8590" data-name="Сгруппировать 8590" transform="translate(8.034 3.779)">
              <path id="Контур_45002" data-name="Контур 45002" d="M253.713,61.536a.938.938,0,0,0-.046-.4.97.97,0,0,0-.568-.591l-3.17-1.211a.966.966,0,0,0-1.031.226.923.923,0,0,0-.209.319.021.021,0,0,0-.006.017l-.156.406a2.708,2.708,0,0,0,.052,2.086A2.5,2.5,0,0,0,249.9,63.7l.087.035a2.734,2.734,0,0,0,3.535-1.588l.133-.342A1.043,1.043,0,0,0,253.713,61.536Zm-.562.452a2.347,2.347,0,0,1-3.025,1.356l-.075-.029a2.079,2.079,0,0,1-1.107-1.113,2.291,2.291,0,0,1-.041-1.773l.156-.406a.568.568,0,0,1,.73-.325l3.17,1.211a.566.566,0,0,1,.324.73Z" transform="translate(-248.344 -59.271)" fill="#29245d"/>
            </g>
            <g id="Сгруппировать_8591" data-name="Сгруппировать 8591">
              <path id="Контур_45003" data-name="Контур 45003" d="M236.641,54.042a4.784,4.784,0,0,0-2.161-1.292v.423a4.5,4.5,0,0,1,1.837,1.113,1.613,1.613,0,0,1,.122.133l.319-.243A1.6,1.6,0,0,0,236.641,54.042Z" transform="translate(-234.48 -52.75)" fill="#29245d"/>
            </g>
            <g id="Сгруппировать_8592" data-name="Сгруппировать 8592" transform="translate(6.496 3.292)">
              <path id="Контур_45004" data-name="Контур 45004" d="M245.69,58.83l.012-.4a4.1,4.1,0,0,1,1.194.243,2.652,2.652,0,0,1,.95.591l-.29.272a2.321,2.321,0,0,0-.8-.487A3.814,3.814,0,0,0,245.69,58.83Z" transform="translate(-245.69 -58.43)" fill="#29245d"/>
            </g>
            <g id="Сгруппировать_8593" data-name="Сгруппировать 8593" transform="translate(13.183 5.64)">
              <path id="Контур_45005" data-name="Контур 45005" d="M258.7,62.585a5.475,5.475,0,0,0-1.466-.087l.035.4a5.472,5.472,0,0,1,1.426.1v-.411Z" transform="translate(-257.23 -62.483)" fill="#29245d"/>
            </g>
          </g>
        </g>
        <g id="Сгруппировать_8601" data-name="Сгруппировать 8601" transform="translate(3.042 25.983)">
          <g id="Сгруппировать_8600" data-name="Сгруппировать 8600">
            <g id="Сгруппировать_8599" data-name="Сгруппировать 8599">
              <g id="Сгруппировать_8598" data-name="Сгруппировать 8598">
                <g id="Сгруппировать_8597" data-name="Сгруппировать 8597">
                  <g id="Сгруппировать_8596" data-name="Сгруппировать 8596">
                    <path id="Контур_45006" data-name="Контур 45006" d="M195.386,106.779a1.081,1.081,0,0,0,.041.127l14.707-.006c-4.109-1.93-7.035-3.668-7.128-3.7l.081-.365c.811-2.654,1.437-6.05,2.33-8.7a24.341,24.341,0,0,0,1.356-8.53,12.062,12.062,0,0,0-1.652-4.734c-3.152,1.286-4.653,5.864-5.795,9.666-1.733,5.76-4.2,12.332-3.941,16.243Z" transform="translate(-195.367 -80.87)" fill="#fc9100"/>
                  </g>
                </g>
              </g>
            </g>
          </g>
        </g>
        <path id="Контур_45007" data-name="Контур 45007" d="M234.138,124.976s.128,2.556-.684,3.257-1.565-2.868-1.565-2.868.875,4.306-.133,4.422-1.988-4.08-1.988-4.08.139,2.886-.6,3.054-1.582-2.9-1.582-2.9-.139,2.231-.666,2.428-1.547-2.4-1.588-3.72,1.825-.522,1.825-.522,1.426-.446,2.115.087a2.986,2.986,0,0,1,2.115-.214C231.379,123.921,233.471,123.266,234.138,124.976Z" transform="translate(-204.924 -72.934)" fill="#fda893"/>
      </g>
    </g>
  </g>
</svg>
