<svg id="Сгруппировать_8056" data-name="Сгруппировать 8056" xmlns="http://www.w3.org/2000/svg" width="18" height="18" viewBox="0 0 18 18">
  <path id="Контур_44119" data-name="Контур 44119" d="M17.974,18.631a.535.535,0,0,0-.426-.376l-5.58-.85-2.5-5.3a.517.517,0,0,0-.946,0l-2.5,5.3-5.58.85a.535.535,0,0,0-.426.376.571.571,0,0,0,.133.567L4.2,23.324,3.244,29.15a.566.566,0,0,0,.21.541.507.507,0,0,0,.555.042L9,26.982l4.991,2.751a.507.507,0,0,0,.555-.042.566.566,0,0,0,.21-.541L13.8,23.324,17.841,19.2A.571.571,0,0,0,17.974,18.631Z" transform="translate(0 -11.796)" fill="#ffc461"/>
</svg>
