<svg xmlns="http://www.w3.org/2000/svg" width="18.117" height="26.917" viewBox="0 0 18.117 26.917">
  <g id="review" transform="translate(0 0)">
    <g id="Сгруппировать_6595" data-name="Сгруппировать 6595" transform="translate(0 0)">
      <g id="Сгруппировать_6594" data-name="Сгруппировать 6594">
        <path id="Контур_44128" data-name="Контур 44128" d="M99.48,0H86.021a2.332,2.332,0,0,0-2.329,2.329V7.247a2.332,2.332,0,0,0,2.329,2.329h4.855L92.2,10.9a.776.776,0,0,0,1.1,0l1.326-1.325H99.48a2.332,2.332,0,0,0,2.329-2.329V2.329A2.332,2.332,0,0,0,99.48,0ZM87.057,2.459h6.212a.776.776,0,0,1,0,1.553H87.057a.776.776,0,0,1,0-1.553ZM98.445,7.118H87.057a.776.776,0,0,1,0-1.553H98.445a.776.776,0,0,1,0,1.553Z" transform="translate(-83.692)" fill="#5c95c2"/>
      </g>
    </g>
    <g id="Сгруппировать_6597" data-name="Сгруппировать 6597" transform="translate(5.176 12.165)">
      <g id="Сгруппировать_6596" data-name="Сгруппировать 6596">
        <path id="Контур_44129" data-name="Контур 44129" d="M186.036,231.385a3.882,3.882,0,1,0,3.882,3.882A3.887,3.887,0,0,0,186.036,231.385Z" transform="translate(-182.154 -231.385)" fill="#5c95c2"/>
      </g>
    </g>
    <g id="Сгруппировать_6599" data-name="Сгруппировать 6599" transform="translate(1.035 20.447)">
      <g id="Сгруппировать_6598" data-name="Сгруппировать 6598">
        <path id="Контур_44130" data-name="Контур 44130" d="M113.738,388.923h-4.659a5.7,5.7,0,0,0-5.694,5.694.776.776,0,0,0,.776.776h14.494a.776.776,0,0,0,.776-.776A5.7,5.7,0,0,0,113.738,388.923Z" transform="translate(-103.385 -388.923)" fill="#5c95c2"/>
      </g>
    </g>
  </g>
</svg>
