<svg id="OBJECTS" xmlns="http://www.w3.org/2000/svg" xmlns:xlink="http://www.w3.org/1999/xlink" width="274.062" height="247.8" viewBox="0 0 274.062 247.8">
  <defs>
    <linearGradient id="linear-gradient" x1="0.328" y1="0.19" x2="0.681" y2="1.189" gradientUnits="objectBoundingBox">
      <stop offset="0" stop-color="#fff"/>
      <stop offset="1" stop-color="#c6d4ee"/>
    </linearGradient>
  </defs>
  <ellipse id="XMLID_1236_" cx="126.941" cy="6.508" rx="126.941" ry="6.508" transform="translate(20.18 207.869)" fill="#c7d4e2" opacity="0.65"/>
  <g id="XMLID_419_" transform="translate(37.559 53.786)">
    <path id="XMLID_779_" d="M95.9,299.245V157.5a10.18,10.18,0,0,1,10.183-10.183h189.69A10.18,10.18,0,0,1,305.956,157.5V299.245a10.18,10.18,0,0,1-10.183,10.183H106.083A10.185,10.185,0,0,1,95.9,299.245Z" transform="translate(-95.9 -147.32)" fill="#d2d8dc"/>
    <path id="XMLID_778_" d="M116.46,298.779V165.2a6.977,6.977,0,0,1,6.976-6.976H296.361a6.977,6.977,0,0,1,6.976,6.976V298.779a6.977,6.977,0,0,1-6.976,6.976H123.443A6.974,6.974,0,0,1,116.46,298.779Z" transform="translate(-102.722 -150.937)" fill="url(#linear-gradient)"/>
    <path id="XMLID_777_" d="M103.885,274.38a3.575,3.575,0,1,1,3.575-3.575A3.575,3.575,0,0,1,103.885,274.38Z" transform="translate(-97.363 -187.108)" fill="#b7b5b5"/>
  </g>
  <g id="XMLID_1_" transform="translate(49.043 0)">
    <path id="XMLID_913_" d="M130.48,137.108c11.546.982,23.346,1.31,34.545-.488l-16.217,9.508Z" transform="translate(-118.858 -89.984)" fill="#3b5cad"/>
    <path id="XMLID_927_" d="M175.751,123.173c1.256-.722,3.869-2.145,5.172-2.773,2.192,7.537,1.33,9.461-1.283,9.769a13.3,13.3,0,0,1-2.573.147,17.15,17.15,0,0,1-6.007-1.27c.127-.688.1-2.111.227-2.8,1.7-.281,3.642-.682,5.345-.962Z" transform="translate(-132.323 -84.601)" fill="#f7c5b4"/>
    <path id="XMLID_314_" d="M133.882,123.173c-1.256-.722-3.869-2.145-5.172-2.773-2.192,7.537-1.33,9.461,1.283,9.769a12.848,12.848,0,0,0,3.027.2c2.071-.341,3.642-.368,5.553-1.229-.127-.688-.1-2.205-.227-2.893-1.7-.281-3.642-.682-5.345-.962Z" transform="translate(-117.856 -84.601)" fill="#f7c5b4"/>
    <g id="XMLID_907_" transform="translate(10.7 21.88)">
      <path id="XMLID_908_" d="M137.152,126.725c-.007-3.047-.915-9.087-1.163-13.21l-1.376,2.907-5.512-2.927a29.014,29.014,0,0,1,3.14-6.074c2.272-3.688,5.172-5.606,9.6-6.876a21.263,21.263,0,0,1,6.08-.976h.3a29.306,29.306,0,0,1,6.428.829c4.223.962,7.644,4.116,9.916,7.811a33.323,33.323,0,0,1,2.733,5.125l-5.773,3.087-1.376-2.907c-.307,4.45-1.1,8.96-1.443,13.21Z" transform="translate(-129.1 -99.57)" fill="#018e57"/>
    </g>
    <path id="XMLID_906_" d="M152.288,89.59a47.987,47.987,0,0,1-1.156,5.68,7.327,7.327,0,0,1-2.352,1.838s.14,2.265,6.127,2.325c5.893.06,6.268-2.345,6.268-2.345-.575-.321-2.218-.829-2.492-1.817-.127-.454-.909-4.236-1.069-5.506Z" transform="translate(-124.93 -74.378)" fill="#f7c5b4"/>
    <path id="XMLID_905_" d="M161.269,72.022c.5,2.7-.214,8.138-.788,10.29a6.687,6.687,0,0,1-1.049,2.486,5.818,5.818,0,0,1-7.7,1.6,5.675,5.675,0,0,1-2.158-2.546,18.243,18.243,0,0,1-1.33-8.566s-.321-7.584,7.437-7.584C155.67,67.692,160.434,67.512,161.269,72.022Z" transform="translate(-124.731 -67.113)" fill="#f7c5b4"/>
    <path id="XMLID_904_" d="M148.176,84.141a.562.562,0,0,1-.782.053,1.252,1.252,0,0,1-.388-.768,4.068,4.068,0,0,1-.067-.855.934.934,0,0,1,.174-.581.542.542,0,0,1,.555-.16.552.552,0,0,1,.374.448Z" transform="translate(-124.319 -71.796)" fill="#f7c5b4"/>
    <path id="XMLID_903_" d="M167.233,82.267a.638.638,0,0,1,.374-.448.538.538,0,0,1,.555.16.921.921,0,0,1,.174.581,3.337,3.337,0,0,1-.067.855,1.252,1.252,0,0,1-.388.768.562.562,0,0,1-.782-.053A4.581,4.581,0,0,1,167.233,82.267Z" transform="translate(-130.995 -71.792)" fill="#f7c5b4"/>
    <g id="XMLID_900_" transform="translate(29.375 12.497)">
      <path id="XMLID_23_" d="M157.524,85.629a.424.424,0,0,0-.027.114c-.013.074-.027.187-.047.327-.033.274-.074.641-.114,1-.013.18-.04.374-.04.528.007.073.007.12.04.154a.509.509,0,0,0,.14.074c.241.067.434.114.434.114a.079.079,0,0,1,.06.1.076.076,0,0,1-.087.06s-.047,0-.127-.007a1.659,1.659,0,0,1-.347-.047.52.52,0,0,1-.254-.134.44.44,0,0,1-.107-.314,5.026,5.026,0,0,1,.06-.555c.053-.368.1-.735.154-1.009a3.112,3.112,0,0,1,.08-.334.6.6,0,0,1,.047-.127v-.007a.071.071,0,0,1,.1-.033A.1.1,0,0,1,157.524,85.629Z" transform="translate(-157.049 -85.526)" fill="#da806c"/>
    </g>
    <path id="XMLID_899_" d="M159.42,83.754a1.155,1.155,0,0,1,.307-1.223l.087.107c.087-.08.18-.16.267-.241.04.027.08.06.12.087a3.79,3.79,0,0,1,2.238-.675,1.259,1.259,0,0,1,.935.327.422.422,0,0,1-.261.114,6.01,6.01,0,0,0-3.581,1.544C159.534,83.787,159.447,83.834,159.42,83.754Z" transform="translate(-128.441 -71.796)" fill="#3c3c3b"/>
    <path id="XMLID_92_" d="M148.724,69.36c-.494.808-2.359,4.43-1.176,7.6a.6.6,0,0,0,.234.334c.241.134.528-.08.715-.294a7.378,7.378,0,0,0,1.523-2.606,5.435,5.435,0,0,0,.234-2.218,5.2,5.2,0,0,0,1.176,2.138,2.9,2.9,0,0,0,.648.6.475.475,0,0,0,.588-.114.689.689,0,0,0,.06-.434,4.284,4.284,0,0,0-.361-1.276,8.974,8.974,0,0,0,3.281,2.245c.381.12.882.14,1.1-.194a.883.883,0,0,0,.067-.615,2.868,2.868,0,0,0-.655-1.376,6.861,6.861,0,0,0,2.472,2.025,3.023,3.023,0,0,0,1.624.367c.561-.067,1.183-.334,1.236-.9a8.413,8.413,0,0,0-1.036-5c-2.846-4.29-6.508-2.379-7.277-2.472a4.635,4.635,0,0,0-4.45,2.192" transform="translate(-124.393 -66.824)" fill="#3c3c3b"/>
    <path id="XMLID_897_" d="M166.322,76.228a5.525,5.525,0,0,0,.595,3.374c.067.12.154.247.287.267a.312.312,0,0,0,.287-.16.943.943,0,0,0,.107-.327,6.09,6.09,0,0,0-.067-3.528.535.535,0,0,0-.147-.22.477.477,0,0,0-.287-.094.8.8,0,0,0-.788.8" transform="translate(-130.733 -69.716)" fill="#3c3c3b"/>
    <path id="XMLID_896_" d="M159.454,95.64a5.746,5.746,0,0,1-5.974.02C153.487,95.66,156.594,99.074,159.454,95.64Z" transform="translate(-126.49 -76.386)" fill="#f7c5b4"/>
    <path id="XMLID_892_" d="M154.1,83.754a1.155,1.155,0,0,0-.307-1.223l-.087.107c-.087-.08-.18-.16-.267-.241-.04.027-.08.06-.12.087a3.79,3.79,0,0,0-2.238-.675,1.259,1.259,0,0,0-.935.327.422.422,0,0,0,.261.114,6.01,6.01,0,0,1,3.581,1.544C153.982,83.787,154.069,83.834,154.1,83.754Z" transform="translate(-125.381 -71.796)" fill="#3c3c3b"/>
    <g id="XMLID_863_" transform="translate(29.368 15.508)">
      <path id="XMLID_21_" d="M158.884,90.171a1.273,1.273,0,0,1-.187.254,2.2,2.2,0,0,1-.568.421,2.1,2.1,0,0,1-.688.167,1.468,1.468,0,0,1-.321-.02h-.007a.1.1,0,0,1-.073-.114.1.1,0,0,1,.08-.074s.114-.013.287-.04a1.918,1.918,0,0,0,.588-.187,1.983,1.983,0,0,0,.528-.327,2.8,2.8,0,0,0,.221-.194.085.085,0,0,1,.12,0,.081.081,0,0,1,.013.1Z" transform="translate(-157.039 -90.033)" fill="#da806c"/>
    </g>
    <path id="XMLID_862_" d="M163.015,86.261c0,.327-.2.6-.448.6s-.448-.267-.448-.6.2-.6.448-.6A.549.549,0,0,1,163.015,86.261Z" transform="translate(-129.357 -73.074)" fill="#3c3c3b"/>
    <path id="XMLID_861_" d="M152.705,86.261c0,.327-.2.6-.448.6s-.448-.267-.448-.6.2-.6.448-.6S152.705,85.927,152.705,86.261Z" transform="translate(-125.936 -73.074)" fill="#3c3c3b"/>
    <path id="XMLID_315_" d="M161.567,134.778H140.138A2.136,2.136,0,0,1,138,132.639V118.888a2.136,2.136,0,0,1,2.138-2.138h21.429a2.136,2.136,0,0,1,2.138,2.138v13.751A2.136,2.136,0,0,1,161.567,134.778Z" transform="translate(-121.353 -83.39)" fill="#0b3158"/>
    <path id="XMLID_816_" d="M146.368,148.869c9.522-.267,19.665-.822,28.6-4.143a12.794,12.794,0,0,0,3.982-2.132,4.63,4.63,0,0,0-1.6-8.252,11.222,11.222,0,0,0-5.82-.187c-8.76,1.57-17.059,7.183-25.645,10.13Z" transform="translate(-123.968 -89.07)" fill="#00b870"/>
    <path id="XMLID_815_" d="M139.652,149.781c-2.031-.147-3.976-.428-6.007-.421a13.637,13.637,0,0,0-4.243.5,4.428,4.428,0,0,0-1.657.942,2.235,2.235,0,0,0-.735,1.637,2.6,2.6,0,0,0,1.443,2.058,6.776,6.776,0,0,0,2.626.695A20.556,20.556,0,0,0,140.106,154Z" transform="translate(-117.706 -94.211)" fill="#003a70"/>
    <g id="XMLID_812_" transform="translate(22.433 46.329)">
      <path id="XMLID_19_" d="M166.846,136.16s-.321.127-.875.354-1.35.561-2.285.976-2.025.935-3.194,1.477c-1.163.561-2.4,1.156-3.635,1.751s-2.492,1.169-3.668,1.7-2.3.976-3.261,1.343-1.784.635-2.359.815l-.909.274s.321-.127.882-.341,1.356-.541,2.3-.949,2.031-.915,3.2-1.45,2.405-1.143,3.642-1.737,2.492-1.163,3.662-1.7,2.292-1,3.247-1.37,1.777-.655,2.345-.849S166.846,136.16,166.846,136.16Z" transform="translate(-146.66 -136.16)" fill="#018e57"/>
    </g>
    <path id="XMLID_811_" d="M147.767,147.987c-9.522-.241-19.825-.762-28.759-4.056a12.469,12.469,0,0,1-3.989-2.125,5.175,5.175,0,0,1-1.931-3.949,5.115,5.115,0,0,1,3.508-4.31,11.223,11.223,0,0,1,5.82-.207c8.76,1.544,16.952,7.283,25.551,10.21Z" transform="translate(-113.086 -88.802)" fill="#00b870"/>
    <g id="XMLID_808_" transform="translate(15.157 46.142)">
      <path id="XMLID_17_" d="M135.77,135.88s.321.107.882.287,1.356.468,2.292.849,2.025.835,3.174,1.356,2.365,1.109,3.581,1.677c1.209.588,2.419,1.176,3.561,1.711s2.205,1.042,3.134,1.43,1.7.735,2.245.949l.862.347-.882-.274c-.561-.187-1.363-.448-2.305-.815s-2.038-.808-3.187-1.33-2.372-1.089-3.588-1.67-2.419-1.176-3.555-1.724-2.2-1.056-3.12-1.463-1.684-.755-2.232-.976S135.77,135.88,135.77,135.88Z" transform="translate(-135.77 -135.88)" fill="#018e57"/>
    </g>
    <path id="XMLID_807_" d="M164.99,153.084a19.978,19.978,0,0,0,8.873,1.169,6.669,6.669,0,0,0,2.626-.7,2.6,2.6,0,0,0,1.437-2.065,2.256,2.256,0,0,0-.742-1.637,4.325,4.325,0,0,0-1.657-.935,13.438,13.438,0,0,0-4.243-.494c-2.031,0-4.069.074-6.094.227Z" transform="translate(-130.309 -93.899)" fill="#003a70"/>
    <g id="XMLID_928_" transform="translate(12.845 40.656)">
      <path id="XMLID_15_" d="M132.31,128.1s.134-.067.334-.16a3.563,3.563,0,0,1,.782-.261,5.494,5.494,0,0,1,.822.007c.22.013.374.033.374.033s-.147.033-.368.06-.521.033-.8.067-.561.14-.775.187S132.31,128.1,132.31,128.1Z" transform="translate(-132.31 -127.67)" fill="#da806c"/>
    </g>
    <g id="XMLID_852_" transform="translate(26.371 39.381)">
      <path id="XMLID_860_" d="M156.62,125.881c3.361.8,1.837,4.517,1.837,4.517a1.064,1.064,0,0,1-1.2,1.423.657.657,0,0,0-.367.862,3.69,3.69,0,0,1-1.176.174,4.62,4.62,0,0,1-1.263-.174.657.657,0,0,0-.368-.862,1.064,1.064,0,0,1-1.2-1.423s-1.47-3.535,1.838-4.517A3.713,3.713,0,0,1,156.62,125.881Z" transform="translate(-152.553 -125.762)" fill="#fff"/>
      <path id="XMLID_859_" d="M157.847,130.553a.6.6,0,0,1,.394-.281,1.27,1.27,0,0,1,.5.027,4.286,4.286,0,0,1,.575.154.741.741,0,0,1,.381.227.672.672,0,0,1,.107.441,1.186,1.186,0,0,1-.14.541.735.735,0,0,1-.428.347,1.066,1.066,0,0,1-.915-.334,1.282,1.282,0,0,1-.521-.815A1.033,1.033,0,0,1,157.847,130.553Z" transform="translate(-154.294 -127.254)" fill="#0b3158"/>
      <path id="XMLID_858_" d="M155.737,130.7a.6.6,0,0,0-.327-.361,1.241,1.241,0,0,0-.494-.08,4.388,4.388,0,0,0-.595.02.767.767,0,0,0-.421.134.66.66,0,0,0-.2.408,1.224,1.224,0,0,0,.02.561.737.737,0,0,0,.341.434,1.06,1.06,0,0,0,.969-.127,1.274,1.274,0,0,0,.688-.682A.98.98,0,0,0,155.737,130.7Z" transform="translate(-152.925 -127.253)" fill="#0b3158"/>
      <path id="XMLID_853_" d="M157.131,132.037a.408.408,0,0,1,.1.087,1.64,1.64,0,0,1,.267.6.249.249,0,0,1-.02.221.11.11,0,0,1-.134.013.558.558,0,0,0-.134-.053.31.31,0,0,0-.154.04.211.211,0,0,1-.241-.02.309.309,0,0,1-.067-.207.761.761,0,0,1,.053-.221,2.315,2.315,0,0,1,.174-.367S157.071,132,157.131,132.037Z" transform="translate(-153.946 -127.843)" fill="#0b3158"/>
    </g>
    <g id="XMLID_90_" transform="translate(44.296 40.65)">
      <path id="XMLID_13_" d="M181.692,128.1s-.147-.027-.368-.074-.5-.147-.775-.187-.581-.033-.8-.067-.367-.06-.367-.06.147-.02.374-.033a5.494,5.494,0,0,1,.822-.007,3.445,3.445,0,0,1,.782.261Z" transform="translate(-179.38 -127.66)" fill="#da806c"/>
    </g>
  </g>
  <g id="XMLID_1035_" transform="translate(121.61 103.292)">
    <rect id="XMLID_428_" width="43.906" height="39.082" transform="translate(0 25.778)" fill="#ffc800"/>
    <path id="XMLID_1037_" d="M228.83,238.6a17.237,17.237,0,0,1,17.186-17.186h0A17.237,17.237,0,0,1,263.2,238.6v8.593" transform="translate(-224.059 -221.41)" fill="none" stroke="#fc9100" stroke-miterlimit="10" stroke-width="4"/>
    <path id="XMLID_936_" d="M0,0H10.611V39.082H0Z" transform="translate(4.076 25.778)" fill="#fc9100"/>
    <g id="XMLID_989_" transform="translate(16.631 37.412)">
      <circle id="XMLID_991_" cx="5.325" cy="5.325" r="5.325" transform="translate(0 6.862)" fill="#fc9100"/>
      <circle id="XMLID_990_" cx="3.702" cy="3.702" r="3.702" transform="translate(1.624)" fill="#fc9100"/>
    </g>
  </g>
  <g id="XMLID_657_" transform="translate(111.814 5.106)">
    <line id="XMLID_633_" y2="57.21" transform="translate(56.869 17.877)" fill="none" stroke="#c0bdbd" stroke-miterlimit="10" stroke-width="0.5"/>
    <line id="XMLID_796_" y2="53.141" transform="translate(11.132 16.734)" fill="none" stroke="#c0bdbd" stroke-miterlimit="10" stroke-width="0.482"/>
    <g id="XMLID_225_" transform="translate(3.308 63.334)">
      <path id="XMLID_1036_" d="M239.885,189.12H275.8a2.293,2.293,0,0,0,2.285-2.285h0a2.293,2.293,0,0,0-2.285-2.285H239.885a2.293,2.293,0,0,0-2.285,2.285h0A2.293,2.293,0,0,0,239.885,189.12Z" transform="translate(-220.481 -174.327)" fill="#fc9100"/>
      <path id="XMLID_1039_" d="M0,0H3.528V3.862H0Z" transform="translate(51.791 14.794)" fill="#fc9100"/>
      <path id="XMLID_1038_" d="M0,0H2.646V3.087H0Z" transform="translate(49.585 17.884) rotate(180)" fill="#fc9100"/>
      <path id="XMLID_1042_" d="M0,0H2.76V3.087H0Z" transform="translate(44.507 17.884) rotate(180)" fill="#fc9100"/>
      <rect id="XMLID_58_" width="30.269" height="0.548" transform="translate(55.323 11.75) rotate(180)" fill="#ffc800"/>
      <rect id="XMLID_61_" width="3.528" height="0.775" transform="translate(55.327 18.66) rotate(180)" fill="#ffc800"/>
      <rect id="XMLID_168_" width="2.646" height="0.635" transform="translate(49.585 17.884) rotate(180)" fill="#ffc800"/>
      <rect id="XMLID_169_" width="2.76" height="0.635" transform="translate(44.507 17.884) rotate(180)" fill="#ffc800"/>
      <path id="XMLID_1047_" d="M211.98,181a11.753,11.753,0,1,0,11.753-11.753A11.753,11.753,0,0,0,211.98,181Z" transform="translate(-211.98 -169.25)" fill="#fc9100"/>
      <path id="XMLID_662_" d="M214.52,181.843a10.063,10.063,0,1,0,10.063-10.063A10.061,10.061,0,0,0,214.52,181.843Z" transform="translate(-212.823 -170.089)" fill="#ffc800"/>
      <path id="XMLID_1076_" d="M220.88,185.519a2.659,2.659,0,1,0,2.659-2.659A2.658,2.658,0,0,0,220.88,185.519Z" transform="translate(-214.933 -173.766)" fill="#fff"/>
    </g>
    <path id="XMLID_299_" d="M210.07,88.159c2.82-2.953,9.087-3.08,12.295-.555,3.114-7.143,12.883-10.41,19.665-6.582,1.3-3.608,6.962-8,15.141-6.1,5.512,1.276,10.444,6.595,9.007,12.067,3.809-.548,7.657,2.065,9.134,5.619a12.839,12.839,0,0,1-1.089,11.092H211.667C211.66,103.7,202.4,96.191,210.07,88.159Z" transform="translate(-207.03 -74.465)" fill="#eff3f9"/>
  </g>
  <g id="XMLID_1025_" transform="translate(57.017 116.441)">
    <rect id="XMLID_1029_" width="24.556" height="0.829" transform="translate(0 0)" fill="#d2d8dc"/>
    <rect id="XMLID_1028_" width="24.556" height="0.829" transform="translate(0 3.274)" fill="#d2d8dc"/>
    <rect id="XMLID_1027_" width="24.556" height="0.829" transform="translate(0 6.421)" fill="#d2d8dc"/>
    <rect id="XMLID_1026_" width="12.929" height="0.829" transform="translate(0 9.542)" fill="#d2d8dc"/>
  </g>
  <g id="XMLID_951_" transform="translate(18.088 147.185)">
    <rect id="XMLID_663_" width="86.85" height="52.559" transform="translate(0 26.266)" fill="#71b0b0"/>
    <path id="XMLID_851_" d="M66.76,313.366,110.185,287.1l43.425,26.266Z" transform="translate(-66.76 -287.1)" fill="#71b0b0"/>
    <g id="XMLID_992_" transform="translate(14.533 7.103)">
      <rect id="XMLID_970_" width="59.221" height="67.293" fill="#fff" stroke="#e8e8e8" stroke-width="0.5"/>
      <g id="XMLID_965_" transform="translate(4.143 10.003)">
        <rect id="XMLID_969_" width="50.929" height="1.791" fill="#d2d8dc"/>
        <rect id="XMLID_968_" width="50.929" height="1.791" transform="translate(0 4.357)" fill="#d2d8dc"/>
        <rect id="XMLID_967_" width="50.929" height="1.791" transform="translate(0 8.94)" fill="#d2d8dc"/>
        <rect id="XMLID_966_" width="23.066" height="1.791" transform="translate(0 13.845)" fill="#d2d8dc"/>
      </g>
      <g id="XMLID_984_" transform="translate(4.143 31.177)">
        <rect id="XMLID_988_" width="50.929" height="1.791" fill="#d2d8dc"/>
        <rect id="XMLID_987_" width="50.929" height="1.791" transform="translate(0 4.35)" fill="#d2d8dc"/>
        <rect id="XMLID_986_" width="50.929" height="1.791" transform="translate(0 8.94)" fill="#d2d8dc"/>
        <rect id="XMLID_985_" width="23.066" height="1.791" transform="translate(0 13.838)" fill="#d2d8dc"/>
      </g>
    </g>
    <path id="XMLID_848_" d="M66.76,392.02l43.425-26.28,43.425,26.28Z" transform="translate(-66.76 -313.194)" fill="#71b0b0"/>
    <path id="XMLID_849_" d="M66.76,326.41l43.425,26.28L66.76,378.969Z" transform="translate(-66.76 -300.144)" fill="#a1c7c7"/>
    <path id="XMLID_950_" d="M175.175,326.41,131.75,352.69l43.425,26.28Z" transform="translate(-88.325 -300.144)" fill="#a1c7c7"/>
  </g>
  <g id="XMLID_1024_" transform="translate(0 193.277)">
    <circle id="XMLID_1010_" cx="19.277" cy="19.277" r="19.277" transform="translate(0 27.262) rotate(-45)" fill="#f25858"/>
    <path id="XMLID_1009_" d="M73.686,378.11l11.633,14.774H78.557V403.1H68.815V393.037H62.06Z" transform="translate(-47.112 -363.391)" fill="#fff"/>
  </g>
  <g id="XMLID_685_" transform="translate(178.793 135.906)">
    <g id="XMLID_1031_" transform="translate(0 6.248)">
      <rect id="XMLID_1044_" width="51.116" height="0.829" fill="#b7b5b5"/>
      <rect id="XMLID_1034_" width="51.116" height="0.829" transform="translate(0 3.274)" fill="#b7b5b5"/>
      <rect id="XMLID_1033_" width="51.116" height="0.829" transform="translate(0 6.415)" fill="#b7b5b5"/>
      <rect id="XMLID_1032_" width="51.423" height="0.829" transform="translate(0 9.542)" fill="#b7b5b5"/>
    </g>
    <rect id="XMLID_1046_" width="3.942" height="4.176" fill="#f25858" opacity="0.9"/>
  </g>
  <g id="XMLID_680_" transform="translate(178.793 157.267)">
    <g id="XMLID_1054_" transform="translate(0 6.248)">
      <rect id="XMLID_1058_" width="51.116" height="0.829" fill="#b7b5b5"/>
      <rect id="XMLID_1057_" width="51.116" height="0.829" transform="translate(0 3.274)" fill="#b7b5b5"/>
      <rect id="XMLID_1056_" width="51.116" height="0.829" transform="translate(0 6.421)" fill="#b7b5b5"/>
      <rect id="XMLID_1055_" width="51.423" height="0.829" transform="translate(0 9.542)" fill="#b7b5b5"/>
    </g>
    <rect id="XMLID_1053_" width="3.942" height="4.176" fill="#f25858" opacity="0.9"/>
  </g>
  <g id="XMLID_658_" transform="translate(27.263 78.593)">
    <path id="XMLID_798_" d="M140.766,209.451h-68.3a3.008,3.008,0,0,1-3-3V182.3a3.008,3.008,0,0,1,3-3h68.3a3.008,3.008,0,0,1,3,3v24.147A3.009,3.009,0,0,1,140.766,209.451Z" transform="translate(-68.36 -179.3)" fill="#c7d4e2"/>
    <path id="XMLID_797_" d="M138.916,210.315h-68.3a3.008,3.008,0,0,1-3-3V184.459a3.008,3.008,0,0,1,3-3h68.3a3.008,3.008,0,0,1,3,3v22.858A3.008,3.008,0,0,1,138.916,210.315Z" transform="translate(-67.62 -180.164)" fill="#fff" stroke="#e8e8e8" stroke-width="0.5"/>
    <g id="XMLID_820_" transform="translate(4.69 7.863)">
      <path id="XMLID_822_" d="M93.565,215.248a9.118,9.118,0,0,0-9.057-6.208,9.1,9.1,0,0,0-9.069,6.2Z" transform="translate(-75.44 -199.066)" fill="#71b0b0"/>
      <path id="XMLID_821_" d="M92,196.734a4.324,4.324,0,1,1-4.324-4.324A4.326,4.326,0,0,1,92,196.734Z" transform="translate(-78.606 -192.41)" fill="#71b0b0"/>
    </g>
    <g id="XMLID_1094_" transform="translate(25.185 11.396)">
      <rect id="XMLID_1098_" width="45.883" height="0.744" fill="#407cca"/>
      <rect id="XMLID_1097_" width="45.883" height="0.744" transform="translate(0 2.945)" fill="#407cca"/>
      <rect id="XMLID_1096_" width="45.883" height="0.744" transform="translate(0 5.764)" fill="#407cca"/>
      <rect id="XMLID_1095_" width="24.159" height="0.744" transform="translate(0 8.565)" fill="#407cca"/>
    </g>
    <g id="XMLID_1048_" transform="translate(25.185 11.396)">
      <rect id="XMLID_1052_" width="45.883" height="0.744" fill="#d2d8dc"/>
      <rect id="XMLID_1051_" width="45.883" height="0.744" transform="translate(0 2.945)" fill="#d2d8dc"/>
      <rect id="XMLID_1050_" width="45.883" height="0.744" transform="translate(0 5.764)" fill="#d2d8dc"/>
      <rect id="XMLID_1049_" width="24.159" height="0.744" transform="translate(0 8.565)" fill="#d2d8dc"/>
    </g>
  </g>
  <g id="XMLID_1187_" transform="translate(171.069 105.929)">
    <path id="XMLID_1191_" d="M295.71,230.658l1.831,1.9a14.381,14.381,0,0,1,10.978-4.61,15.752,15.752,0,0,1,10.7,4.61l1.9-1.9S309.328,218.731,295.71,230.658Z" transform="translate(-295.71 -225.357)" fill="#71b0b0"/>
    <path id="XMLID_1190_" d="M300.47,236.29l2.031,2.031s5.96-6.775,14.974,0l1.831-2.031C319.313,236.29,310.907,227.817,300.47,236.29Z" transform="translate(-297.289 -227.735)" fill="#71b0b0"/>
    <path id="XMLID_1189_" d="M307.514,244.055s4.063-4.136,8.132,0l2.031-2.172a9.27,9.27,0,0,0-12.128,0Z" transform="translate(-298.975 -230.081)" fill="#71b0b0"/>
    <path id="XMLID_1188_" d="M315.764,249.3a2.272,2.272,0,1,1-2.272-2.272A2.27,2.27,0,0,1,315.764,249.3Z" transform="translate(-300.856 -232.548)" fill="#71b0b0"/>
  </g>
  <g id="XMLID_659_" transform="translate(117.24 180.814)">
    <g id="XMLID_426_" transform="translate(25.17 5.873)">
      <rect id="XMLID_647_" width="51.116" height="0.829" fill="#b7b5b5"/>
      <rect id="XMLID_646_" width="51.116" height="0.829" transform="translate(0 3.274)" fill="#b7b5b5"/>
      <rect id="XMLID_645_" width="51.116" height="0.829" transform="translate(0 6.421)" fill="#b7b5b5"/>
      <rect id="XMLID_639_" width="51.423" height="0.829" transform="translate(0 9.542)" fill="#b7b5b5"/>
    </g>
    <g id="XMLID_1059_" transform="translate(5.693 3.408)">
      <circle id="XMLID_1061_" cx="7.611" cy="7.611" r="7.611" fill="none" stroke="#f25858" stroke-miterlimit="10" stroke-width="2.253"/>
      <line id="XMLID_1060_" x1="10.738" y2="10.731" transform="translate(2.245 2.285)" fill="none" stroke="#f25858" stroke-miterlimit="10" stroke-width="2.253"/>
    </g>
    <path id="XMLID_638_" d="M291.029,359.46H219.874a4.724,4.724,0,0,1-4.724-4.724V342.154a4.724,4.724,0,0,1,4.724-4.724h71.155a4.724,4.724,0,0,1,4.724,4.724v12.582A4.728,4.728,0,0,1,291.029,359.46Z" transform="translate(-215.15 -337.43)" fill="none" stroke="#b7b5b5" stroke-miterlimit="10" stroke-width="0.5"/>
  </g>
  <g id="XMLID_632_" transform="translate(190.773 68.767)">
    <g id="XMLID_846_" transform="translate(0 0)">
      <ellipse id="Эллипс_884" data-name="Эллипс 884" cx="31.228" cy="5.377" rx="31.228" ry="5.377" transform="translate(4.819 165.723)" fill="#f5f5f5"/>
      <path id="XMLID_752_" d="M399.835,200.69H330.251a3.351,3.351,0,0,1-3.341-3.341V173.081a3.351,3.351,0,0,1,3.341-3.341h69.591a3.351,3.351,0,0,1,3.341,3.341v24.268A3.361,3.361,0,0,1,399.835,200.69Z" transform="translate(-325.767 -169.74)" fill="#c7d4e2"/>
      <path id="XMLID_696_" d="M398.132,201.347H328.541a3.351,3.351,0,0,1-3.341-3.341V175.061a3.351,3.351,0,0,1,3.341-3.341h69.591a3.351,3.351,0,0,1,3.341,3.341v22.945A3.351,3.351,0,0,1,398.132,201.347Z" transform="translate(-325.2 -170.397)" fill="#fff"/>
      <path id="XMLID_814_" d="M326.039,177.169h75.438v-2.452a2.994,2.994,0,0,0-2.987-2.987H328.2a2.994,2.994,0,0,0-2.987,2.987v2.452Z" transform="translate(-325.203 -170.4)" fill="#e0e5e9"/>
      <text id="XMLID_795_" transform="translate(34.337 22.698)" fill="#0b3158" font-size="6" font-family="SegoeUI, Segoe UI"><tspan x="0" y="0">*******</tspan></text>
      <text id="XMLID_845_" transform="translate(34.337 15.974)" fill="#0b3158" font-size="6" font-family="SegoeUI, Segoe UI"><tspan x="0" y="0">*****</tspan></text>
      <rect id="XMLID_830_" width="68.295" height="17.667" transform="translate(4.423 9.161)" fill="none" stroke="#d2d8dc" stroke-miterlimit="10" stroke-width="0.224"/>
      <text id="XMLID_844_" transform="translate(8.228 15.033)" fill="#0b3158" font-size="4" font-family="SegoeUI, Segoe UI"><tspan x="0" y="0">LOGIN</tspan></text>
      <text id="XMLID_844_2" data-name="XMLID_844_" transform="translate(8.228 22.033)" fill="#0b3158" font-size="4" font-family="SegoeUI, Segoe UI"><tspan x="0" y="0">PASSWORD</tspan></text>
    </g>
    <path id="XMLID_414_" d="M401.59,239.449a24.988,24.988,0,0,0,3.862-11.065,82.979,82.979,0,0,0,.334-12.428,6.3,6.3,0,0,1-1.437-1.6c-.167-.274-.294-.661-.067-.889a.586.586,0,0,1,.421-.14,3.95,3.95,0,0,1,1.437.6,4.793,4.793,0,0,0,2.325.2c.782-.067,1.564-.127,2.352-.194a.925.925,0,0,1,.408.027.5.5,0,0,1,.22.722l-.488,1.276a64.723,64.723,0,0,1-1.6,21.636,21.511,21.511,0,0,1-3.568,7.15" transform="translate(-350.548 -184.204)" fill="#f7c5b4"/>
    <path id="XMLID_409_" d="M353.017,239.519a24.987,24.987,0,0,1-3.862-11.065,82.967,82.967,0,0,1-.334-12.428,6.3,6.3,0,0,0,1.437-1.6c.167-.274.294-.662.067-.889a.586.586,0,0,0-.421-.14,3.952,3.952,0,0,0-1.437.6,4.793,4.793,0,0,1-2.325.2c-.782-.067-1.564-.127-2.352-.194a.924.924,0,0,0-.408.027.5.5,0,0,0-.22.722l.488,1.276a64.722,64.722,0,0,0,1.6,21.636,21.511,21.511,0,0,0,3.568,7.15" transform="translate(-331.134 -184.227)" fill="#f7c5b4"/>
    <path id="XMLID_387_" d="M383.9,307.15c1.323,3.849,2.7,19.357,2.987,23.466,1.189,16.958.735,22.9.087,38.948-.16,4.029-.341,9.234-.508,13.263h-5.1c-2.6-15.9-6.809-49.866-8.1-65.943,0,0-5.265,49.806-7.811,65.709h-5.205c-.174-4.029-.274-9.214-.448-13.243-.4-9.187-.207-17.112-.14-26.313.047-6.869-.234-15.021.521-21.856.454-4.089.728-10.17,2.038-14.025H383.9Z" transform="translate(-336.598 -215.335)" fill="#00b870"/>
    <path id="XMLID_367_" d="M392.209,420.42a2.775,2.775,0,0,0,.708,2.486,5.908,5.908,0,0,0,2.352,1.216,10.8,10.8,0,0,0,5.332.835c.454-.08.962-.3,1.069-.762a1.356,1.356,0,0,0-.508-1.156,17.526,17.526,0,0,0-3.855-2.639Z" transform="translate(-347.427 -252.913)" fill="#003a70"/>
    <path id="XMLID_386_" d="M363.682,420.07a2.775,2.775,0,0,1-.708,2.486,5.906,5.906,0,0,1-2.352,1.216,10.8,10.8,0,0,1-5.332.835c-.454-.08-.962-.3-1.069-.762a1.356,1.356,0,0,1,.508-1.156,17.527,17.527,0,0,1,3.855-2.639Z" transform="translate(-334.823 -252.797)" fill="#003a70"/>
    <path id="XMLID_319_" d="M362.507,253.511a6.27,6.27,0,0,1-2.566.134,4.853,4.853,0,0,1-1.49-.588,9.961,9.961,0,0,1-3.334-2.927L350.52,256a15.269,15.269,0,0,0,2.713,4.724,10.855,10.855,0,0,0,4.757,3.094,180.678,180.678,0,0,1,1.236,24.415s3.435.241,8.593.595q.621.04,1.263.06l.822-.007h.321l.822.007c.428-.013.855-.033,1.263-.06,5.158-.347,8.593-.595,8.593-.595-.287-11.359.347-14.606,1.236-24.415a10.78,10.78,0,0,0,4.757-3.094A15.269,15.269,0,0,0,389.609,256l-4.6-5.867a10.027,10.027,0,0,1-3.334,2.927,4.852,4.852,0,0,1-1.49.588,7.809,7.809,0,0,1-2.887-.241Z" transform="translate(-333.602 -196.415)" fill="#018e57"/>
    <path id="XMLID_1198_" d="M378.717,244.88c.16,1.156.327,2.319.488,3.475a5.361,5.361,0,0,0,.341,1.53c.327.6,3.181,1.45,3.7,1.737,0,0-2.238,1.951-7.591,2.238s-7.2-2.132-7.2-2.132c.515-.3,3.154-1.33,3.468-1.944a5.357,5.357,0,0,0,.294-1.537c.127-1.163.254-2.325.388-3.488" transform="translate(-339.554 -194.633)" fill="#f7c5b4"/>
    <path id="XMLID_1197_" d="M382.063,225.171c.488,2.452-.08,7.4-.581,9.368a6.064,6.064,0,0,1-.922,2.272,5.3,5.3,0,0,1-6.983,1.557,5.177,5.177,0,0,1-2-2.285,16.666,16.666,0,0,1-1.33-7.771s-.394-6.9,6.662-7C376.918,221.309,381.248,221.075,382.063,225.171Z" transform="translate(-340.135 -186.851)" fill="#f7c5b4"/>
    <path id="XMLID_1196_" d="M369.984,235.6a.51.51,0,0,1-.708.06,1.119,1.119,0,0,1-.361-.695,3.018,3.018,0,0,1-.067-.775.848.848,0,0,1,.154-.528.488.488,0,0,1,.855.247Z" transform="translate(-339.682 -190.894)" fill="#f7c5b4"/>
    <path id="XMLID_1195_" d="M387.977,233.187a.551.551,0,0,1,.334-.408.494.494,0,0,1,.508.14.851.851,0,0,1,.167.521,3.416,3.416,0,0,1-.047.782,1.13,1.13,0,0,1-.341.7.518.518,0,0,1-.715-.033A3.958,3.958,0,0,1,387.977,233.187Z" transform="translate(-345.982 -190.651)" fill="#f7c5b4"/>
    <path id="XMLID_1194_" d="M371.944,223.377a4.817,4.817,0,0,1-.027,2.833,6.905,6.905,0,0,1-1.417,2.479c-.174.2-.441.414-.675.287a.554.554,0,0,1-.227-.314,5.112,5.112,0,0,1,.388-4.57,4.58,4.58,0,0,1,1.022-3.154,4.45,4.45,0,0,1,2.933-1.423c1.189-.087,2.572.08,3.595-.535a1.136,1.136,0,0,1-.234.9,5.921,5.921,0,0,0,4.2-.187,6.535,6.535,0,0,1-.541,1.837,1.774,1.774,0,0,0,1.343.461,5.279,5.279,0,0,0,1.423-.314c-.2,1.183-.548,2.6-1.617,3.147a6.74,6.74,0,0,1-6.134-.114,1.87,1.87,0,0,0,.668.788,4.811,4.811,0,0,1-2.552-.575,10.806,10.806,0,0,1-2.158-1.53" transform="translate(-339.811 -186.079)" fill="#3c3c3b"/>
    <path id="XMLID_1193_" d="M380.831,246.253a4.934,4.934,0,0,1-2.887,1.1,4.579,4.579,0,0,1-3.454-1.109s.441,2.165,3.281,2.145C380.51,248.371,380.831,246.253,380.831,246.253Z" transform="translate(-341.555 -195.124)" fill="#f7c5b4"/>
    <path id="XMLID_1186_" d="M375.033,234.785a.561.561,0,1,1-.568-.555A.569.569,0,0,1,375.033,234.785Z" transform="translate(-341.363 -191.139)" fill="#3c3c3b"/>
    <path id="XMLID_1171_" d="M382.59,234.808a.561.561,0,1,0,.555-.568A.56.56,0,0,0,382.59,234.808Z" transform="translate(-344.243 -191.142)" fill="#3c3c3b"/>
    <path id="XMLID_1169_" d="M380.969,233.1a1.358,1.358,0,0,1-.094-1.069.229.229,0,0,0,.334.013.461.461,0,0,1,.107-.12.391.391,0,0,1,.127-.027,1.653,1.653,0,0,0,.521-.2,2.406,2.406,0,0,1,2.352.187c-.16.187-.448.18-.695.207-.962.107-1.57.9-2.526,1.036C381.089,233.129,380.989,233.143,380.969,233.1Z" transform="translate(-343.651 -190.226)" fill="#3c3c3b"/>
    <g id="XMLID_1166_" transform="translate(34.59 46.951)">
      <path id="XMLID_11_" d="M378.874,241.025a1.332,1.332,0,0,1-.354.087,1.6,1.6,0,0,1-.8-.147,1.706,1.706,0,0,1-.354-.254,1.552,1.552,0,0,1-.241-.294,1.168,1.168,0,0,1-.154-.334v-.007a.056.056,0,0,1,.04-.067.058.058,0,0,1,.067.033,1.676,1.676,0,0,0,.174.294,1.555,1.555,0,0,0,.227.254,1.262,1.262,0,0,0,.327.214,1.447,1.447,0,0,0,.708.16,1.365,1.365,0,0,0,.341-.04.058.058,0,0,1,.067.033.05.05,0,0,1-.027.06Z" transform="translate(-376.968 -240.007)" fill="#da806c"/>
    </g>
    <path id="XMLID_1165_" d="M387.059,227.852a5.236,5.236,0,0,0,.608,3.174.429.429,0,0,0,.274.254.288.288,0,0,0,.267-.154.856.856,0,0,0,.094-.314,5.822,5.822,0,0,0-.114-3.334.543.543,0,0,0-.14-.207.421.421,0,0,0-.267-.08.766.766,0,0,0-.735.768" transform="translate(-345.712 -188.803)" fill="#3c3c3b"/>
    <g id="XMLID_1162_" transform="translate(35.585 43.402)">
      <path id="XMLID_9_" d="M378.873,234.792s-.027.207-.067.521a9.408,9.408,0,0,0-.08,1.156c-.007.207-.013.421-.007.615s.04.294.16.361a1.088,1.088,0,0,0,.468.08.084.084,0,0,1,.007.167s-.053.007-.147.013a.831.831,0,0,1-.428-.06.519.519,0,0,1-.241-.227.755.755,0,0,1-.067-.327c-.013-.2-.02-.421-.013-.635a8.947,8.947,0,0,1,.134-1.183,4.359,4.359,0,0,1,.127-.521.08.08,0,0,1,.1-.053A.1.1,0,0,1,378.873,234.792Z" transform="translate(-378.456 -234.695)" fill="#da806c"/>
    </g>
    <path id="XMLID_664_" d="M375.968,233.123a1.358,1.358,0,0,0,.094-1.069.229.229,0,0,1-.334.013.458.458,0,0,0-.107-.12.392.392,0,0,0-.127-.027,1.654,1.654,0,0,1-.521-.2,2.406,2.406,0,0,0-2.352.187c.16.187.448.18.695.207.962.107,1.57.9,2.526,1.036C375.847,233.156,375.941,233.17,375.968,233.123Z" transform="translate(-340.935 -190.232)" fill="#3c3c3b"/>
    <g id="XMLID_872_" transform="translate(39.951 66.401)">
      <path id="XMLID_876_" d="M387.81,269.2c2.332.555,1.276,3.134,1.276,3.134a.739.739,0,0,1-.835.989.454.454,0,0,0-.254.595,2.534,2.534,0,0,1-.815.12,3.215,3.215,0,0,1-.875-.12.454.454,0,0,0-.254-.595.74.74,0,0,1-.835-.989s-1.022-2.452,1.276-3.134A2.527,2.527,0,0,1,387.81,269.2Z" transform="translate(-384.991 -269.116)" fill="#fff"/>
      <path id="XMLID_875_" d="M388.656,272.439a.407.407,0,0,1,.274-.194.873.873,0,0,1,.347.02,2.969,2.969,0,0,1,.4.107.565.565,0,0,1,.267.154.452.452,0,0,1,.073.307.824.824,0,0,1-.1.374.5.5,0,0,1-.294.241.758.758,0,0,1-.635-.227.889.889,0,0,1-.361-.568A.542.542,0,0,1,388.656,272.439Z" transform="translate(-386.197 -270.151)" fill="#003a70"/>
      <path id="XMLID_874_" d="M387.2,272.537a.4.4,0,0,0-.227-.247.99.99,0,0,0-.341-.06c-.14,0-.274,0-.414.013a.512.512,0,0,0-.294.094.491.491,0,0,0-.14.281.844.844,0,0,0,.013.388.507.507,0,0,0,.234.3.733.733,0,0,0,.668-.087.869.869,0,0,0,.474-.474A.415.415,0,0,0,387.2,272.537Z" transform="translate(-385.248 -270.149)" fill="#003a70"/>
      <path id="XMLID_873_" d="M388.157,273.468a.19.19,0,0,1,.067.06,1.266,1.266,0,0,1,.187.421c.013.053.02.12-.013.154a.08.08,0,0,1-.094.007.265.265,0,0,0-.094-.033.211.211,0,0,0-.107.027.152.152,0,0,1-.167-.013.216.216,0,0,1-.047-.147.4.4,0,0,1,.04-.154,1.762,1.762,0,0,1,.12-.254S388.117,273.441,388.157,273.468Z" transform="translate(-385.953 -270.558)" fill="#003a70"/>
    </g>
  </g>
  <g id="XMLID_1030_" transform="translate(82.72 97.775)">
    <circle id="XMLID_1140_" cx="11.68" cy="11.68" r="11.68" transform="translate(0 17.331) rotate(-47.894)" fill="#f25858"/>
    <g id="XMLID_1172_" transform="translate(13.98 8.189)">
      <path id="XMLID_1125_" d="M187.136,238.981h-.194a1.473,1.473,0,0,1-1.47-1.33l-1.056-10.617a1.477,1.477,0,0,1,1.47-1.624h2.071a1.475,1.475,0,0,1,1.47,1.59l-.822,10.617A1.469,1.469,0,0,1,187.136,238.981Z" transform="translate(-184.409 -225.41)" fill="#fff"/>
      <path id="XMLID_1126_" d="M188.981,248.46a1.61,1.61,0,1,1-1.61-1.61A1.611,1.611,0,0,1,188.981,248.46Z" transform="translate(-184.857 -232.524)" fill="#fff"/>
    </g>
  </g>
</svg>
