<svg id="headphones" xmlns="http://www.w3.org/2000/svg" width="38.8" height="38.8" viewBox="0 0 38.8 38.8">
  <path id="Контур_46180" data-name="Контур 46180" d="M34.217,22.338V14.757a14.817,14.817,0,0,0-29.634,0v7.586A5.712,5.712,0,0,0,0,27.927V28a5.712,5.712,0,0,0,4.734,5.611A3.119,3.119,0,0,0,7.7,35.764h3.646V20.158H6.856V19.34a12.544,12.544,0,0,1,25.088,0v.819H27.473V35.39a1.138,1.138,0,0,1-1.137,1.137h-3.93A3.225,3.225,0,1,0,19.324,38.8c.072,0,.143,0,.213-.008V38.8h6.8a3.415,3.415,0,0,0,3.389-3.036H31.1a3.119,3.119,0,0,0,2.961-2.152A5.715,5.715,0,0,0,38.8,28v-.069A5.716,5.716,0,0,0,34.217,22.338ZM2.273,28v-.069a3.432,3.432,0,0,1,2.309-3.233v6.534A3.432,3.432,0,0,1,2.273,28Zm6.8,5.5H7.7a.841.841,0,0,1-.84-.84V22.432H9.069ZM19.408,4.583A14.831,14.831,0,0,0,7.67,10.337a12.565,12.565,0,0,1,23.46-.006A14.811,14.811,0,0,0,19.408,4.583ZM18.372,35.575a.952.952,0,1,1,.952.952.953.953,0,0,1-.952-.952ZM31.1,33.49H29.746V22.432h2.2V32.65A.841.841,0,0,1,31.1,33.49ZM36.527,28a3.436,3.436,0,0,1-2.309,3.237V24.69a3.436,3.436,0,0,1,2.309,3.237Z" fill="#00b870"/>
</svg>
