<svg id="Сгруппировать_6771" data-name="Сгруппировать 6771" xmlns="http://www.w3.org/2000/svg" width="12" height="12" viewBox="0 0 12 12">
  <path id="Контур_44119" data-name="Контур 44119" d="M11.983,16.353A.356.356,0,0,0,11.7,16.1l-3.72-.567L6.315,12a.345.345,0,0,0-.63,0L4.021,15.535.3,16.1a.357.357,0,0,0-.284.251.381.381,0,0,0,.089.378L2.8,19.481l-.635,3.884a.377.377,0,0,0,.14.36.338.338,0,0,0,.37.028L6,21.92l3.327,1.834a.338.338,0,0,0,.37-.028.377.377,0,0,0,.14-.36L9.2,19.481l2.692-2.751A.381.381,0,0,0,11.983,16.353Z" transform="translate(0 -11.796)" fill="#fc9100"/>
</svg>
