<svg xmlns="http://www.w3.org/2000/svg" width="15" height="15" viewBox="0 0 15 15">
  <g id="star_1_" data-name="star (1)" transform="translate(0 -11.794)">
    <g id="Сгруппировать_6489" data-name="Сгруппировать 6489" transform="translate(0 11.794)">
      <path id="Контур_44118" data-name="Контур 44118" d="M14.979,17.49a.446.446,0,0,0-.355-.314l-4.65-.708-2.08-4.417a.431.431,0,0,0-.788,0l-2.08,4.417-4.65.708a.446.446,0,0,0-.355.314.476.476,0,0,0,.111.472L3.5,21.4,2.7,26.255a.471.471,0,0,0,.175.451.423.423,0,0,0,.463.035L7.5,24.449l4.159,2.292a.422.422,0,0,0,.463-.035.471.471,0,0,0,.175-.451L11.5,21.4l3.365-3.438A.476.476,0,0,0,14.979,17.49Zm-4.255,3.42a.475.475,0,0,0-.126.408l.683,4.174L7.7,23.521a.422.422,0,0,0-.409,0L3.72,25.491,4.4,21.317a.475.475,0,0,0-.126-.408L1.384,17.954l4-.609a.442.442,0,0,0,.331-.252L7.5,13.3l1.788,3.8a.442.442,0,0,0,.331.252l4,.609Z" transform="translate(0 -11.794)" fill="#ffc461"/>
    </g>
  </g>
</svg>
