<svg xmlns="http://www.w3.org/2000/svg" width="36.581" height="28.267" viewBox="0 0 36.581 28.267">
  <g id="tap" transform="translate(0 -53.333)">
    <g id="Сгруппировать_10615" data-name="Сгруппировать 10615" transform="translate(4.299 55.903)">
      <g id="Сгруппировать_10614" data-name="Сгруппировать 10614" transform="translate(0 0)">
        <path id="Контур_46198" data-name="Контур 46198" d="M85.058,94.1l-6.252-6.871a3.183,3.183,0,0,0-4.5.01,3.112,3.112,0,0,0-.8,1.375,3.185,3.185,0,0,0-4.99,1.661,3.186,3.186,0,0,0-4.182.289,3.147,3.147,0,0,0-.8,1.342L60.583,88.96a3.183,3.183,0,0,0-4.5,4.5l11.32,11.32-6.714,1.054a3.725,3.725,0,0,0-3.183,3.67A2.5,2.5,0,0,0,60,112H75.678a9.085,9.085,0,0,0,6.466-2.679l2.616-2.616a9.134,9.134,0,0,0,.3-12.605Zm-1.473,11.43-2.616,2.616a7.433,7.433,0,0,1-5.291,2.191H60a.832.832,0,0,1-.831-.831,2.057,2.057,0,0,1,1.767-2.025l8.339-1.31a.831.831,0,0,0,.459-1.408L57.258,92.286a1.52,1.52,0,0,1,2.15-2.15l8.319,8.319A.831.831,0,1,0,68.9,97.277l-3.4-3.4a1.52,1.52,0,0,1,2.15-2.15l3.4,3.4a.831.831,0,1,0,1.174-1.177l-1.734-1.734a1.52,1.52,0,0,1,2.15-2.15l1.743,1.743s0,0,0,0l0,0,0,0,0,0h0a0,0,0,0,1,0,0,.831.831,0,0,0,1.159-1.192l-.071-.071A1.521,1.521,0,0,1,77.6,88.376l6.225,6.842a7.473,7.473,0,0,1-.245,10.311Z" transform="translate(-55.153 -86.302)" fill="#fff"/>
      </g>
    </g>
    <g id="Сгруппировать_10617" data-name="Сгруппировать 10617" transform="translate(0 53.333)">
      <g id="Сгруппировать_10616" data-name="Сгруппировать 10616">
        <path id="Контур_46199" data-name="Контур 46199" d="M14.293,57.744a7.475,7.475,0,1,0-9.882,9.883A.832.832,0,0,0,5.1,66.111a5.812,5.812,0,1,1,7.682-7.682.831.831,0,1,0,1.515-.685Z" transform="translate(0 -53.333)" fill="#fff"/>
      </g>
    </g>
  </g>
</svg>
