<svg xmlns="http://www.w3.org/2000/svg" width="36.878" height="31" viewBox="0 0 36.878 31">
  <g id="computer-screen" transform="translate(0 -40.803)">
    <g id="Сгруппировать_4877" data-name="Сгруппировать 4877" transform="translate(0 40.803)">
      <path id="Контур_43853" data-name="Контур 43853" d="M35.656,40.8H1.222A1.22,1.22,0,0,0,0,42.011V64.987a1.2,1.2,0,0,0,1.222,1.18H14.091v3.221H8.961a1.208,1.208,0,1,0,0,2.416H27.917a1.208,1.208,0,1,0,0-2.416h-5.13V66.167H35.656a1.2,1.2,0,0,0,1.222-1.18V42.011A1.22,1.22,0,0,0,35.656,40.8ZM20.371,69.387H16.506V66.972h3.865v2.416Zm14.091-5.636H2.416V43.219H34.462Z" transform="translate(0 -40.803)" fill="#00b870"/>
    </g>
  </g>
</svg>
