<svg xmlns="http://www.w3.org/2000/svg" width="257.421" height="227.469" viewBox="0 0 257.421 227.469">
  <g id="_666" data-name="666" transform="translate(-105.006 -98.685)">
    <g id="OBJECTS" transform="translate(105.006 98.685)">
      <g id="Сгруппировать_8605" data-name="Сгруппировать 8605" transform="translate(0 57.192)">
        <path id="Контур_45008" data-name="Контур 45008" d="M42.388,209.1C15.419,225.4,36.033,249.468,34.2,277.269S53.972,310.9,53.972,310.9l215.769-.631c12.261-21.767,10.9-47.329,1.521-75.193-7.836-23.3-36.916-58.948-83.683-35.079-16.946,8.651-43.77,3.829-53.207-17.192,0,0-7.147-30.12-31.8-34.746C82.444,144.282,62.892,158.329,59.89,174s-.2,26.383-17.5,35.1" transform="translate(-28.382 -147.438)" fill="#d8eaea"/>
        <path id="Контур_45009" data-name="Контур 45009" d="M456.28,288.865c2.755,3.852,7.8,3.341,9.495-1.05a9.225,9.225,0,0,0,.172-5.608c-2.153-8.84-8.622-11.561-12.853-6.136C450.482,279.423,453.547,285.048,456.28,288.865Z" transform="translate(-208.871 -201.042)" fill="#eff3f9"/>
        <g id="Сгруппировать_8603" data-name="Сгруппировать 8603" transform="translate(228.189 20.27)">
          <path id="Контур_45010" data-name="Контур 45010" d="M447.995,233.211l.046-3.582-3.358-.04a8.035,8.035,0,0,0-.9-2.451l2.342-2.285-2.5-2.566-2.239,2.187a8.092,8.092,0,0,0-2.951-1.286l.04-3.358-3.582-.04-.04,3.461a8.051,8.051,0,0,0-2.026.8l-2.285-2.342-2.566,2.5,2.187,2.239a8.092,8.092,0,0,0-1.286,2.951l-2.933-.034-.046,3.582,3.037.034a8.013,8.013,0,0,0,1.114,2.554l-2.239,2.187,2.5,2.566L432.656,238a7.961,7.961,0,0,0,2.853,1.022l-.04,3.381,3.582.04.046-3.662a7.852,7.852,0,0,0,2.13-1l2.187,2.239,2.566-2.5-2.285-2.342a7.784,7.784,0,0,0,.844-2.009Zm-8.943.207a3.284,3.284,0,1,1,.057-4.644A3.288,3.288,0,0,1,439.051,233.418Z" transform="translate(-425.9 -198.528)" fill="#d8eaea"/>
          <path id="Контур_45011" data-name="Контур 45011" d="M450.356,190.086l.023-1.957-1.837-.023a4.448,4.448,0,0,0-.488-1.343l1.28-1.246-1.366-1.4-1.223,1.194a4.386,4.386,0,0,0-1.613-.7l.023-1.837-1.957-.023-.023,1.889a4.164,4.164,0,0,0-1.108.436l-1.246-1.28-1.4,1.366,1.194,1.223a4.388,4.388,0,0,0-.7,1.613l-1.6-.017-.023,1.957,1.659.017a4.43,4.43,0,0,0,.608,1.395l-1.223,1.194,1.366,1.4,1.28-1.246a4.332,4.332,0,0,0,1.556.557l-.023,1.848,1.957.023.023-2a4.394,4.394,0,0,0,1.165-.545l1.194,1.223,1.4-1.366-1.246-1.28a4.464,4.464,0,0,0,.465-1.1Zm-4.885.115a1.794,1.794,0,1,1,.029-2.537A1.8,1.8,0,0,1,445.471,190.2Z" transform="translate(-431.178 -182.75)" fill="#d8eaea"/>
        </g>
        <g id="Сгруппировать_8604" data-name="Сгруппировать 8604" transform="translate(2.915 2.028)">
          <path id="Контур_45012" data-name="Контур 45012" d="M55.153,200.464l.689-3.519-3.295-.649a7.934,7.934,0,0,0-.436-2.572l2.715-1.825-2-2.974-2.6,1.745a8.053,8.053,0,0,0-2.669-1.8l.649-3.295-3.519-.689-.666,3.4a7.909,7.909,0,0,0-2.141.419l-1.825-2.715-2.974,2,1.745,2.6a8.053,8.053,0,0,0-1.8,2.669l-2.882-.568-.689,3.519,2.979.586a8.1,8.1,0,0,0,.631,2.715l-2.6,1.745,2,2.973,2.715-1.825a8.081,8.081,0,0,0,2.618,1.521l-.649,3.318,3.519.689.706-3.593a7.881,7.881,0,0,0,2.279-.6l1.745,2.6,2.974-2-1.825-2.715a7.876,7.876,0,0,0,1.194-1.825Zm-8.829-1.412a3.285,3.285,0,1,1,.9-4.558A3.287,3.287,0,0,1,46.324,199.051Z" transform="translate(-33.46 -165.419)" fill="#d8eaea"/>
          <path id="Контур_45013" data-name="Контур 45013" d="M69.014,159.489l.379-1.923-1.8-.356a4.262,4.262,0,0,0-.241-1.406l1.481-1L67.74,153.18l-1.418.953a4.417,4.417,0,0,0-1.458-.982l.356-1.8L63.3,150.97l-.362,1.854a4.366,4.366,0,0,0-1.171.23l-1-1.487-1.625,1.091.953,1.418a4.416,4.416,0,0,0-.982,1.458l-1.573-.31-.379,1.923,1.63.321a4.319,4.319,0,0,0,.344,1.481l-1.418.953,1.091,1.625,1.487-1a4.383,4.383,0,0,0,1.429.832l-.356,1.814,1.923.379.385-1.963a4.343,4.343,0,0,0,1.246-.327l.953,1.418L67.5,161.59l-1-1.481a4.409,4.409,0,0,0,.654-1Zm-4.828-.769a1.8,1.8,0,1,1,.488-2.491A1.8,1.8,0,0,1,64.186,158.719Z" transform="translate(-43.555 -150.97)" fill="#d8eaea"/>
        </g>
      </g>
      <path id="Контур_45014" data-name="Контур 45014" d="M286.368,431.479c0,2.8-57.013,5.069-127.344,5.069S31.68,434.28,31.68,431.479s57.013-5.069,127.344-5.069S286.368,428.683,286.368,431.479Z" transform="translate(-29.787 -209.078)" fill="#f5f5f5"/>
      <g id="Сгруппировать_8622" data-name="Сгруппировать 8622" transform="translate(73.137 48.376)">
        <g id="Сгруппировать_8619" data-name="Сгруппировать 8619" transform="translate(4.581 11.659)">
          <rect id="Прямоугольник_6766" data-name="Прямоугольник 6766" width="2.738" height="145.587" fill="#474574"/>
          <rect id="Прямоугольник_6767" data-name="Прямоугольник 6767" width="2.738" height="145.587" transform="translate(100.29)" fill="#0b3158"/>
        </g>
        <g id="Сгруппировать_8620" data-name="Сгруппировать 8620" transform="translate(0 155.661)">
          <path id="Контур_45028" data-name="Контур 45028" d="M260.813,418.37H163a7.193,7.193,0,0,1-7.193-7.193v-.735A7.193,7.193,0,0,1,163,403.25h97.8A7.193,7.193,0,0,1,268,410.443v.735A7.188,7.188,0,0,1,260.813,418.37Z" transform="translate(-155.799 -403.25)" fill="#0b3158"/>
          <path id="Контур_45029" data-name="Контур 45029" d="M267.98,410.82H155.79a7.565,7.565,0,0,1,7.56-7.56h97.075A7.558,7.558,0,0,1,267.98,410.82Z" transform="translate(-155.79 -403.254)" fill="#4d4d89"/>
        </g>
        <path id="Контур_45030" data-name="Контур 45030" d="M265.25,298.963H174.035s-1.814-43.328,21.469-61.41l.006-.006c.184-.207,5.459-6.056,5.459-8.972,0-2.876-7.009-9.965-7.445-10.4l-.023-.023c-21.176-18.932-19.466-59.74-19.466-59.74h91.22s1.734,41.4-19.931,60.148c-1.55,1.6-7.066,7.462-7.066,10.017,0,2.681,4.46,7.841,5.321,8.817C267.075,255.376,265.25,298.963,265.25,298.963Z" transform="translate(-163.548 -143.296)" fill="#fff"/>
        <path id="Контур_45031" data-name="Контур 45031" d="M222.343,241.305s1.068-8.191-12.583-15.545c-7.262-3.915-20.114-18.335-21.716-36.675,0,0,19.224-3.68,37.387,7.715,21.159,13.277,31.6-3.829,35.958-13.53,0,0,2.262,23.145-12.583,35.722-8.639,7.325-22.123,12.106-22.359,22.313,0,0,2.313,31.509,10.327,43.317,6.98,10.292,15.074,11.337,21.48,16.676a17.215,17.215,0,0,1,5.4,8.255H185.14a17.173,17.173,0,0,1,5.4-8.255c6.406-5.339,14.5-6.383,21.48-16.676C220.03,272.814,222.343,241.305,222.343,241.305Z" transform="translate(-168.292 -153.885)" fill="#ffc800"/>
        <path id="Контур_45032" data-name="Контур 45032" d="M261.589,189.263c-5.218,9.586-15.522,21.182-34.012,9.581-18.157-11.395-37.387-7.715-37.387-7.715s3.915-3.238,12.818-3.054c15.1.3,22.669,5.987,29.2,9.7C239.241,201.777,253.891,201.524,261.589,189.263Z" transform="translate(-170.443 -155.928)" fill="#fc9100"/>
        <g id="Сгруппировать_8621" data-name="Сгруппировать 8621" transform="translate(0)">
          <path id="Контур_45033" data-name="Контур 45033" d="M267.984,139.64a7.565,7.565,0,0,1-7.56,7.56h-97.07a7.56,7.56,0,0,1,.006-15.12h97.075A7.557,7.557,0,0,1,267.984,139.64Z" transform="translate(-155.794 -132.08)" fill="#29245d"/>
          <path id="Контур_45034" data-name="Контур 45034" d="M267.98,139.64H155.79a7.565,7.565,0,0,1,7.56-7.56h97.075A7.558,7.558,0,0,1,267.98,139.64Z" transform="translate(-155.79 -132.08)" fill="#4d4d89"/>
        </g>
      </g>
      <g id="Сгруппировать_8665" data-name="Сгруппировать 8665" transform="translate(25.964 56.971)">
        <g id="Сгруппировать_8625" data-name="Сгруппировать 8625" transform="translate(41.255 32.107)">
          <path id="Контур_45038" data-name="Контур 45038" d="M146.97,223.1a71.257,71.257,0,0,0,5.735,9.139,23.587,23.587,0,0,0,2.813,3.14c1.527,1.378,3.014,2.1,4.225,1.487,4.489-2.262,14.506-20.281,14.506-20.281l-2.468-2.928s-4.455,5.143-7.715,8.226c-3.008,2.841-5.316,4.965-5.316,4.965-.413-.631-.861-1.326-1.32-2.061-.488-.781-1-1.607-1.515-2.451-3.754-6.159-8.272-12.9-8.272-12.9Z" transform="translate(-146.116 -205.735)" fill="#fda893"/>
          <path id="Контур_45039" data-name="Контур 45039" d="M188.519,212.678a4.944,4.944,0,0,1-.626-3.226c.39-1.527.775-4.971,2.405-4.879.6.034-.276,1.475.126,2.807a22.347,22.347,0,0,0,2.916-1.739c1.028-.775,3.163-2.038,4.15-2.612a.312.312,0,0,1,.431.419,6.957,6.957,0,0,1-2.313,2.015s3.571-2.044,4.167-1.59-3.915,2.916-3.915,2.916,3.645-1.5,3.944-.953c.184.333-3.393,2.48-3.393,2.48s3.548-1.119,2.887-.27c-.189.247-6.934,3.358-8.335,6.975C190.971,215.009,189.007,213.912,188.519,212.678Z" transform="translate(-163.51 -202.986)" fill="#fda893"/>
          <path id="Контур_45040" data-name="Контур 45040" d="M156.96,241.808a23.587,23.587,0,0,0,2.813,3.14l1.906-10.6c-.488-.781-1-1.607-1.515-2.451Z" transform="translate(-150.371 -215.302)" fill="#fd896b"/>
          <path id="Контур_45041" data-name="Контур 45041" d="M146.87,208.59l9.489,13.972-3.019,12.451-7.445-12.129C145.889,222.889,144.494,214.772,146.87,208.59Z" transform="translate(-145.482 -205.373)" fill="#36c28b"/>
        </g>
        <g id="Сгруппировать_8635" data-name="Сгруппировать 8635" transform="translate(27.523 90.225)">
          <path id="Контур_45042" data-name="Контур 45042" d="M136.22,416.637v4.409l-4.035-.063-.264-4.673Z" transform="translate(-125.973 -351.972)" fill="#fda893"/>
          <g id="Сгруппировать_8626" data-name="Сгруппировать 8626" transform="translate(0.006 0.034)">
            <path id="Контур_45043" data-name="Контур 45043" d="M121.57,304.468c.029.522.166,3.042.379,6.55.568,9.644,1.63,26.779,2.256,30.631.643,3.949.35,16.9.144,23.679a4.1,4.1,0,0,0,1.142,2.968,4.455,4.455,0,0,0,.936.729,4.12,4.12,0,0,0,2.026.534h3.077a4.1,4.1,0,0,0,4.1-4.236c-.172-5.735-.385-16.188.017-24.265.385-7.686-.172-21.291-.6-29.77h-.006c-.172-3.387-.321-5.947-.385-7Z" transform="translate(-121.57 -304.29)" fill="#fd4059"/>
          </g>
          <path id="Контур_45044" data-name="Контур 45044" d="M134.654,304.3l-13.094.172c.029.522.166,3.042.379,6.55a55.41,55.41,0,0,0,13.1.276C134.866,307.911,134.717,305.345,134.654,304.3Z" transform="translate(-121.56 -304.26)" fill="#cb2242"/>
          <g id="Сгруппировать_8627" data-name="Сгруппировать 8627" transform="translate(1.561)">
            <path id="Контур_45045" data-name="Контур 45045" d="M126.7,353.212c-.115,4.334-.235,8.817-.155,12.434.023,1.016.057,1.883.1,2.623a4.016,4.016,0,0,0,.941.729c-.075-.861-.132-1.969-.166-3.375-.075-3.593.04-8.065.155-12.388a112.233,112.233,0,0,0-.017-12.4c-.626-4.65-2.032-29.867-2.4-36.6l-.878.04c.367,6.728,1.78,31.991,2.411,36.675A116.4,116.4,0,0,1,126.7,353.212Z" transform="translate(-124.28 -304.23)" fill="#cb2242"/>
          </g>
          <g id="Сгруппировать_8634" data-name="Сгруппировать 8634" transform="translate(5.13 67.77)">
            <g id="Сгруппировать_8633" data-name="Сгруппировать 8633">
              <g id="Сгруппировать_8632" data-name="Сгруппировать 8632">
                <path id="Контур_45046" data-name="Контур 45046" d="M134.58,423.432s.838-1.177,1.521-1.142,6.05,4.11,7.864,4.42,1.492,1.642,1.177,2.331-14.42.063-14.42.063-.476-4.185-.046-5.476S133.173,423.765,134.58,423.432Z" transform="translate(-130.496 -422.289)" fill="#018e57"/>
                <g id="Сгруппировать_8631" data-name="Сгруппировать 8631" transform="translate(5.961 1.319)">
                  <g id="Сгруппировать_8628" data-name="Сгруппировать 8628" transform="translate(0.769 0.695)">
                    <path id="Контур_45047" data-name="Контур 45047" d="M142.553,427.785a.248.248,0,0,1-.2-.017.26.26,0,0,1-.1-.344,3.9,3.9,0,0,1,1.286-1.4,1.735,1.735,0,0,1,1.791.046.251.251,0,1,1-.293.408,1.245,1.245,0,0,0-1.263-.011,3.474,3.474,0,0,0-1.079,1.194A.213.213,0,0,1,142.553,427.785Z" transform="translate(-142.221 -425.797)" fill="#fff"/>
                  </g>
                  <g id="Сгруппировать_8629" data-name="Сгруппировать 8629">
                    <path id="Контур_45048" data-name="Контур 45048" d="M141.213,426.575a.247.247,0,0,1-.2-.017.26.26,0,0,1-.1-.344,3.9,3.9,0,0,1,1.286-1.4,1.735,1.735,0,0,1,1.791.046.251.251,0,1,1-.293.408,1.246,1.246,0,0,0-1.263-.011,3.46,3.46,0,0,0-1.079,1.194A.246.246,0,0,1,141.213,426.575Z" transform="translate(-140.881 -424.587)" fill="#fff"/>
                  </g>
                  <g id="Сгруппировать_8630" data-name="Сгруппировать 8630" transform="translate(1.802 1.251)">
                    <path id="Контур_45049" data-name="Контур 45049" d="M144.353,428.755a.248.248,0,0,1-.2-.017.26.26,0,0,1-.1-.344,3.9,3.9,0,0,1,1.286-1.4,1.735,1.735,0,0,1,1.791.046.245.245,0,0,1,.057.35.251.251,0,0,1-.356.057,1.245,1.245,0,0,0-1.263-.011,3.459,3.459,0,0,0-1.079,1.194A.184.184,0,0,1,144.353,428.755Z" transform="translate(-144.021 -426.767)" fill="#fff"/>
                  </g>
                </g>
              </g>
            </g>
          </g>
        </g>
        <g id="Сгруппировать_8644" data-name="Сгруппировать 8644" transform="translate(7.211 90.214)">
          <path id="Контур_45050" data-name="Контур 45050" d="M101.99,416.637l-.436,4.4-3.6-.057-.264-4.673Z" transform="translate(-91.08 -351.961)" fill="#fda893"/>
          <g id="Сгруппировать_8637" data-name="Сгруппировать 8637" transform="translate(3.369 0.258)">
            <g id="Сгруппировать_8636" data-name="Сгруппировать 8636">
              <path id="Контур_45051" data-name="Контур 45051" d="M92.174,341.22c.4,8.077.189,18.536.017,24.264a4.112,4.112,0,0,0,4.1,4.236h3.077a4.1,4.1,0,0,0,1.889-.459,3.982,3.982,0,0,0,.93-.666,4.059,4.059,0,0,0,1.286-3.111c-.207-6.779-.494-19.73.144-23.679.637-3.915,1.728-21.578,2.29-31.118.184-3.186.31-5.465.344-6.027l-13.111.172c-.04.677-.1,1.728-.172,3.054C92.547,315.515,91.726,332.323,92.174,341.22Z" transform="translate(-92.044 -304.66)" fill="#fd4059"/>
            </g>
          </g>
          <path id="Контур_45052" data-name="Контур 45052" d="M93.66,307.886a127.666,127.666,0,0,0,12.939,2.8c.184-3.186.31-5.465.344-6.027l-13.111.172C93.792,305.51,93.729,306.56,93.66,307.886Z" transform="translate(-89.363 -304.402)" fill="#cb2242"/>
          <g id="Сгруппировать_8638" data-name="Сгруппировать 8638" transform="translate(12.444)">
            <path id="Контур_45053" data-name="Контур 45053" d="M108.161,365.615c-.029,1.452-.092,2.577-.166,3.45a4.138,4.138,0,0,0,.936-.666c.052-.775.092-1.688.115-2.773.075-3.616-.04-8.094-.155-12.434a116.292,116.292,0,0,1,.006-12.261c.631-4.684,2.044-29.965,2.411-36.681l-.878-.04c-.367,6.722-1.774,31.951-2.405,36.606a115.236,115.236,0,0,0-.017,12.4C108.115,357.549,108.236,362.021,108.161,365.615Z" transform="translate(-107.853 -304.21)" fill="#cb2242"/>
          </g>
          <g id="Сгруппировать_8643" data-name="Сгруппировать 8643" transform="translate(0 67.92)">
            <path id="Контур_45054" data-name="Контур 45054" d="M95.248,423.012a17.328,17.328,0,0,0-2.342-.482c-.505.011-3.909,3.812-5.052,4.035-2.078.408-2.078,3.651-.815,3.812,3.657.465,9.908-1.079,9.908-1.079a29.917,29.917,0,0,0,.327-5.465C97.016,422.53,96.269,423.4,95.248,423.012Z" transform="translate(-86.175 -422.53)" fill="#018e57"/>
            <g id="Сгруппировать_8642" data-name="Сгруппировать 8642" transform="translate(2.047 1.458)">
              <g id="Сгруппировать_8639" data-name="Сгруппировать 8639" transform="translate(0.982 0.769)">
                <path id="Контур_45055" data-name="Контур 45055" d="M94.469,428.218a.238.238,0,0,0,.2-.034.251.251,0,0,0,.069-.35,3.944,3.944,0,0,0-1.418-1.274,1.755,1.755,0,0,0-1.78.212.252.252,0,1,0,.327.385,1.25,1.25,0,0,1,1.257-.132,3.46,3.46,0,0,1,1.188,1.085A.281.281,0,0,0,94.469,428.218Z" transform="translate(-91.45 -426.41)" fill="#fff"/>
              </g>
              <g id="Сгруппировать_8640" data-name="Сгруппировать 8640" transform="translate(1.676)">
                <path id="Контур_45056" data-name="Контур 45056" d="M95.679,426.878a.262.262,0,0,0,.2-.034.251.251,0,0,0,.069-.35,3.944,3.944,0,0,0-1.418-1.274,1.754,1.754,0,0,0-1.78.212.252.252,0,0,0,.327.385,1.25,1.25,0,0,1,1.257-.132,3.4,3.4,0,0,1,1.188,1.085A.264.264,0,0,0,95.679,426.878Z" transform="translate(-92.66 -425.07)" fill="#fff"/>
              </g>
              <g id="Сгруппировать_8641" data-name="Сгруппировать 8641" transform="translate(0 1.418)">
                <path id="Контур_45057" data-name="Контур 45057" d="M92.759,429.348a.239.239,0,0,0,.2-.034.251.251,0,0,0,.069-.35,3.944,3.944,0,0,0-1.418-1.274,1.754,1.754,0,0,0-1.78.212.252.252,0,1,0,.327.385,1.25,1.25,0,0,1,1.257-.132,3.4,3.4,0,0,1,1.188,1.085A.264.264,0,0,0,92.759,429.348Z" transform="translate(-89.74 -427.54)" fill="#fff"/>
              </g>
            </g>
          </g>
        </g>
        <g id="Сгруппировать_8650" data-name="Сгруппировать 8650" transform="translate(8.689 26.978)">
          <g id="Сгруппировать_8645" data-name="Сгруппировать 8645">
            <path id="Контур_45058" data-name="Контур 45058" d="M88.762,258.864a71.456,71.456,0,0,0,35.493,0c.063-4.414.126-22.072-.218-36.56-.006-.287-.011-.568-.023-.85,0-.138-.006-.281-.011-.419v-.023c-.006-.178-.006-.362-.017-.54-.253-9.558-.695-17.359-1.447-18.4h0c-1.762-2.422-10.625-6.291-13.077-8.019-.207.327-1.412,2.158-2.991,2.29-1.734.155-3.278-1.889-3.278-1.889v-.385c-2.463,1.728-10.493,5.31-12.256,7.727C89.015,204.434,88.682,251.339,88.762,258.864Z" transform="translate(-88.751 -194.05)" fill="#36c28b"/>
          </g>
          <g id="Сгруппировать_8646" data-name="Сгруппировать 8646" transform="translate(31.623 21.007)">
            <path id="Контур_45059" data-name="Контур 45059" d="M143.892,231.084a44.562,44.562,0,0,1,3.169,5.93c.092.2.166.362.224.488.075.166.115.258.121.27a.276.276,0,0,0,.1.115c-.006-.287-.011-.568-.023-.85,0-.138-.006-.281-.012-.419V236.6c-.138-.293-.3-.637-.476-1.016a35.72,35.72,0,0,0-2.658-4.822.275.275,0,0,0-.385-.057A.281.281,0,0,0,143.892,231.084Z" transform="translate(-143.84 -230.646)" fill="#00b870"/>
          </g>
          <g id="Сгруппировать_8647" data-name="Сгруппировать 8647" transform="translate(8.73 3.103)">
            <path id="Контур_45060" data-name="Контур 45060" d="M104.23,207.133h.011a19.816,19.816,0,0,0,14.288-7.239.275.275,0,0,0-.442-.327c-.052.069-5.126,6.739-13.863,7.02a.274.274,0,0,0-.264.281A.265.265,0,0,0,104.23,207.133Z" transform="translate(-103.96 -199.456)" fill="#00b870"/>
          </g>
          <g id="Сгруппировать_8648" data-name="Сгруппировать 8648" transform="translate(5.868 40.328)">
            <path id="Контур_45061" data-name="Контур 45061" d="M117.96,279.576a.276.276,0,0,0,.017-.551,19.892,19.892,0,0,1-14.833-7.612,21.191,21.191,0,0,1-3.634-6.906.273.273,0,1,0-.528.138,21.325,21.325,0,0,0,3.72,7.089,20.426,20.426,0,0,0,15.241,7.841Z" transform="translate(-98.973 -264.303)" fill="#00b870"/>
          </g>
          <g id="Сгруппировать_8649" data-name="Сгруппировать 8649" transform="translate(12.21 42.468)">
            <path id="Контур_45062" data-name="Контур 45062" d="M118.516,276.262a.274.274,0,0,0,.069-.54,10.95,10.95,0,0,1-8.019-7.474.276.276,0,1,0-.54.115,9.752,9.752,0,0,0,1.538,3.232,12.027,12.027,0,0,0,6.871,4.655A.532.532,0,0,0,118.516,276.262Z" transform="translate(-110.021 -268.031)" fill="#00b870"/>
          </g>
        </g>
        <g id="Сгруппировать_8651" data-name="Сгруппировать 8651" transform="translate(0 35.256)">
          <path id="Контур_45063" data-name="Контур 45063" d="M73.623,274.388c.166,2.4,1.613,4.185,1.619,5.763s1.831.545.987-2.577.408-6.142,1.079-6.113-.212,3.519.488,4.678,1.234-1.274,1.848-2.784c.637-1.561.281-4.8-.3-7.089s2.267-16.768,1.894-20.843l1.028-5.293.6-3.088.115-3.226L77.5,231.64c-.207,1.033-.419,2.107-.626,3.186l-.276,1.429c-.735,3.858-1.395,7.658-1.659,10.1-.741,6.745.476,20.5.476,20.5S73.462,272.138,73.623,274.388Z" transform="translate(-73.614 -218.34)" fill="#fda893"/>
          <path id="Контур_45064" data-name="Контур 45064" d="M78.81,236.261a12.167,12.167,0,0,0,5.677,3.869l.6-3.088.115-3.226-5.488-2.176c-.207,1.033-.419,2.107-.626,3.186C78.988,235.308,78.9,235.785,78.81,236.261Z" transform="translate(-75.827 -218.34)" fill="#fd896b"/>
          <path id="Контур_45065" data-name="Контур 45065" d="M76.15,223.332a11.838,11.838,0,0,0,1.8,1.63,10.315,10.315,0,0,0,5.993,2.21c.3-8.932.752-16.486,1.4-18.7C84.187,209.9,78.63,216.937,76.15,223.332Z" transform="translate(-74.694 -208.47)" fill="#36c28b"/>
        </g>
        <g id="Сгруппировать_8652" data-name="Сгруппировать 8652" transform="translate(9.016 47.09)">
          <path id="Контур_45066" data-name="Контур 45066" d="M93.321,229.524a44.205,44.205,0,0,0-3.169,5.93c-.092.2-.166.362-.224.488-.075.166-.121.258-.121.27a.269.269,0,0,1-.253.161H89.55c0-.138.006-.281.011-.419H89.32c.034-.08.126-.281.253-.557.161-.35.385-.832.643-1.378a35.374,35.374,0,0,1,2.658-4.822.277.277,0,0,1,.448.327Z" transform="translate(-89.32 -229.086)" fill="#00b870"/>
        </g>
        <g id="Сгруппировать_8664" data-name="Сгруппировать 8664" transform="translate(15.706)">
          <path id="Контур_45067" data-name="Контур 45067" d="M104.93,162.55c0,4.839,2.979,8.174,7.818,8.174s8.214-3.588,8.214-8.427-2.864-8.507-7.7-8.507C107.45,153.79,104.93,157.711,104.93,162.55Z" transform="translate(-102.659 -149.923)" fill="#29245d"/>
          <path id="Контур_45068" data-name="Контур 45068" d="M103.532,157.005s-3.6-3.565-2.256-5.247,3.106-.075,3.639-1.682.746-3.668,2.933-2.83,2.29,2.216,4.38.993,1.63.844,3.467,1.757,3.117.763,2.819,2.526,1.762,2.124.918,4.064-1.825.964-1.825.964Z" transform="translate(-100.974 -147.053)" fill="#39222f"/>
          <g id="Сгруппировать_8657" data-name="Сгруппировать 8657" transform="translate(0.69 13.814)">
            <path id="Контур_45069" data-name="Контур 45069" d="M104.842,172.015s-1.343-1.791-2.342-.31.413,5.861,2.859,4.793Z" transform="translate(-102.176 -171.118)" fill="#fd896b"/>
            <path id="Контур_45070" data-name="Контур 45070" d="M104.32,179.469a.459.459,0,1,0,.459-.459A.461.461,0,0,0,104.32,179.469Z" transform="translate(-103.089 -174.48)" fill="#fff"/>
            <g id="Сгруппировать_8653" data-name="Сгруппировать 8653" transform="translate(0.517 1.572)">
              <path id="Контур_45071" data-name="Контур 45071" d="M105.208,176.31a.208.208,0,0,1-.2-.149,3.2,3.2,0,0,0-1.8-1.906.205.205,0,0,1,.144-.385,3.566,3.566,0,0,1,2.044,2.181.206.206,0,0,1-.144.253C105.248,176.3,105.225,176.31,105.208,176.31Z" transform="translate(-103.076 -173.856)" fill="#d65c48"/>
            </g>
            <g id="Сгруппировать_8656" data-name="Сгруппировать 8656" transform="translate(1.031 2.377)">
              <g id="Сгруппировать_8655" data-name="Сгруппировать 8655">
                <g id="Сгруппировать_8654" data-name="Сгруппировать 8654">
                  <path id="Контур_45072" data-name="Контур 45072" d="M104.177,176.224a.189.189,0,0,1-.109-.034.206.206,0,0,1-.063-.287,1.872,1.872,0,0,1,.775-.626.208.208,0,1,1,.172.379,1.484,1.484,0,0,0-.6.471A.219.219,0,0,1,104.177,176.224Z" transform="translate(-103.972 -175.259)" fill="#d65c48"/>
                </g>
              </g>
            </g>
          </g>
          <g id="Сгруппировать_8662" data-name="Сгруппировать 8662" transform="translate(16.697 13.814)">
            <path id="Контур_45073" data-name="Контур 45073" d="M130.577,172.015s1.343-1.791,2.342-.31-.413,5.861-2.859,4.793Z" transform="translate(-130.06 -171.118)" fill="#fd896b"/>
            <path id="Контур_45074" data-name="Контур 45074" d="M132.22,179.469a.459.459,0,1,0,.459-.459A.461.461,0,0,0,132.22,179.469Z" transform="translate(-130.98 -174.48)" fill="#fff"/>
            <g id="Сгруппировать_8658" data-name="Сгруппировать 8658" transform="translate(0.338 1.572)">
              <path id="Контур_45075" data-name="Контур 45075" d="M130.844,176.31a.208.208,0,0,0,.2-.149,3.2,3.2,0,0,1,1.8-1.906.205.205,0,0,0-.144-.385,3.567,3.567,0,0,0-2.044,2.181.206.206,0,0,0,.144.253C130.81,176.3,130.827,176.31,130.844,176.31Z" transform="translate(-130.648 -173.856)" fill="#d65c48"/>
            </g>
            <g id="Сгруппировать_8661" data-name="Сгруппировать 8661" transform="translate(1.05 2.377)">
              <g id="Сгруппировать_8660" data-name="Сгруппировать 8660">
                <g id="Сгруппировать_8659" data-name="Сгруппировать 8659">
                  <path id="Контур_45076" data-name="Контур 45076" d="M132.785,176.224a.189.189,0,0,0,.109-.034.206.206,0,0,0,.063-.287,1.872,1.872,0,0,0-.775-.626.208.208,0,0,0-.172.379,1.484,1.484,0,0,1,.6.471A.219.219,0,0,0,132.785,176.224Z" transform="translate(-131.889 -175.259)" fill="#d65c48"/>
                </g>
              </g>
            </g>
          </g>
          <path id="Контур_45077" data-name="Контур 45077" d="M119.936,186.95v4.357s-1.3,2.216-3.054,2.371-3.312-1.912-3.312-1.912V187.26Z" transform="translate(-106.339 -164.048)" fill="#fda893"/>
          <path id="Контур_45078" data-name="Контур 45078" d="M119.936,186.95v1.935c-1.177,1.309-3.272,1.636-6.366,1.177v-2.8Z" transform="translate(-106.339 -164.048)" fill="#fd896b"/>
          <path id="Контур_45079" data-name="Контур 45079" d="M105.511,166.264a24.383,24.383,0,0,0,.356,2.864c.586,3.209,1.9,6.366,4.73,7.376,6.418,2.29,8.708-3.215,9.627-6.418.1-.356.189-.752.27-1.177.144-.763.258-1.619.35-2.474.1-1.045.172-2.1.218-3.025a4.539,4.539,0,0,0-2.9-4.449c-2.629-1.01-6.624-1.808-10.413.339a4.538,4.538,0,0,0-2.308,3.869C105.419,164.043,105.431,165.11,105.511,166.264Z" transform="translate(-102.873 -151.691)" fill="#fda893"/>
          <path id="Контур_45080" data-name="Контур 45080" d="M105.57,172.44a24.384,24.384,0,0,0,.356,2.864c.586,3.209,1.9,6.366,4.73,7.376,6.418,2.29,8.708-3.215,9.627-6.418.1-.356.189-.752.27-1.177.144-.763.258-1.619.35-2.474h-.936c-.2.6-1.24,4.236-1.579,4.753-.729-1.751-4.432-.586-4.432-.586l-.017.006a2.247,2.247,0,0,1-1.4-.006s-3.662-1.211-4.42.453c-.333-.522-1.538-4.231-1.751-4.621Zm7.663,5.132c4.19-.563,3.53,1.688,3.53,1.688a7.221,7.221,0,0,1-1.171.9,4.841,4.841,0,0,1-2.468.672c-.643-.029-.815.1-2.445-.775a4.12,4.12,0,0,1-.861-.654h0C109.743,178.955,109.037,176.849,113.233,177.572Z" transform="translate(-102.932 -157.867)" fill="#39222f"/>
          <path id="Контур_45081" data-name="Контур 45081" d="M113.308,173.044c0,.465-.241.844-.534.844s-.534-.379-.534-.844.241-.844.534-.844S113.308,172.579,113.308,173.044Z" transform="translate(-105.773 -157.765)" fill="#192c32"/>
          <path id="Контур_45082" data-name="Контур 45082" d="M124.288,173.014c0,.465-.241.844-.534.844s-.534-.379-.534-.844.241-.844.534-.844S124.288,172.549,124.288,173.014Z" transform="translate(-110.45 -157.752)" fill="#192c32"/>
          <path id="Контур_45083" data-name="Контур 45083" d="M109.4,169.233a5.511,5.511,0,0,1,3.628-.126l-.161.878a10.158,10.158,0,0,0-3.484.276A1.541,1.541,0,0,1,109.4,169.233Z" transform="translate(-104.521 -156.33)" fill="#39222f"/>
          <path id="Контур_45084" data-name="Контур 45084" d="M124.538,169.233a5.511,5.511,0,0,0-3.628-.126l.161.878a10.158,10.158,0,0,1,3.484.276A1.577,1.577,0,0,0,124.538,169.233Z" transform="translate(-109.466 -156.33)" fill="#39222f"/>
          <g id="Сгруппировать_8663" data-name="Сгруппировать 8663" transform="translate(9.585 14.486)">
            <path id="Контур_45085" data-name="Контур 45085" d="M118.445,176.336a2.312,2.312,0,0,0,.746-.155.214.214,0,0,0,.115-.27.212.212,0,0,0-.27-.115,1.268,1.268,0,0,1-.832.08c-.04-.023-.086-.069-.1-.2a30.169,30.169,0,0,1,.126-3.169.207.207,0,1,0-.413-.034c-.006.1-.2,2.486-.126,3.243a.632.632,0,0,0,.3.505A.905.905,0,0,0,118.445,176.336Z" transform="translate(-117.67 -172.288)" fill="#fd896b"/>
          </g>
          <path id="Контур_45086" data-name="Контур 45086" d="M114.1,181.98a2.661,2.661,0,0,0,2.623,2.417,2.562,2.562,0,0,0,2.612-2.417Z" transform="translate(-106.565 -161.931)" fill="#fff"/>
          <path id="Контур_45087" data-name="Контур 45087" d="M120.833,166.437H119.9c.1-.941.253-2.6-.522-2.836-2.445-.752.723-2.474-.379-3.335s-3.846-.494-5.758-.557a41.072,41.072,0,0,0-5.758.138c-.752.172-.339,1.418-.063,2.382s-.918,2.032-1.119,3.031a4.429,4.429,0,0,0,0,1.177h-.781c-.092-1.217-.109-2.348-.092-3.266a4.538,4.538,0,0,1,2.308-3.869c3.789-2.147,7.784-1.349,10.413-.333a4.537,4.537,0,0,1,2.9,4.443C121.011,164.342,120.942,165.392,120.833,166.437Z" transform="translate(-102.867 -151.692)" fill="#39222f"/>
        </g>
      </g>
      <g id="Сгруппировать_8775" data-name="Сгруппировать 8775" transform="translate(169.51 58.331)">
        <g id="Сгруппировать_8715" data-name="Сгруппировать 8715" transform="translate(20.231 79.469)">
          <path id="Контур_45108" data-name="Контур 45108" d="M379.04,415.467v4.38l4.007-.063.258-4.644Z" transform="translate(-367.491 -342.077)" fill="#fda893"/>
          <g id="Сгруппировать_8713" data-name="Сгруппировать 8713" transform="translate(0 76.109)">
            <g id="Сгруппировать_8712" data-name="Сгруппировать 8712">
              <path id="Контур_45109" data-name="Контур 45109" d="M371.17,421.7s-1-1.32-1.791-1.251-6.8,4.96-8.875,5.384-1.653,1.946-1.263,2.727,16.463-.207,16.463-.207.505-5.109-.04-6.578S372.795,422.027,371.17,421.7Z" transform="translate(-358.921 -420.445)" fill="#018e57"/>
              <g id="Сгруппировать_8711" data-name="Сгруппировать 8711" transform="translate(4.384 1.612)">
                <g id="Сгруппировать_8708" data-name="Сгруппировать 8708" transform="translate(1.171 0.832)">
                  <path id="Контур_45110" data-name="Контур 45110" d="M371.975,426.917a.3.3,0,0,0,.23-.029.29.29,0,0,0,.1-.4,4.522,4.522,0,0,0-1.533-1.561,2.007,2.007,0,0,0-2.061.121.291.291,0,1,0,.35.465,1.429,1.429,0,0,1,1.452-.057,4,4,0,0,1,1.286,1.332A.292.292,0,0,0,371.975,426.917Z" transform="translate(-368.598 -424.704)" fill="#fff"/>
                </g>
                <g id="Сгруппировать_8709" data-name="Сгруппировать 8709" transform="translate(2.026)">
                  <path id="Контур_45111" data-name="Контур 45111" d="M373.465,425.467a.3.3,0,0,0,.23-.029.29.29,0,0,0,.1-.4,4.521,4.521,0,0,0-1.533-1.561,2.007,2.007,0,0,0-2.061.121.291.291,0,1,0,.35.465,1.429,1.429,0,0,1,1.452-.057,3.941,3.941,0,0,1,1.286,1.332A.31.31,0,0,0,373.465,425.467Z" transform="translate(-370.088 -423.254)" fill="#fff"/>
                </g>
                <g id="Сгруппировать_8710" data-name="Сгруппировать 8710" transform="translate(0 1.51)">
                  <path id="Контур_45112" data-name="Контур 45112" d="M369.935,428.1a.3.3,0,0,0,.23-.029.29.29,0,0,0,.1-.4,4.522,4.522,0,0,0-1.533-1.561,2.008,2.008,0,0,0-2.061.121.291.291,0,0,0,.35.465,1.429,1.429,0,0,1,1.452-.057,3.941,3.941,0,0,1,1.286,1.332A.292.292,0,0,0,369.935,428.1Z" transform="translate(-366.558 -425.884)" fill="#fff"/>
                </g>
              </g>
            </g>
          </g>
          <path id="Контур_45113" data-name="Контур 45113" d="M385.918,287.87c-.1,1.7-.218,3.616-.344,5.672-.023.379-.046.758-.069,1.148-.011.23-.029.459-.046.689-.809,13.168-1.957,31.021-2.543,36.733-1.2,11.613-1.263,29.207-1.263,29.207h-6.389c-.6-12.5-1.647-47.53-2.17-65.785-.017-.574-.034-1.137-.052-1.682-.069-2.371-.126-4.4-.172-5.981Z" transform="translate(-364.863 -287.864)" fill="#fd4059"/>
          <path id="Контур_45114" data-name="Контур 45114" d="M385.922,287.866c-.1,1.7-.218,3.616-.344,5.671a1.115,1.115,0,0,1-.138.011,78.2,78.2,0,0,1-12.388.293c-.069-2.371-.126-4.4-.172-5.981h13.042Z" transform="translate(-364.867 -287.86)" fill="#cb2242"/>
          <g id="Сгруппировать_8714" data-name="Сгруппировать 8714" transform="translate(9.701 0.006)">
            <path id="Контур_45115" data-name="Контур 45115" d="M387.938,287.87c-.591,11.928-1.521,29.471-2.233,36.773-.735,7.543-1.441,28.357-1.7,36.675h.832c.264-8.335.97-29.081,1.7-36.595.712-7.325,1.647-24.913,2.239-36.853Z" transform="translate(-379.304 -287.87)" fill="#cb2242"/>
            <path id="Контур_45116" data-name="Контур 45116" d="M375.82,411.8l.287,2.928h7.663L384,411.8Z" transform="translate(-375.82 -340.66)" fill="#cb2242"/>
          </g>
        </g>
        <g id="Сгруппировать_8723" data-name="Сгруппировать 8723" transform="translate(40.46 79.463)">
          <path id="Контур_45117" data-name="Контур 45117" d="M403.1,414.878l.161,4.38,4-.218.092-4.65Z" transform="translate(-397.968 -341.751)" fill="#fda893"/>
          <g id="Сгруппировать_8721" data-name="Сгруппировать 8721" transform="translate(4.598 75.891)">
            <g id="Сгруппировать_8720" data-name="Сгруппировать 8720">
              <path id="Контур_45118" data-name="Контур 45118" d="M404.673,420.489a18.875,18.875,0,0,1,2.715-.431c.586.04,4.294,4.581,5.6,4.9,2.365.574,2.2,4.3.741,4.42-4.225.35-11.331-1.745-11.331-1.745s-.448-4.81-.092-6.3S403.479,420.873,404.673,420.489Z" transform="translate(-402.171 -420.056)" fill="#018e57"/>
              <g id="Сгруппировать_8719" data-name="Сгруппировать 8719" transform="translate(4.686 1.765)">
                <g id="Сгруппировать_8716" data-name="Сгруппировать 8716" transform="translate(0.769 0.918)">
                  <path id="Контур_45119" data-name="Контур 45119" d="M412.016,426.717a.318.318,0,0,1-.224-.052.293.293,0,0,1-.063-.408,4.48,4.48,0,0,1,1.693-1.389,1.992,1.992,0,0,1,2.032.339.292.292,0,0,1-.4.425,1.44,1.44,0,0,0-1.435-.212,3.956,3.956,0,0,0-1.424,1.188A.278.278,0,0,1,412.016,426.717Z" transform="translate(-411.673 -424.731)" fill="#fff"/>
                </g>
                <g id="Сгруппировать_8717" data-name="Сгруппировать 8717">
                  <path id="Контур_45120" data-name="Контур 45120" d="M410.676,425.117a.318.318,0,0,1-.224-.052.293.293,0,0,1-.063-.408,4.48,4.48,0,0,1,1.693-1.389,2.005,2.005,0,0,1,2.038.339.292.292,0,0,1-.4.425,1.44,1.44,0,0,0-1.435-.212,4.016,4.016,0,0,0-1.424,1.188A.291.291,0,0,1,410.676,425.117Z" transform="translate(-410.333 -423.131)" fill="#fff"/>
                </g>
                <g id="Сгруппировать_8718" data-name="Сгруппировать 8718" transform="translate(1.86 1.716)">
                  <path id="Контур_45121" data-name="Контур 45121" d="M413.916,428.107a.318.318,0,0,1-.224-.052.293.293,0,0,1-.063-.408,4.48,4.48,0,0,1,1.693-1.389,2,2,0,0,1,2.038.339.292.292,0,0,1-.4.425,1.441,1.441,0,0,0-1.435-.212A4.017,4.017,0,0,0,414.1,428,.307.307,0,0,1,413.916,428.107Z" transform="translate(-413.573 -426.121)" fill="#fff"/>
                </g>
              </g>
            </g>
          </g>
          <path id="Контур_45122" data-name="Контур 45122" d="M407.2,287.866c-.029.953-.057,2.072-.092,3.324,0,.1-.006.189-.006.287-.471,16.549-1.636,56.336-2.29,69.832h-6.389s-.063-17.594-1.263-29.207c-.591-5.717-1.739-23.581-2.549-36.75-.011-.224-.029-.453-.04-.672-.023-.385-.046-.758-.069-1.131-.126-2.067-.241-3.984-.344-5.689H407.2Z" transform="translate(-394.16 -287.854)" fill="#fd4059"/>
          <path id="Контур_45123" data-name="Контур 45123" d="M407.206,287.861c-.029.953-.057,2.072-.092,3.324a77.292,77.292,0,0,1-12.066,2.3c-.034.006-.075.006-.109.011-.1.011-.189.023-.287.029a1.116,1.116,0,0,1-.138.011c-.126-2.066-.241-3.984-.344-5.689h13.036Z" transform="translate(-394.164 -287.85)" fill="#cb2242"/>
          <g id="Сгруппировать_8722" data-name="Сгруппировать 8722" transform="translate(1.894 0.011)">
            <path id="Контур_45124" data-name="Контур 45124" d="M398.292,287.87h-.832c.591,11.94,1.527,29.523,2.239,36.853.729,7.514,1.435,28.266,1.7,36.595h.832c-.264-8.318-.97-29.132-1.7-36.675C399.814,317.341,398.884,299.8,398.292,287.87Z" transform="translate(-397.46 -287.87)" fill="#cb2242"/>
            <path id="Контур_45125" data-name="Контур 45125" d="M407.88,411.8l-.293,2.928H399.93l-.23-2.928Z" transform="translate(-398.414 -340.66)" fill="#cb2242"/>
          </g>
        </g>
        <path id="Контур_45126" data-name="Контур 45126" d="M364.153,216.228c-3.967,5.821-14.678,10.9-14.678,10.9a29.907,29.907,0,0,1-8.915-3.387,26.873,26.873,0,0,0,1.458-5.867c3.662,1.016,6.82,1.561,6.82,1.561,7.727-3.582,16.8-21.641,16.8-21.641C368.137,202.939,364.153,216.228,364.153,216.228Z" transform="translate(-330.869 -170.025)" fill="#5828a7"/>
        <g id="Сгруппировать_8745" data-name="Сгруппировать 8745" transform="translate(27.489)">
          <path id="Контур_45127" data-name="Контур 45127" d="M406.919,191.635c-3.215,2.853-8.921.321-11.928.218-5.379-.178-3.674-.1-8.381.718s-2.951-14.936-3.272-20.757c-.2-3.651-1.647-8.243-1.647-10.086v-.023c-.023-.3-.04-.614-.04-.913-.034-4.432,2.692-12.52,12.3-11.234,0,0,7.968.907,8.875,8.7,0,0,.379,3.593.631,6.194.712,7.365,3.427,3.525,2.56,12.508C405.731,179.925,410.679,188.3,406.919,191.635Z" transform="translate(-375.861 -149.422)" fill="#39222f"/>
          <g id="Сгруппировать_8730" data-name="Сгруппировать 8730" transform="translate(0 25.314)">
            <g id="Сгруппировать_8729" data-name="Сгруппировать 8729">
              <path id="Контур_45128" data-name="Контур 45128" d="M372.389,249c7.836,5.775,25.969.3,25.969.3,2.044-2.5-.792-8.2-1.625-14.873-.7-5.62.109-13.243,1.142-18.88.2-1.056.4-2.044.6-2.933,1.274-5.643,1.4-15.074,1.4-15.074-.982-.505-2.572-1.183-4.179-1.837-1-.408-2.009-.8-2.887-1.148-1.561-.609-2.727-1.039-2.727-1.039l-6.464.993-1.274.39-2.1.643-1.4.425s-.993,6.383-1.94,10.258a15.641,15.641,0,0,1-.746,2.44c-1.079,2.342-.809,3.479.321,6.578a10.173,10.173,0,0,1,.54,2.365c.023.212.046.425.057.649.167,2.618-.35,5.867-1.2,10.27-.993,5.132-3.416,15.04-4.248,18.4A1.962,1.962,0,0,0,372.389,249Z" transform="translate(-371.565 -193.52)" fill="#36c28b"/>
              <g id="Сгруппировать_8728" data-name="Сгруппировать 8728" transform="translate(5.444 9.791)">
                <g id="Сгруппировать_8724" data-name="Сгруппировать 8724" transform="translate(0 14.307)">
                  <path id="Контур_45129" data-name="Контур 45129" d="M381.05,235.5c.023.212.046.425.057.649,3.22,2.721,8.766,6.441,15.091,6.441a.23.23,0,0,0,0-.459C389.77,242.13,384.15,238.2,381.05,235.5Z" transform="translate(-381.05 -235.5)" fill="#00b870"/>
                </g>
                <g id="Сгруппировать_8725" data-name="Сгруппировать 8725" transform="translate(5.992)">
                  <path id="Контур_45130" data-name="Контур 45130" d="M392.006,214.516c3.215,0,6.182-3.416,6.309-3.565a.228.228,0,0,0-.344-.3c-.029.034-3.134,3.616-6.24,3.4a.227.227,0,1,0-.029.453C391.8,214.511,391.9,214.516,392.006,214.516Z" transform="translate(-391.488 -210.576)" fill="#00b870"/>
                </g>
                <g id="Сгруппировать_8726" data-name="Сгруппировать 8726" transform="translate(1.821 20.353)">
                  <path id="Контур_45131" data-name="Контур 45131" d="M396.425,262.139a.224.224,0,0,0,.224-.2.231.231,0,0,0-.2-.253c-8.306-.959-11.745-15.327-11.779-15.476a.226.226,0,1,0-.442.1c.143.6,3.548,14.827,12.17,15.82A.037.037,0,0,0,396.425,262.139Z" transform="translate(-384.223 -246.033)" fill="#00b870"/>
                </g>
                <g id="Сгруппировать_8727" data-name="Сгруппировать 8727" transform="translate(5.308 24.716)">
                  <path id="Контур_45132" data-name="Контур 45132" d="M395.706,261.025a.238.238,0,0,0,.2-.109.224.224,0,0,0-.075-.31,10.73,10.73,0,0,1-5.08-6.779.22.22,0,0,0-.258-.189.224.224,0,0,0-.189.258,10.938,10.938,0,0,0,5.293,7.1A.207.207,0,0,0,395.706,261.025Z" transform="translate(-390.296 -253.634)" fill="#00b870"/>
                </g>
              </g>
            </g>
          </g>
          <g id="Сгруппировать_8744" data-name="Сгруппировать 8744" transform="translate(6.371 3.797)">
            <g id="Сгруппировать_8738" data-name="Сгруппировать 8738">
              <g id="Сгруппировать_8734" data-name="Сгруппировать 8734" transform="translate(0 8.15)">
                <path id="Контур_45133" data-name="Контур 45133" d="M385.388,171.1s-1.372-1.739-2.394-.3.425,5.683,2.922,4.644Z" transform="translate(-382.663 -170.235)" fill="#fd896b"/>
                <path id="Контур_45134" data-name="Контур 45134" d="M385.707,178.474a.453.453,0,1,1-.453-.454A.454.454,0,0,1,385.707,178.474Z" transform="translate(-383.573 -173.551)" fill="#fff"/>
                <g id="Сгруппировать_8732" data-name="Сгруппировать 8732" transform="translate(0.541 1.522)">
                  <g id="Сгруппировать_8731" data-name="Сгруппировать 8731">
                    <path id="Контур_45135" data-name="Контур 45135" d="M385.773,175.271a.2.2,0,0,1-.2-.149,3.193,3.193,0,0,0-1.831-1.848.2.2,0,0,1-.121-.258.21.21,0,0,1,.27-.115,3.549,3.549,0,0,1,2.09,2.112.2.2,0,0,1-.143.247A.3.3,0,0,1,385.773,175.271Z" transform="translate(-383.606 -172.886)" fill="#d65c48"/>
                  </g>
                </g>
                <g id="Сгруппировать_8733" data-name="Сгруппировать 8733" transform="translate(1.055 2.31)">
                  <path id="Контур_45136" data-name="Контур 45136" d="M384.713,175.2a.207.207,0,0,1-.115-.034.193.193,0,0,1-.063-.276,1.887,1.887,0,0,1,.792-.608.219.219,0,0,1,.281.1.2.2,0,0,1-.109.264,1.448,1.448,0,0,0-.608.459A.22.22,0,0,1,384.713,175.2Z" transform="translate(-384.502 -174.259)" fill="#d65c48"/>
                </g>
              </g>
              <path id="Контур_45137" data-name="Контур 45137" d="M400.748,187.22V191.9s-2.422,2.394-4.311,2.554S393.9,192.4,393.9,192.4v-4.845Z" transform="translate(-387.45 -169.32)" fill="#fda893"/>
              <path id="Контур_45138" data-name="Контур 45138" d="M400.748,188.11v2.078c-1.269,1.406-3.519,1.906-6.848,1.412v-3.163Z" transform="translate(-387.45 -169.699)" fill="#fd896b"/>
              <path id="Контур_45139" data-name="Контур 45139" d="M385.807,167.574c.057.505.132,1.016.224,1.521.6,3.387,2.738,7.043,5.448,7.658,5.838,1.326,8.266-3.261,9.2-6.647.1-.373-.092-.809-.011-1.251a33.792,33.792,0,0,0,.718-3.433c.069-.821.115-1.625.149-2.354a4.78,4.78,0,0,0-2.962-4.69c-2.687-1.068-6.762-1.912-10.625.35a4.843,4.843,0,0,0-2.354,4.081A36.248,36.248,0,0,0,385.807,167.574Z" transform="translate(-383.909 -156.574)" fill="#fda893"/>
              <g id="Сгруппировать_8736" data-name="Сгруппировать 8736" transform="translate(7.667 9.872)">
                <g id="Сгруппировать_8735" data-name="Сгруппировать 8735">
                  <path id="Контур_45140" data-name="Контур 45140" d="M397.38,176.986a.229.229,0,0,0,.04-.453l-.781-.132,1.073-2.859a.227.227,0,0,0-.425-.161l-1.269,3.375,1.32.224C397.358,176.98,397.369,176.986,397.38,176.986Z" transform="translate(-396.02 -173.234)" fill="#fd896b"/>
                </g>
              </g>
              <path id="Контур_45141" data-name="Контур 45141" d="M401.967,161.911c-.034.746-.086,1.567-.155,2.4-.379.224-1.3.327-1.343.936-.1,1.613-.178,2.715-.517,2.618-.568-.161-.918-2.112-.27-3.375a5.444,5.444,0,0,0-2.646-1.67,41.258,41.258,0,0,1-5.356-2.606,5.005,5.005,0,0,1-1.435-1.3,4.865,4.865,0,0,1-2.365,2.422c-1.464.666-1.693,2.015-1.866,3.261-.017.144-.04.287-.063.425a4.138,4.138,0,0,1-.4,1.429c-.052.086-.1.1-.155.057-.069-.568-.121-1.131-.155-1.67-.011-.149-.017-.293-.029-.431-.052-1.016-.063-1.957-.046-2.75a4.881,4.881,0,0,1,2.48-4.156c4.07-2.308,8.369-1.447,11.2-.362A4.874,4.874,0,0,1,401.967,161.911Z" transform="translate(-383.726 -156.037)" fill="#39222f"/>
              <path id="Контур_45142" data-name="Контур 45142" d="M392.558,172.507c0,.5-.258.907-.574.907s-.574-.408-.574-.907.258-.907.574-.907S392.558,172.008,392.558,172.507Z" transform="translate(-386.389 -162.666)" fill="#29245d"/>
              <path id="Контур_45143" data-name="Контур 45143" d="M403.738,172.507c0,.5-.258.907-.574.907s-.574-.408-.574-.907.258-.907.574-.907S403.738,172.008,403.738,172.507Z" transform="translate(-391.151 -162.666)" fill="#29245d"/>
              <path id="Контур_45144" data-name="Контур 45144" d="M389.41,168.883a10.98,10.98,0,0,1,2.394-.207c.264.011.471.207.436.413v.006a.368.368,0,0,1-.419.264,12.54,12.54,0,0,0-3.283.207.425.425,0,0,1,.172-.356A1.443,1.443,0,0,1,389.41,168.883Z" transform="translate(-385.164 -161.419)" fill="#39222f"/>
              <path id="Контур_45145" data-name="Контур 45145" d="M404.063,169.054a10.9,10.9,0,0,0-2.394-.235c-.264.006-.476.2-.442.408v.006a.371.371,0,0,0,.413.27,12.605,12.605,0,0,1,3.278.253.435.435,0,0,0-.166-.362A1.37,1.37,0,0,0,404.063,169.054Z" transform="translate(-390.569 -161.48)" fill="#39222f"/>
              <path id="Контур_45146" data-name="Контур 45146" d="M394.01,182.12a2.575,2.575,0,0,0,2.612,2.256,2.486,2.486,0,0,0,2.6-2.256Z" transform="translate(-387.497 -167.147)" fill="#fff"/>
              <g id="Сгруппировать_8737" data-name="Сгруппировать 8737" transform="translate(7.946 17.88)">
                <path id="Контур_45147" data-name="Контур 45147" d="M397.656,187.9a2.254,2.254,0,0,1-1.045-.3.221.221,0,1,1,.23-.379h0a1.826,1.826,0,0,0,.809.241,1.86,1.86,0,0,0,.855-.241.221.221,0,1,1,.23.379A2.224,2.224,0,0,1,397.656,187.9Z" transform="translate(-396.505 -187.185)" fill="#fd896b"/>
              </g>
            </g>
            <g id="Сгруппировать_8743" data-name="Сгруппировать 8743" transform="translate(16.639 7.963)">
              <path id="Контур_45148" data-name="Контур 45148" d="M411.8,170.955s1.6-1.935,2.537-.54-.39,5.516-2.692,4.512Z" transform="translate(-411.65 -169.909)" fill="#fda893"/>
              <path id="Контур_45149" data-name="Контур 45149" d="M413.493,178.473a.454.454,0,0,1-.453.453.454.454,0,1,1,0-.907A.451.451,0,0,1,413.493,178.473Z" transform="translate(-412.046 -173.364)" fill="#fff"/>
              <g id="Сгруппировать_8739" data-name="Сгруппировать 8739" transform="translate(0.303 1.43)">
                <path id="Контур_45150" data-name="Контур 45150" d="M412.374,174.714a.2.2,0,0,0,.189-.144,2.98,2.98,0,0,1,1.688-1.791.2.2,0,1,0-.138-.367,3.35,3.35,0,0,0-1.929,2.055.194.194,0,0,0,.138.241C412.34,174.708,412.357,174.714,412.374,174.714Z" transform="translate(-412.177 -172.401)" fill="#fd896b"/>
              </g>
              <g id="Сгруппировать_8742" data-name="Сгруппировать 8742" transform="translate(0.987 2.192)">
                <g id="Сгруппировать_8741" data-name="Сгруппировать 8741">
                  <g id="Сгруппировать_8740" data-name="Сгруппировать 8740">
                    <path id="Контур_45151" data-name="Контур 45151" d="M414.213,174.636a.215.215,0,0,0,.1-.029.194.194,0,0,0,.057-.27,1.754,1.754,0,0,0-.729-.591.2.2,0,0,0-.161.356,1.389,1.389,0,0,1,.563.442A.194.194,0,0,0,414.213,174.636Z" transform="translate(-413.369 -173.729)" fill="#fd896b"/>
                  </g>
                </g>
              </g>
            </g>
          </g>
        </g>
        <g id="Сгруппировать_8762" data-name="Сгруппировать 8762" transform="translate(0.491 23.344)">
          <circle id="Эллипс_867" data-name="Эллипс 867" cx="23.34" cy="23.34" r="23.34" transform="matrix(0.998, -0.07, 0.07, 0.998, 0, 3.268)" fill="#29245d"/>
          <g id="Сгруппировать_8761" data-name="Сгруппировать 8761" transform="translate(5.551 5.48)">
            <path id="Контур_45152" data-name="Контур 45152" d="M372.231,214.043a19.347,19.347,0,0,1-21.423,24.075c-.293-.04-.585-.092-.873-.143a19.251,19.251,0,0,1-6.125-2.29c-.31-.178-.614-.367-.913-.563a19.275,19.275,0,0,1-4.661-4.317,19.116,19.116,0,0,1-3.387-6.883,19.309,19.309,0,0,1,13.76-23.622,19.592,19.592,0,0,1,3.846-.614,19.237,19.237,0,0,1,9.873,2.084c.316.161.631.333.941.517a19.2,19.2,0,0,1,5.017,4.2c.189.224.379.453.557.689a19.26,19.26,0,0,1,2.411,4.064A18.213,18.213,0,0,1,372.231,214.043Z" transform="translate(-334.202 -199.643)" fill="#fceaf9"/>
            <g id="Сгруппировать_8760" data-name="Сгруппировать 8760" transform="translate(4.104 4.091)">
              <g id="Сгруппировать_8748" data-name="Сгруппировать 8748" transform="translate(10.981)">
                <g id="Сгруппировать_8746" data-name="Сгруппировать 8746">
                  <path id="Контур_45153" data-name="Контур 45153" d="M361.646,210.274h0a.324.324,0,0,1-.4-.23l-.758-2.876a.324.324,0,0,1,.23-.4h0a.324.324,0,0,1,.4.23l.758,2.876A.324.324,0,0,1,361.646,210.274Z" transform="translate(-360.481 -206.761)" fill="#0c375a"/>
                </g>
                <g id="Сгруппировать_8747" data-name="Сгруппировать 8747" transform="translate(7.118 26.968)">
                  <path id="Контур_45154" data-name="Контур 45154" d="M374.046,257.254h0a.324.324,0,0,1-.4-.23l-.758-2.876a.325.325,0,0,1,.23-.4h0a.324.324,0,0,1,.4.23l.758,2.876A.325.325,0,0,1,374.046,257.254Z" transform="translate(-372.881 -253.741)" fill="#0c375a"/>
                </g>
              </g>
              <g id="Сгруппировать_8751" data-name="Сгруппировать 8751" transform="translate(0 10.979)">
                <g id="Сгруппировать_8749" data-name="Сгруппировать 8749" transform="translate(0 7.12)">
                  <path id="Контур_45155" data-name="Контур 45155" d="M344.864,238.532h0a.324.324,0,0,1-.23.4l-2.876.758a.324.324,0,0,1-.4-.23h0a.324.324,0,0,1,.23-.4l2.876-.758A.324.324,0,0,1,344.864,238.532Z" transform="translate(-341.351 -238.291)" fill="#0c375a"/>
                </g>
                <g id="Сгруппировать_8750" data-name="Сгруппировать 8750" transform="translate(26.962)">
                  <path id="Контур_45156" data-name="Контур 45156" d="M391.834,226.13h0a.324.324,0,0,1-.23.4l-2.876.758a.325.325,0,0,1-.4-.23h0a.324.324,0,0,1,.23-.4l2.876-.758A.316.316,0,0,1,391.834,226.13Z" transform="translate(-388.321 -225.887)" fill="#0c375a"/>
                </g>
              </g>
              <g id="Сгруппировать_8754" data-name="Сгруппировать 8754" transform="translate(7.152 1.454)">
                <g id="Сгруппировать_8752" data-name="Сгруппировать 8752" transform="translate(13.906 0)">
                  <rect id="Прямоугольник_6768" data-name="Прямоугольник 6768" width="3.628" height="0.649" transform="matrix(0.503, -0.864, 0.864, 0.503, 0, 3.135)" fill="#0c375a"/>
                </g>
                <g id="Сгруппировать_8753" data-name="Сгруппировать 8753" transform="translate(0 24.229)">
                  <path id="Контур_45157" data-name="Контур 45157" d="M353.971,254.68h0a.326.326,0,0,1-.115-.448l1.5-2.572a.326.326,0,0,1,.448-.115h0a.326.326,0,0,1,.115.448l-1.5,2.572A.334.334,0,0,1,353.971,254.68Z" transform="translate(-353.811 -251.501)" fill="#0c375a"/>
                </g>
              </g>
              <g id="Сгруппировать_8757" data-name="Сгруппировать 8757" transform="translate(1.578 7.147)">
                <g id="Сгруппировать_8755" data-name="Сгруппировать 8755">
                  <path id="Контур_45158" data-name="Контур 45158" d="M347.28,221.2h0a.326.326,0,0,1-.448.115l-2.572-1.5a.326.326,0,0,1-.115-.448h0a.326.326,0,0,1,.448-.115l2.572,1.5A.338.338,0,0,1,347.28,221.2Z" transform="translate(-344.101 -219.211)" fill="#0c375a"/>
                </g>
                <g id="Сгруппировать_8756" data-name="Сгруппировать 8756" transform="translate(24.098 14.041)">
                  <path id="Контур_45159" data-name="Контур 45159" d="M389.26,245.656h0a.326.326,0,0,1-.448.115l-2.572-1.5a.321.321,0,0,1-.115-.442h0a.326.326,0,0,1,.448-.115l2.572,1.5A.319.319,0,0,1,389.26,245.656Z" transform="translate(-386.081 -243.671)" fill="#0c375a"/>
                </g>
              </g>
              <g id="Сгруппировать_8758" data-name="Сгруппировать 8758" transform="translate(14.947 14.855)">
                <path id="Контур_45160" data-name="Контур 45160" d="M373.676,233.937l-6.286-.741.063-.557,6.286.741a.279.279,0,0,1,.247.31h0A.279.279,0,0,1,373.676,233.937Z" transform="translate(-367.39 -232.64)" fill="#fa5f2d"/>
              </g>
              <g id="Сгруппировать_8759" data-name="Сгруппировать 8759" transform="translate(5.696 7.349)">
                <path id="Контур_45161" data-name="Контур 45161" d="M361.156,227.655l-9.535,2.514a.275.275,0,0,1-.339-.2h0a.275.275,0,0,1,.2-.339l9-2.376-1.94-7.342a.275.275,0,0,1,.2-.339h0a.275.275,0,0,1,.339.2Z" transform="translate(-351.274 -219.564)" fill="#0c375a"/>
              </g>
            </g>
            <path id="Контур_45162" data-name="Контур 45162" d="M363.827,201.75,344.408,235.1a19.274,19.274,0,0,1-4.661-4.317,18.987,18.987,0,0,1-2.026-3.238l16.234-27.881a19.237,19.237,0,0,1,9.873,2.084Z" transform="translate(-335.7 -199.634)" fill="#fff" opacity="0.5"/>
            <path id="Контур_45163" data-name="Контур 45163" d="M382.938,216.277l-15.711,26.985a19.148,19.148,0,0,1-4.724-.086c-.293-.04-.586-.092-.872-.144l18.34-31.5c.189.224.379.453.557.689A18.844,18.844,0,0,1,382.938,216.277Z" transform="translate(-345.885 -204.702)" fill="#fff" opacity="0.5"/>
          </g>
        </g>
        <path id="Контур_45164" data-name="Контур 45164" d="M324.6,229.48s2.508.189,3.324,1.045-2.612,1.137-2.612,1.137,4.139-.31,4.4.666-3.749,1.389-3.749,1.389,2.836.218,3.111.947-2.641,1.148-2.641,1.148,2.227.4,2.5.93-2.147,1.177-3.45,1.056-.781-1.8-.781-1.8-.654-1.406-.224-2c0,0-.781-1.234-.522-2.032C323.96,231.966,323.007,229.9,324.6,229.48Z" transform="translate(-323.677 -183.524)" fill="#fda893"/>
        <g id="Сгруппировать_8768" data-name="Сгруппировать 8768" transform="translate(19.718 29.338)">
          <path id="Контур_45165" data-name="Контур 45165" d="M367.483,263.608l-.878.448a2.158,2.158,0,0,1-2.325-.287c-.316-.23-.815-.695-1.056-.815a5.494,5.494,0,0,0-2.715-.511c-.436.184.04.93.511,1.119a7.923,7.923,0,0,1,1.659.752c.5.356-1.315,2.509-2.141,3.215s-2.721,1.033-2.491,1.889,1.527.35,1.527.35-.006.884,1.309.947a1.061,1.061,0,0,0,1.01.809,1.184,1.184,0,0,0,1.251.746c.884-.161,3.639-.677,6.906-5.918Z" transform="translate(-358.027 -226.881)" fill="#fda893"/>
          <g id="Сгруппировать_8767" data-name="Сгруппировать 8767" transform="translate(9.462)">
            <g id="Сгруппировать_8766" data-name="Сгруппировать 8766">
              <g id="Сгруппировать_8765" data-name="Сгруппировать 8765">
                <g id="Сгруппировать_8764" data-name="Сгруппировать 8764">
                  <g id="Сгруппировать_8763" data-name="Сгруппировать 8763">
                    <path id="Контур_45166" data-name="Контур 45166" d="M394.377,216.873a31.023,31.023,0,0,1-3.909,11.027s-3.174,1.889-8.031,5.109a66.154,66.154,0,0,1-7.927,4.248c.884,1.148,1.934,3.5,1.59,4.185,9.776-2.193,19.374-8.6,19.374-8.6,7.64-8.857,7.491-28.627,7.491-28.627s-.247-2.933-1.837-3.68a7.784,7.784,0,0,0-4.311,4.942C395.709,209.232,394.377,216.873,394.377,216.873Z" transform="translate(-374.51 -200.53)" fill="#018e57"/>
                  </g>
                </g>
              </g>
            </g>
          </g>
        </g>
        <g id="Сгруппировать_8774" data-name="Сгруппировать 8774" transform="translate(35.339 12.014)">
          <g id="Сгруппировать_8769" data-name="Сгруппировать 8769" transform="translate(8.306 0.172)">
            <path id="Контур_45167" data-name="Контур 45167" d="M399.71,171.678v.39a2.891,2.891,0,0,0,2.887,2.9h.092a2.584,2.584,0,0,0,1.8-.8,2.835,2.835,0,0,0,.838-2.038v-.459a.966.966,0,0,0-.069-.362,1.08,1.08,0,0,0-.23-.362,1.011,1.011,0,0,0-.718-.3h-3.582a1.009,1.009,0,0,0-.918.58.914.914,0,0,0-.1.413Zm.425,0a.6.6,0,0,1,.6-.6h3.582a.6.6,0,0,1,.6.6v.459a2.433,2.433,0,0,1-.706,1.734,2.2,2.2,0,0,1-1.51.677h-.086a2.431,2.431,0,0,1-1.734-.718,2.48,2.48,0,0,1-.735-1.762v-.39Z" transform="translate(-399.71 -170.65)" fill="#fff"/>
          </g>
          <g id="Сгруппировать_8770" data-name="Сгруппировать 8770" transform="translate(1.131 0.178)">
            <path id="Контур_45168" data-name="Контур 45168" d="M387.21,171.682v.39a2.891,2.891,0,0,0,2.887,2.9h.1a2.584,2.584,0,0,0,1.8-.8,2.835,2.835,0,0,0,.838-2.038v-.476a.994.994,0,0,0-.086-.39,1.01,1.01,0,0,0-.93-.608h-3.582a1.007,1.007,0,0,0-.781.367.919.919,0,0,0-.2.379A.866.866,0,0,0,387.21,171.682Zm.425,0a.6.6,0,0,1,.6-.6h3.582a.6.6,0,0,1,.6.6v.459a2.433,2.433,0,0,1-.706,1.734,2.2,2.2,0,0,1-1.51.677h-.086a2.431,2.431,0,0,1-1.734-.718,2.48,2.48,0,0,1-.735-1.762v-.39Z" transform="translate(-387.21 -170.66)" fill="#fff"/>
          </g>
          <g id="Сгруппировать_8771" data-name="Сгруппировать 8771" transform="translate(13.685)">
            <path id="Контур_45169" data-name="Контур 45169" d="M411.617,170.35a4.955,4.955,0,0,0-2.176.476c-.1.046-.35.212-.362.218l.2.362s.281-.166.39-.218a4.206,4.206,0,0,1,1.36-.385Z" transform="translate(-409.08 -170.35)" fill="#fff"/>
          </g>
          <g id="Сгруппировать_8772" data-name="Сгруппировать 8772" transform="translate(6.297 0.597)">
            <path id="Контур_45170" data-name="Контур 45170" d="M398.5,172l.138-.4a4.22,4.22,0,0,0-1.269-.212,2.775,2.775,0,0,0-1.16.224l.184.379a2.559,2.559,0,0,1,.976-.178A4.012,4.012,0,0,1,398.5,172Z" transform="translate(-396.21 -171.39)" fill="#fff"/>
          </g>
          <g id="Сгруппировать_8773" data-name="Сгруппировать 8773" transform="translate(0 0.149)">
            <path id="Контур_45171" data-name="Контур 45171" d="M386.773,171.081l-.184.379a5.429,5.429,0,0,0-.608-.235,4.917,4.917,0,0,0-.712-.184c-.011-.149-.017-.293-.029-.431a5.435,5.435,0,0,1,.8.189A5.588,5.588,0,0,1,386.773,171.081Z" transform="translate(-385.24 -170.61)" fill="#fff"/>
          </g>
        </g>
      </g>
      <g id="Сгруппировать_8804" data-name="Сгруппировать 8804" transform="translate(101.211 0)">
        <path id="Контур_45172" data-name="Контур 45172" d="M236.469,147.409c-.011-.344,1-1.033,2-1.619-.017-.034-.04-.075-.057-.109-1.435.649-3.932,1.676-3.875.918.04-.494,2.147-1.441,3.433-1.975-.023-.069-.052-.138-.075-.212-1.544.614-4.569,1.711-4.46.861.075-.568,2.727-1.561,4.1-2.038l-.052-.189c-1.326.465-3.9,1.269-3.794.419.1-.769,4.139-1.791,4.139-1.791h0l1.458-.568s-.126-.528-1.292-.626-1.848-.746-.442-.993c1.584-.276,3.06-.023,4.156-.253a3.157,3.157,0,0,1,2.262.769l1.676,2.491s-3.714,3.5-6.32,4.047h0C238.065,147.254,236.486,148.012,236.469,147.409Z" transform="translate(-216.938 -86.737)" fill="#fda893"/>
        <g id="Сгруппировать_8776" data-name="Сгруппировать 8776" transform="translate(0 26.752)">
          <path id="Контур_45173" data-name="Контур 45173" d="M230,94.41l-7.864,21.624,6.395.006,4.753-9.253S232.794,95.9,230,94.41Z" transform="translate(-212.127 -94.41)" fill="#018e57"/>
          <path id="Контур_45174" data-name="Контур 45174" d="M212.907,129.957s-.551,2.376-1.487,3.031-.7-2.664-.7-2.664-.316,4.007-1.286,4.116-.775-3.794-.775-3.794-.626,2.681-1.36,2.841-.712-2.7-.712-2.7-.712,2.078-1.257,2.256-.809-2.233-.505-3.456,1.837-.482,1.837-.482,1.447-.419,1.946.08c0,0,1.3-.563,2.021-.2C210.623,128.975,212.735,128.361,212.907,129.957Z" transform="translate(-204.696 -109.085)" fill="#fda893"/>
        </g>
        <path id="Контур_45175" data-name="Контур 45175" d="M247.227,69.656q-6.062,2.135-12.158,4.167a4.178,4.178,0,0,1-5.166-2.359.1.1,0,0,1-.011-.029c-1.355-3.215-4.127-6.883-4.724-8.542l-.006-.023c-.121-.27-.23-.54-.333-.809-1.458-3.972-1.6-12.124,7.451-14.052,0,0,7.457-1.739,10.775,4.971,0,0,1.493,3.111,2.554,5.367a9.6,9.6,0,0,0,2.933,4.041,4.167,4.167,0,0,1-1.177,7.216Z" transform="translate(-212.955 -47.807)" fill="#39222f"/>
        <g id="Сгруппировать_8783" data-name="Сгруппировать 8783" transform="translate(17.878 23.32)">
          <g id="Сгруппировать_8777" data-name="Сгруппировать 8777" transform="translate(0 0.004)">
            <path id="Контур_45176" data-name="Контур 45176" d="M238.986,113.5c.063-3.065.2-1.1-.333-4.81-.017-.144-.034-.293-.052-.442a2.736,2.736,0,0,1-.138-.253,14.088,14.088,0,0,1-1.544-3.352c-.89-3.341-.224-5.459.017-7.56-.2-.97-.878-4.248-1.1-5.212l4.282-1.653.89-.344.052-.023h0l.913-.35.069-.023a15.337,15.337,0,0,1,6.481-1c.144.011.287.017.431.034l1.636.144.063.006,1.051.092,6.085.54.448,24.207C251.368,113.5,245.444,113.5,238.986,113.5Z" transform="translate(-235.84 -88.438)" fill="#36c28b"/>
          </g>
          <g id="Сгруппировать_8780" data-name="Сгруппировать 8780" transform="translate(4.277)">
            <g id="Сгруппировать_8779" data-name="Сгруппировать 8779">
              <g id="Сгруппировать_8778" data-name="Сгруппировать 8778">
                <path id="Контур_45177" data-name="Контур 45177" d="M254.88,88.741c-1.986,4-6.848,8.473-9.34,7.1-1.533-.85-2.158-3.628-2.25-5.626l.9-.344.052-.023h0l.913-.35.069-.029a15.428,15.428,0,0,1,6.481-1c.075.011.149.023.224.029s.138.017.207.023l1.636.121.063.006Z" transform="translate(-243.29 -88.432)" fill="#fda893"/>
              </g>
            </g>
          </g>
          <g id="Сгруппировать_8782" data-name="Сгруппировать 8782" transform="translate(2.612 18.36)">
            <g id="Сгруппировать_8781" data-name="Сгруппировать 8781">
              <path id="Контур_45178" data-name="Контур 45178" d="M240.534,121.864c.017.149.04.293.052.442,1.056.224,4.368.689,9.994-.66q1.094-.258,2.308-.62a.315.315,0,0,0,.212-.39.31.31,0,0,0-.39-.207c-8.123,2.411-12.267,1.2-12.307,1.188-.006,0-.006,0-.011-.006C240.436,121.7,240.482,121.778,240.534,121.864Z" transform="translate(-240.39 -120.415)" fill="#00b870"/>
            </g>
          </g>
        </g>
        <g id="Сгруппировать_8797" data-name="Сгруппировать 8797" transform="translate(12.814 3.384)">
          <g id="Сгруппировать_8791" data-name="Сгруппировать 8791">
            <g id="Сгруппировать_8787" data-name="Сгруппировать 8787" transform="translate(0.196 10.733)">
              <path id="Контур_45179" data-name="Контур 45179" d="M229.662,72.778s-1.791-1.125-2.25.5,2.2,4.977,4.116,3.238Z" transform="translate(-227.361 -72.399)" fill="#fd896b"/>
              <path id="Контур_45180" data-name="Контур 45180" d="M232.082,79.516a.436.436,0,1,1-.557-.264A.439.439,0,0,1,232.082,79.516Z" transform="translate(-229.011 -75.307)" fill="#fff"/>
              <g id="Сгруппировать_8784" data-name="Сгруппировать 8784" transform="translate(0.597 1.585)">
                <path id="Контур_45181" data-name="Контур 45181" d="M231.064,76.687a.2.2,0,0,1-.23-.069,3.046,3.046,0,0,0-2.239-1.073.194.194,0,0,1-.2-.2.2.2,0,0,1,.207-.189,3.4,3.4,0,0,1,2.554,1.228.19.19,0,0,1-.052.27A.1.1,0,0,1,231.064,76.687Z" transform="translate(-228.4 -75.16)" fill="#d65c48"/>
              </g>
              <g id="Сгруппировать_8786" data-name="Сгруппировать 8786" transform="translate(1.485 1.902)">
                <g id="Сгруппировать_8785" data-name="Сгруппировать 8785">
                  <path id="Контур_45182" data-name="Контур 45182" d="M230.213,76.79a.194.194,0,0,1-.115.006.183.183,0,0,1-.144-.23,1.813,1.813,0,0,1,.517-.8.2.2,0,0,1,.281,0,.186.186,0,0,1-.011.27,1.44,1.44,0,0,0-.4.608A.182.182,0,0,1,230.213,76.79Z" transform="translate(-229.948 -75.713)" fill="#d65c48"/>
                </g>
              </g>
            </g>
            <path id="Контур_45183" data-name="Контур 45183" d="M248.41,81.05l1.67,4.684s-1.579,2.457-3.22,3.209-2.945-1.039-2.945-1.039l-1.556-4.357Z" transform="translate(-233.554 -65.351)" fill="#fda893"/>
            <path id="Контур_45184" data-name="Контур 45184" d="M248.7,81.85l.666,1.866c-.689,1.67-2.549,2.841-5.7,3.467l-1.016-2.841Z" transform="translate(-233.678 -65.692)" fill="#fd896b"/>
            <path id="Контур_45185" data-name="Контур 45185" d="M229.714,67.433c.218.431.442.873.689,1.3,1.625,2.853,4.724,5.453,7.353,5.138,5.677-.683,6.383-5.585,6.136-8.932-.029-.373-.339-.695-.408-1.125a32.786,32.786,0,0,0-.459-3.318c-.2-.758-.419-1.5-.626-2.164a4.571,4.571,0,0,0-4.168-3.266c-2.755-.1-6.693.453-9.443,3.731a4.6,4.6,0,0,0-.8,4.426A36,36,0,0,0,229.714,67.433Z" transform="translate(-227.326 -54.277)" fill="#fda893"/>
            <g id="Сгруппировать_8789" data-name="Сгруппировать 8789" transform="translate(8.341 9.804)">
              <g id="Сгруппировать_8788" data-name="Сгруппировать 8788">
                <path id="Контур_45186" data-name="Контур 45186" d="M242.847,74.2a.211.211,0,0,0,.138-.241.22.22,0,0,0-.253-.178l-.741.132L242.038,71a.215.215,0,0,0-.431-.006l-.057,3.438,1.263-.224A.073.073,0,0,0,242.847,74.2Z" transform="translate(-241.55 -70.78)" fill="#fd896b"/>
              </g>
            </g>
            <path id="Контур_45187" data-name="Контур 45187" d="M229.6,61.008c-1.716,1.67-.2,3.875-.453,5.344-.017.1-.057.126-.121.1a34.029,34.029,0,0,1-1.762-4.294,4.666,4.666,0,0,1,.9-4.535c2.922-3.381,7.061-3.99,9.954-3.921A4.65,4.65,0,0,1,242.45,57c.207.683.425,1.435.631,2.21-.27.327-1.068.712-.907,1.274.425,1.481.706,2.5.373,2.52-.563.034-1.5-1.607-1.326-2.951a5.166,5.166,0,0,0-2.916-.649,39.231,39.231,0,0,1-5.654-.626,4.756,4.756,0,0,1-1.711-.712A4.578,4.578,0,0,1,229.6,61.008Z" transform="translate(-227.02 -53.701)" fill="#39222f"/>
            <path id="Контур_45188" data-name="Контур 45188" d="M236.707,71.816c.161.448.057.9-.224,1s-.649-.178-.809-.631-.057-.9.224-1S236.552,71.368,236.707,71.816Z" transform="translate(-230.674 -61.139)" fill="#29245d"/>
            <path id="Контур_45189" data-name="Контур 45189" d="M246.457,68.337c.161.448.057.9-.224,1s-.649-.178-.809-.631-.057-.9.224-1S246.3,67.889,246.457,68.337Z" transform="translate(-234.827 -59.658)" fill="#29245d"/>
            <path id="Контур_45190" data-name="Контур 45190" d="M232.44,69.045a10.433,10.433,0,0,1,2.089-.953.393.393,0,0,1,.528.235v.006a.356.356,0,0,1-.293.373,12.036,12.036,0,0,0-2.887,1.24.418.418,0,0,1,.04-.379A1.305,1.305,0,0,1,232.44,69.045Z" transform="translate(-229.076 -59.821)" fill="#39222f"/>
            <path id="Контур_45191" data-name="Контур 45191" d="M245.557,64.756a10.718,10.718,0,0,0-2.227.557.389.389,0,0,0-.264.511v.006a.351.351,0,0,0,.459.109,11.936,11.936,0,0,1,3.031-.827c-.017-.115-.126-.207-.27-.27A1.241,1.241,0,0,0,245.557,64.756Z" transform="translate(-233.841 -58.402)" fill="#39222f"/>
            <path id="Контур_45192" data-name="Контур 45192" d="M240.63,79.02a2.464,2.464,0,0,0,3.071,1.194,2.372,2.372,0,0,0,1.613-2.864Z" transform="translate(-232.817 -63.775)" fill="#fff"/>
            <g id="Сгруппировать_8790" data-name="Сгруппировать 8790" transform="translate(10.097 16.718)">
              <path id="Контур_45193" data-name="Контур 45193" d="M245.809,83.786a2.227,2.227,0,0,1-1.033.063.212.212,0,0,1,.092-.413h0a1.738,1.738,0,0,0,.8-.046,1.816,1.816,0,0,0,.689-.488.212.212,0,0,1,.327.27A2.365,2.365,0,0,1,245.809,83.786Z" transform="translate(-244.609 -82.825)" fill="#fd896b"/>
            </g>
          </g>
          <g id="Сгруппировать_8796" data-name="Сгруппировать 8796" transform="translate(15.143 5.046)">
            <path id="Контур_45194" data-name="Контур 45194" d="M253.4,64.029s.815-2.256,2.107-1.3,1.424,5.086-.976,4.925Z" transform="translate(-253.4 -62.491)" fill="#fda893"/>
            <path id="Контур_45195" data-name="Контур 45195" d="M257.062,70.6a.436.436,0,1,1-.557-.264A.435.435,0,0,1,257.062,70.6Z" transform="translate(-254.599 -65.82)" fill="#fff"/>
            <g id="Сгруппировать_8792" data-name="Сгруппировать 8792" transform="translate(0.918 1.179)">
              <path id="Контур_45196" data-name="Контур 45196" d="M255.258,67.217a.189.189,0,0,0,.121-.189,2.866,2.866,0,0,1,.941-2.153.187.187,0,1,0-.241-.287,3.222,3.222,0,0,0-1.073,2.463.187.187,0,0,0,.2.172A.159.159,0,0,0,255.258,67.217Z" transform="translate(-255 -64.545)" fill="#fd896b"/>
            </g>
            <g id="Сгруппировать_8795" data-name="Сгруппировать 8795" transform="translate(1.171 2.232)">
              <g id="Сгруппировать_8794" data-name="Сгруппировать 8794">
                <g id="Сгруппировать_8793" data-name="Сгруппировать 8793">
                  <path id="Контур_45197" data-name="Контур 45197" d="M256.433,66.994a.188.188,0,0,0,.086-.063.183.183,0,0,0-.034-.258,1.694,1.694,0,0,0-.844-.293.187.187,0,1,0-.029.373,1.323,1.323,0,0,1,.649.218A.185.185,0,0,0,256.433,66.994Z" transform="translate(-255.439 -66.379)" fill="#fd896b"/>
                </g>
              </g>
            </g>
          </g>
        </g>
        <g id="Сгруппировать_8803" data-name="Сгруппировать 8803" transform="translate(26.235 24.174)">
          <g id="Сгруппировать_8802" data-name="Сгруппировать 8802">
            <g id="Сгруппировать_8801" data-name="Сгруппировать 8801">
              <g id="Сгруппировать_8800" data-name="Сгруппировать 8800">
                <g id="Сгруппировать_8799" data-name="Сгруппировать 8799">
                  <g id="Сгруппировать_8798" data-name="Сгруппировать 8798">
                    <path id="Контур_45198" data-name="Контур 45198" d="M251.835,122.428s9.041-1.148,20.866-8.3l.35-.121h0c.241-3.634-2.055-9.747-3.662-15.1-1.062-3.536-2.457-7.8-5.39-8.989a11.308,11.308,0,0,0-1.538,4.4,22.592,22.592,0,0,0,1.263,7.933c.827,2.468,1.406,5.626,2.164,8.094l.075.339c-.092.023-3.22,1.757-7.491,3.726-4.678,2.153-8.071,4.1-8.071,4.1C251.9,119.867,251.835,122.428,251.835,122.428Z" transform="translate(-250.4 -89.92)" fill="#018e57"/>
                  </g>
                </g>
              </g>
            </g>
          </g>
        </g>
      </g>
    </g>
  </g>
</svg>
