<svg xmlns="http://www.w3.org/2000/svg" width="64.188" height="40.116" viewBox="0 0 64.188 40.116">
  <g id="hand-shake" transform="translate(0 -96.003)">
    <g id="Сгруппировать_7981" data-name="Сгруппировать 7981" transform="translate(9.358 98.844)">
      <g id="Сгруппировать_7980" data-name="Сгруппировать 7980">
        <path id="Контур_44357" data-name="Контур 44357" d="M115.966,143.324c-1.26-2.626-5.766-6.272-10.12-9.794-2.428-1.963-4.723-3.819-6.186-5.282a1.337,1.337,0,0,0-1.4-.313c-.9.326-1.458.578-1.9.773a4.422,4.422,0,0,1-1.795.492,1.337,1.337,0,0,0-.979.586c-1.891,2.827-3.849,2.586-5.156,2.148-.417-.139-.492-.318-.532-.489-.281-1.174,1.129-3.907,2.955-5.734,4.346-4.349,6.587-5.437,11.321-3.322,5.37,2.4,10.751,4.282,10.8,4.3a1.338,1.338,0,1,0,.88-2.527c-.054-.019-5.328-1.861-10.591-4.218-6.133-2.741-9.5-.936-14.3,3.873-1.829,1.829-4.314,5.531-3.672,8.245a3.308,3.308,0,0,0,2.3,2.41c3.03,1,5.8.043,7.855-2.69a6.752,6.752,0,0,0,2.008-.636c.251-.112.546-.243.936-.4,1.53,1.436,3.595,3.108,5.769,4.865,3.931,3.18,8.39,6.785,9.393,8.871a1.567,1.567,0,0,1-.4,2.009,1.474,1.474,0,0,1-1.647.324,1.337,1.337,0,0,0-2.089,1.244,1.616,1.616,0,0,1-1.024,1.506,2.052,2.052,0,0,1-2.083.048,1.337,1.337,0,0,0-2.244.853,2.541,2.541,0,0,1-1.578,2.049,1.41,1.41,0,0,1-1.535-.238,1.353,1.353,0,0,0-1.222-.31,1.335,1.335,0,0,0-.939.842c-.051.134-.166.455-1.418.455a7.7,7.7,0,0,1-3.276-1.121c-.939-.618-6.825-5.009-11.909-9.267-.714-.6-1.95-1.891-3.041-3.03-.968-1.011-1.853-1.928-2.308-2.313a1.338,1.338,0,0,0-1.728,2.043c.415.35,1.217,1.2,2.1,2.121,1.193,1.246,2.426,2.535,3.255,3.231,4.98,4.17,10.965,8.671,12.158,9.454a10.26,10.26,0,0,0,4.747,1.557,4.6,4.6,0,0,0,3.035-.893,4.163,4.163,0,0,0,3.041-.032,5.268,5.268,0,0,0,2.784-2.57,5.171,5.171,0,0,0,3.356-.484,4.537,4.537,0,0,0,2.233-2.332,4.373,4.373,0,0,0,3.068-1.1A4.252,4.252,0,0,0,115.966,143.324Z" transform="translate(-74.642 -118.658)" fill="#00b870"/>
      </g>
    </g>
    <g id="Сгруппировать_7983" data-name="Сгруппировать 7983" transform="translate(13.372 101.352)">
      <g id="Сгруппировать_7982" data-name="Сгруппировать 7982" transform="translate(0 0)">
        <path id="Контур_44358" data-name="Контур 44358" d="M120.038,138.663H108a1.337,1.337,0,0,0,0,2.675h12.035a1.337,1.337,0,1,0,0-2.675Z" transform="translate(-106.666 -138.663)" fill="#00b870"/>
      </g>
    </g>
    <g id="Сгруппировать_7985" data-name="Сгруппировать 7985" transform="translate(48.242 120.071)">
      <g id="Сгруппировать_7984" data-name="Сгруппировать 7984" transform="translate(0 0)">
        <path id="Контур_44359" data-name="Контур 44359" d="M391.168,288.571a1.334,1.334,0,0,0-1.856-.364l-3.91,2.626a1.337,1.337,0,0,0,1.493,2.22l3.91-2.626A1.338,1.338,0,0,0,391.168,288.571Z" transform="translate(-384.811 -287.977)" fill="#00b870"/>
      </g>
    </g>
    <g id="Сгруппировать_7987" data-name="Сгруппировать 7987" transform="translate(36.107 118.734)">
      <g id="Сгруппировать_7986" data-name="Сгруппировать 7986" transform="translate(0 0)">
        <path id="Контур_44360" data-name="Контур 44360" d="M298.206,285.629c-.957-.754-5.239-5.138-7.887-7.9a1.337,1.337,0,1,0-1.931,1.851c.687.717,6.75,7.037,8.16,8.149a1.332,1.332,0,0,0,.826.286,1.351,1.351,0,0,0,1.054-.511A1.336,1.336,0,0,0,298.206,285.629Z" transform="translate(-288.016 -277.317)" fill="#00b870"/>
      </g>
    </g>
    <g id="Сгруппировать_7989" data-name="Сгруппировать 7989" transform="translate(32.094 122.748)">
      <g id="Сгруппировать_7988" data-name="Сгруппировать 7988" transform="translate(0 0)">
        <path id="Контур_44361" data-name="Контур 44361" d="M264.865,316.316c-1.6-1.281-5.627-5.558-6.536-6.547a1.338,1.338,0,0,0-1.971,1.811c.048.051,4.852,5.237,6.836,6.825a1.338,1.338,0,0,0,1.672-2.089Z" transform="translate(-256.005 -309.337)" fill="#00b870"/>
      </g>
    </g>
    <g id="Сгруппировать_7991" data-name="Сгруппировать 7991" transform="translate(26.746 125.419)">
      <g id="Сгруппировать_7990" data-name="Сгруппировать 7990">
        <path id="Контур_44362" data-name="Контур 44362" d="M222.229,337.645c-1.907-1.607-5.809-5.761-6.571-6.577A1.338,1.338,0,1,0,213.7,332.9c1.1,1.174,4.83,5.132,6.8,6.8a1.338,1.338,0,0,0,1.725-2.046Z" transform="translate(-213.343 -330.644)" fill="#00b870"/>
      </g>
    </g>
    <g id="Сгруппировать_7993" data-name="Сгруппировать 7993" transform="translate(0 96.003)">
      <g id="Сгруппировать_7992" data-name="Сгруппировать 7992" transform="translate(0 0)">
        <path id="Контур_44363" data-name="Контур 44363" d="M15.63,99.044c-2.292-2.172-11.457-2.875-14.212-3.038A1.336,1.336,0,0,0,0,97.34v24.07a1.338,1.338,0,0,0,1.337,1.337H9.361a1.336,1.336,0,0,0,1.27-.923c.2-.6,4.8-14.742,5.41-21.7A1.33,1.33,0,0,0,15.63,99.044ZM8.384,120.073H2.674v-21.3c4.3.34,8.935,1.078,10.62,1.9C12.586,106.527,9.379,116.933,8.384,120.073Z" transform="translate(0 -96.003)" fill="#00b870"/>
      </g>
    </g>
    <g id="Сгруппировать_7995" data-name="Сгруппировать 7995" transform="translate(45.514 98.677)">
      <g id="Сгруппировать_7994" data-name="Сгруппировать 7994" transform="translate(0 0)">
        <path id="Контур_44364" data-name="Контур 44364" d="M380.383,117.33c-10.5,0-16.325,2.688-16.568,2.8a1.33,1.33,0,0,0-.714.832,1.349,1.349,0,0,0,.147,1.086c1.653,2.661,6.828,17.44,7.823,21.045a1.337,1.337,0,0,0,1.289.982h8.023a1.338,1.338,0,0,0,1.337-1.337v-24.07A1.336,1.336,0,0,0,380.383,117.33Zm-1.337,24.07H373.36c-1.268-4.129-5.012-14.9-7.1-19.347a43.555,43.555,0,0,1,12.787-2.033Z" transform="translate(-363.046 -117.33)" fill="#00b870"/>
      </g>
    </g>
  </g>
</svg>
