<svg xmlns="http://www.w3.org/2000/svg" width="13" height="15.499" viewBox="0 0 13 15.499">
  <g id="Сгруппировать_10519" data-name="Сгруппировать 10519" transform="translate(-805 -1020.001)">
    <g id="Контур_44299" data-name="Контур 44299" transform="translate(805 1026.5)" fill="#fff">
      <path d="M 7.999845504760742 8.5 L 0.9999855756759644 8.5 C 0.7242856025695801 8.5 0.4999955892562866 8.275699615478516 0.4999955892562866 8 L 0.4999955892562866 1 C 0.4999955892562866 0.7243000268936157 0.7242856025695801 0.5 0.9999855756759644 0.5 L 7.999845504760742 0.5 C 8.275546073913574 0.5 8.499835968017578 0.7243000268936157 8.499835968017578 1 L 8.499835968017578 8 C 8.499835968017578 8.275699615478516 8.275546073913574 8.5 7.999845504760742 8.5 Z" stroke="none"/>
      <path d="M 0.9999856948852539 1 L 0.9999957084655762 1 L 0.9999856948852539 8 L 7.99983549118042 8 L 7.999845504760742 1 L 0.9999856948852539 1 M 0.9999856948852539 0 L 7.999845504760742 0 C 8.552125930786133 0 8.999835968017578 0.4477100372314453 8.999835968017578 1 L 8.999835968017578 8 C 8.999835968017578 8.552289962768555 8.552125930786133 9 7.999845504760742 9 L 0.9999856948852539 9 C 0.4477052688598633 9 -4.76837158203125e-06 8.552289962768555 -4.76837158203125e-06 8 L -4.76837158203125e-06 1 C -4.76837158203125e-06 0.4477100372314453 0.4477052688598633 0 0.9999856948852539 0 Z" stroke="none" fill="#00b870"/>
    </g>
    <path id="right" d="M26.512,26.948a6.06,6.06,0,0,1,6,6.06.491.491,0,1,0,.983,0,7.036,7.036,0,0,0-6.989-7.043l-.654.491Zm.3,1.867L24.2,26.849a.491.491,0,0,1,0-.786L26.817,24.1a.491.491,0,0,1,.59.786l-2.1,1.572,2.1,1.572a.491.491,0,0,1-.59.786Z" transform="translate(784.5 996.002)" fill="#00b870"/>
  </g>
</svg>
