<svg id="Сгруппировать_8051" data-name="Сгруппировать 8051" xmlns="http://www.w3.org/2000/svg" width="22.674" height="27.034" viewBox="0 0 22.674 27.034">
  <g id="Сгруппировать_7752" data-name="Сгруппировать 7752" transform="translate(0 0)">
    <g id="Контур_44299" data-name="Контур 44299" transform="translate(6.977 11.336)" fill="#fff">
      <path d="M 13.95335483551025 15.19781684875488 L 1.744174361228943 15.19781684875488 C 1.058134436607361 15.19781684875488 0.5000044107437134 14.63966655731201 0.5000044107437134 13.95361709594727 L 0.5000044107437134 1.744197010993958 C 0.5000044107437134 1.058146953582764 1.058134436607361 0.4999969899654388 1.744174361228943 0.4999969899654388 L 13.95335483551025 0.4999969899654388 C 14.63939476013184 0.4999969899654388 15.19752407073975 1.058146953582764 15.19752407073975 1.744197010993958 L 15.19752407073975 13.95361709594727 C 15.19752407073975 14.63966655731201 14.63939476013184 15.19781684875488 13.95335483551025 15.19781684875488 Z" stroke="none"/>
      <path d="M 1.744174003601074 0.9999971389770508 C 1.333834648132324 0.9999971389770508 1.000004768371582 1.333847045898438 1.000004768371582 1.744196891784668 L 1.000004768371582 13.95361709594727 C 1.000004768371582 14.3639669418335 1.333834648132324 14.69781684875488 1.744174003601074 14.69781684875488 L 13.95335483551025 14.69781684875488 C 14.363694190979 14.69781684875488 14.69752407073975 14.3639669418335 14.69752407073975 13.95361709594727 L 14.69752407073975 1.744196891784668 C 14.69752407073975 1.333847045898438 14.363694190979 0.9999971389770508 13.95335483551025 0.9999971389770508 L 1.744174003601074 0.9999971389770508 M 1.744174003601074 -2.86102294921875e-06 L 13.95335483551025 -2.86102294921875e-06 C 14.91663455963135 -2.86102294921875e-06 15.69752407073975 0.7809066772460938 15.69752407073975 1.744196891784668 L 15.69752407073975 13.95361709594727 C 15.69752407073975 14.91690731048584 14.91663455963135 15.69781684875488 13.95335483551025 15.69781684875488 L 1.744174003601074 15.69781684875488 C 0.7808942794799805 15.69781684875488 4.76837158203125e-06 14.91690731048584 4.76837158203125e-06 13.95361709594727 L 4.76837158203125e-06 1.744196891784668 C 4.76837158203125e-06 0.7809066772460938 0.7808942794799805 -2.86102294921875e-06 1.744174003601074 -2.86102294921875e-06 Z" stroke="none" fill="#00b870"/>
    </g>
    <path id="right" d="M36.188,29.142A10.569,10.569,0,0,0,25.714,39.712a.857.857,0,1,1-1.714,0A12.273,12.273,0,0,1,36.191,27.428l1.141.856ZM35.656,32.4l4.571-3.428a.857.857,0,0,0,0-1.371L35.656,24.17a.857.857,0,0,0-1.028,1.371l3.657,2.743-3.657,2.743A.857.857,0,0,0,35.656,32.4Z" transform="translate(-24 -23.999)" fill="#00b870"/>
  </g>
</svg>
