<svg xmlns="http://www.w3.org/2000/svg" width="13" height="15.499" viewBox="0 0 13 15.499">
  <g id="Сгруппировать_7752" data-name="Сгруппировать 7752" transform="translate(-692 -1029.501)">
    <g id="Контур_44299" data-name="Контур 44299" transform="translate(696 1036)" fill="#fff">
      <path d="M 8 8.5 L 1 8.5 C 0.7243000268936157 8.5 0.5 8.275699615478516 0.5 8 L 0.5 1 C 0.5 0.7243000268936157 0.7243000268936157 0.5 1 0.5 L 8 0.5 C 8.275699615478516 0.5 8.5 0.7243000268936157 8.5 1 L 8.5 8 C 8.5 8.275699615478516 8.275699615478516 8.5 8 8.5 Z" stroke="none"/>
      <path d="M 1 1 L 1 8 L 8 8 L 8 1 L 1 1 M 1 0 L 8 0 C 8.552289962768555 0 9 0.4477100372314453 9 1 L 9 8 C 9 8.552289962768555 8.552289962768555 9 8 9 L 1 9 C 0.4477100372314453 9 0 8.552289962768555 0 8 L 0 1 C 0 0.4477100372314453 0.4477100372314453 0 1 0 Z" stroke="none" fill="#00b870"/>
    </g>
    <path id="right" d="M30.988,26.948a6.06,6.06,0,0,0-6,6.06.491.491,0,1,1-.983,0,7.036,7.036,0,0,1,6.989-7.043l.654.491Zm-.3,1.867L33.3,26.849a.491.491,0,0,0,0-.786L30.683,24.1a.491.491,0,1,0-.59.786l2.1,1.572-2.1,1.572a.491.491,0,1,0,.59.786Z" transform="translate(668 1005.502)" fill="#00b870"/>
  </g>
</svg>
