<svg xmlns="http://www.w3.org/2000/svg" width="20.9" height="16.948" viewBox="0 0 20.9 16.948">
  <g id="folder" transform="translate(0 -48.403)">
    <g id="Сгруппировать_6751" data-name="Сгруппировать 6751" transform="translate(0 48.403)">
      <g id="Сгруппировать_6750" data-name="Сгруппировать 6750" transform="translate(0 0)">
        <path id="Контур_44177" data-name="Контур 44177" d="M16.476,49.927H5.7a.6.6,0,0,1-.6-.6v-.3a.617.617,0,0,0-.616-.616H1.233A1.233,1.233,0,0,0,0,49.636V60.011l1.582-7.7a.6.6,0,0,1,.592-.483H17.709V51.16A1.233,1.233,0,0,0,16.476,49.927Z" transform="translate(0 -48.403)" fill="#d2d8dc"/>
      </g>
    </g>
    <g id="Сгруппировать_6753" data-name="Сгруппировать 6753" transform="translate(0.275 53.04)">
      <g id="Сгруппировать_6752" data-name="Сгруппировать 6752" transform="translate(0 0)">
        <path id="Контур_44178" data-name="Контур 44178" d="M26.137,162.01h-17L6.758,173.585a.612.612,0,0,0,.6.736H25.048a1.233,1.233,0,0,0,1.226-1.1l1.089-9.845A1.233,1.233,0,0,0,26.137,162.01Z" transform="translate(-6.746 -162.01)" fill="#d2d8dc"/>
      </g>
    </g>
  </g>
</svg>
