<svg xmlns="http://www.w3.org/2000/svg" width="10.209" height="13.422" viewBox="0 0 10.209 13.422">
  <g id="man-user" transform="translate(-41.895)" opacity="0.5">
    <path id="Контур_44258" data-name="Контур 44258" d="M107.237,6.564a3.035,3.035,0,0,0,2.7-3.282c0-1.813-.4-3.282-2.7-3.282s-2.7,1.469-2.7,3.282A3.035,3.035,0,0,0,107.237,6.564Z" transform="translate(-60.238)" fill="#0b3158"/>
    <path id="Контур_44259" data-name="Контур 44259" d="M41.9,300.429c0-.111,0-.031,0,0Z" transform="translate(0 -288.853)" fill="#0b3158"/>
    <path id="Контур_44260" data-name="Контур 44260" d="M308.085,301.586c0-.03,0-.21,0,0Z" transform="translate(-255.982 -289.924)" fill="#0b3158"/>
    <path id="Контур_44261" data-name="Контур 44261" d="M52.11,182.367c-.05-3.158-.462-4.058-3.618-4.627a2.217,2.217,0,0,1-2.959,0c-3.121.563-3.559,1.45-3.616,4.525,0,.251-.007.264-.008.235,0,.055,0,.156,0,.332,0,0,.751,1.515,5.1,1.515s5.1-1.515,5.1-1.515c0-.113,0-.192,0-.245A2.029,2.029,0,0,1,52.11,182.367Z" transform="translate(-0.012 -170.924)" fill="#0b3158"/>
  </g>
</svg>
