<svg xmlns="http://www.w3.org/2000/svg" width="14" height="8" viewBox="0 0 14 8">
  <g id="visibility" transform="translate(0 -74.667)">
    <g id="Сгруппировать_6463" data-name="Сгруппировать 6463" transform="translate(0 74.667)">
      <g id="Сгруппировать_6462" data-name="Сгруппировать 6462" transform="translate(0 0)">
        <path id="Контур_44088" data-name="Контур 44088" d="M172.907,170.667a2.24,2.24,0,1,0,2.24,2.24A2.242,2.242,0,0,0,172.907,170.667Z" transform="translate(-165.907 -168.907)" fill="#71b0b0"/>
        <path id="Контур_44089" data-name="Контур 44089" d="M7,74.667a7.622,7.622,0,0,0-7,4,7.622,7.622,0,0,0,7,4,7.618,7.618,0,0,0,7-4A7.618,7.618,0,0,0,7,74.667Zm0,6.667A2.708,2.708,0,1,1,7,76a2.708,2.708,0,1,1,0,5.333Z" transform="translate(0 -74.667)" fill="#71b0b0"/>
      </g>
    </g>
  </g>
</svg>
