<svg xmlns="http://www.w3.org/2000/svg" width="22.86" height="14.57" viewBox="0 0 22.86 14.57">
  <g id="Сгруппировать_10614" data-name="Сгруппировать 10614" transform="translate(-392 -4555)">
    <g id="view" transform="translate(392 4555)">
      <g id="Сгруппировать_4467" data-name="Сгруппировать 4467" transform="translate(0 0)">
        <g id="Сгруппировать_4466" data-name="Сгруппировать 4466">
          <path id="Контур_2719" data-name="Контур 2719" d="M22.715,99.676c-.2-.279-5.07-6.84-11.285-6.84S.349,99.4.145,99.675a.754.754,0,0,0,0,.89c.2.279,5.07,6.84,11.285,6.84s11.081-6.561,11.285-6.84A.753.753,0,0,0,22.715,99.676ZM11.43,105.9c-4.578,0-8.543-4.355-9.716-5.778,1.172-1.425,5.129-5.777,9.716-5.777s8.542,4.354,9.716,5.778C19.974,101.545,16.018,105.9,11.43,105.9Z" transform="translate(0 -92.835)" fill="#61b493"/>
        </g>
      </g>
      <g id="Сгруппировать_4469" data-name="Сгруппировать 4469" transform="translate(6.908 2.763)">
        <g id="Сгруппировать_4468" data-name="Сгруппировать 4468">
          <path id="Контур_2720" data-name="Контур 2720" d="M159.244,154.725a4.522,4.522,0,1,0,4.522,4.522A4.527,4.527,0,0,0,159.244,154.725Zm0,7.536a3.015,3.015,0,1,1,3.015-3.015A3.018,3.018,0,0,1,159.244,162.261Z" transform="translate(-154.722 -154.725)" fill="#61b493"/>
        </g>
      </g>
    </g>
  </g>
</svg>
