<svg xmlns="http://www.w3.org/2000/svg" width="296.201" height="189.45" viewBox="0 0 296.201 189.45">
  <g id="_8888" data-name="8888" transform="translate(0 -91.364)">
    <g id="Background_Complete" transform="translate(0 254.061)">
      <g id="Сгруппировать_8968" data-name="Сгруппировать 8968" transform="translate(0 0)">
        <rect id="Прямоугольник_6823" data-name="Прямоугольник 6823" width="296.201" height="0.148" fill="#ebebeb"/>
        <rect id="Прямоугольник_6824" data-name="Прямоугольник 6824" width="19.62" height="0.148" transform="translate(246.901 9.532)" fill="#ebebeb"/>
        <rect id="Прямоугольник_6825" data-name="Прямоугольник 6825" width="5.148" height="0.148" transform="translate(191.068 11.143)" fill="#ebebeb"/>
        <rect id="Прямоугольник_6826" data-name="Прямоугольник 6826" width="11.368" height="0.148" transform="translate(234.941 4.034)" fill="#ebebeb"/>
        <rect id="Прямоугольник_6827" data-name="Прямоугольник 6827" width="25.586" height="0.148" transform="translate(31.077 5.03)" fill="#ebebeb"/>
        <rect id="Прямоугольник_6828" data-name="Прямоугольник 6828" width="3.75" height="0.148" transform="translate(61.942 5.03)" fill="#ebebeb"/>
        <rect id="Прямоугольник_6829" data-name="Прямоугольник 6829" width="55.496" height="0.148" transform="translate(77.883 7.529)" fill="#ebebeb"/>
      </g>
    </g>
    <g id="Shadow_1_" transform="translate(33.24 267.402)">
      <ellipse id="_x3C_Path_x3E__359_" cx="114.861" cy="6.706" rx="114.861" ry="6.706" fill="#f5f5f5"/>
    </g>
    <g id="Wallet_1" transform="translate(26.723 125.788)">
      <g id="Сгруппировать_9026" data-name="Сгруппировать 9026">
        <g id="Сгруппировать_9019" data-name="Сгруппировать 9019" transform="translate(63.733)">
          <path id="Контур_45458" data-name="Контур 45458" d="M152.994,216.959a.188.188,0,0,1-.077-.012.3.3,0,0,1-.213-.361c.006-.012.344-1.309,1.072-3.442a.3.3,0,0,1,.379-.184.293.293,0,0,1,.184.373c-.723,2.109-1.06,3.383-1.06,3.4A.291.291,0,0,1,152.994,216.959Zm2.518-7.316a.275.275,0,0,1-.113-.024.3.3,0,0,1-.166-.385c.438-1.1.906-2.2,1.386-3.294a.3.3,0,0,1,.539.243c-.48,1.084-.942,2.186-1.38,3.276A.282.282,0,0,1,155.511,209.643Zm3.152-7.044a.347.347,0,0,1-.13-.03.3.3,0,0,1-.136-.4c.527-1.06,1.084-2.127,1.653-3.169a.3.3,0,1,1,.521.284c-.563,1.031-1.12,2.091-1.641,3.146A.31.31,0,0,1,158.663,202.6Zm3.726-6.753a.287.287,0,0,1-.154-.041.3.3,0,0,1-.1-.409c.622-1.019,1.274-2.032,1.925-3.009a.295.295,0,1,1,.492.326c-.652.966-1.291,1.973-1.913,2.986A.267.267,0,0,1,162.389,195.846Zm4.33-6.38a.291.291,0,0,1-.178-.059.3.3,0,0,1-.059-.415c.723-.96,1.463-1.9,2.216-2.8a.294.294,0,0,1,.45.379c-.746.895-1.481,1.831-2.2,2.778A.281.281,0,0,1,166.72,189.465Zm89.382-1.712a.3.3,0,0,1-.237-.118c-.711-.936-1.463-1.854-2.233-2.737a.3.3,0,1,1,.45-.391c.782.895,1.54,1.825,2.263,2.767a.3.3,0,0,1-.059.415A.28.28,0,0,1,256.1,187.753Zm-84.429-4.182a.269.269,0,0,1-.2-.083.3.3,0,0,1-.012-.421c.823-.871,1.671-1.724,2.518-2.53a.3.3,0,1,1,.409.432c-.841.8-1.682,1.641-2.494,2.506A.288.288,0,0,1,171.672,183.571ZM251,181.989a.307.307,0,0,1-.207-.083c-.841-.818-1.718-1.617-2.613-2.381a.294.294,0,0,1,.379-.45c.906.77,1.795,1.576,2.642,2.405a.3.3,0,0,1,.006.421A.278.278,0,0,1,251,181.989ZM177.288,178.3a.3.3,0,0,1-.231-.107.288.288,0,0,1,.041-.415c.924-.758,1.872-1.493,2.826-2.186a.3.3,0,0,1,.35.48c-.942.681-1.884,1.41-2.8,2.162A.3.3,0,0,1,177.288,178.3Zm67.824-1.262a.309.309,0,0,1-.172-.053c-.948-.687-1.937-1.351-2.932-1.973a.3.3,0,1,1,.314-.5c1.007.628,2,1.3,2.968,2a.3.3,0,0,1,.065.415A.311.311,0,0,1,245.112,177.037Zm-61.568-3.2a.3.3,0,0,1-.255-.142.3.3,0,0,1,.1-.409c1.019-.622,2.062-1.214,3.11-1.754a.294.294,0,0,1,.273.521c-1.031.539-2.068,1.12-3.075,1.736A.293.293,0,0,1,183.544,173.832ZM238.56,173a.275.275,0,0,1-.136-.036c-1.037-.539-2.109-1.054-3.187-1.528a.3.3,0,1,1,.237-.545c1.09.48,2.174,1,3.223,1.546a.3.3,0,0,1,.124.4A.284.284,0,0,1,238.56,173Zm-48.174-2.666a.3.3,0,0,1-.272-.184.289.289,0,0,1,.16-.385c1.1-.456,2.222-.883,3.341-1.256a.294.294,0,0,1,.19.557c-1.108.373-2.222.788-3.3,1.244A.3.3,0,0,1,190.386,170.331Zm41.125-.4a.3.3,0,0,1-.1-.018c-1.1-.391-2.227-.752-3.365-1.078a.3.3,0,0,1,.166-.569c1.149.332,2.293.693,3.4,1.09a.292.292,0,0,1,.178.379A.306.306,0,0,1,231.511,169.928Zm-33.832-2a.3.3,0,0,1-.29-.225.29.29,0,0,1,.219-.355c1.143-.278,2.316-.527,3.5-.729a.3.3,0,1,1,.1.586c-1.161.2-2.322.444-3.454.717A.288.288,0,0,1,197.678,167.926Zm26.427-.083a.2.2,0,0,1-.059-.006c-1.143-.243-2.31-.456-3.477-.634a.3.3,0,0,1,.089-.586c1.179.184,2.358.4,3.513.64a.3.3,0,0,1,.231.35A.313.313,0,0,1,224.106,167.843Zm-7.612-1.137h-.024c-1.161-.1-2.352-.178-3.531-.219a.294.294,0,0,1-.284-.308.3.3,0,0,1,.308-.284c1.191.041,2.387.118,3.56.225a.293.293,0,0,1,.267.32A.3.3,0,0,1,216.493,166.705Zm-11.238-.041a.294.294,0,0,1-.03-.586c1.167-.107,2.37-.178,3.566-.207a.293.293,0,0,1,.3.29.29.29,0,0,1-.29.3c-1.185.03-2.37.1-3.525.207C205.273,166.664,205.267,166.664,205.255,166.664Z" transform="translate(-152.694 -165.87)" fill="#00b870"/>
          <path id="Контур_45459" data-name="Контур 45459" d="M326.183,201.655h-.03l-2.464-.267a.3.3,0,0,1-.261-.326.29.29,0,0,1,.326-.261l2.192.237.379-2.115a.3.3,0,0,1,.581.107l-.432,2.387A.293.293,0,0,1,326.183,201.655Z" transform="translate(-222.284 -179.244)" fill="#00b870"/>
        </g>
        <path id="Контур_45460" data-name="Контур 45460" d="M137.5,264.44H48.984a3.876,3.876,0,0,0-3.874,3.874V338.84a3.876,3.876,0,0,0,3.874,3.874h88.523a3.876,3.876,0,0,0,3.874-3.874V268.314A3.885,3.885,0,0,0,137.5,264.44Z" transform="translate(-45.11 -206.047)" fill="#407bff"/>
        <path id="Контур_45461" data-name="Контур 45461" d="M137.5,264.44H48.984a3.876,3.876,0,0,0-3.874,3.874V338.84a3.876,3.876,0,0,0,3.874,3.874h88.523a3.876,3.876,0,0,0,3.874-3.874V268.314A3.885,3.885,0,0,0,137.5,264.44Z" transform="translate(-45.11 -206.047)" fill="#669e9e"/>
        <path id="Контур_45462" data-name="Контур 45462" d="M140.652,268.684a2.528,2.528,0,0,1-2.524,2.53H54.594a2.527,2.527,0,0,1,0-5.053h83.535A2.526,2.526,0,0,1,140.652,268.684Z" transform="translate(-47.947 -206.748)" fill="#205269"/>
        <g id="Сгруппировать_9021" data-name="Сгруппировать 9021" transform="translate(62.107 3.43)">
          <circle id="Эллипс_877" data-name="Эллипс 877" cx="18.904" cy="18.904" r="18.904" fill="#00b870"/>
          <path id="Контур_45598" data-name="Контур 45598" d="M18.9,0A18.905,18.905,0,0,1,29.411,34.62,18.62,18.62,0,0,1,18.9,37.807,18.9,18.9,0,0,1,18.9,0Z" fill="#00b870" opacity="0.3"/>
          <g id="Сгруппировать_9020" data-name="Сгруппировать 9020" transform="translate(4.111 4.111)">
            <path id="Контур_45463" data-name="Контур 45463" d="M171.682,178.6a14.792,14.792,0,1,0,14.792,14.792A14.793,14.793,0,0,0,171.682,178.6Zm1.363,23.21v2.636h-2.352v-2.565A11.165,11.165,0,0,1,164.834,200l1.291-2.867a9.518,9.518,0,0,0,4.561,1.671v-3.928c-2.612-.634-5.527-1.5-5.527-4.87,0-2.494,1.813-4.633,5.527-5.059v-2.613h2.352V184.9a10.636,10.636,0,0,1,4.775,1.434l-1.173,2.891a9.534,9.534,0,0,0-3.6-1.22v4c2.612.61,5.48,1.481,5.48,4.8C178.525,199.251,176.741,201.366,173.045,201.81Z" transform="translate(-156.89 -178.6)" fill="#c7efe0"/>
            <path id="Контур_45464" data-name="Контур 45464" d="M184.16,207.06v3.246c1.173-.261,1.694-.871,1.694-1.623C185.854,207.86,185.173,207.415,184.16,207.06Z" transform="translate(-168.005 -190.2)" fill="#c7efe0"/>
            <path id="Контур_45465" data-name="Контур 45465" d="M177.25,196.342c0,.823.7,1.268,1.742,1.6V194.6C177.748,194.878,177.25,195.566,177.25,196.342Z" transform="translate(-165.189 -185.122)" fill="#c7efe0"/>
          </g>
        </g>
        <g id="Сгруппировать_9023" data-name="Сгруппировать 9023" transform="translate(44.335 30.402)">
          <path id="Контур_45466" data-name="Контур 45466" d="M157.763,236.1a18.783,18.783,0,0,1-2.926,10.1,19,19,0,0,1-4.674,5.053H127.551a19.092,19.092,0,0,1-4.674-5.053,18.906,18.906,0,1,1,34.887-10.1Z" transform="translate(-119.95 -217.19)" fill="#407bff"/>
          <path id="Контур_45467" data-name="Контур 45467" d="M157.763,236.1a18.783,18.783,0,0,1-2.926,10.1,19,19,0,0,1-4.674,5.053H127.551a19.092,19.092,0,0,1-4.674-5.053,18.906,18.906,0,1,1,34.887-10.1Z" transform="translate(-119.95 -217.19)" fill="#00b870"/>
          <g id="Сгруппировать_9022" data-name="Сгруппировать 9022" transform="translate(4.117 4.117)">
            <path id="Контур_45468" data-name="Контур 45468" d="M141.692,224.14a14.786,14.786,0,1,0,14.792,14.792A14.793,14.793,0,0,0,141.692,224.14Zm1.363,25.847H140.7v-2.565a11.165,11.165,0,0,1-5.859-1.884l1.3-2.867a9.495,9.495,0,0,0,4.561,1.671v-3.928c-2.613-.634-5.527-1.5-5.527-4.87,0-2.494,1.813-4.633,5.527-5.059v-2.607h2.352v2.559a10.639,10.639,0,0,1,4.775,1.44l-1.179,2.891a9.654,9.654,0,0,0-3.6-1.226v4c2.613.616,5.48,1.487,5.48,4.8,0,2.447-1.789,4.567-5.48,5.012v2.636Z" transform="translate(-126.9 -224.14)" fill="#c7efe0"/>
            <path id="Контур_45469" data-name="Контур 45469" d="M154.17,252.6v3.246c1.173-.261,1.694-.871,1.694-1.623C155.864,253.4,155.183,252.955,154.17,252.6Z" transform="translate(-138.015 -235.74)" fill="#c7efe0"/>
            <path id="Контур_45470" data-name="Контур 45470" d="M147.26,241.872c0,.823.7,1.268,1.742,1.6V240.13C147.758,240.414,147.26,241.1,147.26,241.872Z" transform="translate(-135.199 -230.658)" fill="#c7efe0"/>
          </g>
        </g>
        <path id="Контур_45471" data-name="Контур 45471" d="M131.808,273.482,48.6,265.028A3.2,3.2,0,0,0,45.11,268.4v70.822A4.09,4.09,0,0,0,48.6,343.3l83.209,8.46a3.2,3.2,0,0,0,3.489-3.371V277.563A4.1,4.1,0,0,0,131.808,273.482Z" transform="translate(-45.11 -206.28)" fill="#77a0a0"/>
        <g id="Сгруппировать_9024" data-name="Сгруппировать 9024" transform="translate(0.237 60.998)">
          <path id="Контур_45472" data-name="Контур 45472" d="M50.557,269.141l-2.968-.3a.3.3,0,0,0-.326.267.3.3,0,0,0,.261.326l2.974.3h.03a.3.3,0,0,0,.03-.592Zm6.54.663-2.968-.3a.3.3,0,0,0-.065.592l2.974.3h.03a.3.3,0,0,0,.03-.592Zm6.54.669-2.968-.3a.287.287,0,0,0-.326.261.294.294,0,0,0,.261.326l2.974.3h.03a.3.3,0,0,0,.3-.267A.289.289,0,0,0,63.638,270.474Zm6.54.663-2.974-.3a.289.289,0,0,0-.32.261.294.294,0,0,0,.261.326l2.974.3h.03a.294.294,0,0,0,.03-.586Zm6.54.663-2.974-.3a.292.292,0,0,0-.32.267.289.289,0,0,0,.261.32l2.974.3a.064.064,0,0,0,.03.006.3.3,0,0,0,.3-.267A.3.3,0,0,0,76.718,271.8Zm6.54.664-2.974-.3a.293.293,0,0,0-.32.267.3.3,0,0,0,.261.326l2.974.3h.03a.3.3,0,0,0,.03-.592Zm6.54.663-2.974-.3a.3.3,0,0,0-.32.267.294.294,0,0,0,.261.326l2.974.3h.03a.3.3,0,0,0,.03-.592Zm6.54.669-2.974-.3a.285.285,0,0,0-.32.261.294.294,0,0,0,.261.326l2.974.3h.03a.3.3,0,0,0,.3-.267A.289.289,0,0,0,96.338,273.8Zm6.54.663-2.974-.3a.286.286,0,0,0-.32.261.291.291,0,0,0,.261.326l2.974.3a.257.257,0,0,1,.03.006.3.3,0,0,0,.3-.267A.3.3,0,0,0,102.878,274.461Zm6.54.663-2.968-.3a.292.292,0,0,0-.326.267.289.289,0,0,0,.261.32l2.974.3a.064.064,0,0,0,.03.006.3.3,0,0,0,.3-.267A.3.3,0,0,0,109.418,275.124Zm6.54.663-2.974-.3a.3.3,0,0,0-.059.592l2.974.3h.03a.3.3,0,0,0,.03-.592Zm6.54.664-2.974-.3a.3.3,0,0,0-.32.267.294.294,0,0,0,.261.326l2.974.3h.03a.3.3,0,0,0,.03-.592Zm6.54.669-2.974-.3a.289.289,0,0,0-.32.261.294.294,0,0,0,.261.326l2.98.3.065-.29Zm3.128,2.091a.3.3,0,0,0-.409-.107.3.3,0,0,0-.1.409,3.918,3.918,0,0,1,.545,1.979v.752a.293.293,0,0,0,.3.3.3.3,0,0,0,.3-.3v-.752A4.528,4.528,0,0,0,132.167,279.212Zm.332,6.321a.3.3,0,0,0-.3.3v2.992a.3.3,0,0,0,.3.3.3.3,0,0,0,.3-.3v-2.992A.3.3,0,0,0,132.5,285.533Zm0,6.576a.293.293,0,0,0-.3.3v2.986a.293.293,0,0,0,.3.3.3.3,0,0,0,.3-.3V292.4A.3.3,0,0,0,132.5,292.108Zm0,6.576a.293.293,0,0,0-.3.3v2.986a.293.293,0,0,0,.3.3.3.3,0,0,0,.3-.3V298.98A.3.3,0,0,0,132.5,298.684Zm0,6.57a.3.3,0,0,0-.3.3v2.992a.3.3,0,0,0,.3.3.3.3,0,0,0,.3-.3V305.55A.3.3,0,0,0,132.5,305.254Zm0,6.576a.293.293,0,0,0-.3.3v2.986a.293.293,0,0,0,.3.3.3.3,0,0,0,.3-.3v-2.986A.3.3,0,0,0,132.5,311.829Zm0,6.576a.293.293,0,0,0-.3.3v2.986a.293.293,0,0,0,.3.3.3.3,0,0,0,.3-.3V318.7A.3.3,0,0,0,132.5,318.405Zm0,6.57a.3.3,0,0,0-.3.3v2.992a.3.3,0,0,0,.3.3.3.3,0,0,0,.3-.3v-2.992A.3.3,0,0,0,132.5,324.975Zm0,6.576a.293.293,0,0,0-.3.3v2.992a.3.3,0,0,0,.3.3.3.3,0,0,0,.3-.3v-2.992A.3.3,0,0,0,132.5,331.551Zm0,6.576a.293.293,0,0,0-.3.3v2.986a.293.293,0,0,0,.3.3.3.3,0,0,0,.3-.3v-2.986A.3.3,0,0,0,132.5,338.126ZM45.54,342.149c-.012,0-.018-.006-.03-.006a3.392,3.392,0,0,0,.2.48.223.223,0,0,0,.071-.124A.3.3,0,0,0,45.54,342.149Zm6.511.675-2.974-.3a.295.295,0,0,0-.059.587l2.974.3a.064.064,0,0,0,.03.006.3.3,0,0,0,.3-.267A.3.3,0,0,0,52.05,342.824Zm6.54.663-2.974-.3a.289.289,0,0,0-.32.267.3.3,0,0,0,.261.326l2.974.3h.03a.3.3,0,0,0,.03-.592Zm6.54.664-2.974-.3a.3.3,0,0,0-.32.267.294.294,0,0,0,.261.326l2.974.3h.03a.3.3,0,0,0,.03-.592Zm6.54.669-2.974-.3a.289.289,0,0,0-.32.261.294.294,0,0,0,.261.326l2.974.3h.03a.3.3,0,0,0,.3-.267A.289.289,0,0,0,71.67,344.82Zm6.54.664-2.974-.3a.285.285,0,0,0-.32.261.294.294,0,0,0,.261.326l2.974.3h.03a.294.294,0,0,0,.03-.586Zm6.54.663-2.974-.3a.295.295,0,0,0-.059.587l2.974.3a.064.064,0,0,0,.03.006.3.3,0,0,0,.3-.267A.3.3,0,0,0,84.751,346.147Zm6.54.663-2.974-.3a.286.286,0,0,0-.32.267.3.3,0,0,0,.261.326l2.974.3h.03a.3.3,0,0,0,.03-.592Zm6.54.664-2.974-.3a.3.3,0,0,0-.059.592l2.974.3h.03a.3.3,0,0,0,.03-.592ZM132.5,344.7a.3.3,0,0,0-.3.3v2.583c0,.124-.006.255-.018.379a.289.289,0,0,0,.261.32.065.065,0,0,0,.03.006.3.3,0,0,0,.3-.267,3.558,3.558,0,0,0,.024-.438v-2.583A.3.3,0,0,0,132.5,344.7Zm-28.127,3.448-2.974-.3a.285.285,0,0,0-.32.261.294.294,0,0,0,.261.326l2.974.3h.03a.3.3,0,0,0,.3-.267A.289.289,0,0,0,104.371,348.144Zm6.54.664-2.974-.3a.285.285,0,0,0-.32.261.291.291,0,0,0,.261.326l2.974.3a.257.257,0,0,1,.03.006.3.3,0,0,0,.3-.267A.3.3,0,0,0,110.911,348.807Zm6.54.663-2.974-.3a.295.295,0,0,0-.059.586l2.974.3a.064.064,0,0,0,.03.006.3.3,0,0,0,.3-.267A.3.3,0,0,0,117.451,349.471Zm6.54.664-2.974-.3a.29.29,0,0,0-.32.267.3.3,0,0,0,.261.326l2.974.3h.03a.3.3,0,0,0,.03-.592Zm6.765.5a.3.3,0,0,0-.385-.166,2.864,2.864,0,0,1-1.333.178l-1.481-.154a.3.3,0,0,0-.059.592l1.481.148c.124.012.243.018.367.018a3.385,3.385,0,0,0,1.244-.231A.3.3,0,0,0,130.757,350.638Z" transform="translate(-45.51 -268.837)" fill="#263238"/>
        </g>
        <g id="Сгруппировать_9025" data-name="Сгруппировать 9025" transform="translate(75.283 99.812)">
          <path id="Контур_45473" data-name="Контур 45473" d="M203.534,337.38l-29.691-3.015a1.5,1.5,0,0,0-1.653,1.493v10.089a1.5,1.5,0,0,0,1.345,1.493l29.928,3.039a1.5,1.5,0,0,0,1.41-.669l2.636-4.04a1.515,1.515,0,0,0,.1-1.463l-2.873-6.078A1.5,1.5,0,0,0,203.534,337.38Z" transform="translate(-172.19 -334.357)" fill="#407bff"/>
          <path id="Контур_45474" data-name="Контур 45474" d="M203.534,337.38l-29.691-3.015a1.5,1.5,0,0,0-1.653,1.493v10.089a1.5,1.5,0,0,0,1.345,1.493l29.928,3.039a1.5,1.5,0,0,0,1.41-.669l2.636-4.04a1.515,1.515,0,0,0,.1-1.463l-2.873-6.078A1.5,1.5,0,0,0,203.534,337.38Z" transform="translate(-172.19 -334.357)" fill="#618b8b"/>
          <path id="Контур_45475" data-name="Контур 45475" d="M220.961,348.072a3,3,0,1,1-2.986-3.282A3.146,3.146,0,0,1,220.961,348.072Z" transform="translate(-189.635 -338.61)" fill="#71b0b0"/>
        </g>
      </g>
    </g>
    <g id="Wallet_2" transform="translate(143.284 104.89)">
      <g id="Сгруппировать_9032" data-name="Сгруппировать 9032" transform="translate(0 0)">
        <path id="Контур_45476" data-name="Контур 45476" d="M294.594,264.44h88.523a3.876,3.876,0,0,1,3.874,3.874V338.84a3.876,3.876,0,0,1-3.874,3.874H294.594a3.876,3.876,0,0,1-3.874-3.874V268.314A3.876,3.876,0,0,1,294.594,264.44Z" transform="translate(-261.781 -185.149)" fill="#263238"/>
        <path id="Контур_45477" data-name="Контур 45477" d="M294.594,264.44h88.523a3.876,3.876,0,0,1,3.874,3.874V338.84a3.876,3.876,0,0,1-3.874,3.874H294.594a3.876,3.876,0,0,1-3.874-3.874V268.314A3.876,3.876,0,0,1,294.594,264.44Z" transform="translate(-261.781 -185.149)" fill="#71b0b0" opacity="0.2"/>
        <path id="Контур_45478" data-name="Контур 45478" d="M299.25,271.209h83.529a2.528,2.528,0,0,0,2.53-2.53h0a2.528,2.528,0,0,0-2.53-2.53H299.25a2.528,2.528,0,0,0-2.529,2.53h0A2.536,2.536,0,0,0,299.25,271.209Z" transform="translate(-264.227 -185.846)" fill="#153544"/>
        <path id="Контур_45479" data-name="Контур 45479" d="M304.469,273.478l83.209-8.46a3.2,3.2,0,0,1,3.489,3.371v70.822a4.09,4.09,0,0,1-3.489,4.076l-83.209,8.46a3.2,3.2,0,0,1-3.489-3.371V277.559A4.1,4.1,0,0,1,304.469,273.478Z" transform="translate(-265.963 -185.377)" fill="#263238"/>
        <path id="Контур_45480" data-name="Контур 45480" d="M304.469,273.478l83.209-8.46a3.2,3.2,0,0,1,3.489,3.371v70.822a4.09,4.09,0,0,1-3.489,4.076l-83.209,8.46a3.2,3.2,0,0,1-3.489-3.371V277.559A4.1,4.1,0,0,1,304.469,273.478Z" transform="translate(-265.963 -185.377)" fill="#71b0b0" opacity="0.4"/>
        <g id="Сгруппировать_9027" data-name="Сгруппировать 9027" transform="translate(37.683 81.896)">
          <path id="Контур_45481" data-name="Контур 45481" d="M387.451,269.467a.3.3,0,0,0,.3.267h.03l2.974-.3a.3.3,0,0,0,.261-.326.3.3,0,0,0-.326-.267l-2.968.3A.3.3,0,0,0,387.451,269.467Zm-6.54.664a.3.3,0,0,0,.3.267h.03l2.974-.3a.3.3,0,0,0-.065-.592l-2.968.3A.3.3,0,0,0,380.911,270.13Zm-6.54.663a.3.3,0,0,0,.3.267h.03l2.974-.3a.294.294,0,0,0,.261-.326.287.287,0,0,0-.326-.261l-2.968.3A.289.289,0,0,0,374.37,270.794Zm-6.54.669a.3.3,0,0,0,.3.261h.03l2.974-.3a.294.294,0,0,0,.261-.326.289.289,0,0,0-.32-.261l-2.974.3A.3.3,0,0,0,367.83,271.463Zm-6.54.663a.3.3,0,0,0,.3.267.064.064,0,0,0,.03-.006l2.974-.3a.289.289,0,0,0,.261-.32.292.292,0,0,0-.32-.267l-2.974.3A.3.3,0,0,0,361.29,272.127Zm-6.54.663a.3.3,0,0,0,.3.267h.03l2.974-.3a.3.3,0,0,0,.261-.326.293.293,0,0,0-.32-.267l-2.974.3A.3.3,0,0,0,354.75,272.79Zm-6.54.664a.3.3,0,0,0,.3.267h.03l2.974-.3a.294.294,0,0,0,.261-.326.3.3,0,0,0-.32-.267l-2.974.3A.3.3,0,0,0,348.21,273.454Zm-6.54.663a.3.3,0,0,0,.3.267H342l2.974-.3a.294.294,0,0,0,.261-.326.286.286,0,0,0-.32-.261l-2.974.3A.289.289,0,0,0,341.67,274.117Zm-6.54.669a.3.3,0,0,0,.3.267.255.255,0,0,1,.03-.006l2.974-.3a.291.291,0,0,0,.261-.326.286.286,0,0,0-.32-.261l-2.974.3A.3.3,0,0,0,335.13,274.787Zm-6.54.663a.3.3,0,0,0,.3.267.065.065,0,0,0,.03-.006l2.974-.3a.289.289,0,0,0,.261-.32.292.292,0,0,0-.326-.267l-2.968.3A.3.3,0,0,0,328.59,275.45Zm-6.54.664a.3.3,0,0,0,.3.267h.03l2.974-.3a.3.3,0,0,0-.059-.592l-2.974.3A.3.3,0,0,0,322.05,276.114Zm-6.54.663a.3.3,0,0,0,.3.267h.03l2.974-.3a.294.294,0,0,0,.261-.326.3.3,0,0,0-.32-.267l-2.974.3A.3.3,0,0,0,315.509,276.777Zm-6.285.64.065.29,2.98-.3a.294.294,0,0,0,.261-.326.289.289,0,0,0-.32-.261l-2.974.3Zm-3.744,4.076v.752a.3.3,0,0,0,.3.3.293.293,0,0,0,.3-.3v-.752a3.918,3.918,0,0,1,.545-1.979.3.3,0,0,0-.1-.409.3.3,0,0,0-.409.107A4.527,4.527,0,0,0,305.48,281.492Zm0,4.336v2.992a.3.3,0,0,0,.3.3.3.3,0,0,0,.3-.3v-2.992a.3.3,0,0,0-.3-.3A.3.3,0,0,0,305.48,285.829Zm0,6.576v2.986a.3.3,0,0,0,.3.3.293.293,0,0,0,.3-.3V292.4a.293.293,0,0,0-.3-.3A.3.3,0,0,0,305.48,292.4Zm0,6.576v2.986a.3.3,0,0,0,.3.3.293.293,0,0,0,.3-.3V298.98a.293.293,0,0,0-.3-.3A.3.3,0,0,0,305.48,298.98Zm0,6.57v2.992a.3.3,0,0,0,.3.3.3.3,0,0,0,.3-.3V305.55a.3.3,0,0,0-.3-.3A.3.3,0,0,0,305.48,305.55Zm0,6.576v2.986a.3.3,0,0,0,.3.3.293.293,0,0,0,.3-.3v-2.986a.293.293,0,0,0-.3-.3A.3.3,0,0,0,305.48,312.126Zm0,6.576v2.986a.3.3,0,0,0,.3.3.293.293,0,0,0,.3-.3V318.7a.293.293,0,0,0-.3-.3A.3.3,0,0,0,305.48,318.7Zm0,6.57v2.992a.3.3,0,0,0,.3.3.3.3,0,0,0,.3-.3v-2.992a.3.3,0,0,0-.3-.3A.3.3,0,0,0,305.48,325.271Zm0,6.576v2.992a.3.3,0,0,0,.3.3.3.3,0,0,0,.3-.3v-2.992a.293.293,0,0,0-.3-.3A.3.3,0,0,0,305.48,331.847Zm0,6.576v2.986a.3.3,0,0,0,.3.3.293.293,0,0,0,.3-.3v-2.986a.293.293,0,0,0-.3-.3A.3.3,0,0,0,305.48,338.422ZM392.5,342.5a.222.222,0,0,0,.071.124,3.394,3.394,0,0,0,.2-.48c-.012,0-.018.006-.03.006A.3.3,0,0,0,392.5,342.5Zm-6.54.652a.3.3,0,0,0,.3.267.064.064,0,0,0,.03-.006l2.974-.3a.295.295,0,0,0-.059-.587l-2.974.3A.3.3,0,0,0,385.958,343.15Zm-6.54.663a.3.3,0,0,0,.3.267h.03l2.974-.3a.3.3,0,0,0,.261-.326.289.289,0,0,0-.32-.267l-2.974.3A.3.3,0,0,0,379.418,343.813Zm-6.54.663a.3.3,0,0,0,.3.267h.03l2.974-.3a.294.294,0,0,0,.261-.326.3.3,0,0,0-.32-.267l-2.974.3A.3.3,0,0,0,372.878,344.477Zm-6.54.664a.3.3,0,0,0,.3.267h.03l2.974-.3a.294.294,0,0,0,.261-.326.289.289,0,0,0-.32-.261l-2.974.3A.289.289,0,0,0,366.338,345.14Zm-6.54.669a.3.3,0,0,0,.3.261h.03l2.974-.3a.294.294,0,0,0,.261-.326.285.285,0,0,0-.32-.261l-2.974.3A.3.3,0,0,0,359.8,345.81Zm-6.54.664a.3.3,0,0,0,.3.267.064.064,0,0,0,.03-.006l2.974-.3a.295.295,0,0,0-.059-.587l-2.974.3A.3.3,0,0,0,353.257,346.473Zm-6.54.663a.3.3,0,0,0,.3.267h.03l2.974-.3a.3.3,0,0,0,.261-.326.286.286,0,0,0-.32-.267l-2.974.3A.3.3,0,0,0,346.717,347.137Zm-6.54.664a.3.3,0,0,0,.3.267h.03l2.974-.3a.3.3,0,0,0-.059-.592l-2.974.3A.3.3,0,0,0,340.177,347.8Zm-34.7-2.808v2.583a3.549,3.549,0,0,0,.024.438.3.3,0,0,0,.3.267.064.064,0,0,0,.03-.006.289.289,0,0,0,.261-.32c-.012-.124-.018-.255-.018-.379v-2.583a.3.3,0,0,0-.3-.3A.3.3,0,0,0,305.48,344.992Zm28.157,3.471a.3.3,0,0,0,.3.267h.03l2.974-.3a.294.294,0,0,0,.261-.326.286.286,0,0,0-.32-.261l-2.974.3A.289.289,0,0,0,333.637,348.464Zm-6.54.669a.3.3,0,0,0,.3.267.256.256,0,0,1,.03-.006l2.974-.3a.291.291,0,0,0,.261-.326.286.286,0,0,0-.32-.261l-2.974.3A.3.3,0,0,0,327.1,349.133Zm-6.54.664a.3.3,0,0,0,.3.267.064.064,0,0,0,.03-.006l2.974-.3a.295.295,0,0,0-.059-.587l-2.974.3A.3.3,0,0,0,320.557,349.8Zm-6.54.663a.3.3,0,0,0,.3.267h.03l2.974-.3a.3.3,0,0,0,.261-.326.29.29,0,0,0-.32-.267l-2.974.3A.3.3,0,0,0,314.017,350.46Zm-6.333.563a3.386,3.386,0,0,0,1.244.231c.124,0,.243-.006.367-.018l1.481-.148a.3.3,0,0,0-.059-.592l-1.481.154a2.864,2.864,0,0,1-1.333-.178.3.3,0,0,0-.385.166A.3.3,0,0,0,307.684,351.023Z" transform="translate(-305.48 -268.837)" fill="#fff"/>
        </g>
        <path id="Контур_45482" data-name="Контур 45482" d="M323.561,343.132a3.72,3.72,0,1,1-3.691-4.182A3.96,3.96,0,0,1,323.561,343.132Z" transform="translate(-272.158 -215.519)" fill="#153544"/>
        <path id="Контур_45483" data-name="Контур 45483" d="M323.272,344.131a2.43,2.43,0,1,1-2.411-2.731A2.587,2.587,0,0,1,323.272,344.131Z" transform="translate(-273.084 -216.517)" fill="#fff" opacity="0.2"/>
        <g id="Сгруппировать_9029" data-name="Сгруппировать 9029">
          <circle id="Эллипс_879" data-name="Эллипс 879" cx="18.904" cy="18.904" r="18.904" transform="translate(0 36.794) rotate(-76.714)" fill="#407bff"/>
          <path id="Контур_45599" data-name="Контур 45599" d="M18.9,0A18.9,18.9,0,1,1,0,18.9,18.9,18.9,0,0,1,18.9,0Z" transform="translate(0 36.794) rotate(-76.714)" fill="#00b870"/>
          <g id="Сгруппировать_9028" data-name="Сгруппировать 9028" transform="translate(7.944 7.937)">
            <path id="Контур_45484" data-name="Контур 45484" d="M270.072,143.99a14.792,14.792,0,1,0,14.792,14.792A14.793,14.793,0,0,0,270.072,143.99Zm1.362,23.21v2.636h-2.352v-2.565a11.165,11.165,0,0,1-5.859-1.884l1.291-2.867a9.518,9.518,0,0,0,4.562,1.671v-3.928c-2.613-.634-5.527-1.5-5.527-4.87,0-2.494,1.813-4.633,5.527-5.059v-2.612h2.352v2.565a10.635,10.635,0,0,1,4.775,1.434l-1.173,2.891a9.534,9.534,0,0,0-3.6-1.22v4c2.613.61,5.48,1.481,5.48,4.8C276.915,164.635,275.131,166.756,271.435,167.2Z" transform="translate(-255.28 -143.99)" fill="#fff" opacity="0.6"/>
            <path id="Контур_45485" data-name="Контур 45485" d="M282.55,172.45V175.7c1.173-.261,1.694-.871,1.694-1.623C284.244,173.25,283.563,172.805,282.55,172.45Z" transform="translate(-266.395 -155.59)" fill="#fff" opacity="0.6"/>
            <path id="Контур_45486" data-name="Контур 45486" d="M275.64,161.722c0,.823.7,1.268,1.742,1.6V159.98C276.138,160.264,275.64,160.946,275.64,161.722Z" transform="translate(-263.579 -150.508)" fill="#fff" opacity="0.6"/>
          </g>
        </g>
        <g id="Сгруппировать_9031" data-name="Сгруппировать 9031" transform="translate(37.451 38.963)">
          <circle id="Эллипс_881" data-name="Эллипс 881" cx="18.904" cy="18.904" r="18.904" transform="translate(0 14.469) rotate(-22.5)" fill="#407bff"/>
          <path id="Контур_45600" data-name="Контур 45600" d="M18.9,0A18.9,18.9,0,1,1,0,18.9,18.9,18.9,0,0,1,18.9,0Z" transform="translate(0 14.469) rotate(-22.5)" fill="#00b870"/>
          <g id="Сгруппировать_9030" data-name="Сгруппировать 9030" transform="translate(9.9 9.909)">
            <path id="Контур_45487" data-name="Контур 45487" d="M336.592,213.09a14.792,14.792,0,1,0,14.792,14.792A14.793,14.793,0,0,0,336.592,213.09Zm1.363,23.21v2.636H335.6v-2.565a11.165,11.165,0,0,1-5.859-1.884l1.291-2.867a9.518,9.518,0,0,0,4.561,1.671v-3.928c-2.612-.634-5.527-1.5-5.527-4.87,0-2.494,1.813-4.633,5.527-5.059v-2.613h2.352v2.565a10.636,10.636,0,0,1,4.775,1.434l-1.173,2.891a9.534,9.534,0,0,0-3.6-1.22v4c2.613.61,5.48,1.481,5.48,4.8C343.435,233.735,341.645,235.856,337.955,236.3Z" transform="translate(-321.8 -213.09)" fill="#fff" opacity="0.6"/>
            <path id="Контур_45488" data-name="Контур 45488" d="M349.07,241.55V244.8c1.173-.261,1.694-.871,1.694-1.623C350.764,242.35,350.083,241.905,349.07,241.55Z" transform="translate(-332.915 -224.69)" fill="#fff" opacity="0.6"/>
            <path id="Контур_45489" data-name="Контур 45489" d="M342.16,230.822c0,.823.7,1.268,1.742,1.6V229.08C342.652,229.364,342.16,230.046,342.16,230.822Z" transform="translate(-330.099 -219.607)" fill="#fff" opacity="0.6"/>
          </g>
        </g>
      </g>
    </g>
    <g id="Speech_bubbles" transform="translate(75.051 91.364)">
      <g id="Сгруппировать_9035" data-name="Сгруппировать 9035">
        <g id="Сгруппировать_9033" data-name="Сгруппировать 9033">
          <path id="Контур_45490" data-name="Контур 45490" d="M136.992,120.3l-8.122-.036a2.189,2.189,0,0,1-2.18-2.2l.036-8.122a2.189,2.189,0,0,1,2.2-2.18l8.122.036a2.189,2.189,0,0,1,2.18,2.2l-.036,8.122A2.189,2.189,0,0,1,136.992,120.3Z" transform="translate(-126.69 -107.76)" fill="#36c28b"/>
          <path id="Контур_45491" data-name="Контур 45491" d="M135.762,127.482a9.693,9.693,0,0,1-5.332,4.9s2.038-1.161,1.9-5.071Z" transform="translate(-128.214 -115.729)" fill="#36c28b"/>
          <circle id="Эллипс_883" data-name="Эллипс 883" cx="3.969" cy="3.969" r="3.969" transform="translate(2.299 2.299)" fill="#fff" opacity="0.6"/>
          <path id="Контур_45492" data-name="Контур 45492" d="M134.99,118.964h0a.292.292,0,0,1-.237-.118l-1.706-2.227a.3.3,0,0,1,.468-.361L135,118.188l2.47-2.992a.295.295,0,1,1,.456.373l-2.707,3.282A.265.265,0,0,1,134.99,118.964Z" transform="translate(-129.256 -110.748)" fill="#36c28b"/>
        </g>
        <g id="Сгруппировать_9034" data-name="Сгруппировать 9034" transform="translate(137.805 5.646)">
          <path id="Контур_45493" data-name="Контур 45493" d="M361.514,129.8l8.122-.012a2.189,2.189,0,0,0,2.186-2.192l-.012-8.122a2.19,2.19,0,0,0-2.192-2.186l-8.122.012a2.189,2.189,0,0,0-2.186,2.192l.012,8.122A2.193,2.193,0,0,0,361.514,129.8Z" transform="translate(-359.31 -117.29)" fill="#f25858"/>
          <path id="Контур_45494" data-name="Контур 45494" d="M363.787,123.111c.883-1.434,2.565-.889,3.442.225.871-1.114,2.553-1.671,3.442-.237,1.493,2.417-1.57,4.656-3.021,5.539-.166.1-.3.184-.415.249-.113-.065-.249-.148-.415-.249C365.375,127.761,362.3,125.528,363.787,123.111Z" transform="translate(-360.974 -119.307)" fill="#fff" opacity="0.6"/>
          <path id="Контур_45495" data-name="Контур 45495" d="M367.62,136.656a9.67,9.67,0,0,0,5.32,4.911s-2.032-1.167-1.884-5.077Z" transform="translate(-362.697 -125.116)" fill="#f25858"/>
        </g>
      </g>
    </g>
    <g id="Character_2" transform="translate(194.545 106.435)">
      <g id="Сгруппировать_9047" data-name="Сгруппировать 9047">
        <path id="Контур_45496" data-name="Контур 45496" d="M365.419,186.515s-.61,1.185-1.605,2.808a44.59,44.59,0,0,1-3.62,5.184c-2.079,2.5-4.455,4.49-6.493,3.969-4.887-1.25-1.931-10-1.931-10l4.224,1.108s5.563-13.448,8.85-13.714Z" transform="translate(-337.565 -150.593)" fill="#71b0b0"/>
        <path id="Контур_45497" data-name="Контур 45497" d="M370.2,195.955a44.6,44.6,0,0,1-3.62,5.184c-.367-4.479,3.039-9,3.039-9Z" transform="translate(-343.951 -157.224)" opacity="0.2"/>
        <g id="Сгруппировать_9036" data-name="Сгруппировать 9036" transform="translate(25.601 38.32)">
          <path id="Контур_45498" data-name="Контур 45498" d="M371.647,208.475s6.824,4.8,26.925,3.625c0,0-5.788-13.75-16.925-14.2S371.647,208.475,371.647,208.475Z" transform="translate(-371.615 -197.887)" fill="#407bff"/>
          <path id="Контур_45499" data-name="Контур 45499" d="M371.647,208.475s6.824,4.8,26.925,3.625c0,0-5.788-13.75-16.925-14.2S371.647,208.475,371.647,208.475Z" transform="translate(-371.615 -197.887)" fill="#589090" opacity="0.94"/>
        </g>
        <path id="Контур_45500" data-name="Контур 45500" d="M344.57,397.034l3.945.693,1.617-5.379,1.475-4.941-4.55-1.588-1.321,5.936Z" transform="translate(-334.991 -236.168)" fill="#e4897b"/>
        <path id="Контур_45501" data-name="Контур 45501" d="M342.813,405.037c.065-.438-5.338-1.037-5.338-1.037s-3.88,2.767-7.2,2.95-1.878,2.417,1.688,3.051,6.3,1.114,8.833,1.558S342.12,409.563,342.813,405.037Z" transform="translate(-328.4 -243.578)" fill="#263238"/>
        <g id="Сгруппировать_9037" data-name="Сгруппировать 9037" transform="translate(5.471 158.896)">
          <path id="Контур_45502" data-name="Контур 45502" d="M337.739,403.608a.519.519,0,0,1-.03-.592.594.594,0,0,1,.35-.314,2.217,2.217,0,0,1,1.22.083c-.391-.308-.723-.658-.693-.942.024-.184.166-.314.432-.385a.838.838,0,0,1,.693.1c.669.427.9,1.753.912,1.813a.123.123,0,0,1-.006.065h0c-.006.012-.006.024-.018.036h0a.262.262,0,0,1-.036.041h0a.119.119,0,0,1-.047.024,8.361,8.361,0,0,1-1.937.32A1.162,1.162,0,0,1,337.739,403.608Zm.415-.634a.294.294,0,0,0-.184.16c-.089.2-.036.267-.012.29.213.255,1.244.13,2.091-.065A3.522,3.522,0,0,0,338.153,402.974Zm.942-1.244c-.077.024-.213.071-.225.142-.03.243.663.794,1.4,1.232a2.357,2.357,0,0,0-.717-1.309.567.567,0,0,0-.3-.095A.836.836,0,0,0,339.1,401.73Z" transform="translate(-337.635 -401.424)" fill="#407bff"/>
        </g>
        <path id="Контур_45503" data-name="Контур 45503" d="M346.5,391.9l4.4.575,1.487-4.988-4.55-1.617Z" transform="translate(-335.777 -236.188)" opacity="0.2"/>
        <path id="Контур_45504" data-name="Контур 45504" d="M389.54,399.375h4l.658-5.58.6-5.118-4.757-.776-.267,6.072Z" transform="translate(-353.32 -237.016)" fill="#e4897b"/>
        <path id="Контур_45505" data-name="Контур 45505" d="M388.317,406.675c-.012-.444-5.438-.095-5.438-.095s-3.341,3.394-6.582,4.159-1.434,2.707,2.192,2.707h8.969C390.035,413.452,388.423,411.254,388.317,406.675Z" transform="translate(-347.233 -244.576)" fill="#263238"/>
        <g id="Сгруппировать_9038" data-name="Сгруппировать 9038" transform="translate(32.156 160.838)">
          <path id="Контур_45506" data-name="Контур 45506" d="M382.84,407.13a.519.519,0,0,1-.13-.581.591.591,0,0,1,.29-.367,2.192,2.192,0,0,1,1.214-.13c-.438-.237-.829-.521-.847-.806-.012-.184.107-.338.355-.456a.838.838,0,0,1,.7-.018c.735.308,1.191,1.576,1.208,1.629a.149.149,0,0,1-.006.113.128.128,0,0,1-.018.03h0a.092.092,0,0,1-.047.036,6.805,6.805,0,0,1-2.251.687A.8.8,0,0,1,382.84,407.13Zm.3-.7a.3.3,0,0,0-.154.19c-.053.213.012.267.036.284.255.213,1.25-.089,2.05-.427A3.536,3.536,0,0,0,383.136,406.431Zm.711-1.386c-.077.036-.2.107-.2.184.012.243.788.669,1.594.972a2.424,2.424,0,0,0-.93-1.167.609.609,0,0,0-.219-.047A.547.547,0,0,0,383.847,405.045Z" transform="translate(-382.68 -404.703)" fill="#407bff"/>
        </g>
        <path id="Контур_45507" data-name="Контур 45507" d="M389.94,394.117l4.425-.2.6-5.172-4.757-.8Z" transform="translate(-353.484 -237.036)" opacity="0.2"/>
        <g id="Сгруппировать_9039" data-name="Сгруппировать 9039" transform="translate(11.256 53.76)">
          <path id="Контур_45508" data-name="Контур 45508" d="M347.4,319.427l6.487,1.143c6.546-16.309,11.2-29.922,14.49-41.219,1.771-6.1,3.152-11.516,4.212-16.327l-.3,17.754V321.11h6.588c16.024-76.42,4.668-93.884,4.668-93.884l-19.17-3.276a86.691,86.691,0,0,0-1.605,10.728l-.865,6.339-7.494,38.7Z" transform="translate(-347.4 -223.95)" fill="#407bff"/>
          <path id="Контур_45509" data-name="Контур 45509" d="M347.4,319.427l6.487,1.143c6.546-16.309,11.2-29.922,14.49-41.219,1.771-6.1,3.152-11.516,4.212-16.327l-.3,17.754V321.11h6.588c16.024-76.42,4.668-93.884,4.668-93.884l-19.17-3.276a86.691,86.691,0,0,0-1.605,10.728l-.865,6.339-7.494,38.7Z" transform="translate(-347.4 -223.95)" fill="#fff" opacity="0.6"/>
        </g>
        <path id="Контур_45510" data-name="Контур 45510" d="M354.525,383.866,346.48,381.2l.107,3.418,6.659,2.127Z" transform="translate(-335.769 -234.285)" fill="#407bff"/>
        <path id="Контур_45511" data-name="Контур 45511" d="M396.218,385.482l-8.388-1.232.7,3.353,6.925.936Z" transform="translate(-352.624 -235.528)" fill="#407bff"/>
        <path id="Контур_45512" data-name="Контур 45512" d="M394.969,223.256v2.861l-19.549-1.5V221.23Z" transform="translate(-347.565 -169.081)" fill="#263238"/>
        <rect id="Прямоугольник_6870" data-name="Прямоугольник 6870" width="4.289" height="3.252" transform="matrix(-0.996, -0.089, 0.089, -0.996, 36.358, 56.475)" fill="#fff"/>
        <g id="Сгруппировать_9040" data-name="Сгруппировать 9040" transform="translate(40.587 52.97)">
          <rect id="Прямоугольник_6871" data-name="Прямоугольник 6871" width="0.972" height="4.947" transform="matrix(-0.999, -0.051, 0.051, -0.999, 0.97, 4.99)" fill="#407bff"/>
          <rect id="Прямоугольник_6872" data-name="Прямоугольник 6872" width="0.972" height="4.947" transform="matrix(-0.999, -0.051, 0.051, -0.999, 0.97, 4.99)" fill="#fff" opacity="0.6"/>
        </g>
        <g id="Сгруппировать_9041" data-name="Сгруппировать 9041" transform="translate(28.652 51.644)">
          <rect id="Прямоугольник_6873" data-name="Прямоугольник 6873" width="0.972" height="4.947" transform="matrix(-0.999, -0.051, 0.051, -0.999, 0.97, 4.99)" fill="#407bff"/>
          <rect id="Прямоугольник_6874" data-name="Прямоугольник 6874" width="0.972" height="4.947" transform="matrix(-0.999, -0.051, 0.051, -0.999, 0.97, 4.99)" fill="#fff" opacity="0.6"/>
        </g>
        <path id="Контур_45513" data-name="Контур 45513" d="M382.81,294.522c1.771-6.1,3.152-11.516,4.212-16.327a150.409,150.409,0,0,0-1.238-17.026S382.976,283.13,382.81,294.522Z" transform="translate(-350.577 -185.361)" opacity="0.2"/>
        <path id="Контур_45514" data-name="Контур 45514" d="M442.81,177.889l.948-4.484s-.889-1.481-.693-2.245,2.672-4.787,3.317-4.84,3.471,2.287,3.282,3.27-2.826,4.153-3.193,4.354l-.723,4.834Z" transform="translate(-375.033 -146.699)" fill="#e4897b"/>
        <path id="Контур_45515" data-name="Контур 45515" d="M374.923,203l19.555,1.594c.462-6.842.93-11.256,5.231-23.447.373-1.066.776-2.2,1.22-3.394a60.875,60.875,0,0,0-8.11-1.842,66.166,66.166,0,0,0-8.779-.871c-3.809-.03-8.175.379-8.175.379s-.622.142-1.013,3.934C374.485,182.906,374.135,190.033,374.923,203Z" transform="translate(-347.169 -150.253)" fill="#407bff"/>
        <path id="Контур_45516" data-name="Контур 45516" d="M374.923,203l19.555,1.594c.462-6.842.93-11.256,5.231-23.447.373-1.066.776-2.2,1.22-3.394a60.875,60.875,0,0,0-8.11-1.842,66.166,66.166,0,0,0-8.779-.871c-3.809-.03-8.175.379-8.175.379s-.622.142-1.013,3.934C374.485,182.906,374.135,190.033,374.923,203Z" transform="translate(-347.169 -150.253)" fill="#ffc800"/>
        <path id="Контур_45517" data-name="Контур 45517" d="M392.234,175.053c4.816-.616,6.268-2.678,6.268-2.678-3.057-2.885-.515-7.885-.515-7.885l-5.8,1.084a16.388,16.388,0,0,1,.225,2.441c.041,3.519-1.546,3.554-1.546,3.554C389.847,173.483,392.234,175.053,392.234,175.053Z" transform="translate(-353.758 -145.954)" fill="#e4897b"/>
        <path id="Контур_45518" data-name="Контур 45518" d="M393.27,165.574a16.388,16.388,0,0,1,.225,2.441c2.8-.646,5.575-3.525,5.575-3.525Z" transform="translate(-354.841 -145.954)" opacity="0.2"/>
        <path id="Контур_45519" data-name="Контур 45519" d="M375.12,179.336c7.346,3.424,18.6,2.624,24.857,1.8.373-1.066.776-2.2,1.22-3.394a60.873,60.873,0,0,0-8.11-1.842,66.156,66.156,0,0,0-8.779-.871c-3.809-.03-8.175.379-8.175.379S375.511,175.544,375.12,179.336Z" transform="translate(-347.443 -150.249)" fill="#e4897b"/>
        <path id="Контур_45520" data-name="Контур 45520" d="M419.359,180.61c2.719,1.179,9.49,13.211,9.49,13.211L432,182.743l4.39-.575s-.29,17.944-6.013,19.283-13.258-9.935-13.258-9.935Z" transform="translate(-364.562 -152.525)" fill="#71b0b0"/>
        <g id="Сгруппировать_9045" data-name="Сгруппировать 9045" transform="translate(31.865)">
          <path id="Контур_45521" data-name="Контур 45521" d="M396.531,133.757c7.92,1.4,10.64,22.612-.462,19.555-3.27-.9-16.06-12.784-10.385-16.3A20.658,20.658,0,0,1,396.531,133.757Z" transform="translate(-383.03 -133.426)" fill="#39222f"/>
          <path id="Контур_45522" data-name="Контур 45522" d="M390.009,139.445c-4.929.237-6.386,2.95-6.5,8.051-.142,6.368,1.481,10.805,7.577,9.153C399.357,154.4,398.19,139.048,390.009,139.445Z" transform="translate(-382.722 -135.743)" fill="#e4897b"/>
          <path id="Контур_45523" data-name="Контур 45523" d="M387.943,152.31a10.573,10.573,0,0,1-1.333,2.115,1.361,1.361,0,0,0,1.327.5Z" transform="translate(-383.991 -140.99)" fill="#de5753"/>
          <g id="Сгруппировать_9042" data-name="Сгруппировать 9042" transform="translate(6.647 9.715)">
            <path id="Контур_45524" data-name="Контур 45524" d="M393.92,150.866c.012.4.237.729.509.723s.48-.344.468-.746-.237-.729-.509-.723S393.914,150.464,393.92,150.866Z" transform="translate(-393.618 -149.812)" fill="#263238"/>
            <path id="Контур_45525" data-name="Контур 45525" d="M394.3,149.926l-.889-.326S393.866,150.335,394.3,149.926Z" transform="translate(-393.41 -149.6)" fill="#263238"/>
          </g>
          <g id="Сгруппировать_9043" data-name="Сгруппировать 9043" transform="translate(1.606 9.756)">
            <path id="Контур_45526" data-name="Контур 45526" d="M385.42,150.936c.012.4.237.729.509.723s.48-.344.468-.746-.237-.729-.509-.723S385.408,150.534,385.42,150.936Z" transform="translate(-385.112 -149.882)" fill="#263238"/>
            <path id="Контур_45527" data-name="Контур 45527" d="M385.789,150l-.889-.326S385.356,150.4,385.789,150Z" transform="translate(-384.9 -149.67)" fill="#263238"/>
          </g>
          <path id="Контур_45528" data-name="Контур 45528" d="M395.764,146.316a.2.2,0,0,1-.154-.071,2.358,2.358,0,0,0-1.979-.575.21.21,0,0,1-.071-.415,2.75,2.75,0,0,1,2.364.711.208.208,0,0,1-.018.3A.223.223,0,0,1,395.764,146.316Z" transform="translate(-386.753 -138.1)" fill="#263238"/>
          <path id="Контур_45529" data-name="Контур 45529" d="M384.233,146.1a.219.219,0,0,1-.172-.083.21.21,0,0,1,.047-.3,2.5,2.5,0,0,1,2.133-.533.208.208,0,0,1-.124.4,2.1,2.1,0,0,0-1.759.468A.165.165,0,0,1,384.233,146.1Z" transform="translate(-382.936 -138.064)" fill="#263238"/>
          <path id="Контур_45530" data-name="Контур 45530" d="M395.759,146.119s-2.5-3.939-2.3-7.079c0,0-9.958-3.519-9.958,6.416,0,0-1.38-8.756,7.085-9.36,8.448-.6,9.022,11.789,4.828,15.693C395.41,151.788,397.311,148.577,395.759,146.119Z" transform="translate(-382.691 -134.372)" fill="#39222f"/>
          <path id="Контур_45531" data-name="Контур 45531" d="M402.98,153.412a2.159,2.159,0,0,1,2.233-2.085c1.534.095,2.417,3.193-1.345,4.129C403.324,155.586,402.992,155.071,402.98,153.412Z" transform="translate(-390.664 -140.587)" fill="#e4897b"/>
          <path id="Контур_45532" data-name="Контур 45532" d="M396.043,133.532s-7.038-1.611-11.907,2.275,8.305,4.443,8.305,4.443l-3.175-1.831s4.04,1.576,5.9,1.149Z" transform="translate(-382.542 -133.201)" fill="#39222f"/>
          <path id="Контур_45533" data-name="Контур 45533" d="M405.886,155.99s1.795,3.987-.675,7.05a4.936,4.936,0,0,1-2.393,5.894s.45,2.044-2.838,4.141c0,0-1.256,3.033-.711,5.332L397.16,177.1a8.281,8.281,0,0,1,1.771-4.3s-.29-4.508,1.629-5.794c0,0-.533-2.873-.118-4.07,0,0,1.392-5.189,1.588-5.746C402.035,157.193,405.075,157.1,405.886,155.99Z" transform="translate(-388.291 -142.49)" fill="#39222f"/>
          <path id="Контур_45534" data-name="Контур 45534" d="M387.788,142.419h-.024c-.219-.036-5.361-.847-5.563-2.6s2.144-2.784,2.245-2.826a.145.145,0,1,1,.113.267c-.024.012-2.251.989-2.067,2.53.148,1.28,3.892,2.127,5.32,2.352a.146.146,0,0,1,.118.166A.141.141,0,0,1,387.788,142.419Z" transform="translate(-382.189 -134.742)" fill="#263238"/>
          <g id="Сгруппировать_9044" data-name="Сгруппировать 9044" transform="translate(3.768 13.619)">
            <path id="Контур_45535" data-name="Контур 45535" d="M388.55,157.509a13.348,13.348,0,0,1,.782,1.677c.107-.018.213-.041.32-.065,1.445-.314,2.008-.936,2.2-1.528a1.892,1.892,0,0,0,.041-.9,1.793,1.793,0,0,0-.148-.492,7,7,0,0,1-2.707,1.2C388.74,157.474,388.55,157.509,388.55,157.509Z" transform="translate(-388.55 -156.194)" fill="#263238"/>
            <path id="Контур_45536" data-name="Контур 45536" d="M389.38,157.393l.243.486a4.4,4.4,0,0,0,2.613-1.2,1.792,1.792,0,0,0-.148-.492A7.077,7.077,0,0,1,389.38,157.393Z" transform="translate(-388.888 -156.19)" fill="#fff"/>
            <path id="Контур_45537" data-name="Контур 45537" d="M390.41,160.078c1.445-.314,2.008-.936,2.2-1.528a4.808,4.808,0,0,0-1.534.663A1.747,1.747,0,0,0,390.41,160.078Z" transform="translate(-389.308 -157.152)" fill="#de5753"/>
          </g>
        </g>
        <path id="Контур_45538" data-name="Контур 45538" d="M413.794,178.8l-6.629-2.636s-6.25,9.976-2.5,18.649,6.884,8.436,6.884,8.436Z" transform="translate(-358.997 -150.711)" fill="#71b0b0"/>
        <path id="Контур_45539" data-name="Контур 45539" d="M373.08,175.275c.2-.663,6.789-.865,6.789-.865s-1.754,19.573-8.436,24.5C371.433,198.906,369.97,185.66,373.08,175.275Z" transform="translate(-345.8 -149.998)" fill="#71b0b0"/>
        <g id="Сгруппировать_9046" data-name="Сгруппировать 9046" transform="translate(15.555 20.236)">
          <path id="Контур_45540" data-name="Контур 45540" d="M362.392,178.673a.478.478,0,0,1-.492.545h-5.415a.625.625,0,0,1-.61-.545l-1.208-10.687a.539.539,0,0,1,.492-.616h5.415a.7.7,0,0,1,.61.616Z" transform="translate(-354.66 -167.364)" fill="#263238"/>
          <path id="Контур_45541" data-name="Контур 45541" d="M360.583,167.911l1.226,10.788a.41.41,0,0,1-.427.509h-4.591c-.308,0-.871-.172-.906-.474L354.659,167.9c-.036-.3.492-.545.8-.545h4.591A.563.563,0,0,1,360.583,167.911Z" transform="translate(-354.657 -167.36)" fill="#fff" opacity="0.5"/>
        </g>
        <path id="Контур_45542" data-name="Контур 45542" d="M353.2,190.064l1.8-5.343a14.774,14.774,0,0,1-.355-3.4c.118-1.232,3.4-2.109,3.578-1.819s1.274,3.868.871,4.8a5.2,5.2,0,0,1-1.22,1.641l-1.214,5.018Z" transform="translate(-338.508 -152.05)" fill="#e4897b"/>
        <path id="Контур_45543" data-name="Контур 45543" d="M417.72,198.194a12.091,12.091,0,0,1-1.386-4.354s-1.6,5.906.906,9.6Z" transform="translate(-364.037 -157.917)" opacity="0.2"/>
      </g>
    </g>
    <g id="Character_1" transform="translate(46.069 106.603)">
      <g id="Сгруппировать_9057" data-name="Сгруппировать 9057">
        <g id="Сгруппировать_9048" data-name="Сгруппировать 9048" transform="translate(28.076 26.045)">
          <path id="Контур_45544" data-name="Контур 45544" d="M125.16,177.45c1.913.089,9.94,10.865,9.94,10.865l2.98-3.874s4.6,8.928,2.322,13.175-14.247-7.364-14.247-7.364Z" transform="translate(-125.16 -177.45)" fill="#407bff"/>
          <path id="Контур_45545" data-name="Контур 45545" d="M125.16,177.45l.788,8.6.2,4.2s1.967,1.908,4.461,3.892c3.655,2.921,8.436,6,9.792,3.471,2.275-4.248-2.322-13.175-2.322-13.175l-2.98,3.874-.018-.03C134.627,187.627,127.014,177.533,125.16,177.45Z" transform="translate(-125.16 -177.45)" fill="#ffc800"/>
        </g>
        <path id="Контур_45546" data-name="Контур 45546" d="M126.49,189l.2,4.2s1.967,1.908,4.461,3.892c.237-5.041-4.461-12.393-4.461-12.393Z" transform="translate(-97.626 -154.36)" fill="#fc9100" opacity="0.66"/>
        <path id="Контур_45547" data-name="Контур 45547" d="M141.144,195.417l-.427.823,1.25,4.858s-3.442-3.134-1.25-6.208Z" transform="translate(-103.128 -158.513)" fill="#fc9100" opacity="0.66"/>
        <g id="Сгруппировать_9049" data-name="Сгруппировать 9049" transform="translate(3.58 25.795)">
          <path id="Контур_45548" data-name="Контур 45548" d="M108.709,205.723l-18.957,1.315s-.261-10.154-1.771-15.438c-.492-1.712-1.108-3.631-1.89-5.865-.332-.948-.693-1.943-1.09-3.009q-.542-1.493-1.191-3.158a62.7,62.7,0,0,1,7.926-1.718,68.011,68.011,0,0,1,8.578-.812c3.714-.024,7.986.35,7.986.35s.6.13.989,3.661C109.645,184.367,109.479,193.662,108.709,205.723Z" transform="translate(-83.81 -177.032)" fill="#407bff"/>
          <path id="Контур_45549" data-name="Контур 45549" d="M108.713,205.719l-18.957,1.309s-.006-.207-.018-.586c-.083-2.227-.456-10.326-1.748-14.852-.35-1.22-.764-2.553-1.262-4.028-.2-.592-.4-1.2-.628-1.836-.332-.948-.693-1.943-1.09-3.009q-.542-1.493-1.191-3.157a62.7,62.7,0,0,1,7.926-1.718,68.011,68.011,0,0,1,8.578-.812c3.714-.024,7.986.35,7.986.35s.6.13.989,3.661C109.649,184.363,109.483,193.658,108.713,205.719Z" transform="translate(-83.814 -177.028)" fill="#ffc800"/>
          <path id="Контур_45550" data-name="Контур 45550" d="M103.706,198.047s-5.225,10.669-11.967,14.129c-.083-2.227-.456-10.326-1.748-14.852-.35-1.22-.764-2.553-1.262-4.028l2.056-2.216a17.262,17.262,0,0,1,1.866,5.7l6.7-4.206Z" transform="translate(-85.815 -182.756)" fill="#fc9100" opacity="0.66"/>
        </g>
        <path id="Контур_45551" data-name="Контур 45551" d="M86.08,338.694l2.861,1.682a54.742,54.742,0,0,1,4.348-5.154v-.006c.829-.877,1.7-1.848,2.607-2.891,1.813-2.079,3.774-4.455,5.829-7.008q.906-1.128,1.842-2.3c7.162-9.01,14.9-19.6,17.8-26.765a11.669,11.669,0,0,0,1.143-5.533,123.481,123.481,0,0,0-4.153-16.937c-2.891-9.508-6.143-18.519-6.143-18.519L104.225,268.8s2.453,5.847,4.686,12.073c2.2,6.114,4.182,12.6,3.448,14.289-.071.166-.16.361-.261.569-1.327,2.749-5,8.975-9.17,15.853-.421.693-.847,1.392-1.274,2.091-2.239,3.673-4.567,7.446-6.724,10.912-.841,1.362-1.659,2.678-2.435,3.922C88.823,334.411,86.08,338.694,86.08,338.694Z" transform="translate(-81.155 -183.12)" fill="#eec1bb"/>
        <path id="Контур_45552" data-name="Контур 45552" d="M108.176,361.763c-3.78,4.751-7.411,9.064-10.112,12.2-.385-1.931-.776-4.218-1.084-6.712,3.122-5.012,6.943-11.2,10.414-16.925A65.541,65.541,0,0,0,108.176,361.763Z" transform="translate(-85.598 -221.87)" opacity="0.2"/>
        <path id="Контур_45553" data-name="Контур 45553" d="M91,287.043c.989,6.747,2.4,12.861,3.317,16.5.551,2.186.924,3.477.924,3.477a182.741,182.741,0,0,0,1.22,20.758c.3,2.713.628,5.32.966,7.743,1.244,8.969,2.553,15.408,2.553,15.408l3.406-.444-.13-21.972-.071-11.647-.095-15.847-.036-2.761-.166-12.049-.243-17.772L90.8,263.11C89.209,269.863,89.8,278.915,91,287.043Z" transform="translate(-82.685 -186.32)" fill="#eec1bb"/>
        <path id="Контур_45554" data-name="Контур 45554" d="M82.958,392.943c.35-.255,3.3,4.165,3.3,4.165s-.658,4.609.675,7.577-1.256,2.719-3.406-.095-3.791-4.964-5.32-6.961S79.339,395.573,82.958,392.943Z" transform="translate(-77.767 -239.235)" fill="#263238"/>
        <g id="Сгруппировать_9050" data-name="Сгруппировать 9050" transform="translate(8.297 158.406)">
          <path id="Контур_45555" data-name="Контур 45555" d="M92.962,403.682c-.669-.16-1.108-2.067-1.185-2.447a.082.082,0,0,1,0-.053h0a.064.064,0,0,1,.018-.041h0a.156.156,0,0,1,.03-.036h0a.129.129,0,0,1,.047-.03,3.059,3.059,0,0,1,1.979-.024.816.816,0,0,1,.4.557c.053.261.006.444-.142.545-.231.154-.681.024-1.126-.178A2.141,2.141,0,0,1,93.6,403a.577.577,0,0,1-.113.444.559.559,0,0,1-.432.255Zm.065-.273c.03.006.113.024.243-.142a.3.3,0,0,0,.053-.231c-.059-.438-.717-1.078-1.185-1.469C92.358,402.385,92.713,403.333,93.027,403.41Zm-.77-2.15c.711.444,1.5.794,1.7.663.059-.041.041-.178.024-.255a.545.545,0,0,0-.267-.373,1.291,1.291,0,0,0-.64-.136A3.317,3.317,0,0,0,92.257,401.259Z" transform="translate(-91.773 -400.88)" fill="#407bff"/>
        </g>
        <path id="Контур_45556" data-name="Контур 45556" d="M104.53,407.538c.012-.432,5.314-.095,5.314-.095s3.264,3.317,6.433,4.064,1.4,2.648-2.145,2.648h-8.762C102.854,414.156,104.424,412.011,104.53,407.538Z" transform="translate(-88.439 -245.098)" fill="#263238"/>
        <g id="Сгруппировать_9051" data-name="Сгруппировать 9051" transform="translate(21.921 161.2)">
          <path id="Контур_45557" data-name="Контур 45557" d="M114.847,407.429a.08.08,0,0,1-.041-.035h0a.1.1,0,0,1-.024-.042h0a.11.11,0,0,1-.012-.041h0a.2.2,0,0,1,.006-.059c.024-.065.468-1.291,1.185-1.588a.82.82,0,0,1,.687.018c.243.113.361.267.35.444-.018.278-.4.557-.823.788a2.216,2.216,0,0,1,1.191.13.575.575,0,0,1,.284.361.493.493,0,0,1-.13.563.744.744,0,0,1-.468.124A6.541,6.541,0,0,1,114.847,407.429Zm.48-.089c.782.332,1.754.622,2,.421.024-.018.089-.071.036-.278a.29.29,0,0,0-.154-.184,1.349,1.349,0,0,0-.628-.118A5.785,5.785,0,0,0,115.327,407.34Zm.735-1.416a2.313,2.313,0,0,0-.906,1.137c.788-.3,1.54-.711,1.558-.948.006-.071-.118-.142-.19-.178a.542.542,0,0,0-.243-.059A.609.609,0,0,0,116.061,405.925Z" transform="translate(-114.77 -405.597)" fill="#407bff"/>
        </g>
        <path id="Контур_45558" data-name="Контур 45558" d="M113.63,228.64a.96.96,0,1,0,.96-.96A.959.959,0,0,0,113.63,228.64Z" transform="translate(-92.384 -171.878)" fill="#fff" opacity="0.6"/>
        <path id="Контур_45559" data-name="Контур 45559" d="M142.222,185.083,139.817,181a13.683,13.683,0,0,0-.2-2.648,5.412,5.412,0,0,0-3.027-1.475c-.462.172-.634,4.378-.213,4.947a6.269,6.269,0,0,0,1.9,1.2l-.1.8,1.4,4.248Z" transform="translate(-101.558 -151.164)" fill="#eec1bb"/>
        <path id="Контур_45560" data-name="Контур 45560" d="M144.891,189.41l-.8-.8-3.791,4.248.539,1.682Z" transform="translate(-103.255 -155.953)" fill="#fc9100"/>
        <path id="Контур_45561" data-name="Контур 45561" d="M119.718,254.777l-14.555,5.172-.486-1.333-.6-1.641-.249,2.37-.19,1.819H85.969s-.053-.509-.107-1.422a90.3,90.3,0,0,1,.711-17.4,62.788,62.788,0,0,1,3.744-14.573c.148-.367.3-.729.456-1.09l18.957-1.463.16.912,1.191,6.807,2.263,5.723,5.586,14.129Z" transform="translate(-81.009 -170.872)" fill="#f25858"/>
        <path id="Контур_45562" data-name="Контур 45562" d="M103.08,191.6l5.569-4.366a18.857,18.857,0,0,1,1.185-2.749,33.933,33.933,0,0,1,5.628-2.257c.409-.047.024,4-.61,4.686s-4.544,2.044-4.544,2.044l-5.829,5.492Z" transform="translate(-88.084 -153.353)" fill="#eec1bb"/>
        <g id="Сгруппировать_9052" data-name="Сгруппировать 9052" transform="translate(0.978 28.273)">
          <path id="Контур_45563" data-name="Контур 45563" d="M82.3,181.21c-3.27,1.641-4.721,20.106.954,23.293s14.164-11.22,14.164-11.22l-3.294-3.5s-6.913,5.788-7.749,5.255.113-6.185.113-6.185.972-1.712-1.072-4.4S82.3,181.21,82.3,181.21Z" transform="translate(-79.418 -181.21)" fill="#407bff"/>
          <path id="Контур_45564" data-name="Контур 45564" d="M82.3,181.21c-3.27,1.641-4.721,20.106.954,23.293s14.164-11.22,14.164-11.22l-3.294-3.5s-6.913,5.788-7.749,5.255.113-6.185.113-6.185.972-1.712-1.072-4.4S82.3,181.21,82.3,181.21Z" transform="translate(-79.418 -181.21)" fill="#ffc800"/>
        </g>
        <path id="Контур_45565" data-name="Контур 45565" d="M107.106,199.615l.989-.592-3.7-5.432-1.363.758Z" transform="translate(-88.064 -157.983)" fill="#fc9100"/>
        <path id="Контур_45566" data-name="Контур 45566" d="M95.519,230.154s-2.15,11.872-8.359,13.939A62.789,62.789,0,0,1,90.9,229.52Z" transform="translate(-81.595 -172.628)" opacity="0.2"/>
        <path id="Контур_45567" data-name="Контур 45567" d="M128.987,239.279c-4.97-2.423-4.887-11.978-4.887-11.978l1.434-.551,1.191,6.807Z" transform="translate(-96.652 -171.499)" opacity="0.2"/>
        <path id="Контур_45568" data-name="Контур 45568" d="M103.928,282.83l-.19,1.819H86.067s-.053-.509-.107-1.422Z" transform="translate(-81.106 -194.357)" opacity="0.2"/>
        <path id="Контур_45569" data-name="Контур 45569" d="M132.761,273.746l-14.555,5.172-.486-1.333,14.253-5.835Z" transform="translate(-94.052 -189.841)" opacity="0.2"/>
        <path id="Контур_45570" data-name="Контур 45570" d="M116.71,270.1l.379-4.846,4-7.849a13.366,13.366,0,0,1-.735,8.56C118.369,269.995,116.71,270.1,116.71,270.1Z" transform="translate(-93.64 -183.992)" opacity="0.2"/>
        <path id="Контур_45571" data-name="Контур 45571" d="M93.7,226.673l-.794,1.973,20.177-1.013-.427-2.423Z" transform="translate(-83.939 -170.872)" opacity="0.5"/>
        <path id="Контур_45572" data-name="Контур 45572" d="M112.238,225.954l.237,2.216a.454.454,0,0,0,.486.4l2.956-.237a.453.453,0,0,0,.415-.492l-.207-2.186a.453.453,0,0,0-.48-.409l-2.98.2A.457.457,0,0,0,112.238,225.954Z" transform="translate(-91.816 -170.887)" fill="#00b870"/>
        <path id="Контур_45573" data-name="Контур 45573" d="M103.216,226.89l-.231,2.607h-.735l.118-2.607Z" transform="translate(-87.746 -171.556)" fill="#263238"/>
        <path id="Контур_45574" data-name="Контур 45574" d="M121.83,225.473l.3,2.725h.669l-.231-2.838Z" transform="translate(-95.727 -170.933)" fill="#263238"/>
        <path id="Контур_45575" data-name="Контур 45575" d="M107.588,145.082a.148.148,0,0,1-.113-.243c3.163-3.768,1.534-6.149,1.463-6.25a.149.149,0,0,1,.243-.172c.077.107,1.842,2.66-1.475,6.611A.168.168,0,0,1,107.588,145.082Z" transform="translate(-89.861 -135.47)" fill="#263238"/>
        <g id="Сгруппировать_9053" data-name="Сгруппировать 9053" transform="translate(31.273 22.669)">
          <path id="Контур_45576" data-name="Контур 45576" d="M135.126,181.655l1.931-8.738a.538.538,0,0,0-.444-.646l-3.442-.515a.528.528,0,0,0-.6.415l-2,8.9a.537.537,0,0,0,.468.652l3.513.35A.538.538,0,0,0,135.126,181.655Z" transform="translate(-130.557 -171.75)" fill="#979696"/>
          <path id="Контур_45577" data-name="Контур 45577" d="M135.126,181.655l1.931-8.738a.538.538,0,0,0-.444-.646l-3.442-.515a.528.528,0,0,0-.6.415l-2,8.9a.537.537,0,0,0,.468.652l3.513.35A.538.538,0,0,0,135.126,181.655Z" transform="translate(-130.557 -171.75)" fill="#263238"/>
          <path id="Контур_45578" data-name="Контур 45578" d="M135.736,181.665l1.931-8.738a.538.538,0,0,0-.444-.646l-3.442-.515a.528.528,0,0,0-.6.415l-2,8.9a.537.537,0,0,0,.468.652l3.513.35A.537.537,0,0,0,135.736,181.665Z" transform="translate(-130.806 -171.754)" fill="#93999c"/>
          <path id="Контур_45579" data-name="Контур 45579" d="M135.774,173.407a.237.237,0,1,1-.237-.237A.234.234,0,0,1,135.774,173.407Z" transform="translate(-132.49 -172.329)" opacity="0.3"/>
          <path id="Контур_45580" data-name="Контур 45580" d="M135.584,174.447a.237.237,0,1,1-.237-.237A.238.238,0,0,1,135.584,174.447Z" transform="translate(-132.413 -172.753)" opacity="0.3"/>
        </g>
        <path id="Контур_45581" data-name="Контур 45581" d="M102.319,181.75s-6.22-3.815-11.747-4.561c0,0-2.411-1.759,4.55-2.932s11.706-.225,12.221,1.682S105.133,181.442,102.319,181.75Z" transform="translate(-82.822 -149.893)" fill="#fc9100"/>
        <path id="Контур_45582" data-name="Контур 45582" d="M97.845,134.957a10.526,10.526,0,0,1,10.118-.29c5.29,2.82.818,12.82.818,12.82a7.862,7.862,0,0,1-.089,8.175c-2.648,4.313-16.279,2.772-20.059-2.109s3.436-13.939,6.262-14.62S97.845,134.957,97.845,134.957Z" transform="translate(-81.759 -133.484)" fill="#39222f"/>
        <path id="Контур_45583" data-name="Контур 45583" d="M106.385,176.361c-4.781-.859-6.125-2.992-6.125-2.992,3.2-2.725.918-7.849.918-7.849l5.74,1.374a16.574,16.574,0,0,0-.35,2.429c-.225,3.513,1.368,3.631,1.368,3.631C108.856,174.91,106.385,176.361,106.385,176.361Z" transform="translate(-86.935 -146.542)" fill="#eec1bb"/>
        <path id="Контур_45584" data-name="Контур 45584" d="M107.554,166.9a16.575,16.575,0,0,0-.35,2.429c-2.761-.788-5.385-3.8-5.385-3.8Z" transform="translate(-87.571 -146.546)" opacity="0.2"/>
        <g id="Сгруппировать_9056" data-name="Сгруппировать 9056" transform="translate(10.414 1.828)">
          <path id="Контур_45585" data-name="Контур 45585" d="M105.787,140.112c5.03.45,6.4,3.288,6.309,8.507-.124,6.516-1.973,10.989-8.134,9.04C95.592,155.011,97.44,139.36,105.787,140.112Z" transform="translate(-96.644 -138.003)" fill="#eec1bb"/>
          <path id="Контур_45586" data-name="Контур 45586" d="M115.921,153.52a10.834,10.834,0,0,0,1.274,2.216,1.385,1.385,0,0,1-1.374.45Z" transform="translate(-103.691 -143.478)" fill="#d4827d"/>
          <g id="Сгруппировать_9054" data-name="Сгруппировать 9054" transform="translate(8.181 8.282)">
            <path id="Контур_45587" data-name="Контур 45587" d="M110.159,151.821c-.03.415-.273.735-.551.717s-.48-.367-.45-.782.273-.735.551-.717S110.189,151.407,110.159,151.821Z" transform="translate(-109.155 -150.749)" fill="#263238"/>
            <path id="Контур_45588" data-name="Контур 45588" d="M109.9,150.846l.924-.3C110.824,150.556,110.327,151.285,109.9,150.846Z" transform="translate(-109.459 -150.55)" fill="#263238"/>
          </g>
          <g id="Сгруппировать_9055" data-name="Сгруппировать 9055" transform="translate(13.335 8.543)">
            <path id="Контур_45589" data-name="Контур 45589" d="M118.859,152.251c-.03.415-.273.735-.551.717s-.48-.367-.45-.782.272-.735.551-.717S118.889,151.837,118.859,152.251Z" transform="translate(-117.855 -151.185)" fill="#263238"/>
            <path id="Контур_45590" data-name="Контур 45590" d="M118.6,151.286l.924-.3S119.021,151.719,118.6,151.286Z" transform="translate(-118.159 -150.99)" fill="#263238"/>
          </g>
          <path id="Контур_45591" data-name="Контур 45591" d="M107.353,147.081a.206.206,0,0,1-.148-.059.215.215,0,0,1-.006-.3,2.813,2.813,0,0,1,2.453-.622.207.207,0,0,1,.16.255.228.228,0,0,1-.255.166,2.442,2.442,0,0,0-2.05.5A.25.25,0,0,1,107.353,147.081Z" transform="translate(-100.153 -140.428)" fill="#263238"/>
          <path id="Контур_45592" data-name="Контур 45592" d="M119.319,147.324a.237.237,0,0,1-.136-.047,2.117,2.117,0,0,0-1.777-.551.216.216,0,0,1-.261-.154.213.213,0,0,1,.148-.261,2.554,2.554,0,0,1,2.156.634.216.216,0,0,1,.036.3A.22.22,0,0,1,119.319,147.324Z" transform="translate(-104.228 -140.523)" fill="#263238"/>
          <path id="Контур_45593" data-name="Контур 45593" d="M98.711,146.658s2.725-3.922,2.654-7.144c0,0,10.331-3.175,9.917,6.984,0,0,1.783-8.9-6.848-9.875-8.614-.977-9.727,11.676-5.6,15.847C98.829,152.47,97.023,149.111,98.711,146.658Z" transform="translate(-95.823 -136.569)" fill="#263238"/>
          <path id="Контур_45594" data-name="Контур 45594" d="M98.956,153.987a2.214,2.214,0,0,0-2.192-2.227c-1.576.03-2.607,3.163,1.2,4.283C98.512,156.2,98.879,155.681,98.956,153.987Z" transform="translate(-95.345 -142.761)" fill="#eec1bb"/>
          <path id="Контур_45595" data-name="Контур 45595" d="M113.124,160.435a2.791,2.791,0,0,1-2.79-1.931.207.207,0,0,1,.142-.261.2.2,0,0,1,.261.142,2.4,2.4,0,0,0,2.482,1.629.208.208,0,0,1,.225.2.21.21,0,0,1-.19.225Z" transform="translate(-101.45 -145.4)" fill="#263238"/>
        </g>
        <path id="Контур_45596" data-name="Контур 45596" d="M100.1,137.761s-.237,6.445-6.38,7.352c-7.423,1.09-9.135,8.234-3.24,11.185,0,0-6.042-2.713-5.894-7.21.154-4.567,5.7-9.627,5.7-9.627s-.746-4.088,5.29-5.089C98.989,133.809,100.1,137.761,100.1,137.761Z" transform="translate(-80.546 -133.824)" fill="#39222f"/>
        <path id="Контур_45597" data-name="Контур 45597" d="M121.026,166.738a.155.155,0,0,1-.124-.065.146.146,0,0,1,.041-.207,5.99,5.99,0,0,0,2.844-4.058c.492-3.146-1.908-6.2-1.931-6.232a.144.144,0,0,1,.024-.207.149.149,0,0,1,.207.024c.1.13,2.506,3.181,2,6.463a6.251,6.251,0,0,1-2.968,4.259A.248.248,0,0,1,121.026,166.738Z" transform="translate(-95.338 -142.636)" fill="#263238"/>
      </g>
    </g>
  </g>
</svg>
