<svg xmlns="http://www.w3.org/2000/svg" width="22.489" height="12.727" viewBox="0 0 22.489 12.727">
  <g id="vk" transform="translate(0 -66.058)">
    <path id="XMLID_807_" d="M19.355,74.15a30.611,30.611,0,0,1,2.2,2.215,6.437,6.437,0,0,1,.789,1.137c.3.588.029,1.235-.5,1.27H18.572a2.529,2.529,0,0,1-2.086-.848c-.454-.462-.874-.954-1.31-1.431a3.1,3.1,0,0,0-.59-.524.685.685,0,0,0-1.091.265,3.442,3.442,0,0,0-.345,1.529c-.035.771-.268.974-1.043,1.01A8.378,8.378,0,0,1,7.42,77.763,10.358,10.358,0,0,1,4.265,74.81a39.762,39.762,0,0,1-4.152-7.4c-.262-.583-.07-.9.573-.908,1.069-.021,2.137-.019,3.208,0a.942.942,0,0,1,.89.666A19.883,19.883,0,0,0,6.958,71.2a3.436,3.436,0,0,0,.821.9.5.5,0,0,0,.848-.249A2.8,2.8,0,0,0,8.816,71a12.582,12.582,0,0,0-.053-2.961,1.234,1.234,0,0,0-1.051-1.129c-.313-.059-.267-.176-.115-.355a1.178,1.178,0,0,1,1-.5h3.7c.583.115.712.377.792.963l0,4.113c-.006.227.113.9.522,1.051.327.107.543-.155.739-.362a12.754,12.754,0,0,0,2.085-3.2c.251-.506.467-1.032.676-1.557a.793.793,0,0,1,.837-.573l3.564,0a1.88,1.88,0,0,1,.315.019c.6.1.765.361.58.947A8.9,8.9,0,0,1,21,69.914c-.594.822-1.23,1.616-1.819,2.444-.541.755-.5,1.136.174,1.792Zm0,0" fill="#2f90ff" fill-rule="evenodd"/>
  </g>
</svg>
