<svg id="floor" xmlns="http://www.w3.org/2000/svg" width="31" height="31" viewBox="0 0 31 31">
  <g id="Сгруппировать_4878" data-name="Сгруппировать 4878">
    <path id="Контур_43854" data-name="Контур 43854" d="M0,0V31H31V0ZM27.856,1.842,25.219,4.478,22.583,1.842Zm1.3,1.3v7.115l-8.8,8.8L16.8,15.5ZM23.917,5.781,5.781,23.917,2.223,20.36,20.36,2.223ZM18.137,1.842l-7.5,7.5L7.083,5.781l3.939-3.939Zm-16.295,0H8.417L1.842,8.417Zm0,9.18L5.781,7.083,9.338,10.64l-7.5,7.5Zm0,11.561,2.637,2.637L1.842,27.856V22.583Zm1.3,6.576L15.5,16.8l3.557,3.557-8.8,8.8Zm9.719,0L29.158,12.863v7.115l-9.18,9.18Zm9.719,0,2.637-2.637,2.637,2.637Zm6.576-1.3-2.637-2.637,2.637-2.637Z" fill="#00b870"/>
  </g>
</svg>
